<svg width="63" height="65" viewBox="0 0 63 65" fill="none" xmlns="http://www.w3.org/2000/svg">
<path d="M2.56519 44.8589C2.7349 44.9574 2.91113 45.056 3.08084 45.1607C3.96201 45.4625 4.84318 45.7643 5.72434 46.0599C9.02056 46.7558 12.7476 45.8074 15.5542 48.3387C18.0019 48.4742 20.4496 48.6097 23.5108 48.7821C27.0355 52.6438 28.6673 53.001 34.2154 50.9008C34.7832 50.6853 35.6579 51.1841 36.3954 51.3504C38.0142 53.7647 40.4553 54.473 43.3208 54.1897C45.4943 53.9741 47.4329 54.1343 48.6665 56.8812C46.4668 58.5256 44.2868 60.4595 41.7999 61.9377C38.2883 64.0317 34.3198 64.857 30.4818 62.8923C26.7614 60.9892 22.9234 60.3363 18.7852 60.4472C15.6913 60.5334 12.6953 59.8991 10.2738 58.0329C6.23999 54.9226 3.72703 50.7776 1.87331 46.2816C1.73624 45.9429 2.31716 45.3393 2.56519 44.8589Z" fill="#BC2D30"/>
<path d="M37.4135 10.3812C37.9618 10.4551 38.5623 10.7076 39.0453 10.5783C44.3127 9.13707 49.4757 10.0979 54.2536 11.9332C56.5381 12.814 58.6268 15.1544 59.7821 17.3162C61.4074 20.3464 62.0797 23.8262 63 26.6162C60.9505 27.7679 59.5471 28.5563 58.1503 29.3446C57.4976 29.0613 56.747 28.8888 56.2052 28.4823C54.1818 26.9611 51.7798 26.2158 49.4757 27.1151C47.0737 28.0512 45.1613 27.8603 43.177 26.5361C40.4291 24.7131 37.4331 24.2943 34.15 24.9409C33.1056 25.1442 31.9242 24.8978 30.8407 24.7007C28.9087 24.3558 26.9962 23.9309 25.0903 23.469C24.1373 23.2349 23.2105 22.8777 22.3032 22.5082C21.7027 22.268 21.1544 21.9107 20.5865 21.609C19.7902 21.1593 18.9939 20.7097 18.1976 20.2601L18.178 20.2478C17.8451 20.1246 17.5122 19.9953 17.1794 19.8721C16.2395 19.8906 15.169 19.6381 14.3923 19.9768C12.5712 20.7775 11.5203 20.1924 10.2802 18.9175C8.27633 16.8542 5.672 15.9304 2.62381 16.4231C2.31051 16.38 1.99067 16.343 1.67737 16.2999C3.33527 10.9293 7.10144 7.33866 12.4929 5.13375C16.6441 4.2715 20.704 4.35157 24.6269 6.08223C22.3162 6.267 19.9795 6.34707 17.6885 6.66733C15.5345 6.96912 13.2435 7.197 11.3506 8.09005C9.75146 8.8476 8.55047 10.4489 7.38211 11.8285C7.04922 12.2289 7.21893 13.6454 7.54528 13.7748C9.06611 14.403 10.7632 15.2098 12.3101 15.0743C14.5098 14.8834 16.2656 14.9942 18.0801 16.343C20.704 18.3016 23.5238 19.983 27.1986 18.4494C29.7833 17.3716 30.0509 16.6017 29.0718 14.1566C28.2103 12.0133 27.7599 9.72217 27.1333 7.49879C28.863 8.25634 30.5992 9.00773 32.3289 9.75913C32.8968 10.3627 33.4581 10.9663 34.1304 11.6869C33.3537 11.8963 32.6161 12.0872 31.7676 12.3151C34.1826 14.6493 36.1212 14.9573 38.125 13.8056C37.8574 12.5615 37.6355 11.4713 37.4135 10.3812ZM37.5506 15.3453C37.4462 15.2036 37.3483 15.0681 37.2438 14.9265C36.1864 15.5362 34.4894 15.9858 34.2479 16.805C33.9737 17.7411 34.6852 19.3117 35.5207 20.0754C38.0271 22.3727 40.9252 24.0294 44.737 23.6845C47.126 23.469 49.3713 23.5921 51.5709 25.175C52.9873 26.1974 55.3175 26.3452 57.2561 26.4191C58.6268 26.4745 59.7103 25.6 59.7952 23.9432C59.9779 20.4264 58.6986 17.4455 56.2836 14.8587C54.7236 13.1835 50.7224 12.4937 49.3191 13.8425C47.4066 15.6779 45.1548 15.992 42.681 15.8319C40.9708 15.7272 39.2607 15.5116 37.5506 15.3453Z" fill="#BC2D30"/>
<path d="M37.4134 10.381C37.6353 11.4712 37.8637 12.5613 38.1183 13.8177C36.1145 14.9695 34.1759 14.6615 31.7609 12.3273C32.6159 12.0994 33.347 11.9085 34.1237 11.6991C33.4514 10.9785 32.8901 10.3749 32.3222 9.77131C33.6146 10.2148 35.0244 10.8861 35.0244 8.63806L35.0571 8.42866C36.839 5.226 39.5086 2.81169 42.6939 0.853148C43.9014 0.551359 45.1024 0.0832796 46.3295 0.00321324C47.0931 -0.0460584 47.9025 0.483611 48.6923 0.748446C48.1767 1.35818 47.772 2.36825 47.1388 2.52222C42.4589 3.64315 39.2801 6.27303 37.4134 10.381Z" fill="#82361E"/>
<path d="M18.2108 28.5128C18.2434 27.8599 18.276 27.2071 18.3087 26.5604C18.7656 25.421 19.2029 24.2693 19.6989 23.1422C19.9339 22.6125 20.2733 22.1259 20.5671 21.6147C21.1349 21.9165 21.6832 22.2738 22.2837 22.514C23.191 22.8835 24.1178 23.2407 25.0708 23.4747C26.9702 23.9367 28.8892 24.3616 30.8212 24.7065C31.9047 24.8975 33.0861 25.15 34.1305 24.9467C37.4136 24.3001 40.4096 24.7189 43.1575 26.5419C41.9565 30.3789 40.514 34.1729 41.0819 38.2994C41.1602 38.8783 40.9514 39.7097 40.5336 40.0978C37.7792 42.6476 37.9554 45.8564 37.864 49.0898C37.8444 49.8597 36.9111 50.5988 36.4019 51.3563C35.6709 51.19 34.7897 50.6912 34.2219 50.9067C28.6673 53.0069 27.042 52.6497 23.5173 48.788C20.4561 48.6156 18.0084 48.4801 15.5607 48.3446C15.2278 47.8888 14.895 47.4269 14.5621 46.9711C14.6012 46.9096 14.6404 46.848 14.6796 46.7864C14.6404 46.848 14.6012 46.9157 14.5686 46.9773C14.549 46.2629 14.2814 45.4437 14.5555 44.8525C15.626 42.6045 16.8662 40.4365 18.1585 38.0284C18.8374 38.0776 19.8164 38.1454 20.7955 38.2131C19.823 40.3996 18.8569 42.5921 17.7539 45.068C22.4469 42.2349 24.7314 33.286 21.8268 28.365C21.8268 30.0833 21.8268 31.2412 21.8268 32.4052C21.2198 32.2759 20.6128 32.1466 20.0123 32.0172C19.8882 32.0419 19.8034 32.0049 19.7446 31.9002C19.2355 30.7731 18.7264 29.646 18.2108 28.5128ZM38.5167 35.9836C38.21 35.922 37.8967 35.8542 37.5899 35.7927C34.7636 37.7081 34.6135 38.6504 37.4071 41.1694C37.8379 39.1739 38.1773 37.5788 38.5167 35.9836ZM32.1528 41.8161C29.6985 44.4213 29.4832 47.4023 31.5066 49.6441C31.722 47.0451 31.9243 44.5384 32.1528 41.8161ZM34.137 28.3342C31.6893 31.7647 31.6306 33.366 33.5887 35.1275C33.778 32.7809 33.9543 30.5575 34.137 28.3342ZM17.3035 46.2998C17.3687 46.1643 17.4275 46.0227 17.4928 45.8872C17.3492 45.8317 17.1664 45.6963 17.0685 45.7332C16.9575 45.7763 16.9314 45.9857 16.8662 46.1212C17.0098 46.1828 17.1534 46.2382 17.3035 46.2998Z" fill="#F1CB70"/>
<path d="M18.2106 28.5132C18.7263 29.6403 19.2354 30.7674 19.751 31.8944C17.7537 33.2309 17.2446 34.8815 18.426 37.0803C20.469 35.6699 20.5212 33.9146 20.0187 32.0115C20.6257 32.1408 21.2327 32.2701 21.8332 32.3995C21.4873 34.3334 21.1413 36.2673 20.7954 38.2012C19.8163 38.1335 18.8372 38.0657 18.1584 38.0164C16.866 40.4246 15.6194 42.5987 14.5554 44.8406C14.2748 45.4318 14.5489 46.251 14.5685 46.9654L14.562 46.9592C14.8948 47.415 15.2277 47.8769 15.5606 48.3327C12.7539 45.8014 9.02693 46.7498 5.73071 46.0539C6.41606 46.0292 7.10795 45.98 7.7933 45.9738C13.2435 45.943 16.4157 41.7919 14.699 36.9017C13.4654 33.3849 14.3857 31.18 18.2106 28.5132Z" fill="#E4CC97"/>
<path d="M37.5507 15.3453C39.2608 15.5115 40.9709 15.7271 42.6811 15.838C45.1549 15.9919 47.4067 15.684 49.3192 13.8486C50.7225 12.4998 54.7237 13.1896 56.2837 14.8649C58.6987 17.4516 59.978 20.4326 59.7953 23.9493C59.7104 25.6061 58.6269 26.4806 57.2562 26.4252C55.3176 26.3513 52.9874 26.2035 51.571 25.1811C49.3714 23.5983 47.1261 23.4751 44.7371 23.6906C40.9187 24.0355 38.0272 22.3726 35.5208 20.0815C34.6853 19.3178 33.9738 17.7472 34.248 16.8111C34.4895 15.9919 36.1865 15.5423 37.2439 14.9326C37.3484 15.0681 37.4463 15.2036 37.5507 15.3453Z" fill="#DD4D54"/>
<path d="M24.6201 6.08826C24.7376 6.02051 24.8421 6.03899 24.9269 6.14369C25.2924 6.29767 25.6645 6.45164 26.03 6.59946L26.0039 6.58098C26.3629 6.91356 26.7284 7.23999 27.0874 7.57257L27.12 7.51098C27.7532 9.73436 28.197 12.0255 29.0586 14.1688C30.0442 16.6139 29.7701 17.3838 27.1853 18.4616C23.517 19.989 20.6973 18.3076 18.0669 16.3552C16.2523 15.0064 14.4965 14.8894 12.2969 15.0865C10.7499 15.222 9.04634 14.4152 7.53204 13.787C7.20568 13.6515 7.03598 12.2349 7.36886 11.8407C8.53722 10.455 9.73822 8.85979 11.3374 8.10224C13.2237 7.20303 15.5213 6.98131 17.6752 6.67952C19.9728 6.34694 22.303 6.27303 24.6201 6.08826Z" fill="#DD4D54"/>
<path d="M20.5733 21.6149C20.2796 22.12 19.9337 22.6127 19.7052 23.1423C19.2092 24.2694 18.7718 25.4212 18.3149 26.5606C18.2758 24.4604 18.2301 22.3663 18.1909 20.2661C18.9807 20.7157 19.777 21.1653 20.5733 21.6149Z" fill="#E4CC97"/>
<path d="M27.094 7.57265C26.735 7.24006 26.3695 6.91364 26.0105 6.58105C26.3695 6.91364 26.7285 7.24622 27.094 7.57265Z" fill="#BC2D30"/>
<path d="M26.0302 6.59932C25.6647 6.44534 25.2926 6.29137 24.9271 6.14355C25.2926 6.29753 25.6647 6.44534 26.0302 6.59932Z" fill="#BC2D30"/>
<path d="M20.8018 38.2009C21.1478 36.267 21.4937 34.3331 21.8397 32.3992C21.8397 31.2351 21.8397 30.0772 21.8397 28.3589C24.7377 33.2737 22.4532 42.2288 17.7667 45.062C18.8568 42.5799 19.8293 40.3935 20.8018 38.2009Z" fill="#DCAA52"/>
<path d="M38.5167 35.9839C38.1773 37.5791 37.8379 39.1742 37.4071 41.1697C34.6135 38.6507 34.7636 37.7084 37.5898 35.793C37.9031 35.8607 38.2099 35.9223 38.5167 35.9839Z" fill="#82361E"/>
<path d="M32.1526 41.8164C31.9307 44.5387 31.7218 47.0454 31.5064 49.6444C29.483 47.4026 29.6984 44.4216 32.1526 41.8164Z" fill="#DCAA52"/>
<path d="M20.0187 32.0111C20.5148 33.9142 20.4691 35.6633 18.4261 37.0799C17.2447 34.8811 17.7538 33.2305 19.7511 31.894C19.8099 31.9987 19.9012 32.0419 20.0187 32.0111Z" fill="#82361E"/>
<path d="M34.1369 28.3345C33.9607 30.5579 33.7779 32.7812 33.5886 35.1278C31.624 33.3663 31.6827 31.765 34.1369 28.3345Z" fill="#DCAA52"/>
</svg>
