<svg width="66" height="69" viewBox="0 0 66 69" fill="none" xmlns="http://www.w3.org/2000/svg">
<path d="M15.3853 61.2071C14.7449 61.0286 14.1045 60.8429 13.4641 60.6643C10.1101 59.65 6.76407 58.6 3.38603 57.6357C1.88111 57.2071 0.800459 56.6571 1.70501 55.0857C3.65819 51.7 5.3152 48.1286 7.70865 45.0071C11.655 39.8571 17.7387 37.2143 24.2227 35.25C24.6629 35.25 25.0952 35.25 25.5355 35.25C25.9517 35.2714 26.368 35.2857 26.7842 35.3071C27.6808 35.3214 28.5773 35.3286 29.4738 35.3429C30.0902 35.6571 30.7066 35.9786 31.331 36.2929C30.8827 37.2786 30.4344 38.2714 29.9861 39.2571C27.4886 39.0429 24.9911 38.8357 22.4936 38.6214C22.4696 38.7857 22.4376 38.95 22.4136 39.1214C24.783 39.7571 27.1444 40.4 29.5139 41.0357C29.1937 41.8143 28.9775 42.6357 28.5453 43.3571C26.7282 46.3286 24.839 49.2714 22.9819 52.2286C21.8452 52.1 20.7085 51.9643 20.2683 51.9143C20.3563 53.3071 20.4284 54.4643 20.5084 55.6214C20.0841 55.8071 19.6519 55.9857 19.2276 56.1714C15.4653 54.4929 11.7271 52.7214 7.11629 53.5929C11.0547 55.0143 14.825 56.3786 18.5872 57.7429C18.3551 58.9429 18.123 60.15 17.8988 61.35C17.0423 61.2929 16.2098 61.25 15.3853 61.2071ZM9.70986 45.1643C12.9358 45.9857 16.1618 46.8071 19.3877 47.6214C16.7301 44.6714 13.224 44.7643 9.70986 45.1643Z" fill="#E9B370"/>
<path d="M24.2147 35.243C24.8391 28.6716 25.4715 22.1002 26.0959 15.5288C26.1279 15.1716 26.1679 14.8073 26.2079 14.4502C26.4881 11.7288 26.8243 9.00732 27.0244 6.27875C27.1445 4.61447 26.2239 2.62161 29.0817 2.00732C29.1537 2.57161 29.2258 3.1359 29.2978 3.70018C28.8415 7.95018 28.3532 12.2002 27.921 16.4573C27.3446 22.1788 26.8083 27.9002 26.248 33.6216C26.0078 34.1645 25.7677 34.7145 25.5275 35.2573C25.0953 35.2502 24.655 35.243 24.2147 35.243Z" fill="#E4CC97"/>
<path d="M42.6578 39.7927C48.9897 45.1213 52.1836 51.7999 51.5672 59.3642C50.7347 69.5785 51.5352 67.7927 41.5291 66.3356C41.321 66.307 41.1209 66.2356 40.9208 66.1785C41.1129 63.9642 41.305 61.757 41.4971 59.5427C42.2096 59.4713 42.922 59.3999 44.1707 59.2785C42.922 58.4213 42.1455 57.8999 41.3771 57.3713C41.6012 56.5999 41.8173 55.8356 42.0415 55.0642C42.0655 53.157 42.0895 51.2499 42.1135 49.3427C42.5217 49.3427 42.938 49.3427 43.4743 49.3427C40.6086 46.8356 36.8223 45.8927 30.5945 46.2785C33.8125 47.0713 36.39 47.6999 38.9596 48.3356C38.5353 50.5713 38.1191 52.807 37.6948 55.0427C35.9338 55.3499 34.1647 55.657 32.4036 55.957C32.3876 56.257 32.3636 56.5642 32.3476 56.8642C33.5083 57.1713 34.661 57.4785 35.8217 57.7856C36.406 58.9142 36.9904 60.0356 37.7589 61.507C36.7823 62.2213 35.4054 64.007 34.3248 63.8713C30.8987 63.4499 27.5847 62.3142 23.9745 61.3927C24.6229 60.357 25.1912 59.757 25.3834 59.0713C25.8396 57.4785 25.0632 57.1999 23.5663 57.9499C23.166 57.9213 22.7658 57.8856 22.3575 57.857C22.1814 57.8356 21.9973 57.8285 21.8132 57.8356C21.565 57.6642 21.3249 57.4856 21.0767 57.3142C20.4524 56.9285 19.828 56.5427 19.2036 56.157C19.6279 55.9713 20.0601 55.7927 20.4844 55.607C21.3249 55.7927 22.1734 55.9785 23.0139 56.1642C23.102 56.207 23.19 56.2499 23.2781 56.2927C23.19 56.2499 23.11 56.207 23.0219 56.157C23.0059 54.8427 22.9819 53.5285 22.9659 52.2142C24.831 49.2642 26.7122 46.3213 28.5293 43.3427C28.9695 42.6285 29.1857 41.7999 29.4979 41.0213C30.3063 41.1642 31.1148 41.307 31.9233 41.4499C32.3956 41.4499 32.8759 41.4499 33.3482 41.4499C33.3562 41.3285 33.3722 41.207 33.3802 41.0785C32.9079 41.007 32.4436 40.9427 31.9714 40.8713C31.3069 40.3285 30.6425 39.7856 29.9781 39.2427C30.4264 38.257 30.8747 37.2642 31.323 36.2785C31.9393 36.257 32.5477 36.2285 33.1641 36.207C35.9177 37.0642 38.6634 37.9142 41.4171 38.7713C41.8333 39.1142 42.2416 39.457 42.6578 39.7927Z" fill="#E6942A"/>
<path d="M26.2479 33.607C26.8003 27.8855 27.3366 22.1641 27.9209 16.4427C28.3532 12.1855 28.8335 7.94269 29.2978 3.68555C29.754 4.38555 30.5225 5.05698 30.6186 5.79983C31.1549 9.97126 31.5231 14.157 31.9554 18.3427C31.7473 19.0284 31.379 19.7141 31.363 20.407C31.267 24.8284 31.243 29.257 31.1949 33.6784C30.6186 34.2284 30.0502 34.7784 29.4739 35.3355C28.5773 35.3213 27.6808 35.3141 26.7842 35.2998C26.6001 34.7427 26.424 34.1713 26.2479 33.607Z" fill="#8DB726"/>
<path d="M41.4972 59.5356C41.3051 61.7499 41.113 63.957 40.9208 66.1713C35.5816 65.1284 30.2344 64.0856 24.8951 63.0427C24.703 63.0285 24.5029 63.0142 24.3108 62.9927C23.046 62.7213 21.7812 62.4499 20.5245 62.1785C19.796 61.9142 19.0596 61.6499 18.3312 61.3856C18.1711 61.407 18.019 61.3856 17.8749 61.3213C18.107 60.1213 18.3392 58.9213 18.5633 57.7142C19.3798 57.7213 20.1963 57.7356 21.0048 57.7427C21.2769 57.7713 21.5411 57.7999 21.8133 57.8213C21.9974 57.8142 22.1735 57.8213 22.3576 57.8427C22.7578 57.8713 23.1581 57.907 23.5663 57.9356C25.0632 57.1785 25.8397 57.4642 25.3834 59.057C25.1913 59.7427 24.623 60.3427 23.9746 61.3785C27.5768 62.2999 30.8988 63.4356 34.3249 63.857C35.4055 63.9927 36.7823 62.207 37.7589 61.4927C36.9985 60.0284 36.4141 58.8999 35.8218 57.7713L35.8938 57.6927C37.7509 58.3142 39.6241 58.9284 41.4972 59.5356Z" fill="#DCAA52"/>
<path d="M29.4739 35.3358C30.0502 34.7858 30.6186 34.2358 31.1949 33.6787C32.5477 32.7572 33.9006 31.8429 35.2534 30.9215C36.5262 29.7929 37.7989 28.6572 39.0797 27.5287C39.6801 26.9787 40.2804 26.4287 40.8808 25.8787C41.0969 25.4501 41.3131 25.0215 41.5292 24.5929L41.5132 24.6215C42.5778 23.3072 43.6505 21.9929 44.7151 20.6787C44.8912 20.6501 45.0673 20.6429 45.2434 20.6429C46.0679 20.1144 46.9165 19.6144 47.7169 19.0572C48.5895 18.4501 49.414 17.7929 50.2625 17.1572C49.1898 18.7001 48.3093 20.3787 47.0205 21.7644C42.4738 26.6358 37.7989 31.4072 33.1641 36.2144C32.5477 36.2358 31.9394 36.2644 31.323 36.2858C30.7066 35.9715 30.0903 35.6501 29.4739 35.3358Z" fill="#9ADA61"/>
<path d="M21.0047 57.7572C20.1882 57.75 19.3797 57.7358 18.5632 57.7286C14.793 56.3643 11.0227 55.0001 7.09229 53.5786C11.7031 52.7143 15.4413 54.4786 19.2036 56.1572C19.828 56.5429 20.4524 56.9286 21.0768 57.3143C21.0688 57.4643 21.0447 57.6072 21.0047 57.7572Z" fill="#E4CC97"/>
<path d="M9.70984 45.1643C13.224 44.7643 16.7301 44.6714 19.3877 47.6214C16.1537 46.8071 12.9358 45.9857 9.70984 45.1643Z" fill="#F5BC77"/>
<path d="M22.9659 52.2142C22.9819 53.5285 23.0059 54.8428 23.0219 56.157L23.0139 56.1642C22.1734 55.9785 21.3249 55.7928 20.4844 55.607C20.4124 54.4499 20.3403 53.2928 20.2443 51.8999C20.6845 51.9499 21.8292 52.0785 22.9659 52.2142Z" fill="#DCAA52"/>
<path d="M29.9782 39.2498C30.6426 39.7926 31.307 40.3355 31.9714 40.8784C31.9554 41.0712 31.9394 41.2641 31.9234 41.4498C31.1149 41.3069 30.3064 41.1641 29.4979 41.0212C27.1284 40.3855 24.767 39.7426 22.3976 39.1069C22.4216 38.9426 22.4536 38.7784 22.4776 38.6069C24.9832 38.8284 27.4807 39.0355 29.9782 39.2498Z" fill="#F5BC77"/>
<path d="M26.248 33.6069C26.4241 34.1712 26.6002 34.7355 26.7843 35.2998C26.368 35.2784 25.9518 35.2641 25.5355 35.2426C25.7677 34.6998 26.0078 34.1569 26.248 33.6069Z" fill="#9ADA61"/>
<path d="M33.1641 36.2145C37.7909 31.4073 42.4737 26.6359 47.0205 21.7645C48.3092 20.3788 49.1898 18.7002 50.2624 17.1573C50.5266 16.8002 50.7907 16.443 51.0469 16.093C52.7759 14.043 54.505 11.993 56.234 9.94304C56.242 9.76447 56.2661 9.5859 56.2901 9.41447C56.8904 9.27875 57.4988 9.14304 58.0992 9.00732C58.9877 9.22161 59.8763 9.4359 61.3571 9.79304C52.6879 18.5216 45.9078 28.0502 41.4171 38.7788C38.6714 37.9216 35.9177 37.0716 33.1641 36.2145Z" fill="#8DB726"/>
<path d="M41.4171 38.7785C45.8998 28.05 52.6799 18.5214 61.3732 9.79283C59.8923 9.43569 59.0038 9.2214 58.1152 9.00711C59.9403 8.87854 61.7654 8.74997 63.5906 8.61426C63.7747 8.96426 63.9588 9.3214 64.1429 9.6714C54.2409 18.2357 47.5088 28.5071 42.6579 39.7928C42.2416 39.4571 41.8334 39.1143 41.4171 38.7785Z" fill="#97AD36"/>
<path d="M31.9474 18.3426C31.5231 14.1641 31.1469 9.97121 30.6105 5.79978C30.5145 5.06406 29.746 4.39264 29.2897 3.68549C29.2177 3.12121 29.1457 2.55692 29.0736 1.99264C31.6992 0.921207 32.3956 2.62121 32.5717 4.21406C33.1241 9.11406 33.4282 14.0355 33.8365 18.9498C33.7164 18.9641 33.6044 18.9926 33.4923 19.0355C32.98 18.8069 32.4597 18.5784 31.9474 18.3426Z" fill="#97AD36"/>
<path d="M33.8365 18.9569C34.5089 18.3426 35.4375 17.8212 35.7977 17.0855C37.3587 13.9069 38.6955 10.6426 40.2324 7.44979C40.6086 6.66408 41.4251 6.04979 42.0335 5.35693C42.0895 5.57836 42.1456 5.80693 42.2016 6.02836C40.7047 9.9855 39.3519 13.9855 37.6708 17.8784C36.6702 20.1926 35.1413 22.3355 33.8525 24.5569C33.7325 22.7212 33.6124 20.8784 33.4923 19.0426C33.6044 18.9998 33.7164 18.9712 33.8365 18.9569Z" fill="#9ADA61"/>
<path d="M51.0549 16.093C50.7908 16.4501 50.5346 16.8073 50.2705 17.1573C49.4219 17.793 48.5974 18.4501 47.7169 19.0573C46.9164 19.6144 46.0679 20.1144 45.2434 20.643C45.3074 19.9144 45.3715 19.1787 45.4355 18.4501L45.4115 18.4358C45.6196 18.0501 45.8278 17.6644 46.0279 17.2787L46.0039 17.3073C46.252 16.943 46.5002 16.5716 46.7563 16.2073L46.7963 16.2287C48.4854 14.3144 50.1744 12.4001 51.8634 10.4858C52.6879 10.5001 53.5044 10.5144 54.3289 10.5287C53.2403 12.393 52.1436 14.243 51.0549 16.093Z" fill="#E0F6CD"/>
<path d="M43.7865 11.5859C44.491 11.1716 45.1634 10.7002 45.9078 10.3645C46.7243 9.99305 47.6129 9.7502 48.4694 9.4502C48.4854 9.80734 48.4934 10.1645 48.5094 10.5216C47.9331 11.1502 47.3247 11.7573 46.7884 12.4073C45.1554 14.3859 43.5544 16.3859 41.9454 18.3788C42.0495 17.0573 42.1536 15.7431 42.2576 14.4216C42.4497 13.6716 42.6339 12.9216 42.826 12.1716C42.882 12.0431 42.922 11.9073 42.954 11.7788C43.2342 11.7145 43.5064 11.6502 43.7865 11.5859Z" fill="#9ADA61"/>
<path d="M43.7866 11.5857C43.5064 11.65 43.2342 11.7143 42.9541 11.7857C43.0661 10.7857 43.3703 9.77144 43.2502 8.79287C43.1302 7.85001 42.5778 6.95716 42.2096 6.03573C42.1536 5.8143 42.0975 5.58573 42.0415 5.3643C43.0101 5.30716 43.9787 5.25001 44.9473 5.19287C44.9713 5.99287 45.1474 6.82144 44.9873 7.58573C44.6911 8.93573 44.1948 10.2572 43.7866 11.5857Z" fill="#97AD36"/>
<path d="M48.5094 10.5285C48.4934 10.1713 48.4854 9.81417 48.4694 9.45703C49.5981 9.80703 50.7348 10.157 51.8635 10.507C50.1744 12.4213 48.4854 14.3356 46.7964 16.2427C47.2527 15.2427 47.821 14.2713 48.1412 13.2356C48.4134 12.3642 48.3974 11.4285 48.5094 10.5285Z" fill="#97AD36"/>
<path d="M51.0549 16.0927C52.1436 14.2427 53.2403 12.3927 54.3289 10.5427C54.7372 10.2784 55.1534 10.007 55.5617 9.74268C55.7858 9.8141 56.0179 9.87839 56.2421 9.94268C54.513 11.9998 52.784 14.0498 51.0549 16.0927Z" fill="#9ADA61"/>
<path d="M24.3027 63C24.4949 63.0143 24.695 63.0286 24.8871 63.05L24.5909 63.0571L24.3027 63Z" fill="#E9B370"/>
<path d="M56.2421 9.94996C56.0099 9.88567 55.7858 9.81424 55.5616 9.74996C55.8098 9.64282 56.0579 9.52853 56.3061 9.42139C56.2741 9.59282 56.2501 9.77139 56.2421 9.94996Z" fill="#E0F6CD"/>
<path d="M42.0975 49.3429C42.0735 51.25 42.0495 53.1572 42.0255 55.0643C40.5766 55.0572 39.1277 55.05 37.6788 55.0358C38.1031 52.8 38.5193 50.5643 38.9436 48.3286C40.0002 48.6643 41.0489 49 42.0975 49.3429Z" fill="#F6B037"/>
<path d="M37.6868 55.0356C39.1357 55.0428 40.5845 55.0499 42.0334 55.0642C41.8093 55.8356 41.5932 56.5999 41.369 57.3714C39.728 57.1571 38.095 56.9071 36.446 56.7642C36.2939 56.7499 36.0698 57.3785 35.8777 57.7071L35.8056 57.7856C34.6449 57.4785 33.4922 57.1714 32.3315 56.8642C32.3476 56.5642 32.3716 56.2571 32.3876 55.9571C34.1566 55.6499 35.9257 55.3428 37.6868 55.0356Z" fill="#DCAA52"/>
<path d="M42.0975 49.3427C41.0489 49.007 40.0003 48.6713 38.9516 48.3284C36.3741 47.6998 33.8045 47.0641 30.5865 46.2713C36.8143 45.8856 40.6006 46.8284 43.4664 49.3356C42.922 49.3427 42.5138 49.3427 42.0975 49.3427Z" fill="#E9B370"/>
<path d="M35.8777 57.7073C36.0698 57.3787 36.2939 56.7501 36.446 56.7644C38.095 56.9073 39.728 57.1501 41.369 57.3715C42.1375 57.9001 42.9139 58.4215 44.1627 59.2787C42.9139 59.4001 42.2015 59.4715 41.4891 59.543C39.624 58.9287 37.7508 58.3144 35.8777 57.7073Z" fill="#F5BC77"/>
<path d="M31.9233 41.4498C31.9393 41.257 31.9554 41.0641 31.9714 40.8784C32.4437 40.9498 32.9079 41.0141 33.3802 41.0856C33.3722 41.207 33.3562 41.3284 33.3482 41.457C32.8759 41.4498 32.3956 41.4498 31.9233 41.4498Z" fill="#E9B370"/>
<path d="M23.5582 57.9498C23.158 57.9212 22.7577 57.8855 22.3495 57.8569C22.7577 57.8926 23.158 57.9212 23.5582 57.9498Z" fill="#E9B370"/>
<path d="M23.022 56.1572C23.11 56.2001 23.1901 56.2429 23.2781 56.2929C23.1901 56.2429 23.102 56.2001 23.022 56.1572Z" fill="#DCAA52"/>
<path d="M21.0048 57.7573C21.0448 57.6145 21.0688 57.4645 21.0768 57.3145C21.325 57.4859 21.5651 57.6645 21.8133 57.8359C21.5411 57.8073 21.2689 57.7859 21.0048 57.7573Z" fill="#E9B370"/>
<path d="M33.5003 19.0428C33.6204 20.8785 33.7404 22.7213 33.8605 24.5571C33.8525 25.7499 33.6764 26.9713 33.8845 28.1285C34.0526 29.0499 34.693 29.9071 35.1173 30.7928L35.2453 30.9213C33.8925 31.8428 32.5397 32.7571 31.1869 33.6785C31.2349 29.2571 31.2509 24.8285 31.355 20.4071C31.371 19.7142 31.7392 19.0285 31.9474 18.3428C32.4597 18.5785 32.98 18.8071 33.5003 19.0428Z" fill="#76950E"/>
<path d="M42.2576 14.4285C42.1535 15.7499 42.0494 17.0642 41.9534 18.3785C40.9928 21.4285 40.0402 24.4785 39.0796 27.5285C37.8069 28.657 36.5261 29.7856 35.2533 30.9213L35.1252 30.7928C37.2545 25.3285 39.3758 19.8642 41.5051 14.3999C41.7533 14.4142 42.0014 14.4213 42.2576 14.4285Z" fill="#76950E"/>
<path d="M39.0717 27.5286C40.0322 24.4786 40.9848 21.4286 41.9454 18.3786C43.5544 16.3858 45.1633 14.3929 46.7883 12.4072C47.3247 11.7572 47.933 11.1501 48.5094 10.5215C48.3973 11.4286 48.4053 12.3643 48.1412 13.2286C47.821 14.2643 47.2526 15.2358 46.7963 16.2358C46.7963 16.2358 46.7563 16.2143 46.7483 16.2143C46.5002 16.5786 46.252 16.9501 46.0039 17.3143C46.0039 17.3143 46.0279 17.2858 46.0199 17.2858C45.8117 17.6715 45.6036 18.0572 45.4035 18.4429L45.4275 18.4572C44.9632 18.9929 44.4989 19.5358 44.0347 20.0715C43.1942 21.5858 42.3456 23.1072 41.5051 24.6215L41.5211 24.5929C41.305 25.0215 41.0889 25.4501 40.8727 25.8786C40.2724 26.4286 39.672 26.9786 39.0717 27.5286Z" fill="#8DB726"/>
<path d="M41.5132 24.6213C42.3537 23.107 43.2022 21.5856 44.0427 20.0713C44.2669 20.2713 44.491 20.4784 44.7071 20.6784C43.6425 21.9927 42.5778 23.307 41.5132 24.6213Z" fill="#76950E"/>
<path d="M44.7071 20.6858C44.483 20.4858 44.2589 20.2786 44.0427 20.0786C44.507 19.5358 44.9713 19.0001 45.4356 18.4644C45.3715 19.1929 45.3075 19.9286 45.2435 20.6572C45.0673 20.6429 44.8832 20.6572 44.7071 20.6858Z" fill="#97AD36"/>
<path d="M41.5052 14.4002C39.3759 19.8645 37.2546 25.3288 35.1253 30.7931C34.6931 29.9074 34.0527 29.0502 33.8926 28.1288C33.6844 26.9645 33.8606 25.7502 33.8686 24.5574C35.1573 22.336 36.6783 20.1931 37.6869 17.8788C39.3679 13.986 40.7207 9.98595 42.2176 6.02881C42.5858 6.94309 43.1382 7.84309 43.2583 8.78595C43.3783 9.76452 43.0821 10.7788 42.9621 11.7788C42.9301 11.9145 42.89 12.0431 42.834 12.1788C42.3857 12.9217 41.9455 13.6645 41.5052 14.4002Z" fill="#8DB726"/>
<path d="M46.0039 17.3212C46.2521 16.9569 46.5002 16.5855 46.7484 16.2212C46.5082 16.5855 46.2521 16.9498 46.0039 17.3212Z" fill="#97AD36"/>
<path d="M41.5051 14.4C41.9454 13.6571 42.3857 12.9142 42.8259 12.1714C42.6338 12.9214 42.4497 13.6714 42.2576 14.4214C42.0014 14.4214 41.7533 14.4142 41.5051 14.4Z" fill="#97AD36"/>
</svg>
