<svg width="74" height="45" viewBox="0 0 74 45" fill="none" xmlns="http://www.w3.org/2000/svg">
<g clip-path="url(#clip0_7_1133)">
<path d="M72.9507 7.47852C75.0418 18.2099 74.3194 28.5144 67.879 37.2224C60.7695 46.8354 47.9115 47.5354 39.4028 39.297C39.9275 38.4005 40.4522 37.5041 40.8323 36.8468C42.2238 37.2907 43.3796 38.1273 44.2997 37.8712C51.6525 35.8735 58.648 32.8684 61.796 24.3311C62.7997 21.6163 64.7386 17.9964 61.5602 15.034C64.1531 13.9327 66.746 12.8229 69.3313 11.7215C69.8104 10.919 70.297 10.108 70.776 9.30549C71.4984 8.69935 72.2284 8.0932 72.9507 7.47852Z" fill="#AE7E51"/>
<path d="M1.66493 27.8911C-1.74917 19.9173 0.25823 8.66512 6.15116 3.28663C6.89633 2.60365 8.09773 2.55243 9.09382 2.21094C10.1431 3.94401 11.1925 5.67707 12.2494 7.41014C12.622 13.4375 14.1275 18.7647 19.0092 22.2394C22.6438 24.8262 25.3659 29.4192 30.4757 28.7021C30.5745 29.2058 30.681 29.7181 30.7798 30.2218C29.586 30.6486 28.3846 31.0755 27.1908 31.5023C18.1803 34.7209 9.436 35.6088 1.66493 27.8911Z" fill="#B98D60"/>
<path d="M69.3312 11.7216C66.7383 12.8229 64.1454 13.9327 61.5602 15.034C59.279 16.8269 56.5873 18.2185 54.8004 20.4894C51.4699 24.7239 48.398 28.9327 42.6267 27.8229C40.5433 23.8189 38.4599 19.8064 36.384 15.8024C38.4751 14.1547 40.5661 12.5241 42.6419 10.8508C44.0639 9.70678 45.539 8.63109 46.8316 7.31635C50.0632 4.03803 50.3218 4.02949 52.6789 8.40912C57.9179 6.2065 63.4155 2.86842 68.4872 10.4325C68.7533 8.30667 68.8978 7.17975 69.1563 5.12226C70.5706 5.99307 71.7644 6.73581 72.9582 7.47855C72.2283 8.0847 71.5059 8.69085 70.7835 9.29699C70.2893 10.108 69.8103 10.9191 69.3312 11.7216Z" fill="#D9C4A4"/>
<path d="M42.6192 27.8313C48.3905 28.9412 51.4624 24.7323 54.7929 20.4978C56.5798 18.2183 59.2715 16.8268 61.5526 15.0425C64.731 18.0049 62.7845 21.6247 61.7884 24.3396C58.648 32.8769 51.6525 35.882 44.2921 37.8797C43.372 38.1273 42.2162 37.2906 40.8247 36.8552C40.4445 37.5126 39.9199 38.409 39.3952 39.3054C38.7185 38.5968 38.0417 37.8797 37.3726 37.1711C35.6922 33.1671 34.0193 29.1631 32.3389 25.1592C32.3237 24.4335 32.3009 23.6993 32.2781 22.9736C35.7302 24.5872 39.1747 26.2092 42.6192 27.8313Z" fill="#B98D60"/>
<path d="M1.66528 27.8911C9.44395 35.6088 18.1883 34.7209 27.1912 31.5109C28.385 31.0841 29.5864 30.6572 30.7802 30.2303C32.415 33.1672 34.0422 36.0954 35.677 39.0323C31.4265 40.3043 27.2292 42.1911 22.9102 42.7118C13.4283 43.8388 4.82085 37.5212 1.66528 27.8911Z" fill="#AE7E51"/>
<path d="M30.4759 28.7025C25.3662 29.4196 22.644 24.8266 19.0094 22.2398C14.1278 18.7651 12.6222 13.4293 12.2496 7.4105C12.7591 5.66889 13.2685 3.92729 13.778 2.18568C16.4089 1.91249 17.9677 2.85159 17.4506 6.21528C17.3898 6.63361 17.2909 7.35928 17.443 7.44465C22.4767 10.4583 19.861 18.1589 24.3016 21.5141C26.3623 23.0764 28.3925 24.6814 30.4379 26.2694C30.4455 27.0719 30.4607 27.8829 30.4759 28.7025Z" fill="#D9C4A4"/>
<path d="M42.6191 27.8315C39.1746 26.2094 35.7301 24.5874 32.2856 22.9738C31.4796 19.0296 32.757 16.5794 36.3764 15.811C38.4599 19.815 40.5357 23.819 42.6191 27.8315Z" fill="#C8B496"/>
<path d="M30.4759 28.7024C30.4607 27.8914 30.4455 27.0803 30.4303 26.2693C31.069 25.9022 31.7001 25.5351 32.3388 25.168C34.0193 29.172 35.6921 33.1759 37.3726 37.1799C36.8023 37.8031 36.2396 38.4178 35.6693 39.041C34.0345 36.1042 32.3997 33.1759 30.7725 30.2391C30.6812 29.7098 30.5748 29.2061 30.4759 28.7024Z" fill="#E9E8BA"/>
<path d="M13.778 2.17704C13.2686 3.91864 12.7591 5.66025 12.2497 7.40185C11.2003 5.66879 10.151 3.93572 9.09408 2.20265L9.07888 2.3051C9.07127 1.98068 9.06367 1.6648 9.04846 1.34039C11.0711 -1.56229 12.3333 0.973282 13.778 2.17704Z" fill="#C8B496"/>
<path d="M9.04846 1.34033C9.05607 1.66475 9.06367 1.98063 9.07888 2.30504C9.07127 1.98917 9.06367 1.66475 9.04846 1.34033Z" fill="#B98D60"/>
<path d="M69.3313 11.7217C69.8103 10.9107 70.297 10.1082 70.776 9.30566C70.297 10.1167 69.8103 10.9192 69.3313 11.7217Z" fill="#B98D60"/>
</g>
<defs>
<clipPath id="clip0_7_1133">
<rect width="74" height="45" fill="white"/>
</clipPath>
</defs>
</svg>
