<svg width="70" height="87" viewBox="0 0 70 87" fill="none" xmlns="http://www.w3.org/2000/svg">
<g clip-path="url(#clip0_7_1480)">
<path d="M63.756 17.0598C64.0716 17.0816 64.3871 17.1034 64.7026 17.1253C64.9036 17.1793 65.1046 17.2333 65.3055 17.2873C65.436 17.6373 65.5665 17.9916 65.697 18.3416C65.5953 20.1563 65.562 21.9777 65.3604 23.7864C65.2972 24.3471 64.8408 25.3 64.4329 25.3519C62.5236 25.5872 62.6793 26.6556 62.6034 27.7002C61.7257 40.1083 60.8426 52.5124 59.9596 64.9206C59.6272 69.5748 59.3158 74.2285 58.936 78.8796C58.6906 81.9423 56.3467 83.7228 52.4738 83.749C41.9102 83.8232 31.346 83.8806 20.7804 83.8834C16.9488 83.8834 13.1173 83.6984 9.28301 83.6017C7.15369 82.3413 6.5296 80.6618 6.41777 78.5286C5.53824 61.8195 4.50672 45.1182 3.48569 28.4167C3.44857 27.8374 3.21178 27.061 2.70949 26.741C-0.854545 24.4724 1.22943 21.462 1.04936 18.7627C1.03291 18.5487 1.38897 18.1407 1.62431 18.1098C4.6474 17.7256 4.27399 15.6239 4.76063 14.0606C5.86941 10.523 6.85687 6.96302 7.77053 3.39223C8.12534 1.99613 8.87408 1.36417 10.7423 1.35271C25.5983 1.23796 40.4626 1.04312 55.3195 0.95779C56.495 0.950436 57.668 1.60748 58.8429 1.95754C60.0468 6.74281 61.2297 11.5286 62.4963 16.304C62.5785 16.6173 63.3187 16.8097 63.756 17.0598ZM5.26673 18.2909C4.32914 18.549 3.39142 18.8029 2.28191 19.1072C2.29651 20.9527 2.31427 22.9116 2.32655 24.8623C3.3355 24.9052 4.1132 24.9369 4.89101 24.9728C5.36647 33.5725 5.82606 42.1683 6.31725 50.7676C6.86902 60.4124 7.46274 70.0562 8.00402 79.7012C8.10814 81.5572 8.93676 82.8532 11.477 82.8466C25.5374 82.8099 39.6024 82.7521 53.6665 82.6607C56.028 82.6457 57.4271 81.6196 57.4616 79.651C57.4872 78.1199 57.3026 76.577 57.4229 75.052C57.9824 67.8065 58.6154 60.5634 59.2222 53.321C59.3123 52.0322 59.4024 50.7433 59.4926 49.4545C60.0714 41.2078 60.6554 32.9568 61.2343 24.7101C62.1437 24.5704 63.0477 24.4267 64.072 24.2674C64.0542 22.3042 64.0422 20.3662 64.0254 18.4409C62.9999 18.3689 62.148 18.3096 61.296 18.2503C59.9357 12.9348 58.5752 7.61507 57.1449 2.04898C41.5506 2.2278 26.1922 2.39673 10.8354 2.62447C10.2898 2.63344 9.3871 3.20184 9.26754 3.62099C7.94588 8.18552 6.74543 12.7681 5.51341 17.3473C5.46505 17.4957 5.42205 17.6481 5.37369 17.7964C5.34153 17.9612 5.29889 18.1262 5.26673 18.2909Z" fill="#E4F2E7"/>
<path d="M9.27769 83.6018C13.1121 83.7027 16.9382 83.8836 20.775 83.8835C31.3408 83.885 41.9048 83.8234 52.4685 83.7492C56.3414 83.7229 58.6853 81.9424 58.9307 78.8797C59.3052 74.2287 59.6219 69.5749 59.9543 64.9208C60.8373 52.5125 61.7204 40.1085 62.5981 27.7003C62.6741 26.66 62.5184 25.5915 64.4276 25.352C64.8355 25.3001 65.2919 24.3473 65.355 23.7865C65.5619 21.9777 65.5952 20.1563 65.6917 18.3418C67.2766 19.0898 67.5697 20.1927 67.2201 21.5845C66.965 22.604 67.1052 23.6812 66.8712 24.7044C66.7069 25.4021 66.4296 26.3759 65.8023 26.6559C63.9052 27.5174 63.8729 28.809 63.7976 30.253C63.5209 35.587 63.1758 40.9185 62.8308 46.2499C62.5567 50.5495 62.2512 54.8498 61.9508 59.1458C61.4656 66.0406 61.0802 72.9413 60.4477 79.827C60.094 83.7164 57.944 84.9204 52.8641 84.9505C39.7968 85.0263 26.7272 85.2073 13.6564 85.3462C11.82 85.3695 10.054 85.2818 9.27769 83.6018Z" fill="#A89D86"/>
<path d="M59.222 53.3169C58.6152 60.5594 57.9822 67.8025 57.4227 75.048C57.3025 76.5772 57.4871 78.1158 57.4614 79.647C57.4271 81.6198 56.0226 82.6418 53.6663 82.6566C39.6022 82.748 25.5424 82.8057 11.4768 82.8425C8.93135 82.8493 8.1081 81.5573 8.00386 79.6972C7.46783 70.052 6.86885 60.4083 6.31709 50.7636C5.8259 42.1643 5.3663 33.5684 4.89085 24.9687C19.5875 24.7864 34.2787 24.5957 48.9761 24.4385C49.7264 24.4288 50.4781 24.6588 51.232 24.7793C50.2287 24.9381 49.2336 25.206 48.2217 25.243C44.31 25.3837 43.4358 26.4097 44.1155 29.5216C44.638 31.8888 46.6461 33.3204 48.3834 35.0192C49.4032 36.0163 50.274 36.3779 51.6693 35.7808C53.6717 34.9293 55.6521 34.0448 57.6745 33.1593C58.1205 34.6664 58.6016 36.2988 59.0826 37.927C59.2443 37.8937 59.4112 37.856 59.573 37.8227C59.9341 33.4453 60.2952 29.0679 60.6564 24.6948C60.8509 24.7027 61.0452 24.7064 61.2344 24.7145C60.6555 32.9612 60.0715 41.2122 59.4926 49.4589C59.3285 48.4664 59.1646 47.478 59.0268 46.6782C57.1718 47.3537 55.5861 48.0858 53.8868 48.5094C51.661 49.0635 49.7287 48.6602 48.1522 47.0837C47.4287 46.357 46.1226 46.0101 45.0793 45.4886C45.074 44.9211 45.0635 44.3538 45.0582 43.7863C45.0599 43.6601 45.0563 43.5298 45.0528 43.4038C44.5307 43.1263 44.014 42.8528 43.4919 42.5753C43.7002 41.5738 43.9032 40.5681 44.13 39.4779C42.6413 39.5474 41.5692 39.8761 40.9994 39.5829C37.1867 37.6188 33.0019 38.6953 28.985 38.6367C28.2288 38.6255 27.4429 39.62 26.6652 40.1517C26.1495 40.858 25.4857 41.5257 25.1657 42.2861C24.8309 43.0804 24.8187 43.9637 24.669 44.8082C24.3585 45.3455 24.0533 45.8827 23.7428 46.42C23.3516 46.5093 22.9552 46.5987 22.5639 46.6839C21.8818 46.8811 21.1944 47.0743 20.5123 47.2716C20.3299 47.318 20.1475 47.3645 19.9599 47.4153C19.7781 47.2935 19.5909 47.1677 19.409 47.046C19.2682 47.268 19.1328 47.4941 18.992 47.7161C18.8767 47.9123 18.7668 48.1126 18.6516 48.3088C18.5691 49.3073 18.4868 50.31 18.4044 51.3085C18.3684 51.713 18.3376 52.1174 18.3017 52.5219C16.5894 52.6684 15.3775 52.5 14.9253 50.7744C14.714 49.968 13.3376 49.1729 12.2555 48.7617C10.8922 48.248 9.29349 48.1353 7.00326 47.6944C7.55008 56.5951 8.0725 65.1852 8.60016 73.7752C8.86313 73.7941 9.12085 73.8131 9.38369 73.8278C9.86447 73.3747 10.3454 72.9258 10.4732 72.805C13.4024 73.1968 15.991 73.9836 18.4463 73.7562C21.3571 73.4883 24.1494 72.3529 26.9884 71.578C27.2175 71.5136 27.5073 71.3636 27.5867 71.1978C28.7472 68.7647 30.5738 69.7087 32.6483 70.3187C34.8021 70.9521 37.6651 71.9804 39.3162 71.3351C42.3796 70.1343 45.0665 68.0428 47.3699 65.9395C49.0642 64.3933 51.711 63.3119 53.9264 64.2717C56.1843 65.2474 57.5278 64.6768 57.8279 62.6345C58.2768 59.5248 58.7521 56.4229 59.222 53.3169ZM9.45436 75.6131C9.39339 75.4968 9.33754 75.3762 9.27645 75.2558C9.1113 75.3565 8.94625 75.4614 8.7811 75.562C8.88344 75.6563 8.97181 75.8139 9.09292 75.8278C9.19305 75.8422 9.32533 75.6919 9.45436 75.6131Z" fill="#04744E"/>
<path d="M59.222 53.3169C58.7573 56.4228 58.2768 59.5248 57.8227 62.6346C57.5226 64.6769 56.1791 65.2517 53.9212 64.2719C51.7057 63.312 49.059 64.3935 47.3646 65.9396C45.0612 68.0429 42.3743 70.1344 39.311 71.3352C37.6598 71.9805 34.7916 70.9524 32.643 70.3189C30.5685 69.7088 28.7419 68.7648 27.5814 71.1979C27.5021 71.3638 27.2123 71.5137 26.9832 71.5781C24.1441 72.3531 21.3519 73.4884 18.4411 73.7563C15.991 73.9837 13.4024 73.1968 10.468 72.8051C10.3401 72.9259 9.85924 73.3748 9.37846 73.8279C9.11549 73.8091 8.85778 73.79 8.59493 73.7754C8.06726 65.1854 7.54495 56.5994 6.99802 47.6945C9.28288 48.1313 10.8869 48.244 12.2502 48.7619C13.3323 49.1688 14.7035 49.9683 14.9201 50.7745C15.3723 52.5002 16.5842 52.6685 18.2964 52.5221C18.6777 53.3958 19.059 54.2738 19.4402 55.1476C20.0693 56.2509 21.0542 57.3161 21.2489 58.4677C21.7132 61.1937 23.7368 61.8638 26.7342 61.6864C30.6066 61.4541 34.04 62.2374 36.9553 64.3913C37.2875 64.6356 38.482 64.3671 39.0988 64.0873C41.0634 63.1989 42.9785 62.2319 44.8235 61.195C45.2886 60.9357 45.6327 60.2841 45.6354 59.8173C45.6384 59.1697 45.2635 58.5229 45.0682 57.9179C48.0816 55.8648 48.1393 55.8634 47.9246 52.4838C47.8754 51.6609 47.3387 50.8581 47.0223 50.0501C46.4857 49.2515 45.944 48.4573 45.4074 47.6588C45.2981 46.9382 45.1835 46.2135 45.0742 45.493C46.1174 46.0144 47.4237 46.3655 48.1471 47.0881C49.7236 48.6646 51.6557 49.0636 53.8817 48.5138C55.581 48.0901 57.1667 47.3581 59.0217 46.6826C59.1542 47.4825 59.3182 48.4708 59.4875 49.4632C59.4023 50.7393 59.3122 52.0281 59.222 53.3169Z" fill="#037853"/>
<path d="M5.51861 17.3472C6.75064 12.768 7.95095 8.18114 9.27273 3.62081C9.39229 3.20166 10.295 2.63326 10.8406 2.6243C26.1973 2.39235 41.5505 2.22776 57.1501 2.04881C58.5751 7.61502 59.9355 12.9305 61.3012 18.2501C56.8651 18.2184 52.4238 18.1869 47.9877 18.1552C48.2009 17.5152 48.4194 16.8792 48.6325 16.2391C48.8364 16.3982 49.0456 16.5613 49.2495 16.7204C50.1828 16.3068 51.3143 16.0398 51.9904 15.4391C52.7998 14.7216 53.3018 13.7129 51.7086 13.045C51.6851 11.6328 51.6562 10.2165 51.6326 8.80434C51.4291 8.09026 51.2254 7.37197 51.0218 6.65789C49.8168 6.92664 48.6118 7.1954 47.4069 7.46415C47.0501 7.46856 46.6933 7.47297 46.3417 7.47725C45.4958 7.258 44.6501 6.85795 43.7995 6.84485C40.413 6.80886 37.0222 6.80242 33.6409 6.95132C28.8073 7.1605 23.9882 7.50809 19.1621 7.79698C14.9132 8.08035 14.9132 8.08035 14.928 11.4395C14.9309 12.6756 14.9338 13.9117 14.9367 15.1478C15.1082 15.2782 15.2746 15.4088 15.4462 15.5392C18.9312 15.5349 22.411 15.5308 25.8962 15.5308C25.7366 16.5858 25.5716 17.6367 25.412 18.6918C19.5728 18.7865 13.7344 18.9106 7.89344 18.9423C7.02226 18.9465 6.14953 18.5176 5.27717 18.2906C5.31457 18.1257 5.35722 17.9607 5.39462 17.7958C5.42725 17.6479 5.47025 17.4955 5.51861 17.3472Z" fill="#0A7F5C"/>
<path d="M47.9824 18.1554C52.4185 18.1871 56.8598 18.2187 61.2958 18.2461C62.1477 18.3054 62.9997 18.3648 64.0252 18.4367C64.042 20.3621 64.0592 22.3 64.0718 24.2633C63.0475 24.4225 62.1382 24.5664 61.234 24.706C61.0396 24.6981 60.8453 24.6943 60.6561 24.6863C57.513 24.7159 54.375 24.7454 51.2318 24.775C50.478 24.6587 49.7263 24.4288 48.9759 24.4343C34.2786 24.5956 19.5873 24.7821 4.89066 24.9645C4.11296 24.9328 3.33514 24.8969 2.32619 24.854C2.30866 22.9034 2.29627 20.9486 2.28155 19.0989C3.39631 18.7945 4.33391 18.5364 5.26637 18.2826C6.13873 18.5096 7.01146 18.9384 7.88263 18.9342C13.7236 18.9026 19.562 18.7784 25.4012 18.6837C31.389 18.6443 37.3775 18.6343 43.3692 18.5485C44.9067 18.5366 46.4431 18.2935 47.9824 18.1554Z" fill="#045730"/>
<path d="M45.0791 45.4843C45.1884 46.2049 45.303 46.9295 45.4123 47.6501C42.8473 46.1983 41.5641 48.3737 39.8358 49.0755C39.3272 49.2812 39.0459 50.4905 39.2674 51.0949C39.6822 52.2327 40.5349 53.2633 41.2053 54.3403C41.0365 54.5 40.8731 54.6637 40.7043 54.8234C39.909 54.5356 39.1138 54.2521 38.3185 53.9643C38.2666 53.6082 38.2147 53.2521 38.1627 52.8917C37.9066 52.7423 37.6505 52.5929 37.3944 52.4435C37.0877 52.9303 36.781 53.4128 36.4744 53.8995C35.8733 54.3681 35.2774 54.8324 34.6763 55.301C33.9886 55.8642 33.2957 56.4276 32.6081 56.9908C32.5988 57.4115 32.5841 57.8281 32.5748 58.2488C32.929 58.5262 33.2831 58.8035 33.6372 59.0809C33.9912 59.3541 34.34 59.6273 34.694 59.9005C35.6741 60.7935 36.6541 61.6822 37.6343 62.5752C37.8462 62.4565 38.0581 62.3379 38.2698 62.2151C38.3292 61.7091 38.3885 61.1989 38.4479 60.6929C38.9383 60.5843 39.4287 60.4758 39.919 60.3672C40.6277 60.1819 41.3416 59.9965 42.0502 59.807C42.2593 59.5876 42.463 59.364 42.6721 59.1445C43.0053 58.6697 43.3438 58.1949 43.677 57.7201L43.6618 57.7415C43.7886 57.5828 43.9155 57.4284 44.0371 57.2699C45.7598 55.0461 47.5619 52.8456 47.0376 50.0369C47.3489 50.8493 47.8855 51.6479 47.9399 52.4707C48.1545 55.846 48.0969 55.8516 45.0835 57.9048C45.2788 58.5097 45.6537 59.1566 45.6507 59.8042C45.6481 60.2752 45.2987 60.9227 44.8388 61.1819C42.9938 62.2188 41.0734 63.1859 39.1141 64.0742C38.4973 64.3539 37.3028 64.6224 36.9706 64.3782C34.0554 62.2243 30.6219 61.441 26.7495 61.6732C23.7522 61.8507 21.7286 61.1848 21.2642 58.4545C21.0694 57.2988 20.0846 56.2377 19.4555 55.1345C19.937 55.4592 20.6999 55.7141 20.8583 56.1266C22.3501 59.942 25.5851 61.3271 30.3902 60.6603C30.6307 60.6251 30.8827 60.6274 31.6163 60.5845C31.6036 58.9954 31.7167 57.4033 31.4948 55.8404C31.4361 55.4297 30.3707 54.8668 29.7078 54.8113C28.1033 54.6776 26.4637 54.7971 24.2863 54.8244C25.135 53.6351 25.7161 52.8264 26.2768 52.0392C27.1494 52.2746 27.8475 52.4638 28.8313 52.7343C28.2612 50.3556 27.7501 48.211 27.239 46.0621C29.0757 46.9933 30.4128 46.7592 31.3258 45.0511C31.7799 44.2034 32.5255 43.458 33.1438 42.6652C33.4874 42.7536 33.831 42.842 34.1694 42.9305C33.95 43.9113 33.7254 44.8922 33.4827 45.9787C35.279 46.402 37.337 46.9873 39.4563 47.3187C40.0731 47.4174 41.3395 46.9033 41.5112 46.4702C42.2123 44.6916 42.6069 42.8404 43.1267 40.961C42.0563 40.9742 40.7187 41.1915 40.581 40.9594C39.0752 38.3384 36.1619 39.0856 33.7029 39.1786C31.3487 39.2691 29.0173 39.8005 26.6753 40.1388C27.4478 39.6071 28.2389 38.6126 28.995 38.6237C33.012 38.6823 37.1968 37.6058 41.0095 39.5699C41.5793 39.8631 42.6515 39.5387 44.1401 39.4649C43.9185 40.555 43.7103 41.5608 43.5019 42.5623C43.3336 43.6806 43.1653 44.7989 42.9969 45.9172L42.8893 46.0123L43.0024 45.9255C43.6859 45.7786 44.3799 45.6315 45.0791 45.4843Z" fill="#0A7F5C"/>
<path d="M51.2319 24.7753C54.3751 24.7456 57.513 24.7161 60.6562 24.6865C60.2951 29.0639 59.934 33.4412 59.5728 37.8144C59.411 37.8477 59.2441 37.8854 59.0823 37.9187C58.6014 36.2905 58.1203 34.6581 57.6742 33.151C55.6518 34.0366 53.6714 34.9211 51.6691 35.7725C50.2737 36.3654 49.4029 36.008 48.3832 35.0109C46.6511 33.312 44.6377 31.8805 44.1152 29.5133C43.4304 26.4058 44.3098 25.3754 48.2214 25.2348C49.2284 25.2062 50.2287 24.9382 51.2319 24.7753Z" fill="#037853"/>
<path d="M27.2182 46.0669C27.7293 48.2157 28.2456 50.3603 28.8105 52.7391C27.8268 52.4727 27.1287 52.2835 26.256 52.0439C25.6953 52.8311 25.1194 53.6397 24.2654 54.8292C26.443 54.8061 28.0825 54.6824 29.687 54.816C30.3499 54.8715 31.4153 55.4345 31.474 55.8451C31.6958 57.4039 31.5828 59.0002 31.5955 60.5892C30.8619 60.6322 30.6152 60.6339 30.3694 60.6651C25.5644 61.3319 22.3293 59.9468 20.8375 56.1313C20.6792 55.7231 19.9163 55.4682 19.4347 55.1392C19.0535 54.2654 18.6722 53.3875 18.2909 52.5137C18.3269 52.1092 18.3577 51.7048 18.3936 51.3003C19.7531 50.3592 20.8762 49.4113 18.6409 48.3006C18.7561 48.1044 18.866 47.9041 18.9813 47.7079C19.3039 47.6076 19.6266 47.5073 19.9492 47.407C20.1316 47.3606 20.314 47.3141 20.5017 47.2676C21.1838 47.0703 21.8712 46.8771 22.5533 46.6798C22.9445 46.5905 23.3409 46.501 23.7322 46.4159C24.921 46.3199 26.1045 46.2241 27.2935 46.1323L27.2182 46.0669Z" fill="#EAF8F7"/>
<path d="M26.6596 40.1434C29.0017 39.8051 31.3329 39.2695 33.6872 39.1833C36.1463 39.0903 39.0595 38.3388 40.5654 40.964C40.6978 41.1962 42.0407 40.9788 43.1111 40.9656C42.5913 42.845 42.1966 44.6962 41.4955 46.4749C41.3239 46.9079 40.0574 47.4178 39.4406 47.3234C37.3214 46.9919 35.2634 46.4067 33.467 45.9833C33.7098 44.9011 33.9344 43.9159 34.1538 42.9352C33.8102 42.8468 33.4665 42.7583 33.1281 42.6698C32.5151 43.4625 31.7643 44.208 31.3102 45.0557C30.3972 46.7638 29.0599 46.9937 27.2233 46.0668L27.3039 46.1321C26.4256 45.6908 25.5472 45.2495 24.6688 44.8039C24.8185 43.9594 24.8307 43.0761 25.1655 42.2818C25.4803 41.5215 26.1493 40.8537 26.6596 40.1434Z" fill="#EAF8F7"/>
<path d="M45.0739 45.4843C44.3799 45.6314 43.6808 45.7828 42.9868 45.9299L42.9761 45.9218C43.1444 44.8035 43.3128 43.6852 43.4811 42.5669C44.0032 42.8444 44.5199 43.1178 45.042 43.3954C45.0064 43.4341 44.929 43.4822 44.9352 43.5157C44.9535 43.6077 45.0082 43.6905 45.0474 43.7779C45.0632 44.3451 45.0685 44.9126 45.0739 45.4843Z" fill="#037853"/>
<path d="M18.6462 48.3047C20.8814 49.4112 19.7584 50.3634 18.399 51.3044C18.4813 50.3017 18.5637 49.3032 18.6462 48.3047Z" fill="#0A7F5C"/>
<path d="M24.6635 44.8C25.5418 45.2413 26.4203 45.6868 27.2986 46.1281C26.1098 46.2241 24.9262 46.3199 23.7373 46.4117C24.0478 45.8744 24.353 45.3373 24.6635 44.8Z" fill="#0A7F5C"/>
<path d="M22.5585 46.6797C21.8764 46.877 21.1889 47.0701 20.5068 47.2674C21.1889 47.0701 21.8763 46.8728 22.5585 46.6797Z" fill="#0A7F5C"/>
<path d="M9.45427 75.613C9.32536 75.696 9.19296 75.8422 9.08771 75.8321C8.9666 75.8182 8.87824 75.6606 8.77589 75.5663C8.94105 75.4656 9.10609 75.3607 9.27125 75.26C9.33746 75.3762 9.39843 75.4924 9.45427 75.613Z" fill="#037853"/>
<path d="M19.9544 47.4068C19.6317 47.5071 19.3091 47.6074 18.9865 47.7077C19.1273 47.4856 19.2627 47.2595 19.4035 47.0375C19.5906 47.1591 19.7725 47.285 19.9544 47.4068Z" fill="#0A7F5C"/>
<path d="M45.0526 43.778C45.0135 43.6907 44.9586 43.6037 44.9404 43.5158C44.9342 43.4823 45.0117 43.4384 45.0472 43.3955C45.0509 43.5258 45.0544 43.6518 45.0526 43.778Z" fill="#0A7F5C"/>
<path d="M34.6763 55.3008C35.2773 54.8322 35.8733 54.368 36.4743 53.8993C37.0891 53.9223 37.7037 53.9411 38.3185 53.9641C39.1138 54.2519 39.909 54.5354 40.7043 54.8232C40.8731 54.6635 41.0365 54.4998 41.2052 54.3402C40.5349 53.2631 39.6822 52.2325 39.2674 51.0947C39.0459 50.4904 39.3273 49.2852 39.8358 49.0753C41.5641 48.3735 42.842 46.1983 45.4123 47.6499C45.9489 48.4484 46.4906 49.2427 47.0272 50.0412C47.5515 52.8499 45.7494 55.0504 44.0267 57.2742C43.8999 57.4328 43.773 57.5872 43.6514 57.7457L43.6666 57.7244C43.3334 58.1991 42.9949 58.674 42.6617 59.1488C42.4526 59.3682 42.2489 59.5918 42.0398 59.8113C41.3311 59.9966 40.6172 60.182 39.9086 60.3715C39.4183 60.48 38.9279 60.5886 38.4375 60.6971C37.1862 60.433 35.9402 60.1688 34.6889 59.9047C34.3349 59.6315 33.9861 59.3582 33.6321 59.085C33.2779 58.8077 32.9238 58.5303 32.5697 58.2529C32.579 57.8322 32.5936 57.4156 32.6029 56.9949C34.5835 57.4391 34.4394 56.219 34.6763 55.3008Z" fill="#EAF8F7"/>
<path d="M14.926 15.1438C14.9231 13.9077 14.9202 12.6716 14.9173 11.4355C14.9025 8.07637 14.9025 8.07637 19.1514 7.793C28.2131 7.68779 37.2746 7.57836 46.3362 7.46894C46.6929 7.46454 47.0497 7.46013 47.4014 7.46005C48.9243 7.67557 50.7706 7.25258 51.6272 8.80024C51.6507 10.2124 51.6796 11.6287 51.7032 13.0409C51.7693 14.6623 50.7337 15.1708 48.7869 15.1884C41.1516 15.2466 33.5191 15.4056 25.8803 15.5269C22.3952 15.5312 18.9154 15.5353 15.4355 15.5352C15.264 15.409 15.0977 15.2785 14.926 15.1438Z" fill="#424748"/>
<path d="M25.8804 15.5315C33.514 15.4103 41.1518 15.2512 48.7871 15.193C50.734 15.1796 51.7643 14.6712 51.7034 13.0455C53.3019 13.7175 52.7946 14.7262 51.9852 15.4395C51.3089 16.0361 50.1774 16.3031 49.2442 16.7209C49.0404 16.5618 48.8311 16.3987 48.6272 16.2396C48.4141 16.8796 48.1956 17.5156 47.9825 18.1557C46.4432 18.2937 44.9016 18.537 43.3642 18.5573C37.3777 18.6387 31.384 18.6531 25.3963 18.6925C25.5559 17.6375 25.7207 16.5823 25.8804 15.5315Z" fill="#04744E"/>
<path d="M46.3364 7.47314C37.2748 7.58256 28.2132 7.68778 19.1516 7.7972C23.9777 7.50831 28.802 7.15639 33.6355 6.94721C37.0169 6.80251 40.4129 6.80463 43.7941 6.84073C44.6447 6.84964 45.4851 7.24981 46.3364 7.47314Z" fill="#04744E"/>
<path d="M51.6273 8.80477C50.7706 7.2529 48.9244 7.68009 47.4016 7.46457C48.6065 7.19582 49.8115 6.92707 51.0218 6.65819C51.2201 7.3724 51.4237 8.08648 51.6273 8.80477Z" fill="#04744E"/>
<path d="M14.926 15.1439C15.0976 15.2743 15.264 15.4048 15.4357 15.5394C15.2641 15.409 15.0977 15.2785 14.926 15.1439Z" fill="#04744E"/>
<path d="M34.689 59.9048C35.9403 60.169 37.1863 60.4332 38.4376 60.6973C38.3782 61.2033 38.3189 61.7135 38.2595 62.2195C38.0476 62.3381 37.8357 62.4568 37.624 62.5796C36.6491 61.6866 35.669 60.7936 34.689 59.9048Z" fill="#E4F2E7"/>
<path d="M34.6763 55.3013C34.4394 56.2194 34.5835 57.4395 32.608 56.991C33.2957 56.4278 33.9886 55.8645 34.6763 55.3013Z" fill="#E4F2E7"/>
<path d="M38.3185 53.9644C37.7038 53.9414 37.0892 53.9226 36.4744 53.8996C36.7811 53.4129 37.0878 52.9304 37.3944 52.4436C37.6505 52.593 37.9066 52.7424 38.1627 52.8918C38.2147 53.2522 38.2666 53.6083 38.3185 53.9644Z" fill="#E4F2E7"/>
<path d="M39.9085 60.3673C40.6172 60.182 41.3311 59.9966 42.0397 59.8071C41.3311 59.9966 40.6224 60.1819 39.9085 60.3673Z" fill="#E4F2E7"/>
<path d="M42.9868 45.9302L42.8737 46.0165L42.9813 45.922L42.9868 45.9302Z" fill="#037853"/>
<path d="M43.6514 57.746C43.7783 57.5873 43.9052 57.4329 44.0267 57.2744C43.8999 57.433 43.7783 57.5873 43.6514 57.746Z" fill="#E4F2E7"/>
</g>
<defs>
<clipPath id="clip0_7_1480">
<rect width="84.599" height="66.8017" fill="white" transform="matrix(0.0278109 0.999613 -0.999709 0.0241326 66.7822 0)"/>
</clipPath>
</defs>
</svg>
