<svg width="37" height="60" viewBox="0 0 37 60" fill="none" xmlns="http://www.w3.org/2000/svg">
<path d="M12.6283 9.81148C12.7709 8.43624 12.9135 7.05422 13.056 5.67898C13.3637 5.44187 13.7989 5.22509 13.9564 4.9541C14.4141 4.14793 14.7593 3.31465 15.142 2.5017C19.0963 3.41627 22.7655 4.47311 26.9599 2.43396C27.3125 3.47047 27.7703 4.33762 27.8753 5.21831C28.1304 7.36585 28.0479 9.52694 28.4606 11.6609C28.6407 12.6026 30.0513 13.4562 30.2389 14.4046C30.5465 15.956 30.5915 17.5684 30.2089 19.1062C29.9688 20.075 29.1134 21.4028 27.8903 21.7957C22.2702 23.5977 16.4776 23.6248 10.9401 21.5315C10.1672 21.2402 9.27429 20.5424 9.2968 20.0546C9.43937 17.6632 9.85206 15.2853 10.2347 12.9007C10.2723 12.6771 10.7224 12.3316 11.0601 12.291C13.7313 11.9522 13.0185 10.848 12.6283 9.81148Z" fill="#DC7527"/>
<path d="M31.1383 20.7795C33.8996 21.2131 36.5108 23.3132 36.4808 25.454C36.4133 31.4359 36.2482 37.4179 35.9781 43.3998C35.8205 46.9159 35.1452 50.4319 35.1752 53.9411C35.1902 56.1022 33.2243 57.1726 30.7106 58.0533C27.2966 59.2456 23.4023 59.4421 19.6131 59.3675C14.5483 59.2659 9.50594 58.9407 4.88382 57.3826C1.97999 56.407 0.359254 55.2283 0.471806 53.0062C0.719419 47.905 0.546837 42.7901 0.591857 37.6821C0.599361 36.8556 0.876989 36.0359 1.02706 35.2094C1.50728 35.3042 1.9875 35.4059 2.46772 35.5007C2.31014 35.9614 2.02502 36.422 2.02502 36.8827C1.9875 40.3581 1.7699 43.847 2.09254 47.3156C2.29514 49.5715 3.15053 51.8139 4.03594 54.0156C4.37359 54.8557 5.34153 55.7973 6.48205 56.2783C9.85109 57.701 13.6178 58.5817 17.8197 58.5207C19.0878 58.5749 20.4384 58.8188 21.609 58.6359C23.2897 58.3717 24.843 57.789 26.4562 57.3487C28.9248 56.888 31.431 56.3461 32.1138 54.605C33.0817 52.1458 34.0272 49.6596 34.5224 47.153C35.0026 44.7277 35.0026 42.2617 35.0551 39.8161C35.1302 35.7852 35.1527 31.7476 35.0326 27.7167C34.9951 26.416 34.6349 25.0814 34.0497 23.8281C33.4194 22.4867 31.7086 22.1345 30.3055 22.9813C28.2645 24.2007 25.8709 24.7833 23.0947 24.8782C23.1022 24.4785 23.1097 24.0855 23.1097 23.6858C26.2761 23.2252 29.5251 22.8661 31.1383 20.7795Z" fill="#D4E3E6"/>
<path d="M31.1393 20.7795C29.5336 22.866 26.2771 23.2318 23.1106 23.6722C20.8971 23.6519 18.6836 23.6316 16.4776 23.6112C14.4066 23.1167 12.3432 22.6221 10.2722 22.1276C9.58943 21.5653 8.89912 21.003 8.21631 20.4407C8.32136 20.3662 8.35887 20.2781 8.32886 20.1765C8.4189 18.7064 8.50894 17.2296 8.59898 15.7595C9.13172 13.9168 8.98916 11.9048 12.1781 10.7666C12.5158 10.6447 12.4858 10.1434 12.6283 9.81141C13.0185 10.8479 13.7313 11.9522 11.0601 12.2841C10.7225 12.3248 10.2647 12.6703 10.2347 12.8939C9.85206 15.2717 9.43187 17.6564 9.2968 20.0478C9.26679 20.5356 10.1597 21.2334 10.9401 21.5247C16.4701 23.6248 22.2702 23.5977 27.8903 21.7889C29.1209 21.3959 29.9688 20.0681 30.2089 19.0994C30.5915 17.5615 30.5465 15.9492 30.2389 14.3978C30.0513 13.4561 28.6407 12.6025 28.4606 11.6541C28.0554 9.52011 28.1304 7.35901 27.8753 5.21147C27.7703 4.33078 27.3125 3.46363 26.9599 2.42712C22.7655 4.47304 19.1038 3.40944 15.142 2.49487C14.7593 3.30782 14.4141 4.14109 13.9564 4.94726C13.7989 5.21825 13.3637 5.42826 13.056 5.67215C13.4012 4.47305 13.6488 3.26039 14.1365 2.08839C14.3091 1.66837 14.9619 1.24834 15.5697 0.977358C18.3384 -0.255615 24.9865 -0.10657 27.1475 1.47868C28.2955 2.31873 28.7457 3.66687 28.9633 4.82532C29.3085 6.67478 29.1509 8.55811 29.3085 10.4211C29.3535 10.9292 29.5035 11.6541 30.0438 11.8844C32.2498 12.8329 31.9497 14.1675 31.8146 15.4817C31.642 17.2499 31.3719 19.0113 31.1393 20.7795Z" fill="#CB8952"/>
<path d="M2.46849 35.4939C1.98827 35.3991 1.50805 35.2975 1.02783 35.2026C1.03534 34.2203 1.04284 33.2312 1.05034 32.2489C1.36549 32.2489 1.68063 32.2489 1.99578 32.2557C3.70656 34.5319 6.47532 35.6294 10.6172 35.1958C11.7352 34.9994 12.8532 34.7961 13.9638 34.5997L14.0013 34.62C13.5586 35.0333 13.1159 35.4465 12.9883 35.5684C14.2639 36.422 15.3294 37.1402 16.3874 37.8515L16.3649 37.865C14.4965 37.4382 12.7707 35.9546 10.6247 37.5602C9.55173 36.2865 7.946 36.0291 5.37232 36.7675C6.25773 38.1021 7.56332 39.0641 10.1445 39.0506C10.5497 40.4665 10.9549 41.8824 11.3901 43.3863C10.4972 43.0476 9.85937 42.8105 9.22158 42.5666C9.12404 42.2211 9.01898 41.8824 8.85391 41.3133C8.31366 41.9366 7.99102 42.3092 7.9535 42.3498C7.16564 41.4759 6.65541 40.27 5.38733 39.6806C3.96918 39.0235 3.18132 38.3731 2.96372 37.3502C2.82866 36.7269 2.64107 36.1104 2.46849 35.4939Z" fill="#B9D5DE"/>
<path d="M1.99524 32.2488C1.68009 32.2488 1.36495 32.2488 1.0498 32.2421C1.20738 29.9522 1.29742 27.6624 1.54503 25.3794C1.77764 23.2725 5.28174 20.732 8.20807 20.434C8.89089 20.9962 9.58121 21.5585 10.264 22.1208L10.114 22.2224C7.33768 21.9447 4.77901 22.7102 4.13372 24.4174C3.16577 26.9918 2.68555 29.6338 1.99524 32.2488Z" fill="#D4E3E6"/>
<path d="M8.59825 15.7595C8.50821 17.2296 8.41817 18.7065 8.32812 20.1766C8.41817 18.6997 8.50821 17.2296 8.59825 15.7595Z" fill="#D4E3E6"/>
<path d="M23.0875 24.8577C25.8638 24.7697 28.2574 24.1803 30.2983 22.9609C31.709 22.1208 33.4198 22.4663 34.0425 23.8077C34.6278 25.061 34.988 26.3956 35.0255 27.6963C35.1455 31.7272 35.123 35.7648 35.048 39.7957C35.003 42.2413 35.003 44.7072 34.5153 47.1325C34.0125 49.6391 33.0746 52.1254 32.1066 54.5846C31.4238 56.3256 28.9177 56.8676 26.4491 57.3283C27.3195 55.5533 28.2349 53.792 29.0377 52.0035C29.1953 51.6512 28.9177 51.2244 28.8427 50.8315C29.0302 49.8491 29.2103 48.8736 29.3979 47.8913C29.6905 47.5458 30.2308 47.2071 30.2458 46.8548C30.3208 44.6598 30.4634 42.4513 30.2233 40.2631C30.0582 38.7863 29.3754 37.323 28.7751 35.88C27.6871 33.2582 24.6933 31.3478 22.1421 29.2748C22.4497 27.8047 22.7724 26.3346 23.0875 24.8577Z" fill="#DCECF3"/>
<path d="M2.46808 35.4939C2.63315 36.1104 2.82825 36.7269 2.96331 37.3434C3.18091 38.3595 3.96877 39.0099 5.38691 39.6738C6.65499 40.2632 7.16523 41.4691 7.95309 42.343C7.9906 42.3023 8.31325 41.9297 8.8535 41.3065C9.01857 41.8755 9.12362 42.2143 9.22117 42.5598C9.0636 44.4363 8.87601 46.3129 8.77847 48.1962C8.77097 48.3859 9.31121 48.5892 9.59634 48.7856C9.63386 49.1718 9.66387 49.5579 9.70139 49.9441C9.61135 50.2828 9.52131 50.6215 9.43126 50.9535C9.67888 50.8993 9.93399 50.8451 10.1816 50.7909C10.3542 51.0009 10.5268 51.2109 10.6993 51.4142C10.6618 51.7461 10.4067 52.1458 10.6168 52.3965C12.7328 54.8218 16.2144 56.2512 20.2062 57.3013C20.6939 57.43 21.1141 57.6468 21.9395 57.9652C20.1912 58.1955 18.9981 58.3513 17.8126 58.5071C13.6107 58.5681 9.84396 57.6942 6.47492 56.2648C5.33439 55.7838 4.36645 54.8421 4.02879 54.0021C3.14339 51.8003 2.2955 49.5511 2.0854 47.302C1.77026 43.8334 1.98036 40.3513 2.01787 36.8691C2.02538 36.4152 2.31051 35.9546 2.46808 35.4939Z" fill="#DCECF3"/>
<path d="M17.8202 58.5138C19.0058 58.358 20.1913 58.2022 21.9471 57.9719C21.1217 57.6535 20.694 57.4367 20.2138 57.308C16.222 56.2647 12.7404 54.8285 10.6244 52.4032C10.4068 52.1593 10.6694 51.7528 10.707 51.4209C11.2397 51.7122 11.8025 51.9832 12.2902 52.3016C15.2615 54.2323 18.8407 54.7472 22.9376 54.0494C25.7513 53.5684 27.3721 52.2541 28.8428 50.8383C28.9178 51.2312 29.1954 51.658 29.0379 52.0103C28.235 53.792 27.3271 55.5601 26.4492 57.3351C24.8434 57.7822 23.2902 58.358 21.602 58.6222C20.4314 58.8119 19.0883 58.568 17.8202 58.5138Z" fill="#D1E9EF"/>
<path d="M23.0875 24.8579C22.7648 26.3347 22.4497 27.8048 22.1271 29.2817C21.9545 29.2884 21.7744 29.302 21.6018 29.3088C20.3412 29.3088 19.0807 29.3088 17.8201 29.3088C16.2969 28.9903 15.6666 28.3874 15.8767 27.3577C16.0418 26.5379 15.9067 25.6911 15.9067 24.8511C16.0943 24.4311 16.2894 24.0178 16.477 23.5978C18.6905 23.6181 20.904 23.6384 23.11 23.6588C23.1025 24.0652 23.095 24.4649 23.0875 24.8579Z" fill="#EEEEEE"/>
<path d="M16.4692 23.6113C16.2816 24.0313 16.0865 24.4445 15.8989 24.8646C14.5333 24.8781 13.7529 23.4283 12.0497 24.2819C10.1438 24.0516 10.7741 22.9135 10.1138 22.236L10.2638 22.1344C12.3348 22.6154 14.4057 23.1099 16.4692 23.6113Z" fill="#D4E3E6"/>
<path d="M12.0496 24.2752C13.7529 23.4216 14.5332 24.8713 15.8988 24.8578C15.8988 25.691 16.0339 26.5379 15.8688 27.3644C15.6662 28.3873 16.2965 28.9903 17.8122 29.3154C17.5271 34.0915 19.8457 38.4476 23.2972 42.6546C24.8579 44.5583 26.2611 46.5093 26.021 48.7991C25.7208 51.7664 19.9057 53.0739 16.6267 51.9087C14.3606 51.1025 13.6478 49.856 12.6124 48.6027C12.2822 48.203 11.5093 47.9388 10.9391 47.6136C10.4889 48.0065 10.0387 48.3994 9.58847 48.7924C9.30334 48.5959 8.76308 48.3926 8.77059 48.203C8.86813 46.3264 9.05572 44.4431 9.2133 42.5665C9.85109 42.8104 10.4964 43.0475 11.3818 43.3862C10.9466 41.8755 10.5414 40.4664 10.1362 39.0505C10.3013 38.556 10.4589 38.0546 10.6239 37.5601C12.7774 35.9545 14.4957 37.4382 16.3641 37.865C16.5592 38.014 16.7542 38.163 16.9493 38.3121C17.0019 38.2782 17.0544 38.2511 17.1069 38.2172C16.8668 38.0953 16.6267 37.9734 16.3866 37.8582C15.3211 37.1469 14.2631 36.4355 12.9875 35.5752C13.1226 35.4532 13.5578 35.04 14.0005 34.6267C14.9084 34.4709 15.8238 34.3083 16.7317 34.1525C16.5967 33.9763 16.4541 33.807 16.319 33.6309C15.5312 33.956 14.7508 34.2812 13.963 34.6064C12.845 34.8028 11.7269 35.0061 10.6164 35.2025C10.9391 32.3369 11.2467 29.4645 11.5994 26.5988C11.6894 25.813 11.8995 25.0407 12.0496 24.2752ZM12.3497 43.8672C12.0946 43.9011 11.8395 43.935 11.5919 43.9688C11.8545 44.4498 12.1171 44.9308 12.3722 45.4118C12.5898 45.3644 12.8149 45.3238 13.0325 45.2764C12.8074 44.8089 12.5748 44.3347 12.3497 43.8672Z" fill="#C7E2E9"/>
<path d="M12.0499 24.2752C11.8923 25.0475 11.6897 25.813 11.5922 26.5853C11.247 29.451 10.9394 32.3166 10.6092 35.1891C6.46735 35.6226 3.69858 34.5251 1.98779 32.2489C2.67811 29.6339 3.15833 26.9986 4.12627 24.4242C4.77157 22.7171 7.33024 21.9515 10.1065 22.2293C10.7743 22.9 10.1515 24.0381 12.0499 24.2752Z" fill="#DCECF3"/>
<path d="M10.6325 37.5533C10.4674 38.0479 10.3098 38.5492 10.1447 39.0437C7.56356 39.0573 6.25796 38.0953 5.37256 36.7607C7.95374 36.0223 9.55948 36.2797 10.6325 37.5533Z" fill="#D1E9EF"/>
<path d="M9.59668 48.7924C10.0469 48.3994 10.4971 48.0065 10.9473 47.6136C11.5176 47.9387 12.2904 48.203 12.6206 48.6027C13.656 49.8492 14.3689 51.0957 16.6349 51.9086C19.9139 53.0739 25.7291 51.7664 26.0292 48.7991C26.2618 46.5093 24.8662 44.5582 23.3055 42.6546C19.8539 38.4476 17.5353 34.0915 17.8204 29.3154C19.081 29.3154 20.3416 29.3154 21.6022 29.3154C21.4596 29.8371 21.1745 30.3587 21.1895 30.8804C21.287 34.6131 23.2079 38.0343 25.8866 41.3335C27.5824 43.4133 29.3982 45.4796 29.3907 47.9116C29.2032 48.894 29.0231 49.8695 28.8355 50.8518C27.3648 52.2677 25.7366 53.5888 22.9303 54.063C18.8259 54.7608 15.2543 54.2459 12.2829 52.3151C11.7952 51.9967 11.2249 51.7257 10.6997 51.4344C10.5271 51.2244 10.3545 51.0144 10.1819 50.8112C10.0244 50.5266 9.8593 50.2489 9.70173 49.9643C9.66421 49.5646 9.62669 49.1785 9.59668 48.7924Z" fill="#A0C5CE"/>
<path d="M29.3908 47.8981C29.3983 45.466 27.5825 43.3998 25.8867 41.32C23.2005 38.0208 21.2796 34.5996 21.1895 30.8668C21.1745 30.3452 21.4597 29.8235 21.6022 29.3019C21.7748 29.2951 21.9549 29.2816 22.1275 29.2748C24.6786 31.3478 27.6725 33.2582 28.7605 35.88C29.3608 37.323 30.0436 38.7863 30.2087 40.2631C30.4563 42.4513 30.3137 44.6598 30.2312 46.8548C30.2237 47.2139 29.6909 47.5594 29.3908 47.8981Z" fill="#C7E2E9"/>
<path d="M9.70128 49.9508C9.85885 50.2353 10.0239 50.5131 10.1815 50.7976C9.93388 50.8518 9.67877 50.906 9.43115 50.9602C9.51369 50.6283 9.60373 50.2895 9.70128 49.9508Z" fill="#C7E2E9"/>
<path d="M12.3501 43.8673C12.5752 44.3348 12.8078 44.809 13.0329 45.2764C12.8153 45.3239 12.5902 45.3645 12.3726 45.4119C12.11 44.9309 11.8474 44.4499 11.5923 43.9689C11.8399 43.9351 12.095 43.9012 12.3501 43.8673Z" fill="#B9D5DE"/>
<path d="M13.9712 34.5929C14.7591 34.2677 15.5394 33.9425 16.3273 33.6173C16.4623 33.7934 16.6049 33.9628 16.74 34.139C15.832 34.2948 14.9166 34.4574 14.0087 34.6132C14.0012 34.6132 13.9712 34.5929 13.9712 34.5929Z" fill="#B9D5DE"/>
<path d="M16.3941 37.8446C16.6342 37.9665 16.8743 38.0885 17.1144 38.2037C17.0619 38.2375 17.0094 38.2646 16.9568 38.2985C16.7618 38.1495 16.5667 38.0004 16.3716 37.8514C16.3716 37.8582 16.3941 37.8446 16.3941 37.8446Z" fill="#B9D5DE"/>
</svg>
