<svg width="46" height="59" viewBox="0 0 46 59" fill="none" xmlns="http://www.w3.org/2000/svg">
<g clip-path="url(#clip0_366_212)">
<path d="M29.9727 8.30444C32.9091 9.98424 35.8851 11.6357 38.7621 13.3495C40.9991 14.6831 43.0711 16.187 43.3152 18.0938C43.599 20.3184 43.4736 22.5827 43.1832 24.813C42.9589 26.5608 42.1077 28.2747 41.7249 30.0169C41.23 32.2585 42.266 34.398 43.1173 36.5715C43.9091 38.5918 44.1796 40.6802 44.6152 42.7459C44.8197 43.722 44.7471 44.7151 45.0045 45.6798C45.3872 47.127 43.3746 47.7455 42.2396 48.6706L42.0813 48.6365C42.464 47.4277 42.8467 46.2133 43.2624 44.9137C41.23 46.1849 39.4418 47.3142 37.6469 48.4322C35.9643 49.4878 33.6217 50.2993 33.9055 51.4002C34.9019 49.5899 31.1076 48.2109 30.0782 46.2246C29.999 46.0714 29.5371 45.9863 29.26 45.8614C28.3824 45.4755 26.7525 45.4812 27.023 44.4824C27.2804 43.5347 28.6991 43.5063 29.9001 43.3191C30.2366 43.268 30.5863 43.2396 30.9163 43.1772C32.4604 42.8764 34.0045 42.5643 35.5485 42.2578C35.4826 42.1273 35.4232 41.9911 35.3572 41.8606C31.0152 42.1784 26.6139 42.3203 22.3578 42.8707C18.194 43.4099 14.6307 45.0897 10.1898 45.2939C8.57968 45.3677 6.93001 45.6231 6.9828 46.934C6.9828 47.0021 6.54068 47.0816 6.30313 47.1497C6.16456 46.7524 5.87422 46.3495 5.90061 45.9522C6.05898 43.3134 6.35592 40.6745 6.4615 38.03C6.55388 35.5954 6.27674 33.1552 6.52089 30.7263C6.67266 29.1827 7.4777 27.6561 7.9924 26.1239C9.44411 26.3736 12.2552 28.6776 12.176 29.7275C11.9978 32.1791 11.6019 34.6307 11.4501 37.0823C11.3577 38.5804 11.4369 40.0673 11.6547 41.5314C11.8064 42.5416 13.1592 42.8083 14.3535 42.2295C15.924 41.469 17.2636 40.5099 18.5173 39.5565C20.1802 38.291 18.8209 36.8439 18.8407 35.4876C18.8538 34.6136 18.3853 33.4843 17.3955 32.8998C14.4987 31.203 15.7855 29.7899 18.0092 28.5755C19.7909 27.5994 21.8629 26.8049 23.8425 25.9139C22.7735 24.7619 21.6253 24.5122 19.8239 25.318C18.3919 25.9593 17.2438 26.8105 15.8976 27.5256C14.3733 28.3371 13.3175 28.2463 12.0968 27.2532C11.7273 26.9524 11.4105 26.6346 11.0344 26.3338C10.236 25.7039 9.28574 25.3805 7.9858 25.8798C8.30254 25.1024 8.36192 24.2398 8.9888 23.5588C10.8826 21.5215 13.2714 19.7225 17.257 18.9564C16.8017 19.3309 16.4123 19.7338 15.891 20.0687C14.6241 20.8745 12.8886 21.5385 12.1298 22.4749C11.4897 23.2694 11.5161 24.4725 12.0638 25.3124C12.5917 26.1239 15.7063 26.192 17.1844 25.4656C18.9198 24.6143 20.5233 23.6326 21.9024 22.577C23.0968 21.6633 23.5851 20.3808 24.9444 19.5976C26.9702 18.4229 29.4711 17.532 31.7939 16.5445C32.5395 16.2267 33.3644 15.9713 34.1496 15.6819C34.1034 15.5741 34.0572 15.4606 34.0111 15.3528C33.4106 15.3755 32.7771 15.3357 32.2096 15.4265C30.1574 15.75 28.125 16.1189 26.086 16.4707C26.5875 16.17 26.9966 15.7784 27.5971 15.5854C28.7981 15.1939 30.1178 14.9385 31.3452 14.5866C33.9583 13.8319 34.4466 12.6572 32.8761 11.1817C31.8797 10.251 30.9427 9.26919 29.9727 8.30444ZM26.3764 34.4491C26.4292 34.4547 26.4819 34.4547 26.5347 34.4604C26.5347 34.9541 26.3962 35.4649 26.5611 35.9416C26.957 37.0482 27.122 38.2626 28.0524 39.2047C29.9792 41.1455 33.3182 41.5031 36.8485 41.2023C41.4214 40.8164 43.4472 38.8755 42.0879 36.3161C41.4874 35.1811 40.8671 34.0461 40.293 32.9055C39.4484 31.2087 38.7291 29.5175 39.4616 27.7129C40.4976 25.1535 41.4148 22.5827 42.2792 20.0006C42.497 19.3536 42.7741 18.4002 42.2 18.0597C41.4016 17.5774 39.6991 17.2255 38.6235 17.3787C36.7033 17.6511 34.9415 18.3378 33.1334 18.8713C29.5173 19.9438 27.6763 21.6123 27.7489 24.0582C27.8017 25.8572 27.5971 27.6618 27.353 29.4608C27.1418 31.1235 26.7129 32.7863 26.3764 34.4491Z" fill="#96CFE2"/>
<path d="M7.99234 26.1466C7.47764 27.6845 6.6726 29.2054 6.52083 30.749C6.27668 33.1779 6.56042 35.6181 6.46144 38.0527C6.35586 40.6916 6.05892 43.3304 5.90055 45.975C5.87416 46.3722 6.1579 46.7751 6.30308 47.1724V47.1667C6.1579 47.2518 6.01933 47.3313 5.87416 47.4164C5.1879 48.0804 4.50163 48.7387 3.49863 49.7091C5.45184 49.5786 6.92335 49.4821 8.40146 49.3856C8.54663 49.5445 8.6918 49.7091 8.84357 49.868C8.76439 50.3674 8.63241 50.8725 8.63241 51.3719C8.62582 52.1266 8.7182 52.8871 8.76439 53.6475C6.81117 52.9779 4.85796 52.3082 2.90475 51.6386C2.49563 51.3832 2.08651 51.1222 1.68399 50.8668C1.40024 50.129 1.1165 49.3913 0.839355 48.6479C3.624 44.7038 4.77218 40.527 4.84476 36.3218C4.88436 33.8362 3.6372 31.3449 2.97073 28.8536C2.88495 28.689 2.79257 28.5187 2.70679 28.3542C2.66719 28.1896 2.621 28.025 2.58141 27.8604C2.46263 27.5313 2.33726 27.2021 2.21848 26.873C2.19869 26.6233 2.17229 26.3793 2.1525 26.1296C2.27787 25.948 2.44284 25.7664 2.51542 25.5734C3.10271 23.939 3.18849 22.1741 4.33666 20.6929C6.75179 17.5717 9.7344 14.6037 12.4399 11.5619C13.0073 10.9206 13.3967 10.2283 13.8652 9.55863V9.55295C14.4393 9.15571 15.0199 8.75846 15.594 8.36121C15.7524 8.27608 15.9108 8.18529 16.0691 8.10016C16.9402 7.87884 17.9036 7.73696 18.669 7.42484C21.5725 6.23309 25.8088 6.19337 28.2107 7.82209C28.6001 8.08314 29.3721 8.15124 29.966 8.31013L29.9792 8.30446C30.9492 9.26921 31.8862 10.2453 32.9024 11.1987C34.4795 12.6742 33.9846 13.8489 31.3715 14.6037C30.1376 14.9612 28.8178 15.2166 27.6235 15.6025C27.023 15.7954 26.6073 16.187 26.1124 16.4878C25.9738 16.4878 25.8352 16.4935 25.6966 16.4935C24.852 16.7375 24.0074 16.9872 23.1627 17.2312C22.747 17.2369 22.3379 17.2425 21.9222 17.2482C20.3715 17.8214 18.8274 18.3946 17.2767 18.9677C13.2845 19.7339 10.9024 21.5328 9.00854 23.5701C8.37507 24.2455 8.32228 25.1081 8.00554 25.8912C7.99234 25.982 7.99234 26.0671 7.99234 26.1466ZM11.2587 16.2608C11.714 16.0451 12.1693 15.9146 12.4003 15.7046C14.4261 13.8773 16.7686 13.3609 20.2725 13.7922C22.0212 14.0078 23.9678 14.0135 25.3007 13.1168C27.0626 11.9364 28.8508 11.1646 31.5233 12.555C30.9888 10.9944 29.7284 10.1659 27.6367 9.87643C27.4057 10.2396 27.1945 10.6199 26.924 10.983C25.69 12.6458 23.3343 13.0431 20.8202 12.067C20.3913 11.8967 19.7974 11.8456 19.2629 11.8059C15.1387 11.4881 11.2983 13.7354 11.2587 16.2608Z" fill="#84C1DB"/>
<path d="M42.2268 48.6706C42.2928 50.061 42.5106 51.4513 42.3588 52.8303C42.2862 53.5057 41.8375 54.3739 41.0193 54.7712C38.3534 56.0651 35.4632 57.1944 32.6125 58.3521C30.7583 59.1012 28.97 59.0047 27.3863 58.0173C26.3899 57.5406 25.4001 57.0696 24.4037 56.5929C24.1332 56.5985 23.8626 56.6042 23.5921 56.6099C23.4535 56.6723 23.3084 56.7404 23.1698 56.8028L23.1632 56.8085C22.2856 57.1206 21.4145 57.4328 20.5369 57.7449C16.9406 59.0161 12.7702 58.3748 11.4703 56.3375C11.1008 55.7643 10.7906 55.1798 10.4541 54.6009C12.1566 54.7542 13.8524 54.9074 15.5549 55.0606C16.4655 56.5929 18.102 57.0923 20.7217 56.6553C21.9292 56.4567 23.1368 56.1729 24.3641 56.1389C25.288 56.1162 26.7397 56.2694 27.0828 56.6326C28.3696 57.9889 30.4481 58.0343 32.3552 57.7051C34.7637 57.2909 36.8291 56.3886 37.8585 54.9358C38.2742 54.3512 38.459 53.7043 38.7427 53.0914C39.3102 52.3366 39.8711 51.5762 40.4386 50.8214C40.9797 50.0893 41.5208 49.3629 42.0618 48.6309C42.0684 48.6422 42.2268 48.6706 42.2268 48.6706Z" fill="#84C1DB"/>
<path d="M28.5147 2.16421C28.5015 2.40256 28.4949 2.64659 28.4883 2.88493C27.4194 3.38433 26.3438 3.88373 25.2748 4.38313C24.991 4.38313 24.7139 4.38313 24.4301 4.38313C23.1698 4.38313 21.9094 4.37745 20.6491 4.37745C20.0816 4.37745 19.5075 4.38313 18.94 4.38313C18.7949 4.38313 18.6497 4.38313 18.5111 4.3888C18.3857 4.3661 18.2604 4.3434 18.135 4.31503C18.003 4.17315 17.8776 4.03696 17.7457 3.89508C17.5675 3.23678 17.3959 2.57281 17.2178 1.91451C17.8842 1.79534 18.5573 1.70454 19.204 1.56267C22.4835 0.836268 25.6047 0.949767 28.5147 2.16421Z" fill="#84C1DB"/>
<path d="M13.8589 9.55872C13.3904 10.2284 13.0011 10.9264 12.4336 11.562C9.72811 14.6038 6.7455 17.5718 4.33038 20.693C3.18221 22.1742 3.08982 23.9391 2.50914 25.5735C2.44315 25.7665 2.27159 25.9424 2.14621 26.1297C1.196 23.9732 1.1762 21.794 3.05023 19.8531C5.16841 17.6512 7.33278 15.5004 8.97586 13.1396C9.90628 11.7833 12.1828 10.7448 13.8589 9.55872Z" fill="#96CFE2"/>
<path d="M10.4537 54.6122C10.7902 55.1911 11.1069 55.7756 11.4765 56.3488C12.7764 58.3861 16.9468 59.0274 20.5431 57.7562C21.4207 57.4441 22.2917 57.1319 23.1694 56.8198C23.5785 57.864 22.1532 58.0569 21.038 58.2839C18.5833 58.7777 16.2341 59.3849 13.4429 58.6358C11.5425 58.125 10.5065 57.6029 10.4867 56.3261C10.4669 55.0776 8.76441 54.5044 7.04215 54.1185C4.95697 53.6588 3.2743 53.0516 2.91797 51.6385C4.87118 52.3082 6.8244 52.9778 8.77761 53.6475C9.3319 53.9653 9.89279 54.2888 10.4537 54.6122Z" fill="#DCECF3"/>
<path d="M28.5145 2.16424C25.5979 0.94979 22.4833 0.83629 19.1971 1.55701C18.5505 1.69889 17.8708 1.79536 17.2109 1.90886C16.1419 1.42081 16.3135 0.853315 17.5013 0.785216C20.6686 0.603616 23.8756 0.507142 27.0562 0.575241C28.3693 0.603616 28.95 1.34136 28.5145 2.16424Z" fill="#96CFE2"/>
<path d="M29.953 8.31018C29.3591 8.15128 28.5805 8.08885 28.1978 7.82213C25.7958 6.19341 21.5595 6.23314 18.656 7.42488C17.8972 7.73701 16.9272 7.87888 16.0562 8.1002C16.9932 7.45326 17.9302 6.80631 18.8672 6.15369C21.8036 6.21611 24.7334 6.27286 27.6699 6.33529C28.4287 6.99358 29.1942 7.65188 29.953 8.31018Z" fill="#96CFE2"/>
<path d="M27.6695 6.33528C24.7331 6.27286 21.8033 6.21611 18.8668 6.15368C18.8206 6.00613 18.7745 5.85858 18.7349 5.70536C21.7175 5.67131 24.7001 5.63158 27.6827 5.59753C27.6761 5.84156 27.6695 6.09126 27.6695 6.33528Z" fill="#79AED2"/>
<path d="M18.9331 4.38299C19.5006 4.38299 20.0747 4.37732 20.6422 4.37732C21.9025 4.37732 23.1629 4.38299 24.4232 4.38299C24.707 4.38299 24.9841 4.38299 25.2679 4.38299C26.0729 4.38299 26.8779 4.38299 27.6896 4.37732C27.7028 4.54757 27.7226 4.71782 27.7358 4.88807C25.0567 4.96184 22.3776 5.05264 19.6986 5.07534C19.4544 5.07534 19.1905 4.62702 18.9331 4.38299Z" fill="#79AED2"/>
<path d="M18.9332 4.38306C19.1905 4.62141 19.4479 5.0754 19.7052 5.0754C22.3843 5.0527 25.0633 4.9619 27.7424 4.88813C28.0262 5.01298 28.3099 5.13215 28.6002 5.257C28.2967 5.3705 27.9932 5.48968 27.6896 5.60318C24.707 5.63723 21.7244 5.67695 18.7418 5.711C16.6632 5.3932 18.5438 4.83706 18.5108 4.39441C18.6428 4.38873 18.788 4.38306 18.9332 4.38306Z" fill="#96CFE2"/>
<path d="M27.6898 4.37741C26.8847 4.37741 26.0797 4.37741 25.2681 4.38308C26.3437 3.88368 27.4126 3.38429 28.4816 2.88489C28.4288 3.41834 29.3659 4.13906 27.6898 4.37741Z" fill="#96CFE2"/>
<path d="M24.4033 56.5985C25.3997 57.0752 26.3895 57.5462 27.3859 58.0229C24.8454 58.6642 25.1952 57.2228 24.4033 56.5985Z" fill="#DCECF3"/>
<path d="M0.839879 48.6479C1.12362 49.3857 1.40737 50.1234 1.68451 50.8669C-0.776801 50.4129 0.536339 49.4651 0.839879 48.6479Z" fill="#DCECF3"/>
<path d="M2.20557 26.8787C2.32434 27.2078 2.44972 27.537 2.56849 27.8661C2.44972 27.5313 2.33094 27.2021 2.20557 26.8787Z" fill="#96CFE2"/>
<path d="M2.7002 28.3541C2.78598 28.5187 2.87836 28.689 2.96414 28.8535C2.87836 28.689 2.79258 28.5244 2.7002 28.3541Z" fill="#96CFE2"/>
<path d="M23.1699 56.8084C23.3085 56.746 23.4537 56.6779 23.5922 56.6155C23.4537 56.6779 23.3151 56.746 23.1699 56.8084Z" fill="#DCECF3"/>
<path d="M26.3765 34.449C26.713 32.7863 27.1353 31.1292 27.3663 29.4607C27.6104 27.6618 27.815 25.8571 27.7622 24.0582C27.6896 21.6179 29.5306 19.9438 33.1467 18.8712C34.9548 18.3378 36.71 17.6511 38.6368 17.3787C39.719 17.2255 41.4149 17.5773 42.2133 18.0597C42.7808 18.4002 42.5103 19.3536 42.2925 20.0005C41.4281 22.5827 40.5109 25.1534 39.4749 27.7128C38.7424 29.5232 39.4617 31.2086 40.3063 32.9054C40.8672 34.0404 41.4875 35.1754 42.0946 36.3104C43.4539 38.8698 41.4281 40.8107 36.8552 41.1966C33.3249 41.4974 29.986 41.1398 28.0591 39.199C27.1287 38.2569 26.9572 37.0425 26.5678 35.9359C26.4029 35.4649 26.5414 34.9484 26.5414 34.4547C26.482 34.4547 26.4293 34.449 26.3765 34.449Z" fill="#AADCE7"/>
<path d="M42.0681 48.6423C41.5271 49.3743 40.986 50.1007 40.4449 50.8328C39.884 51.5932 39.3165 52.348 38.749 53.1028C36.8156 53.4603 34.8756 53.8235 33.1203 54.147C33.1533 53.8065 33.6614 52.9893 33.1797 52.6545C31.1341 51.213 28.8378 49.8908 26.5744 48.5571C24.476 47.3257 21.6386 47.0249 19.0387 47.337C15.4094 47.774 11.9451 48.6763 8.4082 49.38C6.93669 49.4765 5.45858 49.573 3.50537 49.7035C4.50837 48.7331 5.19464 48.0748 5.8809 47.4108C6.02607 47.3257 6.16464 47.2462 6.30982 47.1611V47.1668C6.54737 47.093 6.99608 47.0192 6.98948 46.9511C6.93669 45.6402 8.58637 45.3848 10.1964 45.311C14.6308 45.1067 18.2007 43.427 22.3644 42.8878C26.614 42.3374 31.0219 42.1955 35.3639 41.8777C35.4299 42.0082 35.4892 42.1444 35.5552 42.2749C34.0111 42.5814 32.4736 42.8935 30.9229 43.1943C30.593 43.2567 30.2433 43.2851 29.9068 43.3362C28.7058 43.5178 27.2871 43.5518 27.0297 44.4995C26.7592 45.4983 28.3891 45.4926 29.2667 45.8785C29.5438 46.0034 30.0057 46.0885 30.0849 46.2417C31.1077 48.228 34.9086 49.6013 33.9122 51.4173C33.6218 50.3164 35.9644 49.4992 37.6536 48.4493C39.4485 47.3257 41.2367 46.202 43.2691 44.9308C42.8402 46.219 42.4509 47.4278 42.0681 48.6423Z" fill="#79AED2"/>
<path d="M7.99219 26.1466C7.99219 26.0615 7.99219 25.982 7.99219 25.8969C9.29213 25.3975 10.2423 25.7153 11.0408 26.3509C11.4169 26.646 11.7336 26.9694 12.1032 27.2702C13.3239 28.2577 14.3797 28.3541 15.904 27.5426C17.2502 26.8276 18.3983 25.9763 19.8302 25.3351C21.6317 24.5292 22.7799 24.7789 23.8489 25.9309C21.8692 26.8219 19.7973 27.6164 18.0156 28.5925C15.7984 29.8069 14.5051 31.22 17.4019 32.9168C18.3917 33.4957 18.8602 34.625 18.847 35.5046C18.8338 36.8553 20.1866 38.3024 18.5237 39.5736C17.27 40.527 15.9304 41.4804 14.3599 42.2465C13.1656 42.8253 11.8062 42.5586 11.6611 41.5485C11.4433 40.0843 11.3641 38.5975 11.4565 37.1277C11.6083 34.6761 12.0042 32.2245 12.1824 29.7729C12.2549 28.7003 9.4373 26.3963 7.99219 26.1466Z" fill="#79AED2"/>
<path d="M25.6904 16.4991C25.829 16.4991 25.9676 16.4935 26.1062 16.4935C28.1452 16.1416 30.1775 15.7727 32.2297 15.4493C32.7972 15.3585 33.4307 15.3982 34.0312 15.3755C34.0774 15.4833 34.1236 15.5968 34.1698 15.7046C33.3845 15.9884 32.5597 16.2494 31.814 16.5672C29.4913 17.5604 26.9838 18.4513 24.9646 19.6204C23.6052 20.4092 23.1169 21.6861 21.9226 22.5997C20.5435 23.6553 18.94 24.6371 17.2045 25.4883C15.7264 26.2147 12.6118 26.1409 12.0839 25.3351C11.5362 24.4952 11.5098 23.2921 12.1499 22.4976C12.9088 21.5612 14.6442 20.8972 15.9112 20.0914C16.4325 19.7566 16.8284 19.3536 17.2771 18.9791C19.3161 18.8599 20.8272 18.2527 21.9226 17.2596C22.3383 17.2539 22.7474 17.2482 23.1631 17.2426C24.0012 16.9929 24.8458 16.7432 25.6904 16.4991Z" fill="#AADCE7"/>
<path d="M8.4082 49.3857C11.9451 48.682 15.4094 47.7797 19.0387 47.3427C21.632 47.0306 24.476 47.3257 26.5744 48.5628C28.8378 49.8965 31.1407 51.213 33.1797 52.6602C33.6548 52.995 33.1467 53.8122 33.1203 54.1527C34.8822 53.8235 36.8156 53.466 38.749 53.1085C38.4587 53.7271 38.2805 54.3683 37.8582 54.9529C36.8222 56.4 34.7634 57.308 32.3549 57.7222C30.4478 58.0514 28.3693 58.006 27.0825 56.6497C26.7394 56.2865 25.2877 56.1333 24.3638 56.156C23.1365 56.1843 21.9289 56.4738 20.7214 56.6724C18.1017 57.1037 16.4652 56.6043 15.5546 55.0777C20.2529 54.1584 24.5156 52.4332 29.722 52.4218C28.7652 51.5422 28.4748 51.4911 27.1287 51.8203C26.1191 52.07 25.0831 52.297 24.0339 52.4729C21.8431 52.8418 19.6326 53.1652 17.4352 53.5228C14.71 53.9711 12.0771 53.2617 11.3512 51.8657C12.3278 51.5989 13.311 51.3322 14.2876 51.0598C14.2283 50.935 14.1623 50.8101 14.1029 50.6796C12.6248 50.5774 11.1533 50.4753 9.67515 50.3732C9.39801 50.2029 9.12086 50.0327 8.84372 49.8624C8.70514 49.7035 8.55337 49.5446 8.4082 49.3857Z" fill="#96CFE2"/>
<path d="M11.2588 16.2608C11.305 13.7354 15.1388 11.4882 19.2696 11.806C19.8041 11.8457 20.398 11.9024 20.8269 12.067C23.3344 13.0431 25.6967 12.6459 26.9307 10.9831C27.2012 10.6199 27.4124 10.2397 27.6433 9.87646C29.7417 10.1602 30.9955 10.9944 31.53 12.5551C28.8641 11.1647 27.0693 11.9365 25.3074 13.1169C23.9745 14.0135 22.0279 14.0022 20.2792 13.7922C16.7753 13.3666 14.4328 13.883 12.407 15.7047C12.1628 15.9146 11.7141 16.0452 11.2588 16.2608Z" fill="#79AED2"/>
<path d="M11.3579 51.8656C12.0772 53.2617 14.7166 53.9711 17.4419 53.5227C19.6327 53.1595 21.8498 52.8417 24.0406 52.4729C25.0898 52.2969 26.1258 52.0699 27.1354 51.8202C28.4749 51.4911 28.7719 51.5422 29.7287 52.4218C24.5223 52.4331 20.2661 54.1583 15.5613 55.0777C13.8588 54.9244 12.1629 54.7712 10.4605 54.618C9.8996 54.2945 9.33871 53.9767 8.77782 53.6533C8.73163 52.8985 8.63924 52.138 8.64584 51.3833C8.64584 50.8839 8.78442 50.3788 8.857 49.8794C9.13415 50.0496 9.41129 50.2199 9.68844 50.3901C10.2361 50.8725 10.797 51.3662 11.3579 51.8656Z" fill="#79AED2"/>
<path d="M21.916 17.2539C20.8206 18.2527 19.3095 18.8543 17.2705 18.9734C18.8146 18.4003 20.3653 17.8271 21.916 17.2539Z" fill="#96CFE2"/>
<path d="M24.43 4.38374C23.1696 4.38374 21.9093 4.37732 20.6489 4.37732C21.9093 4.37732 23.1696 4.37732 24.43 4.38374Z" fill="#96CFE2"/>
<path d="M11.3577 51.8656C10.7968 51.3719 10.2425 50.8725 9.68164 50.3788C11.1597 50.4809 12.6313 50.5831 14.1094 50.6852C14.1688 50.8101 14.2347 50.9349 14.2941 51.0655C13.3109 51.3265 12.3343 51.5989 11.3577 51.8656Z" fill="#84C1DB"/>
</g>
<defs>
<clipPath id="clip0_366_212">
<rect width="44.8183" height="58.4239" fill="white" transform="translate(0.219238 0.558105)"/>
</clipPath>
</defs>
</svg>
