<svg width="43" height="61" viewBox="0 0 43 61" fill="none" xmlns="http://www.w3.org/2000/svg">
<path d="M36.6646 9.62984C37.3202 12.7481 37.9559 15.8758 38.638 18.994C39.0353 20.8028 39.5187 22.5927 39.9624 24.3826C38.9956 24.7595 38.0288 25.1363 36.9891 25.5414C37.499 25.7957 38.0884 26.0878 38.6711 26.3798C36.4064 30.6097 34.8171 31.2503 30.665 29.7053C31.5193 29.6394 32.4066 29.4039 33.2211 29.5357C35.3137 29.8843 35.2276 28.1603 35.6382 27.1241C36.1613 25.8052 35.1614 25.5131 34.0158 25.5791C33.4794 25.3153 32.943 24.8348 32.4066 24.8348C30.6915 24.8537 28.9764 25.0515 27.2679 25.1834C28.142 24.1188 29.0228 23.0543 29.9631 21.905C28.4334 21.905 27.215 21.905 26.0031 21.905C24.7383 22.0463 23.3742 21.9333 22.2418 22.376C19.891 23.2993 18.9705 22.7623 18.997 19.7288C22.0034 19.3614 25.0694 18.9846 28.142 18.6172C27.9301 19.3614 27.7182 20.1056 27.46 21.0006C28.3407 20.8781 29.1685 20.8593 29.9167 20.6238C30.3538 20.4825 30.9763 19.9832 30.9763 19.644C30.9829 18.3534 30.7776 17.0533 30.6518 15.7533C31.9365 15.7533 33.2211 15.7533 34.5058 15.7627C34.433 17.1004 36.1282 18.9092 33.0092 19.4179C33.1284 19.6063 33.2476 19.7948 33.3668 19.9832C34.4131 20.0962 35.4528 20.1999 36.1547 20.2752C35.9494 17.515 35.7574 14.8772 35.5654 12.2394C35.4263 12.2582 35.2872 12.2676 35.1482 12.2865C34.9032 13.1909 34.6581 14.0858 34.4065 14.9902C33.3801 14.9714 32.3404 14.8677 31.3272 14.9714C30.5591 15.0562 29.824 15.4141 29.0757 15.6497C28.7645 15.6779 28.4533 15.7156 28.1354 15.7439C27.6586 15.3388 27.2481 14.7641 26.6918 14.5474C24.5198 13.6996 22.2815 13.0213 20.1095 12.1734C19.4539 11.9191 18.9374 11.3256 18.3547 10.8922C18.1825 11.1654 18.0169 11.4386 17.8448 11.7118C19.3546 12.5126 20.8644 13.3228 22.3742 14.1235C23.1623 14.538 23.9635 14.9431 24.7582 15.3482C22.3279 15.8758 19.8711 16.2997 17.4805 16.9685C15.633 17.4867 13.8715 18.2969 12.0703 18.9846C11.779 19.1353 11.4876 19.286 11.1962 19.4462L11.2227 19.4273C10.9313 19.5687 10.64 19.71 10.3552 19.8513L10.3685 19.8324C9.28907 20.2187 8.20967 20.6144 7.468 20.8781C7.1965 19.6817 6.88526 18.3157 6.57403 16.9497C6.56078 15.3482 6.17008 13.6431 6.60051 12.1734C7.66666 8.53704 10.8916 6.93553 14.2622 5.98404C20.0433 4.35427 25.8972 4.22237 31.7047 6.13476C32.3404 6.34202 33.0887 6.2384 33.7906 6.2855C34.029 6.39855 34.2674 6.5116 34.5058 6.61523C34.6383 6.65291 34.7707 6.68117 34.9031 6.71886C36.711 6.99206 36.4593 8.44284 36.6646 9.62984Z" fill="#D1B49E"/>
<path d="M9.77892 56.413C9.43457 55.5839 9.0836 54.7549 8.73926 53.9165C9.19618 54.0578 9.76567 54.0672 10.0835 54.3498C11.7854 55.8571 13.8515 56.0738 15.9772 55.9702C21.7714 55.7064 23.8574 51.7968 21.1887 46.606C19.5266 43.3747 16.1692 41.029 15.8447 37.0817C20.2947 34.8019 25.1023 34.8773 29.9762 35.386C29.9563 35.1034 29.9298 34.8113 29.9099 34.5287C25.5593 34.7454 21.2086 34.9621 16.7056 35.1882C17.6327 33.0497 19.5067 33.0874 21.2814 32.946C25.5924 33.3794 29.9099 33.7656 34.2143 34.2744C34.8699 34.3497 35.4526 34.9432 36.0751 35.2918C35.9824 35.4802 35.8963 35.678 35.8036 35.8665C34.5189 35.7252 33.2342 35.5744 31.9495 35.4331C31.923 35.5556 31.8899 35.678 31.8635 35.8005C33.4395 36.2339 35.0155 36.6672 36.5916 37.1006C38.2206 37.7883 39.8496 38.4666 41.4787 39.1543C42.7766 42.0276 43.0282 44.835 41.3197 47.6988C40.7635 48.6315 40.737 49.8467 40.3595 50.8924C40.0284 51.7968 39.5384 52.6541 39.1146 53.5302C38.4458 53.7281 37.7637 53.8882 37.1081 54.1143C28.2081 57.176 19.1624 58.721 9.77892 56.413ZM39.1345 39.9739C38.9954 39.7572 38.8497 39.5405 38.7106 39.3238C38.6246 39.4086 38.5385 39.4934 38.4524 39.5782C38.6775 39.7101 38.9027 39.8514 39.1212 39.9833C39.1676 41.8769 39.4987 43.7704 37.0551 44.8067C36.426 45.0705 36.0089 46.5495 36.0552 47.4445C36.1876 49.9692 35.6182 51.1845 33.1216 51.8251C30.8304 52.4092 28.4531 52.673 26.1354 53.144C25.3805 53.3041 24.6785 53.6904 23.9501 53.9824C24.0229 54.2462 24.0958 54.5194 24.1686 54.7832C27.1883 54.5571 30.2477 54.5571 33.2143 54.0295C35.0619 53.6998 36.8167 52.673 38.4987 51.7591C38.9888 51.4954 39.5119 50.2613 39.2934 49.9598C37.3796 47.2561 38.8696 45.0328 40.247 42.8566C41.2403 41.2833 40.7701 40.4826 39.1345 39.9739Z" fill="#D1B49E"/>
<path d="M21.2881 32.946C19.5134 33.0968 17.6394 33.0497 16.7123 35.1881C21.2153 34.9621 25.566 34.7454 29.9167 34.5287C29.9365 34.8113 29.963 35.1034 29.9829 35.386C25.1091 34.8773 20.3015 34.8019 15.8514 37.0817C12.9973 36.7803 11.6001 37.5056 11.2756 40.0869C10.971 42.5363 11.2028 45.0516 11.2359 47.5387C11.2822 51.241 11.9378 51.8627 15.7587 51.8722C16.9904 51.8722 18.2288 51.8722 19.4605 51.8722C19.4737 52.2396 19.4869 52.5976 19.5002 52.965C17.1163 53.144 14.7389 53.3795 12.355 53.4925C10.62 53.5773 9.90484 52.4374 10.077 51.0055C10.2691 49.4417 9.74591 48.4807 8.45462 47.6046C6.14352 46.0408 4.48801 44.1001 5.64024 41.0761C5.67336 40.963 5.73958 40.8782 5.84553 40.8217C8.2096 40.4543 11.5008 36.9027 11.6133 34.5852C11.6729 34.312 11.7325 34.0294 11.7855 33.7562C11.6332 33.3511 11.4875 32.946 11.3352 32.5409C11.2624 32.4279 11.2425 32.3054 11.2822 32.1735C13.547 32.0699 15.3747 29.4604 15.5336 25.5508C13.1894 26.9545 11.1167 28.1886 9.0506 29.4227C7.79903 28.4147 6.54747 27.4161 5.2959 26.4081C5.83228 25.0609 5.52767 24.4203 3.92513 24.8537C3.83905 24.7783 3.79932 24.6841 3.79932 24.571C4.15691 23.7232 4.56085 22.8942 4.86547 22.0275C5.46145 20.3412 6.00446 18.6454 6.56733 16.9497C6.87857 18.3157 7.1898 19.6817 7.46131 20.8781C8.20298 20.6049 9.28237 20.2187 10.3618 19.8324C9.49428 20.7745 8.62679 21.7072 7.7593 22.6492C7.89836 22.8471 8.03743 23.0355 8.18311 23.2333C9.59361 22.621 11.0041 22.0086 12.4146 21.4057C12.4808 21.5658 12.5537 21.7166 12.6199 21.8767C12.1034 22.197 11.5935 22.5268 11.3551 22.6775C13.6198 23.0637 15.9839 23.4782 18.2023 23.8551C17.8778 25.3341 17.6725 26.2856 17.4937 27.1052C18.5532 27.3219 19.328 27.482 20.1028 27.6422C19.9571 27.7741 19.818 27.9154 19.6724 28.0473C18.2619 28.5371 16.6792 28.848 16.1892 30.9394C17.6593 30.5908 18.6724 30.3553 19.6856 30.1198C19.679 30.5155 19.6724 30.9112 19.6657 31.3162C19.4009 31.5423 19.136 31.7684 18.8777 31.9945C19.2949 32.1924 19.7121 32.3996 20.1293 32.5975C20.5067 32.7199 20.8974 32.833 21.2881 32.946ZM7.05736 25.3435C8.98438 27.9154 9.58699 28.0567 11.5074 26.6718C10.1432 26.2668 8.67976 25.824 7.05736 25.3435Z" fill="#A77B5C"/>
<path d="M5.6403 41.0856C4.48806 44.1096 6.14357 46.0408 8.45467 47.6141C9.74597 48.4902 10.2691 49.4511 10.0771 51.015C9.9049 52.4469 10.6135 53.5868 12.3551 53.502C14.739 53.3796 17.1163 53.1535 19.5002 52.9745C19.487 52.6071 19.4738 52.2491 19.4605 51.8817C18.2288 51.8817 16.9905 51.8817 15.7588 51.8817C11.9379 51.8722 11.2823 51.2599 11.2359 47.5481C11.2028 45.0611 10.9644 42.5458 11.2757 40.0964C11.6001 37.5151 12.9974 36.7897 15.8515 37.0912C16.176 41.0385 19.5334 43.3842 21.1955 46.6155C23.8642 51.8063 21.7716 55.7159 15.9839 55.9797C13.8583 56.0739 11.7922 55.8572 10.0903 54.3593C9.77246 54.0767 9.19634 54.0578 8.74604 53.9259C9.49433 50.1577 5.91842 48.6504 4.26953 46.201C2.33589 43.3465 2.2763 42.6871 5.6403 41.0856Z" fill="#BA997F"/>
<path d="M34.4928 6.62472C34.2544 6.51167 34.016 6.39864 33.7776 6.29501C30.3408 3.61953 26.1887 3.10139 22.0764 3.16733C17.1761 3.25212 12.5407 4.75001 8.45489 7.45375C5.24981 9.5734 2.03812 11.7778 2.17056 16.1961C0.309766 14.8301 0.912372 13.0308 1.44876 11.3916C2.48842 8.19797 5.03129 6.25732 7.98472 4.88191C13.8121 2.14991 19.964 0.623751 26.4735 1.01942C30.6785 1.27378 34.6782 2.28179 37.2211 5.99354C38.0886 7.26533 38.4197 8.65017 36.6714 9.63934C36.4662 8.45233 36.7178 7.00155 34.8967 6.73777C34.751 6.7095 34.6186 6.68125 34.4928 6.62472Z" fill="#E0E0E0"/>
<path d="M2.17037 16.196C2.0313 11.7777 5.24962 9.57326 8.45469 7.45361C12.5471 4.74045 17.1826 3.25198 22.0762 3.16719C26.1885 3.10125 30.3406 3.61939 33.7774 6.29487C33.0821 6.25719 32.3338 6.35139 31.6981 6.14413C25.8972 4.23173 20.0367 4.37304 14.2556 5.9934C10.885 6.94489 7.66004 8.54641 6.59389 12.1828C6.16346 13.6618 6.55416 15.367 6.56741 16.9591C6.00453 18.6548 5.46153 20.3505 4.86554 22.0368C4.56093 22.9035 4.15698 23.7325 3.79939 24.5804C3.30936 22.5926 2.78622 20.6049 2.35578 18.6077C2.18361 17.8258 2.22334 16.9968 2.17037 16.196Z" fill="#BA997F"/>
<path d="M19.6519 31.3257C19.6585 30.9301 19.6651 30.5344 19.6717 30.1293C22.3735 29.9597 25.0753 29.7902 27.7771 29.6206C28.7373 29.6488 29.7041 29.6771 30.6643 29.7054C34.8163 31.2598 36.4056 30.6192 38.6704 26.3799C38.0876 26.0878 37.4983 25.7958 36.9884 25.5414C38.0214 25.1363 38.9882 24.7595 39.9617 24.3827C41.1934 26.1538 40.9219 27.4444 39.0677 28.801C36.8427 30.4308 36.803 31.9946 38.3923 34.4534C39.0545 35.4803 39.7829 36.46 40.4848 37.4586C39.1935 37.3361 37.8956 37.2137 36.6043 37.0912C35.0283 36.6578 33.4522 36.2245 31.8762 35.7911C31.9026 35.6687 31.9358 35.5462 31.9622 35.4237C33.2469 35.565 34.5316 35.7158 35.8163 35.8571C35.909 35.6687 35.9951 35.4708 36.0878 35.2824C35.4719 34.9338 34.8826 34.3403 34.227 34.265C29.9227 33.7657 25.6051 33.37 21.2941 32.9367C20.9034 32.8236 20.5127 32.7106 20.122 32.5975C19.9631 32.1736 19.8042 31.7497 19.6519 31.3257ZM35.3064 33.549C34.7634 32.6352 34.5051 31.5236 33.929 31.3446C29.6048 29.9597 25.1614 30.6663 20.7644 30.5815C20.7246 30.8924 20.6783 31.2127 20.6385 31.5236C25.3137 32.1642 29.9889 32.8142 35.3064 33.549Z" fill="#BA997F"/>
<path d="M38.8029 54.397C38.8493 56.055 37.942 56.9971 36.4521 57.6754C30.5849 60.3697 24.4066 61.3023 17.9766 60.8878C16.8707 60.3697 15.7648 59.8516 14.7053 59.3523C15.1489 59.3052 15.7383 59.2392 16.3277 59.1827C16.3277 59.1168 16.3277 59.0602 16.321 58.9943C15.5728 58.8906 14.8245 58.787 14.0762 58.6928C16.3012 58.495 18.5659 58.1181 20.632 58.5798C24.5059 59.4465 27.9427 57.9863 31.4789 57.1855C34.0019 56.6014 36.366 55.3485 38.8029 54.397Z" fill="#BA997F"/>
<path d="M38.8029 54.3969C36.366 55.3484 34.002 56.6014 31.479 57.176C27.9494 57.9768 24.5059 59.437 20.632 58.5703C18.566 58.1087 16.3012 58.4855 14.0762 58.6833C14.8245 58.787 15.5728 58.8906 16.3211 58.9848C16.3211 59.0507 16.3211 59.1072 16.3277 59.1732C15.7383 59.2391 15.149 59.2957 14.7053 59.3428C15.7582 59.8421 16.8641 60.3602 17.9766 60.8783C16.2482 60.6334 14.4802 60.5298 12.7982 60.0964C10.9572 59.6254 9.7454 58.429 9.78513 56.3941C19.1752 58.7022 28.2143 57.1572 37.1209 54.0955C37.7765 53.8694 38.4586 53.6998 39.1274 53.5114C39.0149 53.8128 38.9089 54.1049 38.8029 54.3969Z" fill="#A77B5C"/>
<path d="M9.05713 29.4322C11.1298 28.1981 13.1959 26.964 15.5401 25.5603C15.3812 29.4793 13.5535 32.0888 11.2888 32.183C10.5405 31.2787 9.7988 30.3554 9.05713 29.4322Z" fill="#BA997F"/>
<path d="M11.6199 34.604C11.5007 36.9215 8.21612 40.4731 5.85205 40.8405C7.77244 38.7585 9.69284 36.686 11.6199 34.604Z" fill="#BA997F"/>
<path d="M36.605 37.1006C37.8963 37.2231 39.1942 37.3455 40.4855 37.468C40.8166 38.0332 41.1543 38.589 41.4854 39.1543C39.8564 38.4666 38.2274 37.7789 36.605 37.1006Z" fill="#A77B5C"/>
<path d="M3.9248 24.8631C5.53396 24.4297 5.83195 25.0798 5.29557 26.4175C4.83865 25.8994 4.38173 25.3812 3.9248 24.8631Z" fill="#BA997F"/>
<path d="M11.3418 32.5597C11.4875 32.9648 11.6398 33.3699 11.7921 33.775C11.6398 33.3699 11.4941 32.9648 11.3418 32.5597Z" fill="#BA997F"/>
<path d="M20.0896 27.6517C19.3148 27.4915 18.54 27.3313 17.4805 27.1147C17.6593 26.2857 17.8646 25.3436 18.1891 23.8645C15.9707 23.4783 13.6066 23.0732 11.3419 22.687C11.5803 22.5362 12.0968 22.2065 12.6067 21.8862C12.5405 21.726 12.4676 21.5753 12.4014 21.4152C10.9909 22.0275 9.5804 22.6398 8.1699 23.2428C8.03084 23.0449 7.89178 22.8565 7.74609 22.6587C8.61358 21.7166 9.48107 20.784 10.3486 19.8419L10.3353 19.8608C10.6267 19.7194 10.9181 19.5781 11.2028 19.4368L11.1763 19.4557C11.4677 19.3049 11.7591 19.1542 12.0504 18.9941C13.8516 18.3158 15.6131 17.4962 17.4606 16.978C19.8512 16.3092 22.308 15.8852 24.7383 15.3577C25.4336 15.4896 26.1355 15.6214 26.8308 15.7627C23.6787 16.8461 20.0962 16.6106 17.1958 18.5701C17.997 18.9187 18.7321 18.9941 19.4406 18.9093C22.3278 18.5795 25.2151 18.2027 28.0956 17.8447C28.1023 18.1085 28.1089 18.3723 28.1155 18.6361C25.0495 19.0129 21.9769 19.3803 18.9705 19.7477C18.944 22.7812 19.8644 23.3087 22.2153 22.3949C23.3476 21.9521 24.7184 22.0652 25.9766 21.9239C25.5594 22.1971 25.1488 22.4703 24.7316 22.7435C23.6059 23.0732 22.5 23.4689 21.361 23.7232C19.5201 24.1377 19.3281 25.1834 19.9174 26.7002C20.818 26.7002 21.606 26.7002 22.3941 26.7002C22.4007 26.8415 22.4139 26.9828 22.4206 27.1241C21.6656 27.2937 20.8776 27.4727 20.0896 27.6517Z" fill="#BA997F"/>
<path d="M30.665 29.7053C29.7048 29.6771 28.738 29.6488 27.7778 29.6206C27.0692 28.5654 26.3541 27.5103 25.6455 26.4552C26.3276 26.4552 27.0096 26.4458 27.6851 26.4458C29.387 28.3582 32.3669 27.9437 33.6516 25.6168C33.7774 25.6168 33.8966 25.5979 34.0158 25.5791C35.1614 25.5131 36.1613 25.8052 35.6382 27.1241C35.2276 28.1604 35.3137 29.8843 33.2211 29.5358C32.4066 29.4039 31.5193 29.6394 30.665 29.7053Z" fill="#CACACA"/>
<path d="M24.7646 22.734C25.1818 22.4608 25.5924 22.1876 26.0096 21.9144C27.2214 21.9144 28.4398 21.9144 29.9695 21.9144C29.0292 23.0638 28.1485 24.1283 27.2744 25.1928C26.1685 25.4755 25.056 25.7675 23.9501 26.0501C23.811 25.6921 23.4601 25.2588 23.566 24.9856C23.864 24.1942 24.3474 23.4783 24.7646 22.734Z" fill="#CACACA"/>
<path d="M28.1422 18.6266C28.1356 18.3628 28.129 18.099 28.1224 17.8352C28.129 17.1475 28.129 16.4504 28.1356 15.7627L28.1422 15.7533C28.4535 15.725 28.7647 15.6873 29.0826 15.6591C29.6057 15.6967 30.1355 15.7344 30.6586 15.7721C30.7844 17.0722 30.9963 18.3628 30.9831 19.6628C30.9831 20.002 30.3606 20.5013 29.9236 20.6426C29.1753 20.8781 28.3475 20.897 27.4668 21.0194C27.7184 20.115 27.9303 19.3708 28.1422 18.6266Z" fill="#CACACA"/>
<path d="M34.406 14.9996C34.6511 14.0952 34.8961 13.2003 35.1477 12.2959C35.2868 12.277 35.4258 12.2676 35.5649 12.2488C35.7569 14.8866 35.949 17.5244 36.1543 20.2846C35.4523 20.2093 34.406 20.0962 33.3664 19.9926C33.2472 19.8042 33.128 19.6157 33.0088 19.4273C36.1278 18.9092 34.4325 17.1004 34.5054 15.7721C34.4723 15.5178 34.4392 15.2634 34.406 14.9996Z" fill="#CACACA"/>
<path d="M26.8507 15.7533C26.1554 15.6214 25.4535 15.4895 24.7581 15.3482C23.9635 14.9431 23.1689 14.538 22.3742 14.1235C20.8644 13.3228 19.3546 12.522 17.8447 11.7118C18.0169 11.4386 18.1825 11.1654 18.3546 10.8922C18.9374 11.3256 19.4539 11.9191 20.1095 12.1734C22.2815 13.0213 24.5197 13.6996 26.6918 14.5474C27.248 14.7641 27.6586 15.3388 28.1354 15.7439L28.1288 15.7533C27.705 15.7533 27.2811 15.7533 26.8507 15.7533Z" fill="#CACACA"/>
<path d="M23.9497 26.0501C25.0556 25.7675 26.1681 25.4754 27.274 25.1928C28.9891 25.0609 30.6976 24.8631 32.4127 24.8443C32.9491 24.8348 33.4855 25.3247 34.0218 25.5885C33.9026 25.6073 33.7768 25.6167 33.6576 25.6262C31.671 25.8994 29.6778 26.1726 27.6912 26.4552C27.0091 26.4552 26.327 26.4646 25.6516 26.4646C25.0821 26.3233 24.5126 26.1914 23.9497 26.0501Z" fill="#BA997F"/>
<path d="M34.4067 14.9997C34.4398 15.2541 34.4663 15.5179 34.4994 15.7722C33.2147 15.7722 31.9301 15.7722 30.6454 15.7628C30.1222 15.7251 29.5925 15.6874 29.0693 15.6497C29.8176 15.4142 30.5527 15.0562 31.3208 14.9715C32.3406 14.8772 33.3803 14.9903 34.4067 14.9997Z" fill="#BA997F"/>
<path d="M12.0636 18.9846C11.7722 19.1354 11.4808 19.2861 11.1895 19.4462C11.4874 19.2955 11.7722 19.1448 12.0636 18.9846Z" fill="#A77B5C"/>
<path d="M11.2156 19.4274C10.9243 19.5687 10.6329 19.71 10.3481 19.8513C10.6395 19.7194 10.9309 19.5687 11.2156 19.4274Z" fill="#A77B5C"/>
<path d="M34.4927 6.62463C34.6185 6.68116 34.7576 6.70942 34.89 6.72826C34.7576 6.69058 34.6251 6.66232 34.4927 6.62463Z" fill="#BA997F"/>
<path d="M39.1341 39.9738C40.7631 40.4825 41.2399 41.2832 40.2466 42.8659C38.8692 45.0421 37.3792 47.2654 39.293 49.9691C39.5115 50.2706 38.9884 51.5047 38.4983 51.7685C36.8163 52.6823 35.0615 53.7091 33.214 54.0389C30.2539 54.5664 27.1879 54.5664 24.1682 54.7925C24.0954 54.5287 24.0225 54.2555 23.9497 53.9917C24.6781 53.7091 25.3801 53.3135 26.135 53.1533C28.4593 52.6729 30.83 52.4185 33.1212 51.8344C35.6178 51.1938 36.1873 49.9785 36.0548 47.4538C36.0085 46.5588 36.4256 45.0892 37.0547 44.816C39.4983 43.7797 39.1672 41.8768 39.1208 39.9926L39.1341 39.9738Z" fill="#CACACA"/>
<path d="M39.1278 39.9833C38.9027 39.8514 38.6775 39.7101 38.459 39.5782C38.5451 39.4934 38.6312 39.4086 38.7172 39.3239C38.8563 39.5405 39.002 39.7572 39.1411 39.9739C39.1344 39.9739 39.1278 39.9833 39.1278 39.9833Z" fill="#CACACA"/>
<path d="M23.9503 26.0501C24.5132 26.1914 25.0827 26.3233 25.6455 26.4646C26.3541 27.5197 27.0693 28.5748 27.7778 29.6299C25.076 29.7995 22.3742 29.9691 19.6724 30.1386C19.6658 29.4509 19.6658 28.7632 19.6592 28.0661C19.8049 27.9342 19.9439 27.7929 20.0896 27.661C20.8777 27.482 21.6657 27.303 22.4537 27.124C22.4471 26.9827 22.4338 26.8414 22.4272 26.7001C21.6392 26.7001 20.8512 26.7001 19.9506 26.7001C19.3546 25.1834 19.5466 24.1377 21.3942 23.7232C22.5332 23.4688 23.6457 23.0731 24.7648 22.7434C24.3542 23.4876 23.8642 24.2036 23.5662 24.995C23.4603 25.2493 23.8046 25.6921 23.9503 26.0501Z" fill="#D1B49E"/>
<path d="M19.659 28.0568C19.6656 28.7445 19.6656 29.4322 19.6722 30.1293C18.659 30.3648 17.6459 30.6098 16.1758 30.9489C16.6658 28.8575 18.2485 28.5466 19.659 28.0568Z" fill="#BA997F"/>
<path d="M7.05762 25.3435C8.68002 25.824 10.1435 26.2667 11.5076 26.6718C9.58724 28.0567 8.98463 27.9154 7.05762 25.3435Z" fill="#BA997F"/>
<path d="M19.6528 31.3257C19.8051 31.7496 19.964 32.183 20.1163 32.6069C19.6991 32.4091 19.2819 32.2018 18.8647 32.004C19.123 31.7685 19.3879 31.5424 19.6528 31.3257Z" fill="#D1B49E"/>
<path d="M35.307 33.5489C29.9961 32.8141 25.3143 32.1641 20.6392 31.5235C20.6789 31.2126 20.7252 30.8923 20.765 30.5814C25.1686 30.6662 29.6054 29.9597 33.9296 31.3445C34.5057 31.5235 34.764 32.6351 35.307 33.5489Z" fill="#D1B49E"/>
<path d="M26.8504 15.7533C27.2742 15.7533 27.7047 15.7533 28.1285 15.7627C28.1218 16.4504 28.1218 17.1476 28.1152 17.8353C25.228 18.1933 22.3474 18.5701 19.4602 18.8998C18.745 18.9846 18.0166 18.9092 17.2153 18.5607C20.1158 16.6012 23.6983 16.8367 26.8504 15.7533Z" fill="#D1B49E"/>
<path d="M27.6846 26.4458C29.6712 26.1726 31.6644 25.8994 33.651 25.6168C32.3664 27.9437 29.3864 28.3582 27.6846 26.4458Z" fill="#D1B49E"/>
</svg>
