<svg width="70" height="88" viewBox="0 0 70 88" fill="none" xmlns="http://www.w3.org/2000/svg">
<g clip-path="url(#clip0_366_244)">
<path d="M65.068 18.8781C65.5221 19.4989 66.264 20.098 66.3725 20.7449C66.6 22.1733 66.6985 23.6581 66.4739 25.0691C66.3381 25.9157 65.4633 26.6538 65.0064 27.4743C64.4559 28.4599 63.68 29.4498 63.5675 30.4961C63.2665 33.3485 63.2604 36.2269 63.1491 39.0967C62.8991 45.6394 62.7333 52.1864 62.3833 58.7204C61.9385 67.0431 61.3727 75.3572 60.7964 83.6712C60.6744 85.4339 58.2972 87.1054 56.2379 87.0621C47.9327 86.8931 39.6321 86.7067 31.3276 86.5551C25.6652 86.4511 20.0033 86.499 14.3454 86.2387C13.0413 86.178 11.7684 85.1404 10.4809 84.55C17.1289 84.7582 23.7821 84.9663 30.43 85.1745C39.017 85.3001 47.5986 85.4213 56.1855 85.5469C58.712 84.8999 59.5784 83.2501 59.6604 81.266C60.2904 65.9404 60.8574 50.6148 61.4874 35.2892C61.6099 32.2979 61.9059 29.3152 62.1311 26.2631C64.4837 26.2891 65.2915 25.3079 65.0619 23.4107C64.8842 21.9128 65.0574 20.3933 65.068 18.8781Z" fill="#A89D86"/>
<path d="M30.4302 85.1788C23.7822 84.9707 17.129 84.7625 10.4811 84.5544L10.4333 84.5413C10.2601 84.4024 10.0868 84.2635 9.91359 84.1246C6.49536 81.472 7.66329 77.951 7.34074 74.8512C6.46598 66.3375 6.13628 57.802 5.55497 49.2753C5.08129 42.3376 4.62353 35.4042 3.98205 28.4708C3.89292 27.5069 2.82355 26.5779 2.18951 25.6402C1.77798 25.0324 1.03642 24.4419 0.981488 23.8254C0.821324 22.0975 0.875705 20.3522 0.999155 18.6286C1.03349 18.1511 1.56969 17.3435 1.9573 17.3218C4.03146 17.2045 4.0561 15.9194 4.35257 14.7428C5.3762 10.7399 6.33094 6.71963 7.48695 2.74709C7.70953 1.97429 8.70507 1.37512 9.34595 0.697823C9.37375 1.01475 9.39629 1.33168 9.41884 1.64861C9.2089 2.47785 8.99355 3.30275 8.78361 4.13199C8.4924 5.30856 8.19576 6.48078 7.8993 7.65734C6.92886 11.1263 5.953 14.5908 4.98256 18.0597C4.81116 18.1075 4.63959 18.1509 4.46294 18.1987C4.28774 18.1466 4.11485 18.1553 3.94936 18.2204C3.61375 18.2291 3.27831 18.2422 2.9427 18.2508C2.79237 20.096 2.5843 21.9412 2.58112 23.7906C2.58297 23.9773 3.84049 24.1944 4.51487 24.3984C4.6909 24.4722 4.86184 24.5503 5.03787 24.6241C5.51918 29.8296 5.99542 35.0394 6.47673 40.2449C6.49274 40.666 6.50875 41.0871 6.52475 41.5083C6.63391 43.2753 6.7429 45.0379 6.85206 46.8049C6.85258 47.6472 6.85835 48.4894 6.85904 49.336C6.98457 50.9815 7.10502 52.6312 7.23056 54.2767C7.88523 62.938 8.5294 71.5993 9.21031 80.2606C9.41184 82.8004 10.4031 83.6079 13.424 83.8162C14.3818 83.8813 15.3474 83.8769 16.3036 83.8986C25.7345 84.1327 35.1601 84.3624 44.591 84.5965C43.3199 84.7138 42.0564 84.8919 40.7826 84.9353C37.3328 85.044 33.8811 85.1005 30.4302 85.1788Z" fill="#F8F2CC"/>
<path d="M65.0681 18.8781C65.0574 20.3933 64.8842 21.9129 65.0621 23.415C65.2864 25.3123 64.4786 26.2935 62.1313 26.2675C61.9114 29.3196 61.6101 32.3022 61.4876 35.2936C60.8576 50.6192 60.2906 65.9448 59.6606 81.2704C59.5784 83.2501 58.7174 84.9043 56.1857 85.5513C55.9916 85.2778 55.7975 85.0043 55.6086 84.7307C56.1225 84.3009 56.6312 83.8754 57.145 83.4456L57.2024 83.4369C57.5007 82.8595 57.7937 82.282 58.0917 81.7003C58.1174 81.4094 58.1433 81.1228 58.169 80.832C58.3883 76.7987 58.6184 72.7697 58.8272 68.7364C59.0947 63.6221 59.3624 58.5121 59.5983 53.3935C59.9435 45.9043 60.2625 38.4152 60.5919 30.926C60.6066 30.6221 60.6213 30.3182 60.6414 30.0186C60.6937 29.7364 60.7512 29.4542 60.7928 29.1677C61.0184 27.5092 59.6496 25.1909 63.2766 24.9129C63.4806 24.8955 63.6786 24.1662 63.6946 23.758C63.7401 22.6075 63.8058 21.4353 63.6156 20.2979C63.5341 19.8116 62.8506 19.3688 62.4139 18.926C61.7756 18.2921 60.742 17.7495 60.5208 17.0418C58.9691 12.1229 57.584 7.1693 56.147 2.22869C56.3405 1.93346 56.5338 1.63389 56.722 1.33866C57.006 1.35167 57.2897 1.36035 57.5737 1.37336C58.9526 6.43987 60.316 11.5151 61.7365 16.5729C61.8521 16.9897 62.385 17.337 62.7248 17.7147C63.5007 18.1054 64.287 18.4918 65.0681 18.8781Z" fill="#F8F2CC"/>
<path d="M56.717 1.33859C56.5235 1.63383 56.3301 1.9334 56.1419 2.22863C55.7889 2.19391 55.4411 2.15919 55.0932 2.12013C54.9146 2.11579 54.736 2.11146 54.5573 2.10712C41.2605 1.94263 27.9585 1.78248 14.6565 1.61798C13.7795 1.60933 12.9028 1.60502 12.0311 1.59637C11.1604 1.61377 10.295 1.63117 9.42432 1.64857C9.40177 1.33164 9.37398 1.01471 9.35143 0.697774C10.2034 0.60223 11.0571 0.415513 11.9131 0.424165C26.5069 0.601636 41.0963 0.800815 55.691 0.999993C56.0153 1.10852 56.3451 1.22139 56.6694 1.32991L56.717 1.33859Z" fill="#F3F5EA"/>
<path d="M62.7149 17.7191C62.3751 17.3414 61.8422 16.9941 61.7266 16.5773C60.3059 11.5151 58.9427 6.44425 57.5638 1.37774C58.2429 2.81042 59.068 4.21705 59.5806 5.6888C60.8113 9.2054 61.9277 12.7524 63.0178 16.2994C63.1495 16.7248 62.8279 17.2415 62.7149 17.7191Z" fill="#A89D86"/>
<path d="M56.6644 1.32996C56.3347 1.21709 56.0103 1.10856 55.686 1.00004C56.0103 1.10856 56.3401 1.22143 56.6644 1.32996Z" fill="#F8F2CC"/>
<path d="M55.6086 84.7308C55.8027 85.0043 55.9969 85.2778 56.1857 85.5513C47.5988 85.4257 39.0172 85.3045 30.4302 85.1789C33.8811 85.1006 37.333 85.0484 40.7773 84.9354C42.0512 84.8919 43.32 84.7139 44.5858 84.5966C45.6308 84.6096 46.676 84.6269 47.7264 84.6399C47.9048 84.6399 48.0833 84.6399 48.2565 84.6399C50.709 84.6702 53.1614 84.7005 55.6086 84.7308Z" fill="#F3F5EA"/>
<path d="M6.85921 49.3317C6.85869 48.4894 6.85292 47.6472 6.85223 46.8006C8.107 45.0118 7.87728 43.2492 6.52509 41.5083C6.50908 41.0871 6.49308 40.666 6.47707 40.2449C6.73722 38.8035 7.27541 37.3577 7.19979 35.9207C7.00373 32.1436 6.53487 28.3708 6.17609 24.5937C11.2441 24.663 16.3119 24.7279 21.3798 24.7972C21.949 26.9289 22.6229 29.0518 23.0457 31.2009C23.2935 32.4729 23.2389 33.7971 23.1357 35.0866C22.9914 36.9534 23.7993 38.321 25.8686 39.1805C25.8373 39.8752 25.8058 40.5655 25.7797 41.2601C25.2921 41.1386 24.81 41.0214 24.3225 40.8998C22.6291 39.02 22.6291 39.02 21.7074 40.7349C22.2606 40.787 22.7715 40.8347 23.2825 40.8825C23.4904 42.6234 23.6981 44.36 23.9061 46.101C23.4101 46.4483 22.9089 46.7957 22.4129 47.143C22.2415 47.1908 22.0703 47.2429 21.8936 47.2906C21.5275 47.0475 21.1613 46.8044 20.7899 46.5613C20.2701 46.6959 19.7503 46.8305 19.2305 46.9651C19.225 47.0954 19.2192 47.2213 19.2032 47.3515C18.8568 47.4904 18.5104 47.6294 18.164 47.7683C16.4711 47.4211 14.7729 47.0738 13.08 46.7266C13.0299 46.9263 12.9797 47.126 12.9348 47.3257C13.9029 47.6599 14.8709 47.9942 15.8442 48.3285C15.3178 48.9797 14.7912 49.6266 14.1196 50.4602C15.4987 50.4254 16.5999 50.395 17.701 50.3646C17.8844 51.1851 18.0888 52.0057 18.2513 52.8262C18.7582 55.392 20.131 57.5367 22.7365 59.1082C22.8858 59.169 22.9577 59.2645 22.9418 59.3991C21.6378 61.2747 23.805 61.6697 24.9887 62.017C26.5015 62.4598 28.2251 62.3729 29.8573 62.503C31.6264 62.6463 33.4224 62.6679 35.1653 62.95C36.6282 63.1844 38.0343 63.7184 39.4616 64.1221C39.522 64.7429 39.9252 65.685 39.5882 65.9325C37.9742 67.1091 39.1324 67.7516 40.1581 68.4983C40.4874 68.7371 40.9164 68.9759 41.0541 69.2841C42.7666 73.0481 47.0312 73.5256 50.7464 74.0464C53.3006 74.4067 55.4043 74.7886 57.0486 76.4818C57.0444 77.0635 57.0454 77.641 57.0413 78.2227C57.0009 78.2661 56.9238 78.3096 56.9306 78.3486C56.9501 78.4485 57.0008 78.5397 57.0414 78.6395C57.0426 79.2256 57.0492 79.8117 57.0505 80.3978C56.8983 80.5368 56.7408 80.6757 56.5886 80.8146C56.7314 81.2575 56.8741 81.696 57.0222 82.1388C57.0806 82.5729 57.1442 83.0027 57.2027 83.4369L57.1453 83.4456C54.7242 83.4109 52.3016 83.4761 49.8909 83.3026C47.9278 83.1637 45.9466 82.4127 44.0336 82.4909C37.1051 82.7734 30.3713 81.6882 23.6593 80.3469C20.4541 79.7089 17.3189 78.4239 14.1264 78.259C11.9649 78.1506 10.7403 77.4169 10.149 76.223C9.65977 75.2288 10.2336 73.8916 10.3409 72.7107C10.2762 71.6991 9.76829 70.6268 9.68504 69.5414C9.57449 68.1521 10.4054 66.537 9.77447 65.4039C7.80281 61.8656 8.78355 58.2535 8.27555 54.6934C8.0076 52.8917 7.34188 51.1204 6.85921 49.3317Z" fill="#EDBE01"/>
<path d="M9.41884 1.64865C10.2895 1.63126 11.1549 1.61386 12.0256 1.59646C12.9025 1.60511 13.7793 1.60942 14.651 1.61807C27.9583 1.78257 41.2602 1.94272 54.5571 2.10721C54.7357 2.11155 54.9144 2.11588 55.093 2.12022C55.4409 2.15928 55.7887 2.194 56.1366 2.23306C57.5737 7.17366 58.9587 12.1273 60.5105 17.0462C60.7316 17.7538 61.7705 18.2965 62.4035 18.9303C62.8455 19.3732 63.5237 19.816 63.6052 20.3022C63.7956 21.444 63.7297 22.6119 63.6842 23.7624C63.6682 24.1705 63.465 24.8999 63.2662 24.9173C59.6392 25.1953 61.0028 27.5136 60.7824 29.1721C60.7461 29.4586 60.6833 29.7408 60.631 30.023C60.5098 29.3197 60.3204 28.6164 60.2831 27.913C60.1423 25.4514 59.5346 24.9304 56.5226 24.8177C55.8288 24.7916 55.1361 24.796 54.4483 24.7917C53.9017 24.4965 53.3903 24.0233 52.8097 23.9408C48.1289 23.2854 47.2401 22.2739 48.5452 18.7702C47.8293 18.7181 47.1502 18.6661 46.4659 18.614C47.499 18.1755 48.5323 17.7413 50.0718 17.09C42.4414 15.892 35.2355 16.474 28.0597 16.1877C24.5043 16.1401 20.9456 16.1446 17.3869 16.0101C16.5984 15.9798 15.8178 15.4675 15.0299 15.1766C23.5515 15.2415 32.0731 15.3019 40.5895 15.3667C42.7651 15.4318 44.9415 15.5185 47.1211 15.5532C50.9554 15.6182 50.9549 15.6051 50.9138 12.4532C50.8456 7.48216 50.8449 7.46479 44.78 7.40423C35.1969 7.30906 25.6096 7.24429 16.027 7.16215C15.6333 7.71354 14.9602 8.23455 14.8983 8.81631C14.6834 10.757 14.6899 12.7237 14.612 14.6774C14.373 12.1202 14.0239 9.56309 14.0058 7.01461C14.0037 6.54573 15.3622 5.6904 16.0719 5.72076C18.601 5.83355 21.1207 6.25025 23.6465 6.55406C26.7927 6.60604 29.9539 6.77959 33.0884 6.66225C35.012 6.58838 36.8715 5.93274 38.7921 5.78072C40.5661 5.63738 42.9181 5.23353 44.0747 5.97155C46.2425 7.35208 46.6517 6.51849 46.9279 5.63715C49.3646 5.66745 51.4549 5.69777 53.5398 5.72374C53.5472 5.91911 53.5494 6.11448 53.557 6.31419C52.8746 6.45314 52.1923 6.59209 51.7391 6.68328C52.14 7.42567 52.3998 8.0465 52.7987 8.59786C53.1147 9.04068 53.6076 9.71794 54.0121 9.72661C54.7055 9.73961 55.9953 9.28804 55.9813 9.05794C55.8545 7.37778 55.7252 5.63249 55.0254 4.06956C54.7674 3.49649 52.9575 3.11016 51.8541 3.07981C45.5591 2.90638 39.2655 2.90661 32.9666 2.76791C29.1317 2.68556 25.291 2.45126 21.4529 2.28642C19.0157 2.24309 16.5836 2.19542 14.1465 2.15644C11.9775 2.12613 9.98196 2.37801 9.06284 4.297C8.97146 4.24056 8.88008 4.18412 8.78345 4.12769C8.9988 3.30279 9.2089 2.47789 9.41884 1.64865Z" fill="#E2BB33"/>
<path d="M46.4762 18.6096C47.1605 18.6617 47.8395 18.7094 48.5555 18.7658C47.2506 22.2738 48.134 23.281 52.82 23.9364C53.4006 24.0189 53.912 24.4921 54.4586 24.7873C47.1118 24.8353 39.7651 24.8877 32.4182 24.9357C28.7421 24.8881 25.0661 24.8448 21.39 24.7972C16.322 24.7279 11.2542 24.663 6.18623 24.5937C5.80863 24.6024 5.43103 24.6111 5.04834 24.6241C4.87232 24.5503 4.70138 24.4722 4.53061 24.3984C4.0106 23.5605 3.22945 22.7573 3.03323 21.876C2.77313 20.6951 2.96231 19.4578 2.95826 18.2465C3.29387 18.2378 3.62931 18.2248 3.96492 18.2161C4.13781 18.2074 4.30561 18.203 4.4785 18.1943C4.6499 18.1466 4.82147 18.1031 4.99812 18.0554C5.49153 18.0554 5.98511 18.0597 6.47852 18.0597C10.8902 18.1246 15.3071 18.1896 19.7186 18.2502C28.6309 18.3715 37.5534 18.4883 46.4762 18.6096Z" fill="#E3B514"/>
<path d="M6.85908 49.3317C7.34158 51.1161 8.00747 52.8917 8.26492 54.6935C8.77817 58.2535 7.7976 61.87 9.76384 65.404C10.395 66.5414 9.56403 68.1565 9.67441 69.5414C9.76291 70.6268 10.2656 71.6992 10.3303 72.7107C10.2284 73.896 9.64914 75.2288 10.1383 76.223C10.7296 77.4169 11.9491 78.1506 14.1158 78.2591C17.3133 78.4196 20.4486 79.7046 23.6487 80.347C30.3555 81.6883 37.0945 82.7734 44.023 82.491C45.9412 82.4127 47.9171 83.1638 49.8803 83.3026C52.291 83.4762 54.7134 83.4066 57.1347 83.4456C56.6209 83.8754 56.1121 84.3009 55.5983 84.7308C53.1511 84.7005 50.6986 84.6702 48.2514 84.6399C48.073 84.6399 47.8945 84.6399 47.7213 84.6399C46.6762 84.6269 45.631 84.6096 44.5807 84.5966C35.1498 84.3625 25.7242 84.1327 16.2933 83.8986C15.3319 83.877 14.3715 83.8813 13.4137 83.8162C10.3928 83.608 9.40154 82.8005 9.20002 80.2607C8.51911 71.5994 7.87494 62.938 7.22027 54.2767C7.10507 52.6269 6.98478 50.9815 6.85908 49.3317Z" fill="#E3B514"/>
<path d="M5.04284 24.6241C5.42045 24.6154 5.79805 24.6067 6.18073 24.5936C6.53952 28.3708 7.00311 32.1435 7.20443 35.9207C7.28005 37.3577 6.74186 38.8034 6.48171 40.2448C6.00039 35.0394 5.52416 29.8296 5.04284 24.6241Z" fill="#E2BB33"/>
<path d="M6.46319 18.0598C5.96978 18.0598 5.4762 18.0555 4.98279 18.0555C5.95324 14.5866 6.92909 11.122 7.89953 7.65308L8.09821 7.7703C7.55686 11.2045 7.00994 14.6299 6.46319 18.0598Z" fill="#E2BB33"/>
<path d="M6.53046 41.5082C7.87757 43.2535 8.10729 45.0161 6.8576 46.8005C6.74336 45.0379 6.63962 43.2752 6.53046 41.5082Z" fill="#E2BB33"/>
<path d="M2.953 18.2465C2.95705 19.4578 2.76788 20.6951 3.02797 21.876C3.22403 22.753 4.00534 23.5605 4.52535 24.3984C3.85096 24.1944 2.59344 23.9773 2.59159 23.7907C2.59478 21.9412 2.80284 20.096 2.953 18.2465Z" fill="#E2BB33"/>
<path d="M7.90463 7.65732C8.20109 6.48075 8.49247 5.30853 8.78894 4.13197C8.88032 4.1884 8.9717 4.24484 9.06308 4.30128C8.74496 5.46048 8.42667 6.61533 8.10855 7.77453L7.90463 7.65732Z" fill="#E2BB33"/>
<path d="M4.4685 18.1944C4.29561 18.2031 4.12781 18.2074 3.95492 18.2161C4.12042 18.151 4.29347 18.1466 4.4685 18.1944Z" fill="#E2BB33"/>
<path d="M32.4132 24.9357C39.7601 24.8877 47.1067 24.8354 54.4536 24.7873C55.1468 24.796 55.8395 24.7916 56.528 24.8133C59.5399 24.9261 60.1476 25.447 60.2885 27.9087C60.3309 28.612 60.5151 29.3153 60.6364 30.0186C60.6217 30.3225 60.607 30.6265 60.5869 30.926C60.1889 32.0548 59.4962 33.1663 59.4402 34.3168C59.1134 41.1851 58.9813 48.0664 58.6914 54.9391C58.5033 59.3805 58.1626 63.8132 57.8956 68.2502C57.3869 68.6757 56.8727 69.0969 56.364 69.5223C55.9858 69.2402 55.567 68.9927 55.24 68.6758C52.8469 66.3401 50.5556 63.922 48.0503 61.6732C46.8546 60.5965 45.4477 59.763 43.7599 61.4823C42.6683 62.5938 40.9141 63.2581 39.4562 64.1221C38.0237 63.7184 36.6229 63.1844 35.16 62.9501C33.4171 62.6679 31.6211 62.6463 29.8519 62.5031C28.2198 62.3729 26.4961 62.4598 24.9833 62.017C23.7996 61.6697 21.6325 61.2747 22.9364 59.3991C24.8482 61.2225 28.641 62.2687 30.8872 61.2917C33.1231 60.3192 31.8359 58.3568 32.0557 56.8199C32.0844 56.6072 32.0604 56.3901 32.0628 56.1774C32.9349 55.7823 33.7958 55.3698 34.6847 55.0051C35.4806 54.6751 36.3149 54.3929 37.1275 54.0889C37.078 54.306 37.0234 54.5274 36.9741 54.7488L36.9492 54.7836C36.159 55.4001 35.3637 56.021 34.5736 56.6375L34.5787 56.6331C32.964 57.5145 31.3386 58.3916 33.9738 59.9154C34.0247 60.0109 34.111 60.0717 34.2376 60.089C35.3489 61.2916 36.46 62.4898 37.5713 63.6924C39.004 62.5809 39.711 62.125 40.4289 61.6778C41.6593 60.905 42.8953 60.1408 44.1311 59.3723C44.3103 59.1161 44.4843 58.86 44.6635 58.6038L44.6981 58.5474C44.9669 58.161 45.2302 57.7702 45.499 57.3838L45.5154 57.2623C45.7003 57.0191 45.8855 56.7803 46.0704 56.5372L45.9882 56.446L46.0528 56.3505C46.2635 56.3679 46.4793 56.3852 46.69 56.4026C46.7981 57.3143 46.9062 58.226 47.0543 59.4981C49.3685 57.2708 49.2414 56.828 46.7 56.3896C46.8563 55.6689 47.0128 54.9525 47.1691 54.2318L47.1789 54.2145C48.9053 53.2332 48.3938 52.2043 47.1626 51.1624C47.0599 51.0842 47.0196 50.9887 47.0364 50.8802C46.8505 50.5459 46.6595 50.2159 46.4736 49.8816L46.5115 49.912C46.3479 49.7514 46.1842 49.5864 46.0258 49.4258L46.0147 49.4084C45.794 48.9873 45.5678 48.5619 45.3471 48.1407L45.3179 48.2015C44.2754 47.7023 43.2327 47.1987 42.1901 46.6995L42.1764 46.7516C42.7635 45.0757 44.29 43.5301 43.0618 41.5981C42.7501 41.546 42.4437 41.494 42.132 41.4419C41.5982 41.3464 41.0592 41.2509 40.5254 41.1554L40.5466 41.1597C40.2663 40.8298 39.9861 40.4998 39.7004 40.1656L39.6021 40.0657C39.2353 39.9441 38.8736 39.8183 38.5068 39.6967C38.0993 39.6099 37.6868 39.5274 37.2793 39.4406C34.6813 39.3105 32.0886 39.1803 29.4906 39.0502C30.1699 38.9676 30.8469 38.8287 31.5288 38.8156C35.5835 38.7417 36.0472 38.5116 35.7075 35.0991C35.3646 31.5999 35.0759 28.0094 32.4132 24.9357Z" fill="#EBC11B"/>
<path d="M57.9005 68.2502C58.1728 63.8132 58.5135 59.3805 58.6963 54.9391C58.9862 48.0664 59.1183 41.1851 59.4452 34.3168C59.5012 33.1663 60.1938 32.0548 60.5918 30.926C60.2623 38.4152 59.9434 45.9043 59.5981 53.3935C59.3621 58.5078 59.0946 63.6221 58.8271 68.7364C58.6182 72.7697 58.3882 76.7987 58.1688 80.832C57.8117 80.8276 57.4546 80.8233 57.1028 80.819C57.0975 80.68 57.0817 80.5411 57.0554 80.4022C57.0542 79.8161 57.0476 79.23 57.0463 78.6439C57.0568 78.5049 57.0568 78.366 57.0462 78.2271C57.0504 77.6453 57.0494 77.0679 57.0536 76.4861C57.2097 75.7611 57.366 75.0404 57.5222 74.3153C57.6611 72.722 57.7947 71.1287 57.9338 69.5397C57.9175 69.1098 57.9116 68.68 57.9005 68.2502Z" fill="#E2BB33"/>
<path d="M57.0977 80.819C57.4548 80.8233 57.8119 80.8276 58.1637 80.8319C58.1381 81.1228 58.1122 81.4094 58.0865 81.7003C57.7299 81.8479 57.3732 81.9912 57.0166 82.1388C56.8738 81.696 56.7312 81.2575 56.5831 80.8146C56.7565 80.819 56.9297 80.819 57.0977 80.819Z" fill="#E3B514"/>
<path d="M57.0219 82.1387C57.3785 81.9911 57.7352 81.8478 58.0918 81.7002C57.7936 82.2776 57.5006 82.8551 57.2025 83.4368C57.1387 83.0027 57.0804 82.5729 57.0219 82.1387Z" fill="#E2BB33"/>
<path d="M32.4134 24.9357C35.0762 28.0138 35.3648 31.5999 35.7131 35.1035C36.053 38.5202 35.5891 38.746 31.5344 38.82C30.8526 38.833 30.1755 38.972 29.4962 39.0545C28.805 39.0979 28.119 39.1414 27.4278 39.1848C26.908 39.1805 26.3882 39.1762 25.8685 39.1762C23.8045 38.3166 22.9914 36.9491 23.1356 35.0822C23.239 33.7971 23.2935 32.4686 23.0456 31.1966C22.628 29.0475 21.9491 26.9289 21.3797 24.7929C25.0613 24.8448 28.7373 24.8881 32.4134 24.9357Z" fill="#EFC109"/>
<path d="M57.5173 74.3154C57.3611 75.0405 57.2048 75.7612 57.0487 76.4862C55.4043 74.7931 53.3005 74.4068 50.7465 74.0508C47.0313 73.53 42.7665 73.0482 41.0542 69.2885C40.9112 68.9803 40.4875 68.7415 40.1582 68.5028C39.1377 67.756 37.9743 67.1135 39.5883 65.9369C39.9305 65.6895 39.522 64.7474 39.4617 64.1265C40.9196 63.2625 42.6739 62.6025 43.7653 61.4867C45.4479 59.7674 46.8602 60.6053 48.0558 61.6776C50.5612 63.9307 52.8524 66.3446 55.2455 68.6802C55.5725 68.9971 55.9915 69.2489 56.3694 69.5268C56.7502 71.1201 57.1311 72.7178 57.5173 74.3154Z" fill="#EFC109"/>
<path d="M32.0677 56.1773C32.0654 56.3944 32.0894 56.6115 32.0606 56.8199C31.8408 58.3568 33.128 60.3191 30.8921 61.2917C28.6459 62.2686 24.8531 61.2224 22.9413 59.3991C22.9572 59.2645 22.8904 59.1646 22.7359 59.1039C21.7559 57.3499 20.6826 55.6264 19.8479 53.829C19.5105 53.0996 19.7235 52.214 19.6506 51.4021C19.5584 50.3558 19.4295 49.3138 19.3163 48.2675C20.1752 47.9419 21.0341 47.6119 21.893 47.2863C22.0644 47.2385 22.2357 47.1864 22.4123 47.1386C24.1479 46.9519 25.8887 46.7651 27.6245 46.5827L27.5605 46.5567C28.1156 48.7318 28.6705 50.9025 29.2256 53.0776L29.2681 53.0906C28.7443 53.121 28.2152 53.1471 27.6914 53.1775C27.5323 53.1341 27.3679 53.0907 27.2087 53.0429C27.0778 53.0516 26.9418 53.0646 26.8109 53.0733C26.5536 53.3469 26.2963 53.6204 26.0441 53.8896C24.963 54.8621 25.321 55.3049 26.8577 55.4091C28.5417 55.5219 30.2283 55.7042 31.9083 55.8517C31.8872 55.9863 31.9386 56.0948 32.0677 56.1773Z" fill="#F3F5EA"/>
<path d="M19.3217 48.2676C19.435 49.3139 19.5638 50.3558 19.6561 51.4021C19.7289 52.214 19.5159 53.0997 19.8533 53.829C20.688 55.6264 21.7613 57.3499 22.7413 59.1039C20.1358 57.5323 18.7576 55.3833 18.2561 52.8219C18.0935 51.997 17.8892 51.1808 17.7058 50.3602C17.8619 49.4963 18.0179 48.628 18.174 47.764C18.5204 47.625 18.8668 47.4861 19.2132 47.3472C19.2458 47.6511 19.2838 47.9593 19.3217 48.2676Z" fill="#EBC11B"/>
<path d="M18.169 47.7596C18.0129 48.6236 17.8569 49.4919 17.7008 50.3559C16.5997 50.3863 15.4983 50.4124 14.1193 50.4515C14.791 49.6179 15.3176 48.971 15.844 48.3198C14.8759 47.9855 13.9079 47.6512 12.9346 47.317C12.9848 47.1173 13.0349 46.9175 13.0798 46.7178C14.778 47.0651 16.4709 47.4124 18.169 47.7596Z" fill="#EFC109"/>
<path d="M23.9058 46.0966C23.6979 44.3557 23.4901 42.6191 23.2822 40.8782C23.6288 40.8825 23.9756 40.8912 24.3274 40.8955C24.815 41.017 25.2971 41.1342 25.7846 41.2558C25.8762 41.3166 25.9677 41.3773 26.0542 41.4425C25.5641 42.6364 25.069 43.8347 24.579 45.0286C24.3564 45.3846 24.1284 45.7406 23.9058 46.0966Z" fill="#EBC11B"/>
<path d="M23.9056 46.0967C24.1283 45.7406 24.351 45.3846 24.5735 45.0243C25.5904 45.5409 26.6076 46.0618 27.6245 46.5784C25.8889 46.7652 24.1479 46.9476 22.4123 47.1343C22.9137 46.7913 23.4097 46.444 23.9056 46.0967Z" fill="#E2BB33"/>
<path d="M24.322 40.8955C23.9754 40.8911 23.6286 40.8825 23.2768 40.8781C22.7658 40.8304 22.2548 40.7827 21.7017 40.7306C22.6286 39.0157 22.6286 39.0157 24.322 40.8955Z" fill="#EFC109"/>
<path d="M19.3218 48.2676C19.2838 47.9594 19.2458 47.6511 19.2079 47.3429C19.2241 47.217 19.2349 47.0867 19.2352 46.9565C19.755 46.8219 20.2748 46.6873 20.7946 46.5527C21.1607 46.7958 21.5269 47.0389 21.8983 47.282C21.0395 47.612 20.1807 47.942 19.3218 48.2676Z" fill="#E2BB33"/>
<path d="M25.8732 39.1762C26.393 39.1805 26.9128 39.1848 27.4325 39.1848C27.278 39.5408 27.1185 39.9012 26.9641 40.2572C26.6641 40.6523 26.3588 41.043 26.0589 41.4381C25.9673 41.3774 25.8809 41.3122 25.7893 41.2515C25.8103 40.5612 25.8418 39.8708 25.8732 39.1762Z" fill="#EBC11B"/>
<path d="M57.041 78.2228C57.0516 78.3617 57.0568 78.5006 57.0411 78.6396C57.0008 78.5441 56.9446 78.4485 56.9303 78.3487C56.9238 78.314 57.0007 78.2662 57.041 78.2228Z" fill="#EFC109"/>
<path d="M57.098 80.8189C56.9301 80.819 56.7569 80.819 56.5887 80.8146C56.7409 80.6757 56.8983 80.5368 57.0505 80.3978C57.0768 80.5368 57.0928 80.68 57.098 80.8189Z" fill="#EFC109"/>
<path d="M16.0432 7.16215C25.6256 7.23995 35.213 7.30907 44.7961 7.40423C50.8611 7.46479 50.8619 7.4865 50.93 12.4532C50.9711 15.6051 50.9716 15.6182 47.1373 15.5532C44.9627 15.5142 42.7865 15.4318 40.6056 15.3667C39.5776 15.2496 38.5519 15.0542 37.5222 15.0326C31.1664 14.9156 24.8047 14.7812 18.4532 14.7771C16.1699 14.7772 15.1865 14.0392 15.4 12.1983C15.5881 10.5182 15.8234 8.83799 16.0432 7.16215Z" fill="#5A6062"/>
<path d="M8.10329 7.77465C8.42141 6.61546 8.7397 5.4606 9.05782 4.3014C9.97695 2.38241 11.9725 2.13053 14.1468 2.16084C16.5836 2.19548 19.0159 2.24749 21.4531 2.29082C22.8117 3.09395 24.17 3.89275 25.3462 4.59169C24.6574 5.39055 24.1494 5.97234 23.6467 6.55846C21.1209 6.25465 18.6013 5.83795 16.0722 5.72516C15.3624 5.6948 14.0038 6.54579 14.006 7.01901C14.0241 9.56749 14.3787 12.129 14.6122 14.6818C14.755 14.8468 14.8925 15.0117 15.0354 15.181C15.818 15.4719 16.6039 15.9842 17.3924 16.0145C20.9458 16.149 24.5045 16.1445 28.0652 16.1921C27.9919 17.716 26.5879 17.3731 25.4323 17.4904C23.5135 17.6901 21.6093 17.9985 19.7035 18.2634C15.2918 18.1984 10.8801 18.1334 6.46336 18.0728C7.00962 14.63 7.55654 11.2045 8.10329 7.77465Z" fill="#EFC109"/>
<path d="M23.6519 6.55405C24.1547 5.97226 24.6575 5.39048 25.3513 4.58727C24.17 3.88833 22.8116 3.08954 21.4583 2.2864C25.2913 2.45558 29.1318 2.68555 32.9668 2.76789C39.2657 2.90659 45.5591 2.90202 51.8541 3.07546C52.9575 3.10581 54.7674 3.49214 55.0254 4.06521C55.7252 5.62813 55.8546 7.37776 55.9813 9.05359C56.0006 9.28369 54.7055 9.73525 54.0121 9.72225C53.6076 9.71359 53.1147 9.03632 52.7987 8.5935C52.3996 8.0378 52.14 7.42131 51.7391 6.67893C52.1923 6.58774 52.8746 6.44878 53.557 6.30983C53.5495 6.11446 53.5474 5.91909 53.5398 5.71938C51.4497 5.69341 49.3646 5.6631 46.9279 5.63279C46.6516 6.50979 46.2425 7.34772 44.0747 5.9672C42.9181 5.22918 40.5661 5.63303 38.7921 5.77636C36.8664 5.93273 35.0067 6.58402 33.0884 6.6579C29.9593 6.77957 26.7981 6.60603 23.6519 6.55405Z" fill="#EBC11B"/>
<path d="M19.7084 18.2546C21.6195 17.9897 23.5184 17.6814 25.4372 17.4816C26.5926 17.36 27.9968 17.7073 28.0701 16.1834C35.2459 16.4697 42.4518 15.8877 50.0822 17.0857C48.548 17.7369 47.5147 18.1711 46.4763 18.6097C37.5535 18.4884 28.6309 18.3715 19.7084 18.2546Z" fill="#EBC11B"/>
<path d="M15.0404 15.1722C14.8976 15.0073 14.7549 14.8423 14.6172 14.673C14.695 12.7149 14.6939 10.7526 14.9089 8.81191C14.9707 8.23014 15.6438 7.70913 16.0375 7.15774C15.8232 8.83792 15.5877 10.5138 15.3945 12.1983C15.181 14.0391 16.1643 14.7728 18.4478 14.777C24.8045 14.7811 31.161 14.9155 37.5168 15.0325C38.541 15.0498 39.5721 15.2495 40.6002 15.3667C32.0836 15.2975 23.5621 15.2371 15.0404 15.1722Z" fill="#424748"/>
<path d="M26.0541 41.4425C26.354 41.0474 26.6593 40.6566 26.9593 40.2615C28.0105 40.0227 29.0455 39.6319 30.1194 39.5755C32.4975 39.4451 34.8924 39.4798 37.2795 39.4493C37.687 39.5361 38.0996 39.6186 38.507 39.7054C38.8738 39.827 39.2356 39.9529 39.6024 40.0744L39.7006 40.1743C39.9809 40.5042 40.2611 40.8341 40.5468 41.1684L40.5256 41.1641C41.0594 41.2596 41.5984 41.3551 42.1322 41.4506C42.4439 41.5027 42.7503 41.5547 43.0618 41.6025C42.765 43.3217 42.4682 45.041 42.1766 46.7603L42.1904 46.7082C41.5476 47.1988 40.813 48.1713 40.2744 48.0888C38.036 47.7503 35.8588 47.0904 34.4175 46.7345C34.1814 45.2193 34.0484 44.3423 33.8458 43.0182C31.4525 44.6811 31.0129 47.477 27.5714 46.5611L27.6354 46.5871C26.6183 46.0662 25.6013 45.5496 24.5844 45.033C25.0688 43.8304 25.5588 42.6364 26.0541 41.4425Z" fill="#F3F5EA"/>
<path d="M34.2374 60.0847C34.1108 60.0673 34.0246 60.0109 33.9736 59.911C34.1735 58.8169 34.3733 57.7229 34.5785 56.6288L34.5734 56.6331C36.1289 56.6808 37.4293 56.5071 36.949 54.7792L36.9739 54.7445C37.6061 54.9442 38.2437 55.1482 38.876 55.3479C39.0432 55.4651 39.2049 55.578 39.3721 55.6952C40.0274 56.3638 40.6807 57.1192 41.2887 55.7125C41.3215 55.3348 41.3597 54.9571 41.3926 54.5794C42.1605 53.5157 41.8126 52.9252 40.2659 52.8341L40.2715 52.8428C40.0384 52.235 39.8001 51.6272 39.567 51.0194C40.7516 50.1467 41.9361 49.2696 43.1207 48.397C46.1951 49.7384 47.127 53.2637 45.1907 55.7645C44.5852 56.5459 44.3603 57.5315 43.9637 58.4215C41.947 59.6372 39.9305 60.8573 37.9191 62.073C37.8093 61.8081 37.6996 61.5476 37.5898 61.2828C36.4778 60.8878 35.3603 60.4884 34.2374 60.0847Z" fill="#EAF8F7"/>
<path d="M27.2095 53.0473C27.3686 53.0907 27.533 53.1342 27.6923 53.1819C28.3385 54.1631 28.8619 54.124 29.2689 53.095L29.2264 53.082C29.2801 52.2832 29.5164 51.4583 29.3506 50.6855C28.766 48.0111 30.3341 46.5957 33.5034 47.2555C35.3869 47.6462 37.178 48.3668 38.3094 48.7184C38.666 50.2293 38.9171 51.3103 39.1736 52.3957C39.2454 52.4912 39.2914 52.5954 39.306 52.7039C39.2865 52.8819 39.2672 53.0643 39.253 53.2423L39.2581 53.2379C38.5602 53.5202 37.8675 53.8024 37.1696 54.0846L37.1225 54.0889C36.3047 54.3929 35.4756 54.6751 34.6798 55.0051C33.791 55.3742 32.9301 55.7866 32.0579 56.1774C31.9288 56.0949 31.8775 55.9907 31.8988 55.8605C31.2458 55.5262 30.6309 55.0921 29.9297 54.875C28.6602 54.48 27.3379 54.2152 26.0346 53.8983C26.2919 53.6248 26.5492 53.3513 26.8014 53.0821L27.0012 53.0908L27.2095 53.0473Z" fill="#EFC109"/>
<path d="M39.1782 52.3913C38.9219 51.3103 38.6709 50.2293 38.3141 48.7141C37.1827 48.3625 35.3865 47.6462 33.5081 47.2512C30.3336 46.5914 28.7654 48.0068 29.3552 50.6811C29.5263 51.4539 29.2847 52.2788 29.2311 53.0777C28.676 50.9026 28.1211 48.7318 27.566 46.5568C31.0127 47.4727 31.4523 44.6767 33.8457 43.0138C34.0482 44.338 34.1865 45.215 34.4173 46.7302C35.8586 47.0861 38.0356 47.7416 40.2743 48.0845C40.8128 48.167 41.5473 47.1901 42.1902 46.7038C43.2327 47.2031 44.2754 47.7066 45.318 48.2059C44.5908 48.271 43.8586 48.3405 43.1315 48.4057C41.9469 49.2784 40.7624 50.1554 39.5778 51.0281C39.4428 51.4796 39.3131 51.9355 39.1782 52.3913Z" fill="#E2BB33"/>
<path d="M34.2373 60.0847C35.3548 60.4841 36.4777 60.8878 37.5952 61.2872C37.705 61.552 37.8146 61.8125 37.9244 62.0774C39.9411 60.8617 41.9576 59.6416 43.9742 58.4259C44.0715 58.4997 44.1636 58.5735 44.2609 58.6473C44.2176 58.8904 44.1742 59.1292 44.1362 59.3724C42.9004 60.1409 41.6644 60.905 40.434 61.6778C39.7214 62.125 39.0144 62.5809 37.5764 63.6924C36.4599 62.4899 35.3486 61.2873 34.2373 60.0847Z" fill="#F8F2CC"/>
<path d="M43.1315 48.4014C43.8586 48.3362 44.5908 48.2667 45.318 48.2016L45.3472 48.1408C45.568 48.5663 45.794 48.9874 46.0147 49.4085L46.0259 49.4259C46.1895 49.5865 46.3532 49.7515 46.5115 49.9121L46.4736 49.8817C46.6596 50.216 46.8506 50.546 47.0365 50.8802C47.0146 50.9931 47.0548 51.0843 47.1627 51.1624C47.1698 52.1784 47.1719 53.1986 47.179 54.2145L47.1692 54.2319C46.7971 54.9396 46.4251 55.6473 46.0531 56.355L45.9885 56.4505L46.0707 56.5416C45.8857 56.7848 45.7006 57.0236 45.5156 57.2667L45.4992 57.3883C45.2306 57.779 44.9671 58.1654 44.6983 58.5518L44.6637 58.6083C44.5274 58.6126 44.3915 58.6256 44.256 58.6517C44.1639 58.5779 44.0666 58.5041 43.9694 58.4303C44.3658 57.5359 44.5908 56.5504 45.1962 55.7689C47.1325 53.2681 46.2059 49.7428 43.1315 48.4014Z" fill="#F8F2CC"/>
<path d="M46.7003 56.3896C49.2417 56.828 49.3688 57.2708 47.0546 59.4981C46.9065 58.2261 46.7984 57.3143 46.6903 56.4026L46.7003 56.3896Z" fill="#EFC109"/>
<path d="M37.2849 39.4449C34.8977 39.4754 32.5028 39.4408 30.1247 39.5711C29.051 39.6319 28.0159 40.0184 26.9646 40.2572C27.1191 39.9012 27.2787 39.5452 27.433 39.1848C28.1242 39.1414 28.8102 39.0979 29.5014 39.0545C32.0942 39.1846 34.6869 39.3148 37.2849 39.4449Z" fill="#E2BB33"/>
<path d="M34.5786 56.6332C34.3787 57.7273 34.1789 58.8213 33.9738 59.9154C31.3386 58.3916 32.9637 57.5102 34.5786 56.6332Z" fill="#F8F2CC"/>
<path d="M42.1761 46.7515C42.4729 45.0323 42.7645 43.313 43.0614 41.5938C44.2897 43.53 42.7633 45.0757 42.1761 46.7515Z" fill="#E2BB33"/>
<path d="M36.9543 54.7792C37.4346 56.5071 36.129 56.6808 34.5787 56.6331C35.3688 56.0166 36.159 55.4 36.9543 54.7792Z" fill="#F8F2CC"/>
<path d="M47.1738 54.2145C47.1667 53.1986 47.1646 52.1783 47.1575 51.1624C48.3888 52.2087 48.9003 53.2376 47.1738 54.2145Z" fill="#E2BB33"/>
<path d="M57.9004 68.2502C57.9115 68.6801 57.9172 69.1055 57.9282 69.5353C57.4084 69.531 56.8886 69.5267 56.3688 69.5224C56.8829 69.1012 57.3917 68.6757 57.9004 68.2502Z" fill="#EFC109"/>
<path d="M38.8812 55.3479C38.249 55.1482 37.6113 54.9442 36.9791 54.7445C37.0284 54.5231 37.0832 54.306 37.1325 54.0846L37.1796 54.0803C37.7469 54.5057 38.314 54.9268 38.8812 55.3479Z" fill="#F8F2CC"/>
<path d="M46.0529 56.3505C46.4249 55.6428 46.7969 54.9351 47.1689 54.2274C47.0126 54.9481 46.8561 55.6645 46.6998 56.3852L46.6898 56.3982C46.4741 56.3852 46.2635 56.3678 46.0529 56.3505Z" fill="#E2BB33"/>
<path d="M42.1369 41.4418C41.6031 41.3463 41.0641 41.2508 40.5303 41.1553C41.0641 41.2508 41.5978 41.3463 42.1369 41.4418Z" fill="#E2BB33"/>
<path d="M39.6078 40.0701C39.241 39.9485 38.8793 39.8226 38.5124 39.7011C38.8793 39.8226 39.2408 39.9442 39.6078 40.0701Z" fill="#E2BB33"/>
<path d="M44.6982 58.5517C44.9669 58.1653 45.2303 57.7746 45.499 57.3882C45.2303 57.7746 44.9615 58.161 44.6982 58.5517Z" fill="#E2BB33"/>
<path d="M40.5466 41.1597C40.2663 40.8298 39.9861 40.4998 39.7004 40.1656C39.9859 40.4955 40.2663 40.8298 40.5466 41.1597Z" fill="#E2BB33"/>
<path d="M46.0145 49.4085C45.7938 48.9874 45.5676 48.5619 45.3469 48.1408C45.5676 48.5619 45.7885 48.9874 46.0145 49.4085Z" fill="#E2BB33"/>
<path d="M47.0365 50.8801C46.8506 50.5459 46.6596 50.2159 46.4736 49.8816C46.6594 50.2116 46.8453 50.5459 47.0365 50.8801Z" fill="#E2BB33"/>
<path d="M44.2558 58.6516C44.3914 58.6299 44.5273 58.6125 44.6636 58.6082C44.4843 58.8643 44.3051 59.1205 44.1311 59.3766C44.1744 59.1335 44.2124 58.8904 44.2558 58.6516Z" fill="#E2BB33"/>
<path d="M45.5152 57.2623C45.7002 57.0192 45.8853 56.7804 46.0703 56.5372C45.8853 56.7804 45.7004 57.0235 45.5152 57.2623Z" fill="#E2BB33"/>
<path d="M56.3693 69.5224C56.8891 69.5267 57.4089 69.531 57.9287 69.5354C57.7898 71.1287 57.6509 72.7221 57.5171 74.3111C57.1311 72.7177 56.7502 71.1201 56.3693 69.5224Z" fill="#EBC11B"/>
<path d="M26.0443 53.894C27.3476 54.2109 28.6699 54.4757 29.9395 54.8707C30.6406 55.0878 31.2555 55.5219 31.9086 55.8562C30.2231 55.7043 28.5419 55.5263 26.8579 55.4135C25.3212 55.3094 24.9632 54.8666 26.0443 53.894Z" fill="#EBC11B"/>
<path d="M29.2739 53.0907C28.8669 54.1197 28.3434 54.1587 27.6973 53.1776C28.2212 53.1515 28.7449 53.1211 29.2739 53.0907Z" fill="#EBC11B"/>
<path d="M27.209 53.0472L27.011 53.0863C27.011 53.0863 26.8061 53.082 26.8112 53.0776C26.9472 53.0646 27.0781 53.0559 27.209 53.0472Z" fill="#EBC11B"/>
<path d="M38.8809 55.3479C38.3137 54.9268 37.7466 54.5057 37.1742 54.0846C37.8721 53.8024 38.5647 53.5202 39.2626 53.2379C39.3556 53.3378 39.4487 53.4376 39.5364 53.5375C39.4434 53.4376 39.3504 53.3378 39.2575 53.2423C39.277 53.0643 39.2963 52.8819 39.3105 52.7039C39.6325 52.7517 39.9546 52.7994 40.2766 52.8472L40.271 52.8385C40.6448 53.4202 41.0186 54.002 41.3975 54.5794C41.3646 54.9571 41.3264 55.3348 41.2936 55.7125C40.653 55.7082 40.0176 55.6996 39.377 55.6952C39.2151 55.578 39.0479 55.4608 38.8809 55.3479Z" fill="#E2BB33"/>
<path d="M40.282 52.8472C39.96 52.7994 39.638 52.7517 39.316 52.7039C39.296 52.5911 39.2554 52.4912 39.1836 52.3957C39.3132 51.9398 39.4481 51.484 39.5778 51.0281C39.8107 51.6316 40.0437 52.2394 40.282 52.8472Z" fill="#F8F2CC"/>
<path d="M41.3979 54.5793C41.0241 53.9976 40.6503 53.4158 40.2714 52.8384C41.8178 52.9209 42.1658 53.5156 41.3979 54.5793Z" fill="#F8F2CC"/>
<path d="M39.3771 55.6953C40.0176 55.6996 40.6531 55.7082 41.2936 55.7126C40.691 57.1192 40.0324 56.3638 39.3771 55.6953Z" fill="#F8F2CC"/>
<path d="M39.2578 53.2422C39.3508 53.342 39.4438 53.4419 39.5367 53.5374C39.4489 53.4375 39.3559 53.3377 39.2578 53.2422Z" fill="#EFC109"/>
</g>
<defs>
<clipPath id="clip0_366_244">
<rect width="86.7063" height="65.676" fill="white" transform="matrix(0.0379839 0.999278 -1 3.64339e-05 65.7368 0.422241)"/>
</clipPath>
</defs>
</svg>
