<?xml version="1.0" encoding="UTF-8"?>
<svg id="Layer_1" data-name="Layer 1" xmlns="http://www.w3.org/2000/svg" viewBox="0 0 1721.66 833.3">
  <defs>
    <style>
      .cls-1 {
        fill: #f0f0f0;
      }

      .cls-2 {
        fill: #fafafa;
      }

      .cls-3 {
        fill: #f6f6f6;
      }

      .cls-4 {
        fill: #f9f9f9;
      }

      .cls-5 {
        fill: #e2e2e3;
      }

      .cls-6 {
        fill: #fefefe;
        opacity: 0;
      }

      .cls-7 {
        fill: #f7f7f7;
      }

      .cls-8 {
        fill: #efefef;
      }

      .cls-9 {
        opacity: .62;
      }

      .cls-10 {
        fill: #f1f1f1;
      }

      .cls-11 {
        fill: #f3f3f3;
      }

      .cls-12 {
        fill: #f8f8f8;
      }

      .cls-13 {
        fill: #e1e1e2;
      }

      .cls-14 {
        fill: #f2f2f2;
      }
    </style>
  </defs>
  <g class="cls-9">
    <path class="cls-7" d="M467.31,179.95c.02-.82,.19-1.57,1-2,4.09-2.52,5.03-6.77,6-10.99,1.28-2.05,2.94-3.72,4.99-5,2.38-.28,3.71-1.62,4-4,0,0,0,0,0,0,1.45,.02,2.91,.03,3-2,0,0,0,0,0,0,5.38-1.51,10.7-3.15,15-7,.67,0,1.33,0,2,0,2,1.33,3.89,2.13,5-1,4,0,8,0,11.99,0,.2,1.27,.41,2.52,2,1,.67,0,1.33,0,2,0,1.41,3.35,4.94,2.79,7.48,3.58,4.68,1.46,8.15,5.84,13.52,5.42-.36,2.5,3.06,2.72,3.01,5.03-.97,1.12-1.95,2.24-2.9,3.37-6.23,7.37-9.57,15.77-9.1,25.52,.06,1.29-.17,2.93,1.85,2.8,1.36-.09,1.95-1.07,1.71-2.47-1.72-10.34,2.85-18.22,9.82-25.18,1.15-1.15,2.62-2.13,2.59-4.05,0-.34,0-.68,0-1.02,.67,0,1.33,0,2,0,3.1,.8,5.37-.36,7-3,.33-.33,.67-.67,1-1,1.33-.33,2.67-.67,4-1,1.89,3.4,4.43,2.28,7,1,1.33,0,2.67,0,4,0,.98,3.03,3.68,2.64,6,3,3.5,3.88,7.59,6.65,12.99,7,3.56,2.82,7.14,5.62,9,9.98-3,0-6.02,.29-8.98-.04-10.95-1.24-20.25,7.62-24.02,16.76-.65,1.57-2.06,3.81,.49,4.68,2.43,.83,2.2-1.65,2.64-3.16,2.45-8.48,12.72-15.56,20.51-15.42,7.94,.14,14.18,2.6,19.3,8.52,1.06,1.22,2.52,3.78,4.28,1.98,1.39-1.43-.73-3.26-1.96-4.49-2.69-2.67-5.53-5.2-8.31-7.78,.35-.01,.7-.02,1.05-.04,4.78-.13,9.37,1.05,13.99,2,4.97,1.07,9.24,3.25,13.69,5.95,8.08,4.9,12.26,12.21,16.3,19.98-9.52,6.8-13.42,16.43-13.98,27.74-.07,1.47-.2,3.63,1.58,3.69,2.27,.07,1.25-2.23,1.36-3.52,.83-9.38,3.92-17.74,11.06-24.19,1.19-1.07,2.2-1.96,1.97-3.67,.67,0,1.34,0,2.01,0,3.93,.85,6.91-2.03,10.46-2.72,.31-.06,.36-1.48,.53-2.27,.33,0,.67,0,1,0,2.67,2.7,5.33,3.39,8,0,.67,0,1.33,0,2,0,2.39,4.47,7.15,3.72,11,5,.3,2.37,2.18,2.65,4,3,.33,0,.67,0,1,0,1,4.32,4.3,4.99,8,5,.43,.8,1.18,.98,2,1,.33,.33,.67,.67,1,1,.03,1.3,.7,1.96,2,2,0,.33,0,.67,0,1,0,.67,0,1.35,0,2.02-4.16,0-8.33-.12-12.49,0-8.76,.25-19.45,9.94-20.4,18.46-.12,1.04-.65,2.63,.93,2.94,1.5,.3,1.71-1.2,2.06-2.29,.15-.47,.38-.92,.54-1.39,5.21-14.81,24.6-19.58,35.82-10.21,2.26,1.89,3.83,4.07,5.45,6.33,.8,1.12,1.59,2.6,3.07,1.79,1.99-1.09,.53-2.74-.17-3.83-1.51-2.34-2.92-4.69-5.45-6.35-1.87-1.23-4.72-2.21-4.44-5.43l2.07-.04c2.11,1.92,4.67,.61,7,1,5.23,.08,9.67,2.37,13.99,5,1.06,2.01,1.91,4.37,5,3,5.68,.99,7.33,6,10,10-1.78,.84-2.52,2.4-1.77,4.05,2.5,5.48,1.59,11.25,1.77,16.94-.3,12.1-6.38,21.04-16.38,26.88-4.45,2.6-9.64,6.22-15.64,3.06,3.19-3.81,6.79-7.34,8.54-12.14,.55-1.52,1.36-3.62-.58-4.38-2.21-.87-2.02,1.69-2.49,2.85-6.27,15.45-26.28,21.86-39.49,6.39-1.37-1.61-2.23-6-5-3.93-1.62,1.21,1.16,4.57,2.86,6.53,8.27,9.56,18.52,11.41,30.19,7.72-.34,1.43-.62,2.88-1.04,4.29-3.66,12.46-17.1,23.57-28.95,22.7-3.4-.39-6.68,.49-10,1-1.3-1.6-3.34-1.98-4.99-3,.01-2.35-1.91-2.89-3.5-3.74-8-4.27-12.58-11.06-14.49-19.77-.39-1.76-.47-4.54-2.56-4.07-2.59,.58-1.2,3.14-.79,5,2.38,10.78,9.21,18.06,18.37,23.54-1.86,4.89-5.4,8.51-9.06,12.06-6.47,6.27-14.47,9.59-22.96,11.97-2.69,.15-5.48-.55-8,1-5.16-.61-8.28,.86-11.37,5.94-4.87,8-12.45,13.6-22.61,14.05-4.33,1.72-8.66,.88-13,0-1.34-.33-2.67-.67-4.01-1,.3-2.01-.87-2.97-2.5-3.78-9.02-4.44-13.41-12.43-16.38-21.5-.41-1.24,.52-3.7-1.78-3.31-2.22,.37-1.49,2.8-1.15,4.21,2.75,11.22,8.73,19.9,19.8,24.4-2.14,2.91-4.04,6.04-6.47,8.69-7.93,8.67-17.6,14.17-29.5,15.27-4.28,1.02-8.63,1.14-13,1-3.43-.98-6.95-1.73-10.28-3-4.02-1.54-3.45,.53-2.72,3-11.18-4.36-16.65-15.45-25.99-21.98,3.2-.64,1.57-3.22,2.01-4.98,12.68-1.03,28.54-14.86,31.69-27.62,.28-1.12,.71-2.57-.7-3.01-2.11-.67-2.35,1.37-2.85,2.64-5.56,14.04-15.54,22.64-30.61,25.09-1.64,.27-3.31,.76-3.52,2.89-4.34,.4-8.57-.45-12.73-1.46-1.7-.41-3.15-.5-4.78,.21-13.4,5.84-26.98,6.54-40.69,1.13-1.44-.57-2.56-1.01-2.78,1.12-1.75,.17-3.4-.35-4.66-1.43-6.43-5.51-11.49-12.47-18.33-17.56,5.07,.11,1.1-3.42,2-4.98,6.17-1.45,11.98-3.57,17.18-8.37-3.97-1.35-6.18,.44-8.57,1.92-4.5,2.78-10.28,2.21-14.64,5.43-6.16,.2-12.29,.16-18.14-2.17-1.37-.54-2.62-.98-2.83,1.18-3.98-.31-6.66-2.73-8.83-5.73-5.27-7.28-9.46-15.64-19.16-18.26,1.42-1.73,2.71,.16,4.07,.17,1.02,.01,2.31,1.27,2.77-.68,.32-1.35-.28-2.31-1.68-2.55-9.19-1.64-18.14-5.32-27.8-3.01-1.98,.47-2.39,1.41-2.35,3.06-3.06-1.27-6.16-2.46-5.3-6.83,.22-1.14-.8-1.7-1.69-2.16,1.84-6.06,7.69-4.56,11.33-4.64,8.19-.18,14.33-4.8,21.36-7.49,3.48-1.33,3.45-4.59,4.2-7.34,4.8-17.6,16.36-27.84,34.03-31.51,1.37,2.75,3.95,2.09,6.15,1.97,6.45-.35,12.35,1.07,18.13,4.02,6.27,3.2,10.73,8.14,15,13.44,.8,.99,1.62,2.79,2.98,1.96,1.57-.96,.66-2.61-.23-3.88-.76-1.08-1.43-2.24-2.28-3.24-9.12-10.63-20.54-16.39-34.7-16.28,.37-4.1,2.69-7.85,2.13-12.16-.1-.8,.57-2.22,1.26-2.52,7.64-3.36,11.21-11.76,18.85-15.09,3.63-1.58,7.04-4.16,10.81-4.85,5.57-1.02,8.21-4.14,10.9-8.79,6.39-11.01,16.3-17.5,28.98-19.54,1.13,1.41,2.73,.98,4.18,1,14.54,.2,26.35,5.7,34.79,17.81,.87,1.24,1.61,3.73,3.5,2.33,1.57-1.16,.03-2.98-.95-4.34-8.51-11.73-19.92-18.15-34.47-18.83-.14-1.37,.46-2.93-1-3.97Zm103.96,47.98c-.5,0-1-.04-1.49,0-1.71,.16-4.34-.39-3.96,2.31,.31,2.22,2.59,.84,4.07,1.09,4.06,.67,8.21,.19,12.23,1.36,9.62,2.8,17.26,8.2,22.8,16.56,.66,1,1.05,2.94,2.77,1.94,1.07-.62,.6-2.13,.08-3.2-.43-.89-.93-1.76-1.51-2.56-8.59-11.96-20.72-16.86-34.98-17.51Zm6.97,91.7c13.75-2.37,24.21-9.55,31.35-21.49,1.19-1.99,2.12-4.14,3.11-6.24,.58-1.23,1.12-2.79-.28-3.58-1.71-.96-2.18,.84-2.81,1.93-.42,.71-.76,1.48-1.07,2.25-2.42,6.12-6.23,11.07-11.4,15.27-5.62,4.56-11.9,7.03-18.86,8.32-1.08,.2-2.95,.45-2.44,2.41,.28,1.08,1.35,1.36,2.4,1.14Zm-119.91-65.55c0,1-.02,2,0,3,.03,1.38,.1,2.92,2.06,2.57,1.3-.23,1.59-1.23,1.47-2.66-.88-9.83,2.67-17.96,9.63-24.81,.99-.98,3.64-2.03,1.89-3.75-1.58-1.56-3.34,.27-4.61,1.61-6.36,6.77-10.13,14.66-10.43,24.06Zm22.67,18.83c-2.76,0-4.75-.04-6.74,.02-.93,.03-2.22-.25-2.37,1.11-.13,1.21,.96,1.77,1.96,1.75,6.66-.13,13.21,.33,19.47,2.9,.99,.41,2.04-.12,2.45-1.16,.53-1.34-.68-1.74-1.53-2.08-4.5-1.75-9.05-3.28-13.23-2.54Zm27.21,14.05c-1.22,.1-2.07,.7-1.21,1.86,1.64,2.23,3.41,4.38,5.32,6.38,.77,.8,2.19,1.28,2.59-.55,.4-1.83-4.93-7.84-6.69-7.69Zm-82.72,29.12c5.28-2.22,5.79-3.59,3.36-8.17-1.09,2.67-2.05,5-3.36,8.17Z"/>
    <path class="cls-2" d="M709.21,219.93c0-.33,0-.67,0-1-.03-1.3-.7-1.96-2-2-.33-.33-.67-.67-1-1-.03-1.3-.7-1.96-2-2-.33-.33-.67-.67-1-1-2.98-4.86-7.64-6.99-12.99-8-3.76,.42-6.36-3.02-10-3-.67,0-1.33,0-2,0-1.25-.68-2.54-1.15-4-1,2.85-4.17,7.02-2.11,10.31-1.56,10.46,1.75,19.34,6.75,25.85,15.3,3.04,3.99,6.91,4.54,11.44,4.29,14.91-.82,26.32,6.1,33.8,18.14,8.08,13,9.17,27.5,3.42,41.98-5.12,12.89-15.2,20.13-28.43,23.06-4.99,1.1-7.9,3.65-10.33,8.2-7.35,13.77-18.85,21.44-34.85,21.52-2.67,.01-5.33,.05-8,0-2.69-.05-4.93,.91-6.57,2.99-9.71,12.3-22.68,18.32-37.99,20.07-3.96,.45-7.27,1.89-10.11,5.43-8.78,10.96-20.23,16.71-34.64,15.53-4.93-.4-8.72,.58-12.61,4.8-10.02,10.86-22.24,17.31-37.79,18.46-18.42,1.36-32.68-5.71-44.62-18.25-8.57-9.01-17.99-10.52-29.27-7.42-17.67,4.86-34.51,3.3-50-7.31-4.17-2.86-7.76-6.43-10.73-10.35-3.44-4.54-7.83-6.47-13.06-6.88-8.3-.64-15.96-3.13-22.55-8.1-5-3.76-9.9-7.82-12.97-13.54-3.85-7.15-10.4-9.25-17.92-9.41-3.5-.07-7.03-.31-10.49,.04-9.5,.97-15.75-3.59-13.76-16.05,.9,.47,1.92,1.02,1.69,2.16-.86,4.37,2.24,5.56,5.3,6.83,0,0,0,0,0,0,.91,2.56,2.68,2.96,5,2,.67,0,1.33,0,2,0,1.76,1.38,3.29,1.82,4-1,1,0,2,0,3,0,1.11,3.12,3,2.32,5,1,2,.33,3.88,1.35,6,1,9.7,2.62,13.89,10.98,19.16,18.26,2.17,3,4.85,5.41,8.83,5.73,7.4,5.65,16.16,6.44,24.99,7,6.84,5.09,11.9,12.05,18.33,17.56,1.26,1.08,2.91,1.6,4.66,1.43,2.59,1.47,4.19,4.94,8,4,.2,1.27,.41,2.52,2,1,2,.33,4,.67,6,1,.41,2.12,1.35,2.64,3,1,4.33,0,8.66,0,12.99,0,1.65,1.64,2.6,1.13,3-1,4.74-.65,9.45-1.44,13.99-3,1.67,1.48,3.33,1.48,5,0,1.67,0,3.33,0,5,0,.41,2.12,1.35,2.64,3,1,1,0,2,0,3,0,9.34,6.53,14.81,17.63,25.99,21.98,1.67,.33,3.33,.67,5,1,.03,1.3,.7,1.96,2,2,2,0,4,0,6,0,0,0,0,0,0,0,.2,1.27,.41,2.51,2,1,.67,0,1.33,0,2,0,.67,0,1.33,0,2,0,1.47,3.5,3.76,2.09,6,1,2-.33,3.88-1.35,6-1,1.66,1.64,2.6,1.12,3-1h0c1.79-.15,3.57,.11,5.39-.45,8.99-2.74,15.18-9.28,21.6-15.54,2.54-.25,3.75-2.14,5-4,2.81-1.52,6.27-.09,9-2,1.33,0,2.66,0,4,0,2.25,1.93,8.09,1.4,11-1,.67,0,1.33,0,2,0,2.06-.35,3.94-.98,5-3,3.12-.79,5.02-2.59,5-5.99,1.3-.04,1.96-.7,2-2,3.68,.22,4.81-3.13,6.99-5,2.67-1,5.33-2,8-3,4.55-.55,8.93-1.87,13.37-2.92,9.28-2.18,15.67-8.25,21.62-15.07,3.27-.7,5.1-3.7,7.99-5,6.65-.62,13.43,1.28,19.99-1,3.64-2.72,8.72-2.56,12-6,1.44,0,2.44-.67,3-2,1.41-1.57,2.92-3.06,4.18-4.74,1.14-1.51,3.61-2.69,1.82-5.25,0-.66,0-1.33,0-1.99,2.58-.19,4.11-1.7,4.99-4,1.75-1.58,4.28-2.39,5-4.99,.33,0,.67,0,1,0,.66,0,1.33,0,1.99,0,3.23-.59,6.56-.75,9.57-2.27,13.71-6.92,21.24-17.89,20.24-33.39-.46-7.2,.4-15.04-4.82-21.3-2.67-4-4.32-9.01-10-10-1.06-2.01-2.94-2.65-5-3-4.32-2.63-8.76-4.91-13.99-5-1.97-2.86-4.39-2.62-7-1-.69,.01-1.38,.03-2.07,.04-.29,0-.58,0-.88,0-.35-.01-.7-.03-1.06-.04-.09-2.03-1.54-2.01-3-2Z"/>
    <path class="cls-4" d="M610.25,178.96c-.35,.01-.7,.02-1.05,.04-1.44,.14-2.72-.37-3.94-1.05-1.86-4.36-5.44-7.16-9-9.98-3.42-3.33-7.94-4.77-12-7-1.88-2.05-4.54-2.29-7-3-1.33,0-2.67,0-4,0-.43-.81-1.18-.98-2-1,2.5-3.91,6.4-2.22,9.3-1.56,9.12,2.07,17.66,5.45,23.41,13.67,3.02,4.31,7.19,6.28,12.86,5.99,14.75-.76,25.93,6.13,33.95,18.02,3.23,4.79,6.08,9.34,12.45,9.85-.87,2.33-3.75,2.14-5,4-.67,0-1.34,0-2.01,0-.66-.02-1.33-.04-1.99-.05-4.04-7.78-8.22-15.08-16.3-19.98-4.45-2.7-8.72-4.89-13.69-5.95-2.98-4.03-7.51-3.55-11.71-3.96-1.35-.13-2.14,.59-2.29,1.96Z"/>
    <path class="cls-4" d="M562.27,157.97c-.33,.33-.67,.67-1,1-2.46,.71-5.12,.95-7,3-.67,0-1.33,0-2,0-2.14-1.66-4.32-3.26-7-4-6.04-5.24-13.49-7.18-20.99-8.99-.67,0-1.33,0-2,0-.43-.8-1.18-.98-2-1-4,0-8,0-11.99,0-1,0-2,0-3,0,1.69-3.85,5.63-2.49,8.21-2.73,9.85-.93,19.57,.78,28.25,5.64,6.51,3.64,12.37,8.47,20.52,7.09Z"/>
    <path class="cls-13" d="M388.33,248.89c14.16-.11,25.58,5.65,34.7,16.28,.86,1,1.52,2.16,2.28,3.24,.89,1.27,1.81,2.92,.23,3.88-1.36,.83-2.18-.97-2.98-1.96-4.27-5.29-8.74-10.23-15-13.44-5.78-2.95-11.68-4.38-18.13-4.02-2.2,.12-4.78,.78-6.15-1.97,1.32-1.56,3.08-2.05,5.04-2.01Z"/>
    <path class="cls-13" d="M468.3,183.92c14.55,.67,25.96,7.09,34.47,18.83,.98,1.35,2.53,3.17,.95,4.34-1.89,1.4-2.63-1.09-3.5-2.33-8.44-12.11-20.25-17.62-34.79-17.81-1.45-.02-3.04,.4-4.18-1,.17-1.95,1.59-2.01,3.04-2.01,1.33,0,2.67,0,4,0Z"/>
    <path class="cls-12" d="M501.29,148.97c-4.29,3.84-9.61,5.49-15,7,4.02-4.43,9.48-5.76,15-7Z"/>
    <path class="cls-7" d="M658.23,206.94c1.25-1.85,4.13-1.67,5-4,1.67-.33,3.33-.67,5-1,.33,0,.67,0,1,0-.17,.79-.22,2.21-.53,2.27-3.55,.69-6.54,3.57-10.46,2.72Z"/>
    <path class="cls-12" d="M474.3,166.96c-.97,4.23-1.91,8.47-6,10.99,.42-4.53,2.92-7.92,6-10.99Z"/>
    <path class="cls-7" d="M674.23,200.94c1.45-.15,2.75,.32,4,1-2.67,3.39-5.33,2.7-8,0v-1c1.33,0,2.67,0,4,0Z"/>
    <path class="cls-12" d="M571.26,156.97c.82,.02,1.57,.19,2,1-2.56,1.28-5.1,2.4-7-1,1.67,0,3.33,0,5,0Z"/>
    <path class="cls-12" d="M468.3,183.92c-1.33,0-2.67,0-4,0,.09-2.01,1.41-3.1,3-3.98,1.46,1.04,.86,2.6,1,3.97Z"/>
    <path class="cls-12" d="M505.29,147.97c1,0,2,0,3,0-1.11,3.12-3,2.32-5,1,.43-.8,1.18-.98,2-1Z"/>
    <path class="cls-12" d="M483.3,157.97c-.29,2.38-1.62,3.71-4,4,.29-2.37,1.63-3.71,4-4Z"/>
    <path class="cls-12" d="M486.3,155.97c-.09,2.03-1.54,2.01-3,2,.56-1.33,1.56-1.99,3-2Z"/>
    <path class="cls-2" d="M670.23,200.94v1c-.33,0-.67,0-1,0-.33,0-.67,0-1,0,.2-1.27,.41-2.52,2-1Z"/>
    <path class="cls-1" d="M727.2,297.88c-.66,0-1.33,0-1.99,0-.26-.52-.43-1.41-.79-1.49-1.08-.23-1.07,.76-1.22,1.49-.33,0-.67,0-1,0-1.45-.01-2.91-.03-3,2-3.84,.78-3.93,4.24-4.99,7,0,.66,0,1.33,0,1.99-3.56,2.83-7.15,5.62-9,9.99-5.25,2.02-10.5,4.02-15.73,6.08-.18,.07-.18,.6-.27,.92-1,0-2,0-3,0-.67-1.33-1.33-2.66-2-3.99,11.85,.87,25.28-10.24,28.95-22.7,.41-1.41,.7-2.86,1.04-4.29,1.66-1.65,3.71-2.55,5.97-3.03,6,3.16,11.19-.47,15.64-3.06,10-5.84,16.08-14.78,16.38-26.88,2.29,.37,2.96,2.06,2.77,3.97-.25,2.43-.62,4.91-1.41,7.2-3.65,10.64-10.75,17.79-21.65,21.12-1.84,.56-5.15-.07-4.7,3.68Z"/>
    <path class="cls-14" d="M452.31,370.85c-4.33,0-8.66,0-12.99,0-.72-1.17-1.9-.96-3-1-2-.33-4-.67-6-1-.43-.81-1.18-.98-2-1-3.8,.94-5.4-2.52-8-4,.22-2.14,1.34-1.69,2.78-1.12,13.71,5.42,27.29,4.71,40.69-1.13,1.64-.71,3.08-.62,4.78-.21,4.17,1.02,8.39,1.86,12.73,1.46,1.99,1.28,3.99,1.21,6,.02-.43,1.75,1.19,4.34-2.01,4.98-1,0-2,0-3,0-.72-1.18-1.9-.97-3-1-1.67,0-3.33,0-5,0-1.67-1.48-3.33-1.48-5,0-4.55,1.56-9.25,2.35-13.99,3-1.1,.03-2.28-.18-3,1Z"/>
    <path class="cls-11" d="M727.2,297.88c-.45-3.75,2.86-3.12,4.7-3.68,10.91-3.33,18-10.48,21.65-21.12,.79-2.3,1.16-4.78,1.41-7.2,.2-1.91-.48-3.6-2.77-3.97-.17-5.68,.73-11.45-1.77-16.94-.75-1.65-.01-3.22,1.77-4.05,5.21,6.26,4.35,14.1,4.82,21.3,.99,15.51-6.53,26.48-20.24,33.39-3.01,1.52-6.34,1.67-9.57,2.27Z"/>
    <path class="cls-5" d="M713.27,221.97c.29,0,.58,0,.87,0-.29,3.22,2.57,4.2,4.44,5.43,2.53,1.66,3.94,4.01,5.45,6.35,.7,1.09,2.16,2.74,.17,3.83-1.47,.81-2.27-.66-3.07-1.79-1.62-2.27-3.19-4.45-5.45-6.33-11.22-9.37-30.62-4.6-35.82,10.21-.16,.47-.39,.92-.54,1.39-.35,1.1-.56,2.59-2.06,2.29-1.58-.32-1.05-1.9-.93-2.94,.95-8.52,11.63-18.22,20.4-18.46,4.16-.12,8.32,0,12.49,0,.73,1.15,1.91,.95,3.01,1,.35-.33,.7-.65,1.06-.98Z"/>
    <path class="cls-5" d="M720.18,291.85c-2.26,.48-4.3,1.38-5.97,3.03-11.67,3.69-21.92,1.84-30.19-7.72-1.7-1.96-4.47-5.32-2.86-6.53,2.77-2.07,3.62,2.32,5,3.93,13.21,15.47,33.22,9.07,39.49-6.39,.47-1.16,.27-3.72,2.49-2.85,1.93,.76,1.13,2.87,.58,4.38-1.75,4.8-5.36,8.33-8.54,12.14Z"/>
    <path class="cls-13" d="M605.25,177.94c1.23,.68,2.5,1.19,3.94,1.05,2.78,2.58,5.62,5.11,8.31,7.78,1.23,1.22,3.36,3.06,1.96,4.49-1.76,1.81-3.22-.75-4.28-1.98-5.12-5.92-11.37-8.38-19.3-8.52-7.79-.14-18.07,6.94-20.51,15.42-.43,1.5-.21,3.99-2.64,3.16-2.54-.87-1.13-3.11-.49-4.68,3.77-9.14,13.07-18,24.02-16.76,2.96,.33,5.98,.04,8.98,.04Z"/>
    <path class="cls-8" d="M575.26,364.85c1.34,.33,2.67,.67,4.01,1,.03,2.76-2.52,3.25-4.13,4.38-1.73,1.21-3.18,2.27-2.87,4.61-1.9-.02-2.76,1.59-4.07,2.53-6.54,4.66-11.48,11.86-20.39,12.83-1.27,.14-2.48,.99-2.53,2.63h0c-1,0-2,0-3,0-.75-2.48-4.7-.95-4.99-4,11.9-1.1,21.57-6.6,29.5-15.27,2.43-2.65,4.33-5.78,6.47-8.69,.67,0,1.34-.02,2-.02Z"/>
    <path class="cls-5" d="M487.31,362.87c-2,1.19-4,1.25-6-.02,.22-2.13,1.89-2.62,3.52-2.89,15.07-2.45,25.05-11.04,30.61-25.09,.5-1.27,.74-3.3,2.85-2.64,1.42,.45,.98,1.89,.7,3.01-3.15,12.77-19.01,26.59-31.69,27.62Z"/>
    <path class="cls-5" d="M571.26,227.93c14.26,.65,26.39,5.54,34.98,17.51,.58,.8,1.08,1.67,1.51,2.56,.52,1.07,1,2.58-.08,3.2-1.72,.99-2.11-.94-2.77-1.94-5.54-8.37-13.18-13.77-22.8-16.56-4.02-1.17-8.17-.69-12.23-1.36-1.47-.24-3.75,1.13-4.07-1.09-.38-2.7,2.25-2.16,3.96-2.31,.49-.05,1,0,1.49,0Z"/>
    <path class="cls-5" d="M578.23,319.63c-1.05,.22-2.12-.06-2.4-1.14-.51-1.95,1.36-2.21,2.44-2.41,6.96-1.29,13.24-3.76,18.86-8.32,5.17-4.2,8.98-9.15,11.4-15.27,.31-.77,.65-1.54,1.07-2.25,.64-1.08,1.11-2.89,2.81-1.93,1.4,.79,.86,2.35,.28,3.58-.99,2.1-1.92,4.25-3.11,6.24-7.14,11.94-17.59,19.12-31.35,21.49Z"/>
    <path class="cls-8" d="M669.24,319.87c1.65,1.02,3.69,1.4,4.99,3-2.6,3.59-7.83,3.88-10,8-8.29,8.42-17.55,14.89-29.99,14.99,0-.33,0-.67,0-1,8.49-2.38,16.49-5.7,22.96-11.97,3.66-3.55,7.2-7.16,9.06-12.06,1.1,.01,2.26,.2,2.98-.96Z"/>
    <path class="cls-1" d="M615.25,358.86c-.04,1.3-.7,1.96-2,2-4.71,1.59-8.16,5.85-13.23,6.49-2.62,.33-5.84,2.33-7.77-1.5,10.17-.45,17.75-6.05,22.61-14.05,3.09-5.08,6.21-6.55,11.37-5.94-.33,.67-.67,1.33-1,2-4.68,2.44-7.77,6.32-9.99,11Z"/>
    <path class="cls-11" d="M326.36,312.88c-.67,0-1.33,0-2,0-1.39-1.36-3.24-1.57-5-2,0,0,0,0,0,0-.04-1.65,.37-2.59,2.35-3.06,9.66-2.31,18.61,1.37,27.8,3.01,1.39,.25,2,1.2,1.68,2.55-.46,1.95-1.74,.69-2.77,.68-1.36-.02-2.65-1.9-4.07-.17-2.11,.35-4-.67-6-1-1.4-1.67-3.31-.76-5-1-1,0-2,0-3,0-1.38,.14-2.95-.47-4,1Z"/>
    <path class="cls-11" d="M592.26,365.85c1.92,3.83,5.15,1.83,7.77,1.5,5.08-.64,8.52-4.91,13.23-6.49,.02,3.4-1.88,5.21-5,5.99-2.18,.14-4.43,.16-5,3-.67,0-1.33,0-2,0-3.69,.02-7.42-.33-11,1-1.33,0-2.66,0-4,0-3.53-1.75-6.62-1.45-9,2-2.1-.42-3.42,1.1-5,2h0c-.31-2.34,1.14-3.4,2.87-4.61,1.61-1.13,4.16-1.62,4.13-4.38,4.33,.88,8.66,1.72,13,0Z"/>
    <path class="cls-5" d="M575.26,364.85c-.67,0-1.34,.02-2,.02-11.08-4.5-17.05-13.19-19.8-24.4-.34-1.41-1.07-3.84,1.15-4.21,2.3-.39,1.37,2.07,1.78,3.31,2.97,9.07,7.36,17.06,16.38,21.5,1.63,.8,2.8,1.76,2.5,3.78Z"/>
    <path class="cls-5" d="M669.24,319.87c-.72,1.16-1.88,.98-2.98,.96-9.16-5.48-15.99-12.76-18.37-23.54-.41-1.87-1.8-4.43,.79-5,2.09-.47,2.18,2.31,2.56,4.07,1.92,8.71,6.5,15.5,14.49,19.77,1.58,.85,3.51,1.39,3.5,3.74Z"/>
    <path class="cls-11" d="M397.33,344.86c-8.83-.56-17.59-1.35-24.99-7,.21-2.16,1.46-1.72,2.83-1.18,5.85,2.33,11.98,2.37,18.14,2.17,1.49,3.41,4.07,.41,6.03,1.02-.91,1.56,3.06,5.09-2,4.98Z"/>
    <path class="cls-5" d="M458.32,254.08c.3-9.4,4.07-17.29,10.43-24.06,1.26-1.34,3.02-3.17,4.61-1.61,1.75,1.72-.89,2.78-1.89,3.75-6.95,6.85-10.51,14.98-9.63,24.81,.13,1.43-.17,2.43-1.47,2.66-1.96,.35-2.03-1.18-2.06-2.57-.02-1,0-2,0-3Z"/>
    <path class="cls-5" d="M552.27,162.99c.03,1.92-1.44,2.9-2.59,4.05-6.97,6.96-11.54,14.84-9.82,25.18,.23,1.41-.35,2.38-1.71,2.47-2.01,.13-1.79-1.51-1.85-2.8-.48-9.76,2.86-18.16,9.1-25.52,.96-1.13,1.94-2.25,2.9-3.37,1.33,0,2.65,0,3.98-.01Z"/>
    <path class="cls-13" d="M654.24,206.89c.66,.02,1.33,.04,1.99,.05,.24,1.71-.78,2.59-1.97,3.67-7.13,6.45-10.23,14.8-11.06,24.19-.11,1.28,.91,3.58-1.36,3.52-1.79-.05-1.66-2.21-1.58-3.69,.56-11.3,4.46-20.94,13.98-27.74Z"/>
    <path class="cls-13" d="M480.99,272.91c4.18-.74,8.73,.79,13.23,2.54,.85,.33,2.06,.73,1.53,2.08-.41,1.04-1.45,1.57-2.45,1.16-6.26-2.57-12.81-3.02-19.47-2.9-1,.02-2.09-.54-1.96-1.75,.15-1.36,1.45-1.09,2.37-1.11,1.99-.06,3.98-.02,6.74-.02Z"/>
    <path class="cls-5" d="M399.34,339.88c-1.96-.62-4.54,2.39-6.03-1.02,4.36-3.22,10.14-2.65,14.64-5.43,2.39-1.48,4.6-3.27,8.57-1.92-5.2,4.8-11.01,6.93-17.18,8.37Z"/>
    <path class="cls-11" d="M664.23,330.87c2.17-4.12,7.4-4.41,10-8,3.31-.51,6.59-1.39,10-1,.67,1.33,1.33,2.66,2,3.99-3.07,0-6.15-.03-9.22,.01-1.56,.02-3.45-.44-3.78,1.98-2.89,1.3-4.72,4.31-7.99,5-.33-.67-.67-1.33-1-2Z"/>
    <path class="cls-11" d="M537.28,388.84c.3,3.04,4.25,1.52,4.99,4,0,.33,0,.67,0,1-2.11-.35-4,.67-6,1-.76-1.82-2.29-2.09-4-2-1.59-1.52-1.8-.27-2,1h0c-.67,0-1.33,0-2,0-.2-1.27-.41-2.52-2-1-.67,0-1.33,0-2,0h0v-3c4.37,.14,8.72,.02,13-1Z"/>
    <path class="cls-11" d="M524.28,389.83v3c-2,0-4,0-6,0-.04-1.3-.7-1.96-2-2-1.67-.33-3.33-.67-5-1-.73-2.47-1.31-4.54,2.72-3,3.32,1.27,6.84,2.02,10.28,3Z"/>
    <path class="cls-12" d="M524.28,148.97c7.51,1.81,14.95,3.76,20.99,8.99-5.37,.43-8.84-3.95-13.52-5.42-2.54-.79-6.06-.22-7.48-3.58Z"/>
    <path class="cls-5" d="M508.2,286.95c1.76-.15,7.09,5.86,6.69,7.69-.4,1.83-1.82,1.36-2.59,.55-1.91-2-3.68-4.15-5.32-6.38-.85-1.16,0-1.76,1.21-1.86Z"/>
    <path class="cls-4" d="M690.22,204.94c5.35,1.01,10.01,3.14,12.99,8-2.79,.06-4.33-2.78-7-3-.33,0-.67,0-1,0-.3-2.37-2.18-2.65-4-3-.33-.67-.67-1.33-1-2Z"/>
    <path class="cls-7" d="M610.25,178.96c.15-1.37,.94-2.09,2.29-1.96,4.2,.41,8.73-.07,11.71,3.96-4.62-.95-9.22-2.13-13.99-2Z"/>
    <path class="cls-7" d="M584.26,160.97c4.06,2.23,8.58,3.67,12,7-5.4-.34-9.5-3.12-12.99-7h1Z"/>
    <path class="cls-10" d="M625.25,347.86c.33-.67,.67-1.33,1-2,2.51-1.55,5.31-.85,8-1,0,.33,0,.67,0,1-.25,2.23-1.39,3.44-3.65,2.6-1.78-.66-3.55-.54-5.35-.6Z"/>
    <path class="cls-5" d="M425.48,316.07c1.3-3.17,2.26-5.51,3.36-8.17,2.43,4.59,1.93,5.96-3.36,8.17Z"/>
    <path class="cls-7" d="M690.22,204.94c.33,.67,.67,1.33,1,2-3.84-1.27-8.61-.52-11-5,3.64-.02,6.24,3.42,10,3Z"/>
    <path class="cls-7" d="M696.22,209.94c2.67,.22,4.21,3.06,7,3,.33,.33,.67,.67,1,1v1c-3.7-.01-6.99-.67-8-5Z"/>
    <path class="cls-12" d="M552.27,162.99c-1.33,0-2.65,0-3.98,.01,.05-2.31-3.38-2.54-3.01-5.03,2.67,.74,4.85,2.33,7,4,0,.34,0,.68,0,1.02Z"/>
    <path class="cls-7" d="M716.21,221.93c2.61-1.62,5.03-1.86,7,1-2.32-.39-4.89,.92-7-1Z"/>
    <path class="cls-12" d="M554.27,161.97c1.88-2.05,4.54-2.29,7-3-1.63,2.64-3.89,3.8-7,3Z"/>
    <path class="cls-7" d="M737.2,227.93c2.06,.35,3.94,.98,5,3-3.09,1.37-3.94-.99-5-3Z"/>
    <path class="cls-12" d="M584.26,160.97h-1c-2.32-.36-5.01,.03-6-3,2.46,.71,5.12,.95,7,3Z"/>
    <path class="cls-4" d="M712.21,222.95c-1.1-.05-2.28,.16-3.01-1,0-.67,0-1.35,0-2.02,1.45-.01,2.91-.03,3,2,0,.34,0,.68,0,1.01Z"/>
    <path class="cls-7" d="M691.22,206.94c1.82,.35,3.69,.63,4,3-1.82-.35-3.69-.63-4-3Z"/>
    <path class="cls-4" d="M704.21,214.93v-1c1.3,.03,1.97,.7,2,2-.82-.02-1.57-.19-2-1Z"/>
    <path class="cls-4" d="M707.21,216.93c1.3,.03,1.97,.7,2,2-1.3-.03-1.97-.7-2-2Z"/>
    <path class="cls-12" d="M520.29,147.97c.82,.02,1.57,.19,2,1-1.59,1.52-1.8,.27-2-1Z"/>
    <path class="cls-11" d="M625.25,347.86c1.8,.06,3.57-.06,5.35,.6,2.26,.84,3.4-.37,3.65-2.6,12.44-.11,21.7-6.58,29.99-14.99,.33,.67,.67,1.33,1,2-5.95,6.82-12.34,12.89-21.62,15.07-4.45,1.04-8.82,2.37-13.37,2.92-3.81-2.06-6.12-.09-8,3-2.19,1.87-3.31,5.22-6.99,5,2.22-4.68,5.31-8.56,9.99-11Z"/>
    <path class="cls-11" d="M545.27,392.83c.05-1.64,1.26-2.49,2.53-2.63,8.91-.97,13.85-8.17,20.39-12.83,1.31-.93,2.17-2.55,4.07-2.53h0c0,.67,0,1.33,0,2-6.42,6.26-12.61,12.8-21.6,15.54-1.82,.56-3.6,.3-5.39,.44Z"/>
    <path class="cls-11" d="M689.22,325.87c.09-.32,.09-.85,.27-.92,5.23-2.05,10.48-4.06,15.73-6.08h0v2c-3.28,3.44-8.36,3.27-12,6-1.05-1.46-2.62-.85-4-1Z"/>
    <path class="cls-3" d="M689.22,325.87c1.38,.15,2.95-.46,4,1-6.57,2.28-13.34,.38-19.99,1,.33-2.43,2.21-1.96,3.78-1.98,3.07-.04,6.15-.01,9.22-.01,1,0,2,0,3,0Z"/>
    <path class="cls-11" d="M705.21,318.87c1.85-4.37,5.44-7.17,9-9.99,1.79,2.57-.68,3.74-1.82,5.25-1.26,1.68-2.78,3.17-4.18,4.74-1,0-2,0-3,0h0Z"/>
    <path class="cls-11" d="M714.22,306.89c1.07-2.76,1.15-6.22,4.99-7,0,1,0,2,0,3-.89,2.3-2.41,3.81-4.99,4Z"/>
    <path class="cls-3" d="M590.26,370.85c3.57-1.33,7.3-.98,11-1-2.9,2.4-8.75,2.93-11,1Z"/>
    <path class="cls-7" d="M577.26,372.84c2.38-3.45,5.46-3.74,9-2-2.72,1.91-6.19,.48-9,2Z"/>
    <path class="cls-3" d="M622.25,353.85c1.88-3.09,4.18-5.06,8-3-2.67,1-5.33,2-8,3Z"/>
    <path class="cls-7" d="M532.28,392.84c1.71-.09,3.24,.18,4,2-2.24,1.09-4.52,2.5-6-1,0,0,0,0,0,0,.82-.02,1.57-.19,2-1Z"/>
    <path class="cls-3" d="M719.21,302.88c0-1,0-2,0-3,1.44,0,2.44-.67,3-2,.33,0,.67,0,1,0,.33,0,.67,0,1,0-.73,2.61-3.25,3.41-5,4.99Z"/>
    <path class="cls-7" d="M572.27,376.84c0-.67,0-1.33,0-2,1.57-.9,2.9-2.42,5-2-1.24,1.86-2.46,3.75-5,4Z"/>
    <path class="cls-7" d="M333.36,311.88c1.69,.24,3.6-.67,5,1-2,1.32-3.89,2.12-5-1Z"/>
    <path class="cls-7" d="M469.31,366.85c1.67-1.48,3.33-1.48,5,0-1.67,1.48-3.33,1.48-5,0Z"/>
    <path class="cls-3" d="M603.25,369.85c.56-2.83,2.82-2.86,5-3-1.06,2.01-2.94,2.65-5,3Z"/>
    <path class="cls-7" d="M319.36,310.88c1.76,.43,3.61,.64,5,2-2.32,.97-4.09,.56-5-2Z"/>
    <path class="cls-7" d="M326.36,312.88c1.05-1.46,2.62-.86,4-1-.71,2.82-2.24,2.37-4,1Z"/>
    <path class="cls-7" d="M479.3,366.85c1.1,.03,2.28-.18,3,1-1.66,1.64-2.6,1.13-3-1Z"/>
    <path class="cls-7" d="M436.32,369.85c1.1,.03,2.28-.18,3,1-1.65,1.64-2.59,1.13-3-1Z"/>
    <path class="cls-7" d="M452.31,370.85c.72-1.18,1.9-.97,3-1-.4,2.12-1.35,2.63-3,1Z"/>
    <path class="cls-7" d="M542.28,393.83c0-.33,0-.67,0-1,1,0,2,0,3,0-.4,2.12-1.34,2.64-3,1Z"/>
    <path class="cls-3" d="M705.21,318.88c1,0,2,0,3,0-.56,1.33-1.56,2-3,2v-2Z"/>
    <path class="cls-7" d="M428.32,367.85c.82,.02,1.57,.19,2,1-1.59,1.52-1.8,.27-2-1Z"/>
    <path class="cls-11" d="M724.21,297.89c-.33,0-.67,0-1,0,.15-.73,.14-1.72,1.22-1.49,.35,.08,.53,.97,.79,1.49-.33,0-.67,0-1,0Z"/>
    <path class="cls-11" d="M526.28,392.83c1.59-1.52,1.8-.27,2,1-.67,0-1.33,0-2,0,0-.33,0-.67,0-1Z"/>
    <path class="cls-7" d="M526.28,392.83c0,.33,0,.67,0,1-1.59,1.52-1.8,.27-2-1,.67,0,1.33,0,2,0Z"/>
    <path class="cls-7" d="M516.29,390.84c1.3,.03,1.97,.7,2,2-1.3-.03-1.97-.7-2-2Z"/>
    <path class="cls-7" d="M712.21,222.95c0-.34,0-.68,0-1.01,.35,.01,.7,.03,1.06,.04-.35,.33-.7,.65-1.05,.98Z"/>
    <path class="cls-11" d="M722.21,297.89c-.56,1.33-1.56,2-3,2,.09-2.03,1.55-2.01,3-2Z"/>
    <path class="cls-11" d="M532.28,392.84c-.43,.8-1.18,.98-2,1,.2-1.27,.41-2.52,2-1Z"/>
  </g>
  <g class="cls-9">
    <path class="cls-7" d="M254.31,66.95c.02-.82,.19-1.57,1-2,4.09-2.52,5.03-6.77,6-10.99,1.28-2.05,2.94-3.72,4.99-5,2.38-.28,3.71-1.62,4-4,0,0,0,0,0,0,1.45,.02,2.91,.03,3-2,0,0,0,0,0,0,5.38-1.51,10.7-3.15,15-7,.67,0,1.33,0,2,0,2,1.33,3.89,2.13,5-1,4,0,8,0,11.99,0,.2,1.27,.41,2.52,2,1,.67,0,1.33,0,2,0,1.41,3.35,4.94,2.79,7.48,3.58,4.68,1.46,8.15,5.84,13.52,5.42-.36,2.5,3.06,2.72,3.01,5.03-.97,1.12-1.95,2.24-2.9,3.37-6.23,7.37-9.57,15.77-9.1,25.52,.06,1.29-.17,2.93,1.85,2.8,1.36-.09,1.95-1.07,1.71-2.47-1.72-10.34,2.85-18.22,9.82-25.18,1.15-1.15,2.62-2.13,2.59-4.05,0-.34,0-.68,0-1.02,.67,0,1.33,0,2,0,3.1,.8,5.37-.36,7-3,.33-.33,.67-.67,1-1,1.33-.33,2.67-.67,4-1,1.89,3.4,4.43,2.28,7,1,1.33,0,2.67,0,4,0,.98,3.03,3.68,2.64,6,3,3.5,3.88,7.59,6.65,12.99,7,3.56,2.82,7.14,5.62,9,9.98-3,0-6.02,.29-8.98-.04-10.95-1.24-20.25,7.62-24.02,16.76-.65,1.57-2.06,3.81,.49,4.68,2.43,.83,2.2-1.65,2.64-3.16,2.45-8.48,12.72-15.56,20.51-15.42,7.94,.14,14.18,2.6,19.3,8.52,1.06,1.22,2.52,3.78,4.28,1.98,1.39-1.43-.73-3.26-1.96-4.49-2.69-2.67-5.53-5.2-8.31-7.78,.35-.01,.7-.02,1.05-.04,4.78-.13,9.37,1.05,13.99,2,4.97,1.07,9.24,3.25,13.69,5.95,8.08,4.9,12.26,12.21,16.3,19.98-9.52,6.8-13.42,16.43-13.98,27.74-.07,1.47-.2,3.63,1.58,3.69,2.27,.07,1.25-2.23,1.36-3.52,.83-9.38,3.92-17.74,11.06-24.19,1.19-1.07,2.2-1.96,1.97-3.67,.67,0,1.34,0,2.01,0,3.93,.85,6.91-2.03,10.46-2.72,.31-.06,.36-1.48,.53-2.27,.33,0,.67,0,1,0,2.67,2.7,5.33,3.39,8,0,.67,0,1.33,0,2,0,2.39,4.47,7.15,3.72,11,5,.3,2.37,2.18,2.65,4,3,.33,0,.67,0,1,0,1,4.32,4.3,4.99,8,5,.43,.8,1.18,.98,2,1,.33,.33,.67,.67,1,1,.03,1.3,.7,1.96,2,2,0,.33,0,.67,0,1,0,.67,0,1.35,0,2.02-4.16,0-8.33-.12-12.49,0-8.76,.25-19.45,9.94-20.4,18.46-.12,1.04-.65,2.63,.93,2.94,1.5,.3,1.71-1.2,2.06-2.29,.15-.47,.38-.92,.54-1.39,5.21-14.81,24.6-19.58,35.82-10.21,2.26,1.89,3.83,4.07,5.45,6.33,.8,1.12,1.59,2.6,3.07,1.79,1.99-1.09,.53-2.74-.17-3.83-1.51-2.34-2.92-4.69-5.45-6.35-1.87-1.23-4.72-2.21-4.44-5.43l2.07-.04c2.11,1.92,4.67,.61,7,1,5.23,.08,9.67,2.37,13.99,5,1.06,2.01,1.91,4.37,5,3,5.68,.99,7.33,6,10,10-1.78,.84-2.52,2.4-1.77,4.05,2.5,5.48,1.59,11.25,1.77,16.94-.3,12.1-6.38,21.04-16.38,26.88-4.45,2.6-9.64,6.22-15.64,3.06,3.19-3.81,6.79-7.34,8.54-12.14,.55-1.52,1.36-3.62-.58-4.38-2.21-.87-2.02,1.69-2.49,2.85-6.27,15.45-26.28,21.86-39.49,6.39-1.37-1.61-2.23-6-5-3.93-1.62,1.21,1.16,4.57,2.86,6.53,8.27,9.56,18.52,11.41,30.19,7.72-.34,1.43-.62,2.88-1.04,4.29-3.66,12.46-17.1,23.57-28.95,22.7-3.4-.39-6.68,.49-10,1-1.3-1.6-3.34-1.98-4.99-3,.01-2.35-1.91-2.89-3.5-3.74-8-4.27-12.58-11.06-14.49-19.77-.39-1.76-.47-4.54-2.56-4.07-2.59,.58-1.2,3.14-.79,5,2.38,10.78,9.21,18.06,18.37,23.54-1.86,4.89-5.4,8.51-9.06,12.06-6.47,6.27-14.47,9.59-22.96,11.97-2.69,.15-5.48-.55-8,1-5.16-.61-8.28,.86-11.37,5.94-4.87,8-12.45,13.6-22.61,14.05-4.33,1.72-8.66,.88-13,0-1.34-.33-2.67-.67-4.01-1,.3-2.01-.87-2.97-2.5-3.78-9.02-4.44-13.41-12.43-16.38-21.5-.41-1.24,.52-3.7-1.78-3.31-2.22,.37-1.49,2.8-1.15,4.21,2.75,11.22,8.73,19.9,19.8,24.4-2.14,2.91-4.04,6.04-6.47,8.69-7.93,8.67-17.6,14.17-29.5,15.27-4.28,1.02-8.63,1.14-13,1-3.43-.98-6.95-1.73-10.28-3-4.02-1.54-3.45,.53-2.72,3-11.18-4.36-16.65-15.45-25.99-21.98,3.2-.64,1.57-3.22,2.01-4.98,12.68-1.03,28.54-14.86,31.69-27.62,.28-1.12,.71-2.57-.7-3.01-2.11-.67-2.35,1.37-2.85,2.64-5.56,14.04-15.54,22.64-30.61,25.09-1.64,.27-3.31,.76-3.52,2.89-4.34,.4-8.57-.45-12.73-1.46-1.7-.41-3.15-.5-4.78,.21-13.4,5.84-26.98,6.54-40.69,1.13-1.44-.57-2.56-1.01-2.78,1.12-1.75,.17-3.4-.35-4.66-1.43-6.43-5.51-11.49-12.47-18.33-17.56,5.07,.11,1.1-3.42,2-4.98,6.17-1.45,11.98-3.57,17.18-8.37-3.97-1.35-6.18,.44-8.57,1.92-4.5,2.78-10.28,2.21-14.64,5.43-6.16,.2-12.29,.16-18.14-2.17-1.37-.54-2.62-.98-2.83,1.18-3.98-.31-6.66-2.73-8.83-5.73-5.27-7.28-9.46-15.64-19.16-18.26,1.42-1.73,2.71,.16,4.07,.17,1.02,.01,2.31,1.27,2.77-.68,.32-1.35-.28-2.31-1.68-2.55-9.19-1.64-18.14-5.32-27.8-3.01-1.98,.47-2.39,1.41-2.35,3.06-3.06-1.27-6.16-2.46-5.3-6.83,.22-1.14-.8-1.7-1.69-2.16,1.84-6.06,7.69-4.56,11.33-4.64,8.19-.18,14.33-4.8,21.36-7.49,3.48-1.33,3.45-4.59,4.2-7.34,4.8-17.6,16.36-27.84,34.03-31.51,1.37,2.75,3.95,2.09,6.15,1.97,6.45-.35,12.35,1.07,18.13,4.02,6.27,3.2,10.73,8.14,15,13.44,.8,.99,1.62,2.79,2.98,1.96,1.57-.96,.66-2.61-.23-3.88-.76-1.08-1.43-2.24-2.28-3.24-9.12-10.63-20.54-16.39-34.7-16.28,.37-4.1,2.69-7.85,2.13-12.16-.1-.8,.57-2.22,1.26-2.52,7.64-3.36,11.21-11.76,18.85-15.09,3.63-1.58,7.04-4.16,10.81-4.85,5.57-1.02,8.21-4.14,10.9-8.79,6.39-11.01,16.3-17.5,28.98-19.54,1.13,1.41,2.73,.98,4.18,1,14.54,.2,26.35,5.7,34.79,17.81,.87,1.24,1.61,3.73,3.5,2.33,1.57-1.16,.03-2.98-.95-4.34-8.51-11.73-19.92-18.15-34.47-18.83-.14-1.37,.46-2.93-1-3.97Zm103.96,47.98c-.5,0-1-.04-1.49,0-1.71,.16-4.34-.39-3.96,2.31,.31,2.22,2.59,.84,4.07,1.09,4.06,.67,8.21,.19,12.23,1.36,9.62,2.8,17.26,8.2,22.8,16.56,.66,1,1.05,2.94,2.77,1.94,1.07-.62,.6-2.13,.08-3.2-.43-.89-.93-1.76-1.51-2.56-8.59-11.96-20.72-16.86-34.98-17.51Zm6.97,91.7c13.75-2.37,24.21-9.55,31.35-21.49,1.19-1.99,2.12-4.14,3.11-6.24,.58-1.23,1.12-2.79-.28-3.58-1.71-.96-2.18,.84-2.81,1.93-.42,.71-.76,1.48-1.07,2.25-2.42,6.12-6.23,11.07-11.4,15.27-5.62,4.56-11.9,7.03-18.86,8.32-1.08,.2-2.95,.45-2.44,2.41,.28,1.08,1.35,1.36,2.4,1.14Zm-119.91-65.55c0,1-.02,2,0,3,.03,1.38,.1,2.92,2.06,2.57,1.3-.23,1.59-1.23,1.47-2.66-.88-9.83,2.67-17.96,9.63-24.81,.99-.98,3.64-2.03,1.89-3.75-1.58-1.56-3.34,.27-4.61,1.61-6.36,6.77-10.13,14.66-10.43,24.06Zm22.67,18.83c-2.76,0-4.75-.04-6.74,.02-.93,.03-2.22-.25-2.37,1.11-.13,1.21,.96,1.77,1.96,1.75,6.66-.13,13.21,.33,19.47,2.9,.99,.41,2.04-.12,2.45-1.16,.53-1.34-.68-1.74-1.53-2.08-4.5-1.75-9.05-3.28-13.23-2.54Zm27.21,14.05c-1.22,.1-2.07,.7-1.21,1.86,1.64,2.23,3.41,4.38,5.32,6.38,.77,.8,2.19,1.28,2.59-.55,.4-1.83-4.93-7.84-6.69-7.69Zm-82.72,29.12c5.28-2.22,5.79-3.59,3.36-8.17-1.09,2.67-2.05,5-3.36,8.17Z"/>
    <path class="cls-2" d="M496.21,106.93c0-.33,0-.67,0-1-.03-1.3-.7-1.96-2-2-.33-.33-.67-.67-1-1-.03-1.3-.7-1.96-2-2-.33-.33-.67-.67-1-1-2.98-4.86-7.64-6.99-12.99-8-3.76,.42-6.36-3.02-10-3-.67,0-1.33,0-2,0-1.25-.68-2.54-1.15-4-1,2.85-4.17,7.02-2.11,10.31-1.56,10.46,1.75,19.34,6.75,25.85,15.3,3.04,3.99,6.91,4.54,11.44,4.29,14.91-.82,26.32,6.1,33.8,18.14,8.08,13,9.17,27.5,3.42,41.98-5.12,12.89-15.2,20.13-28.43,23.06-4.99,1.1-7.9,3.65-10.33,8.2-7.35,13.77-18.85,21.44-34.85,21.52-2.67,.01-5.33,.05-8,0-2.69-.05-4.93,.91-6.57,2.99-9.71,12.3-22.68,18.32-37.99,20.07-3.96,.45-7.27,1.89-10.11,5.43-8.78,10.96-20.23,16.71-34.64,15.53-4.93-.4-8.72,.58-12.61,4.8-10.02,10.86-22.24,17.31-37.79,18.46-18.42,1.36-32.68-5.71-44.62-18.25-8.57-9.01-17.99-10.52-29.27-7.42-17.67,4.86-34.51,3.3-50-7.31-4.17-2.86-7.76-6.43-10.73-10.35-3.44-4.54-7.83-6.47-13.06-6.88-8.3-.64-15.96-3.13-22.55-8.1-5-3.76-9.9-7.82-12.97-13.54-3.85-7.15-10.4-9.25-17.92-9.41-3.5-.07-7.03-.31-10.49,.04-9.5,.97-15.75-3.59-13.76-16.05,.9,.47,1.92,1.02,1.69,2.16-.86,4.37,2.24,5.56,5.3,6.83,0,0,0,0,0,0,.91,2.56,2.68,2.96,5,2,.67,0,1.33,0,2,0,1.76,1.38,3.29,1.82,4-1,1,0,2,0,3,0,1.11,3.12,3,2.32,5,1,2,.33,3.88,1.35,6,1,9.7,2.62,13.89,10.98,19.16,18.26,2.17,3,4.85,5.41,8.83,5.73,7.4,5.65,16.16,6.44,24.99,7,6.84,5.09,11.9,12.05,18.33,17.56,1.26,1.08,2.91,1.6,4.66,1.43,2.59,1.47,4.19,4.94,8,4,.2,1.27,.41,2.52,2,1,2,.33,4,.67,6,1,.41,2.12,1.35,2.64,3,1,4.33,0,8.66,0,12.99,0,1.65,1.64,2.6,1.13,3-1,4.74-.65,9.45-1.44,13.99-3,1.67,1.48,3.33,1.48,5,0,1.67,0,3.33,0,5,0,.41,2.12,1.35,2.64,3,1,1,0,2,0,3,0,9.34,6.53,14.81,17.63,25.99,21.98,1.67,.33,3.33,.67,5,1,.03,1.3,.7,1.96,2,2,2,0,4,0,6,0,0,0,0,0,0,0,.2,1.27,.41,2.51,2,1,.67,0,1.33,0,2,0,.67,0,1.33,0,2,0,1.47,3.5,3.76,2.09,6,1,2-.33,3.88-1.35,6-1,1.66,1.64,2.6,1.12,3-1h0c1.79-.15,3.57,.11,5.39-.45,8.99-2.74,15.18-9.28,21.6-15.54,2.54-.25,3.75-2.14,5-4,2.81-1.52,6.27-.09,9-2,1.33,0,2.66,0,4,0,2.25,1.93,8.09,1.4,11-1,.67,0,1.33,0,2,0,2.06-.35,3.94-.98,5-3,3.12-.79,5.02-2.59,5-5.99,1.3-.04,1.96-.7,2-2,3.68,.22,4.81-3.13,6.99-5,2.67-1,5.33-2,8-3,4.55-.55,8.93-1.87,13.37-2.92,9.28-2.18,15.67-8.25,21.62-15.07,3.27-.7,5.1-3.7,7.99-5,6.65-.62,13.43,1.28,19.99-1,3.64-2.72,8.72-2.56,12-6,1.44,0,2.44-.67,3-2,1.41-1.57,2.92-3.06,4.18-4.74,1.14-1.51,3.61-2.69,1.82-5.25,0-.66,0-1.33,0-1.99,2.58-.19,4.11-1.7,4.99-4,1.75-1.58,4.28-2.39,5-4.99,.33,0,.67,0,1,0,.66,0,1.33,0,1.99,0,3.23-.59,6.56-.75,9.57-2.27,13.71-6.92,21.24-17.89,20.24-33.39-.46-7.2,.4-15.04-4.82-21.3-2.67-4-4.32-9.01-10-10-1.06-2.01-2.94-2.65-5-3-4.32-2.63-8.76-4.91-13.99-5-1.97-2.86-4.39-2.62-7-1-.69,.01-1.38,.03-2.07,.04-.29,0-.58,0-.88,0-.35-.01-.7-.03-1.06-.04-.09-2.03-1.54-2.01-3-2Z"/>
    <path class="cls-4" d="M397.25,65.96c-.35,.01-.7,.02-1.05,.04-1.44,.14-2.72-.37-3.94-1.05-1.86-4.36-5.44-7.16-9-9.98-3.42-3.33-7.94-4.77-12-7-1.88-2.05-4.54-2.29-7-3-1.33,0-2.67,0-4,0-.43-.81-1.18-.98-2-1,2.5-3.91,6.4-2.22,9.3-1.56,9.12,2.07,17.66,5.45,23.41,13.67,3.02,4.31,7.19,6.28,12.86,5.99,14.75-.76,25.93,6.13,33.95,18.02,3.23,4.79,6.08,9.34,12.45,9.85-.87,2.33-3.75,2.14-5,4-.67,0-1.34,0-2.01,0-.66-.02-1.33-.04-1.99-.05-4.04-7.78-8.22-15.08-16.3-19.98-4.45-2.7-8.72-4.89-13.69-5.95-2.98-4.03-7.51-3.55-11.71-3.96-1.35-.13-2.14,.59-2.29,1.96Z"/>
    <path class="cls-4" d="M349.27,44.97c-.33,.33-.67,.67-1,1-2.46,.71-5.12,.95-7,3-.67,0-1.33,0-2,0-2.14-1.66-4.32-3.26-7-4-6.04-5.24-13.49-7.18-20.99-8.99-.67,0-1.33,0-2,0-.43-.8-1.18-.98-2-1-4,0-8,0-11.99,0-1,0-2,0-3,0,1.69-3.85,5.63-2.49,8.21-2.73,9.85-.93,19.57,.78,28.25,5.64,6.51,3.64,12.37,8.47,20.52,7.09Z"/>
    <path class="cls-13" d="M175.33,135.89c14.16-.11,25.58,5.65,34.7,16.28,.86,1,1.52,2.16,2.28,3.24,.89,1.27,1.81,2.92,.23,3.88-1.36,.83-2.18-.97-2.98-1.96-4.27-5.29-8.74-10.23-15-13.44-5.78-2.95-11.68-4.38-18.13-4.02-2.2,.12-4.78,.78-6.15-1.97,1.32-1.56,3.08-2.05,5.04-2.01Z"/>
    <path class="cls-13" d="M255.3,70.92c14.55,.67,25.96,7.09,34.47,18.83,.98,1.35,2.53,3.17,.95,4.34-1.89,1.4-2.63-1.09-3.5-2.33-8.44-12.11-20.25-17.62-34.79-17.81-1.45-.02-3.04,.4-4.18-1,.17-1.95,1.59-2.01,3.04-2.01,1.33,0,2.67,0,4,0Z"/>
    <path class="cls-12" d="M288.29,35.97c-4.29,3.84-9.61,5.49-15,7,4.02-4.43,9.48-5.76,15-7Z"/>
    <path class="cls-7" d="M445.23,93.94c1.25-1.85,4.13-1.67,5-4,1.67-.33,3.33-.67,5-1,.33,0,.67,0,1,0-.17,.79-.22,2.21-.53,2.27-3.55,.69-6.54,3.57-10.46,2.72Z"/>
    <path class="cls-12" d="M261.3,53.96c-.97,4.23-1.91,8.47-6,10.99,.42-4.53,2.92-7.92,6-10.99Z"/>
    <path class="cls-7" d="M461.23,87.94c1.45-.15,2.75,.32,4,1-2.67,3.39-5.33,2.7-8,0v-1c1.33,0,2.67,0,4,0Z"/>
    <path class="cls-12" d="M358.26,43.97c.82,.02,1.57,.19,2,1-2.56,1.28-5.1,2.4-7-1,1.67,0,3.33,0,5,0Z"/>
    <path class="cls-12" d="M255.3,70.92c-1.33,0-2.67,0-4,0,.09-2.01,1.41-3.1,3-3.98,1.46,1.04,.86,2.6,1,3.97Z"/>
    <path class="cls-12" d="M292.29,34.97c1,0,2,0,3,0-1.11,3.12-3,2.32-5,1,.43-.8,1.18-.98,2-1Z"/>
    <path class="cls-12" d="M270.3,44.97c-.29,2.38-1.62,3.71-4,4,.29-2.37,1.63-3.71,4-4Z"/>
    <path class="cls-12" d="M273.3,42.97c-.09,2.03-1.54,2.01-3,2,.56-1.33,1.56-1.99,3-2Z"/>
    <path class="cls-2" d="M457.23,87.94v1c-.33,0-.67,0-1,0-.33,0-.67,0-1,0,.2-1.27,.41-2.52,2-1Z"/>
    <path class="cls-1" d="M514.2,184.88c-.66,0-1.33,0-1.99,0-.26-.52-.43-1.41-.79-1.49-1.08-.23-1.07,.76-1.22,1.49-.33,0-.67,0-1,0-1.45-.01-2.91-.03-3,2-3.84,.78-3.93,4.24-4.99,7,0,.66,0,1.33,0,1.99-3.56,2.83-7.15,5.62-9,9.99-5.25,2.02-10.5,4.02-15.73,6.08-.18,.07-.18,.6-.27,.92-1,0-2,0-3,0-.67-1.33-1.33-2.66-2-3.99,11.85,.87,25.28-10.24,28.95-22.7,.41-1.41,.7-2.86,1.04-4.29,1.66-1.65,3.71-2.55,5.97-3.03,6,3.16,11.19-.47,15.64-3.06,10-5.84,16.08-14.78,16.38-26.88,2.29,.37,2.96,2.06,2.77,3.97-.25,2.43-.62,4.91-1.41,7.2-3.65,10.64-10.75,17.79-21.65,21.12-1.84,.56-5.15-.07-4.7,3.68Z"/>
    <path class="cls-14" d="M239.31,257.85c-4.33,0-8.66,0-12.99,0-.72-1.17-1.9-.96-3-1-2-.33-4-.67-6-1-.43-.81-1.18-.98-2-1-3.8,.94-5.4-2.52-8-4,.22-2.14,1.34-1.69,2.78-1.12,13.71,5.42,27.29,4.71,40.69-1.13,1.64-.71,3.08-.62,4.78-.21,4.17,1.02,8.39,1.86,12.73,1.46,1.99,1.28,3.99,1.21,6,.02-.43,1.75,1.19,4.34-2.01,4.98-1,0-2,0-3,0-.72-1.18-1.9-.97-3-1-1.67,0-3.33,0-5,0-1.67-1.48-3.33-1.48-5,0-4.55,1.56-9.25,2.35-13.99,3-1.1,.03-2.28-.18-3,1Z"/>
    <path class="cls-11" d="M514.2,184.88c-.45-3.75,2.86-3.12,4.7-3.68,10.91-3.33,18-10.48,21.65-21.12,.79-2.3,1.16-4.78,1.41-7.2,.2-1.91-.48-3.6-2.77-3.97-.17-5.68,.73-11.45-1.77-16.94-.75-1.65-.01-3.22,1.77-4.05,5.21,6.26,4.35,14.1,4.82,21.3,.99,15.51-6.53,26.48-20.24,33.39-3.01,1.52-6.34,1.67-9.57,2.27Z"/>
    <path class="cls-5" d="M500.27,108.97c.29,0,.58,0,.87,0-.29,3.22,2.57,4.2,4.44,5.43,2.53,1.66,3.94,4.01,5.45,6.35,.7,1.09,2.16,2.74,.17,3.83-1.47,.81-2.27-.66-3.07-1.79-1.62-2.27-3.19-4.45-5.45-6.33-11.22-9.37-30.62-4.6-35.82,10.21-.16,.47-.39,.92-.54,1.39-.35,1.1-.56,2.59-2.06,2.29-1.58-.32-1.05-1.9-.93-2.94,.95-8.52,11.63-18.22,20.4-18.46,4.16-.12,8.32,0,12.49,0,.73,1.15,1.91,.95,3.01,1,.35-.33,.7-.65,1.06-.98Z"/>
    <path class="cls-5" d="M507.18,178.85c-2.26,.48-4.3,1.38-5.97,3.03-11.67,3.69-21.92,1.84-30.19-7.72-1.7-1.96-4.47-5.32-2.86-6.53,2.77-2.07,3.62,2.32,5,3.93,13.21,15.47,33.22,9.07,39.49-6.39,.47-1.16,.27-3.72,2.49-2.85,1.93,.76,1.13,2.87,.58,4.38-1.75,4.8-5.36,8.33-8.54,12.14Z"/>
    <path class="cls-13" d="M392.25,64.94c1.23,.68,2.5,1.19,3.94,1.05,2.78,2.58,5.62,5.11,8.31,7.78,1.23,1.22,3.36,3.06,1.96,4.49-1.76,1.81-3.22-.75-4.28-1.98-5.12-5.92-11.37-8.38-19.3-8.52-7.79-.14-18.07,6.94-20.51,15.42-.43,1.5-.21,3.99-2.64,3.16-2.54-.87-1.13-3.11-.49-4.68,3.77-9.14,13.07-18,24.02-16.76,2.96,.33,5.98,.04,8.98,.04Z"/>
    <path class="cls-8" d="M362.26,251.85c1.34,.33,2.67,.67,4.01,1,.03,2.76-2.52,3.25-4.13,4.38-1.73,1.21-3.18,2.27-2.87,4.61-1.9-.02-2.76,1.59-4.07,2.53-6.54,4.66-11.48,11.86-20.39,12.83-1.27,.14-2.48,.99-2.53,2.63h0c-1,0-2,0-3,0-.75-2.48-4.7-.95-4.99-4,11.9-1.1,21.57-6.6,29.5-15.27,2.43-2.65,4.33-5.78,6.47-8.69,.67,0,1.34-.02,2-.02Z"/>
    <path class="cls-5" d="M274.31,249.87c-2,1.19-4,1.25-6-.02,.22-2.13,1.89-2.62,3.52-2.89,15.07-2.45,25.05-11.04,30.61-25.09,.5-1.27,.74-3.3,2.85-2.64,1.42,.45,.98,1.89,.7,3.01-3.15,12.77-19.01,26.59-31.69,27.62Z"/>
    <path class="cls-5" d="M358.26,114.93c14.26,.65,26.39,5.54,34.98,17.51,.58,.8,1.08,1.67,1.51,2.56,.52,1.07,1,2.58-.08,3.2-1.72,.99-2.11-.94-2.77-1.94-5.54-8.37-13.18-13.77-22.8-16.56-4.02-1.17-8.17-.69-12.23-1.36-1.47-.24-3.75,1.13-4.07-1.09-.38-2.7,2.25-2.16,3.96-2.31,.49-.05,1,0,1.49,0Z"/>
    <path class="cls-5" d="M365.23,206.63c-1.05,.22-2.12-.06-2.4-1.14-.51-1.95,1.36-2.21,2.44-2.41,6.96-1.29,13.24-3.76,18.86-8.32,5.17-4.2,8.98-9.15,11.4-15.27,.31-.77,.65-1.54,1.07-2.25,.64-1.08,1.11-2.89,2.81-1.93,1.4,.79,.86,2.35,.28,3.58-.99,2.1-1.92,4.25-3.11,6.24-7.14,11.94-17.59,19.12-31.35,21.49Z"/>
    <path class="cls-8" d="M456.24,206.87c1.65,1.02,3.69,1.4,4.99,3-2.6,3.59-7.83,3.88-10,8-8.29,8.42-17.55,14.89-29.99,14.99,0-.33,0-.67,0-1,8.49-2.38,16.49-5.7,22.96-11.97,3.66-3.55,7.2-7.16,9.06-12.06,1.1,.01,2.26,.2,2.98-.96Z"/>
    <path class="cls-1" d="M402.25,245.86c-.04,1.3-.7,1.96-2,2-4.71,1.59-8.16,5.85-13.23,6.49-2.62,.33-5.84,2.33-7.77-1.5,10.17-.45,17.75-6.05,22.61-14.05,3.09-5.08,6.21-6.55,11.37-5.94-.33,.67-.67,1.33-1,2-4.68,2.44-7.77,6.32-9.99,11Z"/>
    <path class="cls-11" d="M113.36,199.88c-.67,0-1.33,0-2,0-1.39-1.36-3.24-1.57-5-2,0,0,0,0,0,0-.04-1.65,.37-2.59,2.35-3.06,9.66-2.31,18.61,1.37,27.8,3.01,1.39,.25,2,1.2,1.68,2.55-.46,1.95-1.74,.69-2.77,.68-1.36-.02-2.65-1.9-4.07-.17-2.11,.35-4-.67-6-1-1.4-1.67-3.31-.76-5-1-1,0-2,0-3,0-1.38,.14-2.95-.47-4,1Z"/>
    <path class="cls-11" d="M379.26,252.85c1.92,3.83,5.15,1.83,7.77,1.5,5.08-.64,8.52-4.91,13.23-6.49,.02,3.4-1.88,5.21-5,5.99-2.18,.14-4.43,.16-5,3-.67,0-1.33,0-2,0-3.69,.02-7.42-.33-11,1-1.33,0-2.66,0-4,0-3.53-1.75-6.62-1.45-9,2-2.1-.42-3.42,1.1-5,2h0c-.31-2.34,1.14-3.4,2.87-4.61,1.61-1.13,4.16-1.62,4.13-4.38,4.33,.88,8.66,1.72,13,0Z"/>
    <path class="cls-5" d="M362.26,251.85c-.67,0-1.34,.02-2,.02-11.08-4.5-17.05-13.19-19.8-24.4-.34-1.41-1.07-3.84,1.15-4.21,2.3-.39,1.37,2.07,1.78,3.31,2.97,9.07,7.36,17.06,16.38,21.5,1.63,.8,2.8,1.76,2.5,3.78Z"/>
    <path class="cls-5" d="M456.24,206.87c-.72,1.16-1.88,.98-2.98,.96-9.16-5.48-15.99-12.76-18.37-23.54-.41-1.87-1.8-4.43,.79-5,2.09-.47,2.18,2.31,2.56,4.07,1.92,8.71,6.5,15.5,14.49,19.77,1.58,.85,3.51,1.39,3.5,3.74Z"/>
    <path class="cls-11" d="M184.33,231.86c-8.83-.56-17.59-1.35-24.99-7,.21-2.16,1.46-1.72,2.83-1.18,5.85,2.33,11.98,2.37,18.14,2.17,1.49,3.41,4.07,.41,6.03,1.02-.91,1.56,3.06,5.09-2,4.98Z"/>
    <path class="cls-5" d="M245.32,141.08c.3-9.4,4.07-17.29,10.43-24.06,1.26-1.34,3.02-3.17,4.61-1.61,1.75,1.72-.89,2.78-1.89,3.75-6.95,6.85-10.51,14.98-9.63,24.81,.13,1.43-.17,2.43-1.47,2.66-1.96,.35-2.03-1.18-2.06-2.57-.02-1,0-2,0-3Z"/>
    <path class="cls-5" d="M339.27,49.99c.03,1.92-1.44,2.9-2.59,4.05-6.97,6.96-11.54,14.84-9.82,25.18,.23,1.41-.35,2.38-1.71,2.47-2.01,.13-1.79-1.51-1.85-2.8-.48-9.76,2.86-18.16,9.1-25.52,.96-1.13,1.94-2.25,2.9-3.37,1.33,0,2.65,0,3.98-.01Z"/>
    <path class="cls-13" d="M441.24,93.89c.66,.02,1.33,.04,1.99,.05,.24,1.71-.78,2.59-1.97,3.67-7.13,6.45-10.23,14.8-11.06,24.19-.11,1.28,.91,3.58-1.36,3.52-1.79-.05-1.66-2.21-1.58-3.69,.56-11.3,4.46-20.94,13.98-27.74Z"/>
    <path class="cls-13" d="M267.99,159.91c4.18-.74,8.73,.79,13.23,2.54,.85,.33,2.06,.73,1.53,2.08-.41,1.04-1.45,1.57-2.45,1.16-6.26-2.57-12.81-3.02-19.47-2.9-1,.02-2.09-.54-1.96-1.75,.15-1.36,1.45-1.09,2.37-1.11,1.99-.06,3.98-.02,6.74-.02Z"/>
    <path class="cls-5" d="M186.34,226.88c-1.96-.62-4.54,2.39-6.03-1.02,4.36-3.22,10.14-2.65,14.64-5.43,2.39-1.48,4.6-3.27,8.57-1.92-5.2,4.8-11.01,6.93-17.18,8.37Z"/>
    <path class="cls-11" d="M451.23,217.87c2.17-4.12,7.4-4.41,10-8,3.31-.51,6.59-1.39,10-1,.67,1.33,1.33,2.66,2,3.99-3.07,0-6.15-.03-9.22,.01-1.56,.02-3.45-.44-3.78,1.98-2.89,1.3-4.72,4.31-7.99,5-.33-.67-.67-1.33-1-2Z"/>
    <path class="cls-11" d="M324.28,275.84c.3,3.04,4.25,1.52,4.99,4,0,.33,0,.67,0,1-2.11-.35-4,.67-6,1-.76-1.82-2.29-2.09-4-2-1.59-1.52-1.8-.27-2,1h0c-.67,0-1.33,0-2,0-.2-1.27-.41-2.52-2-1-.67,0-1.33,0-2,0h0v-3c4.37,.14,8.72,.02,13-1Z"/>
    <path class="cls-11" d="M311.28,276.83v3c-2,0-4,0-6,0-.04-1.3-.7-1.96-2-2-1.67-.33-3.33-.67-5-1-.73-2.47-1.31-4.54,2.72-3,3.32,1.27,6.84,2.02,10.28,3Z"/>
    <path class="cls-12" d="M311.28,35.97c7.51,1.81,14.95,3.76,20.99,8.99-5.37,.43-8.84-3.95-13.52-5.42-2.54-.79-6.06-.22-7.48-3.58Z"/>
    <path class="cls-5" d="M295.2,173.95c1.76-.15,7.09,5.86,6.69,7.69-.4,1.83-1.82,1.36-2.59,.55-1.91-2-3.68-4.15-5.32-6.38-.85-1.16,0-1.76,1.21-1.86Z"/>
    <path class="cls-4" d="M477.22,91.94c5.35,1.01,10.01,3.14,12.99,8-2.79,.06-4.33-2.78-7-3-.33,0-.67,0-1,0-.3-2.37-2.18-2.65-4-3-.33-.67-.67-1.33-1-2Z"/>
    <path class="cls-7" d="M397.25,65.96c.15-1.37,.94-2.09,2.29-1.96,4.2,.41,8.73-.07,11.71,3.96-4.62-.95-9.22-2.13-13.99-2Z"/>
    <path class="cls-7" d="M371.26,47.97c4.06,2.23,8.58,3.67,12,7-5.4-.34-9.5-3.12-12.99-7h1Z"/>
    <path class="cls-10" d="M412.25,234.86c.33-.67,.67-1.33,1-2,2.51-1.55,5.31-.85,8-1,0,.33,0,.67,0,1-.25,2.23-1.39,3.44-3.65,2.6-1.78-.66-3.55-.54-5.35-.6Z"/>
    <path class="cls-5" d="M212.48,203.07c1.3-3.17,2.26-5.51,3.36-8.17,2.43,4.59,1.93,5.96-3.36,8.17Z"/>
    <path class="cls-7" d="M477.22,91.94c.33,.67,.67,1.33,1,2-3.84-1.27-8.61-.52-11-5,3.64-.02,6.24,3.42,10,3Z"/>
    <path class="cls-7" d="M483.22,96.94c2.67,.22,4.21,3.06,7,3,.33,.33,.67,.67,1,1v1c-3.7-.01-6.99-.67-8-5Z"/>
    <path class="cls-12" d="M339.27,49.99c-1.33,0-2.65,0-3.98,.01,.05-2.31-3.38-2.54-3.01-5.03,2.67,.74,4.85,2.33,7,4,0,.34,0,.68,0,1.02Z"/>
    <path class="cls-7" d="M503.21,108.93c2.61-1.62,5.03-1.86,7,1-2.32-.39-4.89,.92-7-1Z"/>
    <path class="cls-12" d="M341.27,48.97c1.88-2.05,4.54-2.29,7-3-1.63,2.64-3.89,3.8-7,3Z"/>
    <path class="cls-7" d="M524.2,114.93c2.06,.35,3.94,.98,5,3-3.09,1.37-3.94-.99-5-3Z"/>
    <path class="cls-12" d="M371.26,47.97h-1c-2.32-.36-5.01,.03-6-3,2.46,.71,5.12,.95,7,3Z"/>
    <path class="cls-4" d="M499.21,109.95c-1.1-.05-2.28,.16-3.01-1,0-.67,0-1.35,0-2.02,1.45-.01,2.91-.03,3,2,0,.34,0,.68,0,1.01Z"/>
    <path class="cls-7" d="M478.22,93.94c1.82,.35,3.69,.63,4,3-1.82-.35-3.69-.63-4-3Z"/>
    <path class="cls-4" d="M491.21,101.93v-1c1.3,.03,1.97,.7,2,2-.82-.02-1.57-.19-2-1Z"/>
    <path class="cls-4" d="M494.21,103.93c1.3,.03,1.97,.7,2,2-1.3-.03-1.97-.7-2-2Z"/>
    <path class="cls-12" d="M307.29,34.97c.82,.02,1.57,.19,2,1-1.59,1.52-1.8,.27-2-1Z"/>
    <path class="cls-11" d="M412.25,234.86c1.8,.06,3.57-.06,5.35,.6,2.26,.84,3.4-.37,3.65-2.6,12.44-.11,21.7-6.58,29.99-14.99,.33,.67,.67,1.33,1,2-5.95,6.82-12.34,12.89-21.62,15.07-4.45,1.04-8.82,2.37-13.37,2.92-3.81-2.06-6.12-.09-8,3-2.19,1.87-3.31,5.22-6.99,5,2.22-4.68,5.31-8.56,9.99-11Z"/>
    <path class="cls-11" d="M332.27,279.83c.05-1.64,1.26-2.49,2.53-2.63,8.91-.97,13.85-8.17,20.39-12.83,1.31-.93,2.17-2.55,4.07-2.53h0c0,.67,0,1.33,0,2-6.42,6.26-12.61,12.8-21.6,15.54-1.82,.56-3.6,.3-5.39,.44Z"/>
    <path class="cls-11" d="M476.22,212.87c.09-.32,.09-.85,.27-.92,5.23-2.05,10.48-4.06,15.73-6.08h0v2c-3.28,3.44-8.36,3.27-12,6-1.05-1.46-2.62-.85-4-1Z"/>
    <path class="cls-3" d="M476.22,212.87c1.38,.15,2.95-.46,4,1-6.57,2.28-13.34,.38-19.99,1,.33-2.43,2.21-1.96,3.78-1.98,3.07-.04,6.15-.01,9.22-.01,1,0,2,0,3,0Z"/>
    <path class="cls-11" d="M492.21,205.87c1.85-4.37,5.44-7.17,9-9.99,1.79,2.57-.68,3.74-1.82,5.25-1.26,1.68-2.78,3.17-4.18,4.74-1,0-2,0-3,0h0Z"/>
    <path class="cls-11" d="M501.22,193.89c1.07-2.76,1.15-6.22,4.99-7,0,1,0,2,0,3-.89,2.3-2.41,3.81-4.99,4Z"/>
    <path class="cls-3" d="M377.26,257.85c3.57-1.33,7.3-.98,11-1-2.9,2.4-8.75,2.93-11,1Z"/>
    <path class="cls-7" d="M364.26,259.84c2.38-3.45,5.46-3.74,9-2-2.72,1.91-6.19,.48-9,2Z"/>
    <path class="cls-3" d="M409.25,240.85c1.88-3.09,4.18-5.06,8-3-2.67,1-5.33,2-8,3Z"/>
    <path class="cls-7" d="M319.28,279.84c1.71-.09,3.24,.18,4,2-2.24,1.09-4.52,2.5-6-1,0,0,0,0,0,0,.82-.02,1.57-.19,2-1Z"/>
    <path class="cls-3" d="M506.21,189.88c0-1,0-2,0-3,1.44,0,2.44-.67,3-2,.33,0,.67,0,1,0,.33,0,.67,0,1,0-.73,2.61-3.25,3.41-5,4.99Z"/>
    <path class="cls-7" d="M359.27,263.84c0-.67,0-1.33,0-2,1.57-.9,2.9-2.42,5-2-1.24,1.86-2.46,3.75-5,4Z"/>
    <path class="cls-7" d="M120.36,198.88c1.69,.24,3.6-.67,5,1-2,1.32-3.89,2.12-5-1Z"/>
    <path class="cls-7" d="M256.31,253.85c1.67-1.48,3.33-1.48,5,0-1.67,1.48-3.33,1.48-5,0Z"/>
    <path class="cls-3" d="M390.25,256.85c.56-2.83,2.82-2.86,5-3-1.06,2.01-2.94,2.65-5,3Z"/>
    <path class="cls-7" d="M106.36,197.88c1.76,.43,3.61,.64,5,2-2.32,.97-4.09,.56-5-2Z"/>
    <path class="cls-7" d="M113.36,199.88c1.05-1.46,2.62-.86,4-1-.71,2.82-2.24,2.37-4,1Z"/>
    <path class="cls-7" d="M266.3,253.85c1.1,.03,2.28-.18,3,1-1.66,1.64-2.6,1.13-3-1Z"/>
    <path class="cls-7" d="M223.32,256.85c1.1,.03,2.28-.18,3,1-1.65,1.64-2.59,1.13-3-1Z"/>
    <path class="cls-7" d="M239.31,257.85c.72-1.18,1.9-.97,3-1-.4,2.12-1.35,2.63-3,1Z"/>
    <path class="cls-7" d="M329.28,280.83c0-.33,0-.67,0-1,1,0,2,0,3,0-.4,2.12-1.34,2.64-3,1Z"/>
    <path class="cls-3" d="M492.21,205.88c1,0,2,0,3,0-.56,1.33-1.56,2-3,2v-2Z"/>
    <path class="cls-7" d="M215.32,254.85c.82,.02,1.57,.19,2,1-1.59,1.52-1.8,.27-2-1Z"/>
    <path class="cls-11" d="M511.21,184.89c-.33,0-.67,0-1,0,.15-.73,.14-1.72,1.22-1.49,.35,.08,.53,.97,.79,1.49-.33,0-.67,0-1,0Z"/>
    <path class="cls-11" d="M313.28,279.83c1.59-1.52,1.8-.27,2,1-.67,0-1.33,0-2,0,0-.33,0-.67,0-1Z"/>
    <path class="cls-7" d="M313.28,279.83c0,.33,0,.67,0,1-1.59,1.52-1.8,.27-2-1,.67,0,1.33,0,2,0Z"/>
    <path class="cls-7" d="M303.29,277.84c1.3,.03,1.97,.7,2,2-1.3-.03-1.97-.7-2-2Z"/>
    <path class="cls-7" d="M499.21,109.95c0-.34,0-.68,0-1.01,.35,.01,.7,.03,1.06,.04-.35,.33-.7,.65-1.05,.98Z"/>
    <path class="cls-11" d="M509.21,184.89c-.56,1.33-1.56,2-3,2,.09-2.03,1.55-2.01,3-2Z"/>
    <path class="cls-11" d="M319.28,279.84c-.43,.8-1.18,.98-2,1,.2-1.27,.41-2.52,2-1Z"/>
  </g>
  <rect class="cls-6" x="1474.28" y="796.91" width="22" height="36"/>
  <rect class="cls-6" x="56.28" y="795.91" width="23" height="37"/>
</svg>