<?xml version="1.0" encoding="UTF-8"?>
<svg id="Layer_1" data-name="Layer 1" xmlns="http://www.w3.org/2000/svg" viewBox="0 0 1673.44 815.3">
  <defs>
    <style>
      .cls-1 {
        fill: #f0f0f0;
      }

      .cls-2 {
        fill: #fafafa;
      }

      .cls-3 {
        fill: #f6f6f6;
      }

      .cls-4 {
        fill: #f9f9f9;
      }

      .cls-5 {
        fill: #e2e2e3;
      }

      .cls-6 {
        fill: #fefefe;
        opacity: 0;
      }

      .cls-7 {
        fill: #f7f7f7;
      }

      .cls-8 {
        fill: #efefef;
      }

      .cls-9 {
        opacity: .62;
      }

      .cls-10 {
        fill: #f1f1f1;
      }

      .cls-11 {
        fill: #f3f3f3;
      }

      .cls-12 {
        fill: #f8f8f8;
      }

      .cls-13 {
        fill: #e1e1e2;
      }

      .cls-14 {
        fill: #f2f2f2;
      }
    </style>
  </defs>
  <g class="cls-9">
    <path class="cls-7" d="M1366.09,34.95c.02-.82,.19-1.57,1-2,4.09-2.52,5.03-6.77,6-10.99,1.28-2.05,2.94-3.72,4.99-5,2.38-.28,3.71-1.62,4-4,0,0,0,0,0,0,1.45,.02,2.91,.03,3-2,0,0,0,0,0,0,5.38-1.51,10.7-3.15,15-7,.67,0,1.33,0,2,0,2,1.33,3.89,2.13,5-1,4,0,8,0,11.99,0,.2,1.27,.41,2.52,2,1,.67,0,1.33,0,2,0,1.41,3.35,4.94,2.79,7.48,3.58,4.68,1.46,8.15,5.84,13.52,5.42-.36,2.5,3.06,2.72,3.01,5.03-.97,1.12-1.95,2.24-2.9,3.37-6.23,7.37-9.57,15.77-9.1,25.52,.06,1.29-.17,2.93,1.85,2.8,1.36-.09,1.95-1.07,1.71-2.47-1.72-10.34,2.85-18.22,9.82-25.18,1.15-1.15,2.62-2.13,2.59-4.05,0-.34,0-.68,0-1.02,.67,0,1.33,0,2,0,3.1,.8,5.37-.36,7-3,.33-.33,.67-.67,1-1,1.33-.33,2.67-.67,4-1,1.89,3.4,4.43,2.28,7,1,1.33,0,2.67,0,4,0,.98,3.03,3.68,2.64,6,3,3.5,3.88,7.59,6.65,12.99,7,3.56,2.82,7.14,5.62,9,9.98-3,0-6.02,.29-8.98-.04-10.95-1.24-20.25,7.62-24.02,16.76-.65,1.57-2.06,3.81,.49,4.68,2.43,.83,2.2-1.65,2.64-3.16,2.45-8.48,12.72-15.56,20.51-15.42,7.94,.14,14.18,2.6,19.3,8.52,1.06,1.22,2.52,3.78,4.28,1.98,1.39-1.43-.73-3.26-1.96-4.49-2.69-2.67-5.53-5.2-8.31-7.78,.35-.01,.7-.02,1.05-.04,4.78-.13,9.37,1.05,13.99,2,4.97,1.07,9.24,3.25,13.69,5.95,8.08,4.9,12.26,12.21,16.3,19.98-9.52,6.8-13.42,16.43-13.98,27.74-.07,1.47-.2,3.63,1.58,3.69,2.27,.07,1.25-2.23,1.36-3.52,.83-9.38,3.92-17.74,11.06-24.19,1.19-1.07,2.2-1.96,1.97-3.67,.67,0,1.34,0,2.01,0,3.93,.85,6.91-2.03,10.46-2.72,.31-.06,.36-1.48,.53-2.27,.33,0,.67,0,1,0,2.67,2.7,5.33,3.39,8,0,.67,0,1.33,0,2,0,2.39,4.47,7.15,3.72,11,5,.3,2.37,2.18,2.65,4,3,.33,0,.67,0,1,0,1,4.32,4.3,4.99,8,5,.43,.8,1.18,.98,2,1,.33,.33,.67,.67,1,1,.03,1.3,.7,1.96,2,2,0,.33,0,.67,0,1,0,.67,0,1.35,0,2.02-4.16,0-8.33-.12-12.49,0-8.76,.25-19.45,9.94-20.4,18.46-.12,1.04-.65,2.63,.93,2.94,1.5,.3,1.71-1.2,2.06-2.29,.15-.47,.38-.92,.54-1.39,5.21-14.81,24.6-19.58,35.82-10.21,2.26,1.89,3.83,4.07,5.45,6.33,.8,1.12,1.59,2.6,3.07,1.79,1.99-1.09,.53-2.74-.17-3.83-1.51-2.34-2.92-4.69-5.45-6.35-1.87-1.23-4.72-2.21-4.44-5.43l2.07-.04c2.11,1.92,4.67,.61,7,1,5.23,.08,9.67,2.37,13.99,5,1.06,2.01,1.91,4.37,5,3,5.68,.99,7.33,6,10,10-1.78,.84-2.52,2.4-1.77,4.05,2.5,5.48,1.59,11.25,1.77,16.94-.3,12.1-6.38,21.04-16.38,26.88-4.45,2.6-9.64,6.22-15.64,3.06,3.19-3.81,6.79-7.34,8.54-12.14,.55-1.52,1.36-3.62-.58-4.38-2.21-.87-2.02,1.69-2.49,2.85-6.27,15.45-26.28,21.86-39.49,6.39-1.37-1.61-2.23-6-5-3.93-1.62,1.21,1.16,4.57,2.86,6.53,8.27,9.56,18.52,11.41,30.19,7.72-.34,1.43-.62,2.88-1.04,4.29-3.66,12.46-17.1,23.57-28.95,22.7-3.4-.39-6.68,.49-10,1-1.3-1.6-3.34-1.98-4.99-3,.01-2.35-1.91-2.89-3.5-3.74-8-4.27-12.58-11.06-14.49-19.77-.39-1.76-.47-4.54-2.56-4.07-2.59,.58-1.2,3.14-.79,5,2.38,10.78,9.21,18.06,18.37,23.54-1.86,4.89-5.4,8.51-9.06,12.06-6.47,6.27-14.47,9.59-22.96,11.97-2.69,.15-5.48-.55-8,1-5.16-.61-8.28,.86-11.37,5.94-4.87,8-12.45,13.6-22.61,14.05-4.33,1.72-8.66,.88-13,0-1.34-.33-2.67-.67-4.01-1,.3-2.01-.87-2.97-2.5-3.78-9.02-4.44-13.41-12.43-16.38-21.5-.41-1.24,.52-3.7-1.78-3.31-2.22,.37-1.49,2.8-1.15,4.21,2.75,11.22,8.73,19.9,19.8,24.4-2.14,2.91-4.04,6.04-6.47,8.69-7.93,8.67-17.6,14.17-29.5,15.27-4.28,1.02-8.63,1.14-13,1-3.43-.98-6.95-1.73-10.28-3-4.02-1.54-3.45,.53-2.72,3-11.18-4.36-16.65-15.45-25.99-21.98,3.2-.64,1.57-3.22,2.01-4.98,12.68-1.03,28.54-14.86,31.69-27.62,.28-1.12,.71-2.57-.7-3.01-2.11-.67-2.35,1.37-2.85,2.64-5.56,14.04-15.54,22.64-30.61,25.09-1.64,.27-3.31,.76-3.52,2.89-4.34,.4-8.57-.45-12.73-1.46-1.7-.41-3.15-.5-4.78,.21-13.4,5.84-26.98,6.54-40.69,1.13-1.44-.57-2.56-1.01-2.78,1.12-1.75,.17-3.4-.35-4.66-1.43-6.43-5.51-11.49-12.47-18.33-17.56,5.07,.11,1.1-3.42,2-4.98,6.17-1.45,11.98-3.57,17.18-8.37-3.97-1.35-6.18,.44-8.57,1.92-4.5,2.78-10.28,2.21-14.64,5.43-6.16,.2-12.29,.16-18.14-2.17-1.37-.54-2.62-.98-2.83,1.18-3.98-.31-6.66-2.73-8.83-5.73-5.27-7.28-9.46-15.64-19.16-18.26,1.42-1.73,2.71,.16,4.07,.17,1.02,.01,2.31,1.27,2.77-.68,.32-1.35-.28-2.31-1.68-2.55-9.19-1.64-18.14-5.32-27.8-3.01-1.98,.47-2.39,1.41-2.35,3.06-3.06-1.27-6.16-2.46-5.3-6.83,.22-1.14-.8-1.7-1.69-2.16,1.84-6.06,7.69-4.56,11.33-4.64,8.19-.18,14.33-4.8,21.36-7.49,3.48-1.33,3.45-4.59,4.2-7.34,4.8-17.6,16.36-27.84,34.03-31.51,1.37,2.75,3.95,2.09,6.15,1.97,6.45-.35,12.35,1.07,18.13,4.02,6.27,3.2,10.73,8.14,15,13.44,.8,.99,1.62,2.79,2.98,1.96,1.57-.96,.66-2.61-.23-3.88-.76-1.08-1.43-2.24-2.28-3.24-9.12-10.63-20.54-16.39-34.7-16.28,.37-4.1,2.69-7.85,2.13-12.16-.1-.8,.57-2.22,1.26-2.52,7.64-3.36,11.21-11.76,18.85-15.09,3.63-1.58,7.04-4.16,10.81-4.85,5.57-1.02,8.21-4.14,10.9-8.79,6.39-11.01,16.3-17.5,28.98-19.54,1.13,1.41,2.73,.98,4.18,1,14.54,.2,26.35,5.7,34.79,17.81,.87,1.24,1.61,3.73,3.5,2.33,1.57-1.16,.03-2.98-.95-4.34-8.51-11.73-19.92-18.15-34.47-18.83-.14-1.37,.46-2.93-1-3.97Zm103.96,47.98c-.5,0-1-.04-1.49,0-1.71,.16-4.34-.39-3.96,2.31,.31,2.22,2.59,.84,4.07,1.09,4.06,.67,8.21,.19,12.23,1.36,9.62,2.8,17.26,8.2,22.8,16.56,.66,1,1.05,2.94,2.77,1.94,1.07-.62,.6-2.13,.08-3.2-.43-.89-.93-1.76-1.51-2.56-8.59-11.96-20.72-16.86-34.98-17.51Zm6.97,91.7c13.75-2.37,24.21-9.55,31.35-21.49,1.19-1.99,2.12-4.14,3.11-6.24,.58-1.23,1.12-2.79-.28-3.58-1.71-.96-2.18,.84-2.81,1.93-.42,.71-.76,1.48-1.07,2.25-2.42,6.12-6.23,11.07-11.4,15.27-5.62,4.56-11.9,7.03-18.86,8.32-1.08,.2-2.95,.45-2.44,2.41,.28,1.08,1.35,1.36,2.4,1.14Zm-119.91-65.55c0,1-.02,2,0,3,.03,1.38,.1,2.92,2.06,2.57,1.3-.23,1.59-1.23,1.47-2.66-.88-9.83,2.67-17.96,9.63-24.81,.99-.98,3.64-2.03,1.89-3.75-1.58-1.56-3.34,.27-4.61,1.61-6.36,6.77-10.13,14.66-10.43,24.06Zm22.67,18.83c-2.76,0-4.75-.04-6.74,.02-.93,.03-2.22-.25-2.37,1.11-.13,1.21,.96,1.77,1.96,1.75,6.66-.13,13.21,.33,19.47,2.9,.99,.41,2.04-.12,2.45-1.16,.53-1.34-.68-1.74-1.53-2.08-4.5-1.75-9.05-3.28-13.23-2.54Zm27.21,14.05c-1.22,.1-2.07,.7-1.21,1.86,1.64,2.23,3.41,4.38,5.32,6.38,.77,.8,2.19,1.28,2.59-.55,.4-1.83-4.93-7.84-6.69-7.69Zm-82.72,29.12c5.28-2.22,5.79-3.59,3.36-8.17-1.09,2.67-2.05,5-3.36,8.17Z"/>
    <path class="cls-2" d="M1607.99,74.93c0-.33,0-.67,0-1-.03-1.3-.7-1.96-2-2-.33-.33-.67-.67-1-1-.03-1.3-.7-1.96-2-2-.33-.33-.67-.67-1-1-2.98-4.86-7.64-6.99-12.99-8-3.76,.42-6.36-3.02-10-3-.67,0-1.33,0-2,0-1.25-.68-2.54-1.15-4-1,2.85-4.17,7.02-2.11,10.31-1.56,10.46,1.75,19.34,6.75,25.85,15.3,3.04,3.99,6.91,4.54,11.44,4.29,14.91-.82,26.32,6.1,33.8,18.14,8.08,13,9.17,27.5,3.42,41.98-5.12,12.89-15.2,20.13-28.43,23.06-4.99,1.1-7.9,3.65-10.33,8.2-7.35,13.77-18.85,21.44-34.85,21.52-2.67,.01-5.33,.05-8,0-2.69-.05-4.93,.91-6.57,2.99-9.71,12.3-22.68,18.32-37.99,20.07-3.96,.45-7.27,1.89-10.11,5.43-8.78,10.96-20.23,16.71-34.64,15.53-4.93-.4-8.72,.58-12.61,4.8-10.02,10.86-22.24,17.31-37.79,18.46-18.42,1.36-32.68-5.71-44.62-18.25-8.57-9.01-17.99-10.52-29.27-7.42-17.67,4.86-34.51,3.3-50-7.31-4.17-2.86-7.76-6.43-10.73-10.35-3.44-4.54-7.83-6.47-13.06-6.88-8.3-.64-15.96-3.13-22.55-8.1-5-3.76-9.9-7.82-12.97-13.54-3.85-7.15-10.4-9.25-17.92-9.41-3.5-.07-7.03-.31-10.49,.04-9.5,.97-15.75-3.59-13.76-16.05,.9,.47,1.92,1.02,1.69,2.16-.86,4.37,2.24,5.56,5.3,6.83,0,0,0,0,0,0,.91,2.56,2.68,2.96,5,2,.67,0,1.33,0,2,0,1.76,1.38,3.29,1.82,4-1,1,0,2,0,3,0,1.11,3.12,3,2.32,5,1,2,.33,3.88,1.35,6,1,9.7,2.62,13.89,10.98,19.16,18.26,2.17,3,4.85,5.41,8.83,5.73,7.4,5.65,16.16,6.44,24.99,7,6.84,5.09,11.9,12.05,18.33,17.56,1.26,1.08,2.91,1.6,4.66,1.43,2.59,1.47,4.19,4.94,8,4,.2,1.27,.41,2.52,2,1,2,.33,4,.67,6,1,.41,2.12,1.35,2.64,3,1,4.33,0,8.66,0,12.99,0,1.65,1.64,2.6,1.13,3-1,4.74-.65,9.45-1.44,13.99-3,1.67,1.48,3.33,1.48,5,0,1.67,0,3.33,0,5,0,.41,2.12,1.35,2.64,3,1,1,0,2,0,3,0,9.34,6.53,14.81,17.63,25.99,21.98,1.67,.33,3.33,.67,5,1,.03,1.3,.7,1.96,2,2,2,0,4,0,6,0,0,0,0,0,0,0,.2,1.27,.41,2.51,2,1,.67,0,1.33,0,2,0,.67,0,1.33,0,2,0,1.47,3.5,3.76,2.09,6,1,2-.33,3.88-1.35,6-1,1.66,1.64,2.6,1.12,3-1h0c1.79-.15,3.57,.11,5.39-.45,8.99-2.74,15.18-9.28,21.6-15.54,2.54-.25,3.75-2.14,5-4,2.81-1.52,6.27-.09,9-2,1.33,0,2.66,0,4,0,2.25,1.93,8.09,1.4,11-1,.67,0,1.33,0,2,0,2.06-.35,3.94-.98,5-3,3.12-.79,5.02-2.59,5-5.99,1.3-.04,1.96-.7,2-2,3.68,.22,4.81-3.13,6.99-5,2.67-1,5.33-2,8-3,4.55-.55,8.93-1.87,13.37-2.92,9.28-2.18,15.67-8.25,21.62-15.07,3.27-.7,5.1-3.7,7.99-5,6.65-.62,13.43,1.28,19.99-1,3.64-2.72,8.72-2.56,12-6,1.44,0,2.44-.67,3-2,1.41-1.57,2.92-3.06,4.18-4.74,1.14-1.51,3.61-2.69,1.82-5.25,0-.66,0-1.33,0-1.99,2.58-.19,4.11-1.7,4.99-4,1.75-1.58,4.28-2.39,5-4.99,.33,0,.67,0,1,0,.66,0,1.33,0,1.99,0,3.23-.59,6.56-.75,9.57-2.27,13.71-6.92,21.24-17.89,20.24-33.39-.46-7.2,.4-15.04-4.82-21.3-2.67-4-4.32-9.01-10-10-1.06-2.01-2.94-2.65-5-3-4.32-2.63-8.76-4.91-13.99-5-1.97-2.86-4.39-2.62-7-1-.69,.01-1.38,.03-2.07,.04-.29,0-.58,0-.88,0-.35-.01-.7-.03-1.06-.04-.09-2.03-1.54-2.01-3-2Z"/>
    <path class="cls-4" d="M1509.03,33.96c-.35,.01-.7,.02-1.05,.04-1.44,.14-2.72-.37-3.94-1.05-1.86-4.36-5.44-7.16-9-9.98-3.42-3.33-7.94-4.77-12-7-1.88-2.05-4.54-2.29-7-3-1.33,0-2.67,0-4,0-.43-.81-1.18-.98-2-1,2.5-3.91,6.4-2.22,9.3-1.56,9.12,2.07,17.66,5.45,23.41,13.67,3.02,4.31,7.19,6.28,12.86,5.99,14.75-.76,25.93,6.13,33.95,18.02,3.23,4.79,6.08,9.34,12.45,9.85-.87,2.33-3.75,2.14-5,4-.67,0-1.34,0-2.01,0-.66-.02-1.33-.04-1.99-.05-4.04-7.78-8.22-15.08-16.3-19.98-4.45-2.7-8.72-4.89-13.69-5.95-2.98-4.03-7.51-3.55-11.71-3.96-1.35-.13-2.14,.59-2.29,1.96Z"/>
    <path class="cls-4" d="M1461.05,12.97c-.33,.33-.67,.67-1,1-2.46,.71-5.12,.95-7,3-.67,0-1.33,0-2,0-2.14-1.66-4.32-3.26-7-4-6.04-5.24-13.49-7.18-20.99-8.99-.67,0-1.33,0-2,0-.43-.8-1.18-.98-2-1-4,0-8,0-11.99,0-1,0-2,0-3,0,1.69-3.85,5.63-2.49,8.21-2.73,9.85-.93,19.57,.78,28.25,5.64,6.51,3.64,12.37,8.47,20.52,7.09Z"/>
    <path class="cls-13" d="M1287.11,103.89c14.16-.11,25.58,5.65,34.7,16.28,.86,1,1.52,2.16,2.28,3.24,.89,1.27,1.81,2.92,.23,3.88-1.36,.83-2.18-.97-2.98-1.96-4.27-5.29-8.74-10.23-15-13.44-5.78-2.95-11.68-4.38-18.13-4.02-2.2,.12-4.78,.78-6.15-1.97,1.32-1.56,3.08-2.05,5.04-2.01Z"/>
    <path class="cls-13" d="M1367.08,38.92c14.55,.67,25.96,7.09,34.47,18.83,.98,1.35,2.53,3.17,.95,4.34-1.89,1.4-2.63-1.09-3.5-2.33-8.44-12.11-20.25-17.62-34.79-17.81-1.45-.02-3.04,.4-4.18-1,.17-1.95,1.59-2.01,3.04-2.01,1.33,0,2.67,0,4,0Z"/>
    <path class="cls-12" d="M1400.07,3.97c-4.29,3.84-9.61,5.49-15,7,4.02-4.43,9.48-5.76,15-7Z"/>
    <path class="cls-7" d="M1557.01,61.94c1.25-1.85,4.13-1.67,5-4,1.67-.33,3.33-.67,5-1,.33,0,.67,0,1,0-.17,.79-.22,2.21-.53,2.27-3.55,.69-6.54,3.57-10.46,2.72Z"/>
    <path class="cls-12" d="M1373.08,21.96c-.97,4.23-1.91,8.47-6,10.99,.42-4.53,2.92-7.92,6-10.99Z"/>
    <path class="cls-7" d="M1573,55.94c1.45-.15,2.75,.32,4,1-2.67,3.39-5.33,2.7-8,0v-1c1.33,0,2.67,0,4,0Z"/>
    <path class="cls-12" d="M1470.04,11.97c.82,.02,1.57,.19,2,1-2.56,1.28-5.1,2.4-7-1,1.67,0,3.33,0,5,0Z"/>
    <path class="cls-12" d="M1367.08,38.92c-1.33,0-2.67,0-4,0,.09-2.01,1.41-3.1,3-3.98,1.46,1.04,.86,2.6,1,3.97Z"/>
    <path class="cls-12" d="M1404.07,2.97c1,0,2,0,3,0-1.11,3.12-3,2.32-5,1,.43-.8,1.18-.98,2-1Z"/>
    <path class="cls-12" d="M1382.08,12.97c-.29,2.38-1.62,3.71-4,4,.29-2.37,1.63-3.71,4-4Z"/>
    <path class="cls-12" d="M1385.08,10.97c-.09,2.03-1.54,2.01-3,2,.56-1.33,1.56-1.99,3-2Z"/>
    <path class="cls-2" d="M1569.01,55.94v1c-.33,0-.67,0-1,0-.33,0-.67,0-1,0,.2-1.27,.41-2.52,2-1Z"/>
    <path class="cls-1" d="M1625.98,152.88c-.66,0-1.33,0-1.99,0-.26-.52-.43-1.41-.79-1.49-1.08-.23-1.07,.76-1.22,1.49-.33,0-.67,0-1,0-1.45-.01-2.91-.03-3,2-3.84,.78-3.93,4.24-4.99,7,0,.66,0,1.33,0,1.99-3.56,2.83-7.15,5.62-9,9.99-5.25,2.02-10.5,4.02-15.73,6.08-.18,.07-.18,.6-.27,.92-1,0-2,0-3,0-.67-1.33-1.33-2.66-2-3.99,11.85,.87,25.28-10.24,28.95-22.7,.41-1.41,.7-2.86,1.04-4.29,1.66-1.65,3.71-2.55,5.97-3.03,6,3.16,11.19-.47,15.64-3.06,10-5.84,16.08-14.78,16.38-26.88,2.29,.37,2.96,2.06,2.77,3.97-.25,2.43-.62,4.91-1.41,7.2-3.65,10.64-10.75,17.79-21.65,21.12-1.84,.56-5.15-.07-4.7,3.68Z"/>
    <path class="cls-14" d="M1351.09,225.85c-4.33,0-8.66,0-12.99,0-.72-1.17-1.9-.96-3-1-2-.33-4-.67-6-1-.43-.81-1.18-.98-2-1-3.8,.94-5.4-2.52-8-4,.22-2.14,1.34-1.69,2.78-1.12,13.71,5.42,27.29,4.71,40.69-1.13,1.64-.71,3.08-.62,4.78-.21,4.17,1.02,8.39,1.86,12.73,1.46,1.99,1.28,3.99,1.21,6,.02-.43,1.75,1.19,4.34-2.01,4.98-1,0-2,0-3,0-.72-1.18-1.9-.97-3-1-1.67,0-3.33,0-5,0-1.67-1.48-3.33-1.48-5,0-4.55,1.56-9.25,2.35-13.99,3-1.1,.03-2.28-.18-3,1Z"/>
    <path class="cls-11" d="M1625.98,152.88c-.45-3.75,2.86-3.12,4.7-3.68,10.91-3.33,18-10.48,21.65-21.12,.79-2.3,1.16-4.78,1.41-7.2,.2-1.91-.48-3.6-2.77-3.97-.17-5.68,.73-11.45-1.77-16.94-.75-1.65-.01-3.22,1.77-4.05,5.21,6.26,4.35,14.1,4.82,21.3,.99,15.51-6.53,26.48-20.24,33.39-3.01,1.52-6.34,1.67-9.57,2.27Z"/>
    <path class="cls-5" d="M1612.05,76.97c.29,0,.58,0,.87,0-.29,3.22,2.57,4.2,4.44,5.43,2.53,1.66,3.94,4.01,5.45,6.35,.7,1.09,2.16,2.74,.17,3.83-1.47,.81-2.27-.66-3.07-1.79-1.62-2.27-3.19-4.45-5.45-6.33-11.22-9.37-30.62-4.6-35.82,10.21-.16,.47-.39,.92-.54,1.39-.35,1.1-.56,2.59-2.06,2.29-1.58-.32-1.05-1.9-.93-2.94,.95-8.52,11.63-18.22,20.4-18.46,4.16-.12,8.32,0,12.49,0,.73,1.15,1.91,.95,3.01,1,.35-.33,.7-.65,1.06-.98Z"/>
    <path class="cls-5" d="M1618.96,146.85c-2.26,.48-4.3,1.38-5.97,3.03-11.67,3.69-21.92,1.84-30.19-7.72-1.7-1.96-4.47-5.32-2.86-6.53,2.77-2.07,3.62,2.32,5,3.93,13.21,15.47,33.22,9.07,39.49-6.39,.47-1.16,.27-3.72,2.49-2.85,1.93,.76,1.13,2.87,.58,4.38-1.75,4.8-5.36,8.33-8.54,12.14Z"/>
    <path class="cls-13" d="M1504.03,32.94c1.23,.68,2.5,1.19,3.94,1.05,2.78,2.58,5.62,5.11,8.31,7.78,1.23,1.22,3.36,3.06,1.96,4.49-1.76,1.81-3.22-.75-4.28-1.98-5.12-5.92-11.37-8.38-19.3-8.52-7.79-.14-18.07,6.94-20.51,15.42-.43,1.5-.21,3.99-2.64,3.16-2.54-.87-1.13-3.11-.49-4.68,3.77-9.14,13.07-18,24.02-16.76,2.96,.33,5.98,.04,8.98,.04Z"/>
    <path class="cls-8" d="M1474.04,219.85c1.34,.33,2.67,.67,4.01,1,.03,2.76-2.52,3.25-4.13,4.38-1.73,1.21-3.18,2.27-2.87,4.61-1.9-.02-2.76,1.59-4.07,2.53-6.54,4.66-11.48,11.86-20.39,12.83-1.27,.14-2.48,.99-2.53,2.63h0c-1,0-2,0-3,0-.75-2.48-4.7-.95-4.99-4,11.9-1.1,21.57-6.6,29.5-15.27,2.43-2.65,4.33-5.78,6.47-8.69,.67,0,1.34-.02,2-.02Z"/>
    <path class="cls-5" d="M1386.09,217.87c-2,1.19-4,1.25-6-.02,.22-2.13,1.89-2.62,3.52-2.89,15.07-2.45,25.05-11.04,30.61-25.09,.5-1.27,.74-3.3,2.85-2.64,1.42,.45,.98,1.89,.7,3.01-3.15,12.77-19.01,26.59-31.69,27.62Z"/>
    <path class="cls-5" d="M1470.04,82.93c14.26,.65,26.39,5.54,34.98,17.51,.58,.8,1.08,1.67,1.51,2.56,.52,1.07,1,2.58-.08,3.2-1.72,.99-2.11-.94-2.77-1.94-5.54-8.37-13.18-13.77-22.8-16.56-4.02-1.17-8.17-.69-12.23-1.36-1.47-.24-3.75,1.13-4.07-1.09-.38-2.7,2.25-2.16,3.96-2.31,.49-.05,1,0,1.49,0Z"/>
    <path class="cls-5" d="M1477.01,174.63c-1.05,.22-2.12-.06-2.4-1.14-.51-1.95,1.36-2.21,2.44-2.41,6.96-1.29,13.24-3.76,18.86-8.32,5.17-4.2,8.98-9.15,11.4-15.27,.31-.77,.65-1.54,1.07-2.25,.64-1.08,1.11-2.89,2.81-1.93,1.4,.79,.86,2.35,.28,3.58-.99,2.1-1.92,4.25-3.11,6.24-7.14,11.94-17.59,19.12-31.35,21.49Z"/>
    <path class="cls-8" d="M1568.01,174.87c1.65,1.02,3.69,1.4,4.99,3-2.6,3.59-7.83,3.88-10,8-8.29,8.42-17.55,14.89-29.99,14.99,0-.33,0-.67,0-1,8.49-2.38,16.49-5.7,22.96-11.97,3.66-3.55,7.2-7.16,9.06-12.06,1.1,.01,2.26,.2,2.98-.96Z"/>
    <path class="cls-1" d="M1514.03,213.86c-.04,1.3-.7,1.96-2,2-4.71,1.59-8.16,5.85-13.23,6.49-2.62,.33-5.84,2.33-7.77-1.5,10.17-.45,17.75-6.05,22.61-14.05,3.09-5.08,6.21-6.55,11.37-5.94-.33,.67-.67,1.33-1,2-4.68,2.44-7.77,6.32-9.99,11Z"/>
    <path class="cls-11" d="M1225.14,167.88c-.67,0-1.33,0-2,0-1.39-1.36-3.24-1.57-5-2,0,0,0,0,0,0-.04-1.65,.37-2.59,2.35-3.06,9.66-2.31,18.61,1.37,27.8,3.01,1.39,.25,2,1.2,1.68,2.55-.46,1.95-1.74,.69-2.77,.68-1.36-.02-2.65-1.9-4.07-.17-2.11,.35-4-.67-6-1-1.4-1.67-3.31-.76-5-1-1,0-2,0-3,0-1.38,.14-2.95-.47-4,1Z"/>
    <path class="cls-11" d="M1491.04,220.85c1.92,3.83,5.15,1.83,7.77,1.5,5.08-.64,8.52-4.91,13.23-6.49,.02,3.4-1.88,5.21-5,5.99-2.18,.14-4.43,.16-5,3-.67,0-1.33,0-2,0-3.69,.02-7.42-.33-11,1-1.33,0-2.66,0-4,0-3.53-1.75-6.62-1.45-9,2-2.1-.42-3.42,1.1-5,2h0c-.31-2.34,1.14-3.4,2.87-4.61,1.61-1.13,4.16-1.62,4.13-4.38,4.33,.88,8.66,1.72,13,0Z"/>
    <path class="cls-5" d="M1474.04,219.85c-.67,0-1.34,.02-2,.02-11.08-4.5-17.05-13.19-19.8-24.4-.34-1.41-1.07-3.84,1.15-4.21,2.3-.39,1.37,2.07,1.78,3.31,2.97,9.07,7.36,17.06,16.38,21.5,1.63,.8,2.8,1.76,2.5,3.78Z"/>
    <path class="cls-5" d="M1568.01,174.87c-.72,1.16-1.88,.98-2.98,.96-9.16-5.48-15.99-12.76-18.37-23.54-.41-1.87-1.8-4.43,.79-5,2.09-.47,2.18,2.31,2.56,4.07,1.92,8.71,6.5,15.5,14.49,19.77,1.58,.85,3.51,1.39,3.5,3.74Z"/>
    <path class="cls-11" d="M1296.11,199.86c-8.83-.56-17.59-1.35-24.99-7,.21-2.16,1.46-1.72,2.83-1.18,5.85,2.33,11.98,2.37,18.14,2.17,1.49,3.41,4.07,.41,6.03,1.02-.91,1.56,3.06,5.09-2,4.98Z"/>
    <path class="cls-5" d="M1357.1,109.08c.3-9.4,4.07-17.29,10.43-24.06,1.26-1.34,3.02-3.17,4.61-1.61,1.75,1.72-.89,2.78-1.89,3.75-6.95,6.85-10.51,14.98-9.63,24.81,.13,1.43-.17,2.43-1.47,2.66-1.96,.35-2.03-1.18-2.06-2.57-.02-1,0-2,0-3Z"/>
    <path class="cls-5" d="M1451.04,17.99c.03,1.92-1.44,2.9-2.59,4.05-6.97,6.96-11.54,14.84-9.82,25.18,.23,1.41-.35,2.38-1.71,2.47-2.01,.13-1.79-1.51-1.85-2.8-.48-9.76,2.86-18.16,9.1-25.52,.96-1.13,1.94-2.25,2.9-3.37,1.33,0,2.65,0,3.98-.01Z"/>
    <path class="cls-13" d="M1553.02,61.89c.66,.02,1.33,.04,1.99,.05,.24,1.71-.78,2.59-1.97,3.67-7.13,6.45-10.23,14.8-11.06,24.19-.11,1.28,.91,3.58-1.36,3.52-1.79-.05-1.66-2.21-1.58-3.69,.56-11.3,4.46-20.94,13.98-27.74Z"/>
    <path class="cls-13" d="M1379.77,127.91c4.18-.74,8.73,.79,13.23,2.54,.85,.33,2.06,.73,1.53,2.08-.41,1.04-1.45,1.57-2.45,1.16-6.26-2.57-12.81-3.02-19.47-2.9-1,.02-2.09-.54-1.96-1.75,.15-1.36,1.45-1.09,2.37-1.11,1.99-.06,3.98-.02,6.74-.02Z"/>
    <path class="cls-5" d="M1298.12,194.88c-1.96-.62-4.54,2.39-6.03-1.02,4.36-3.22,10.14-2.65,14.64-5.43,2.39-1.48,4.6-3.27,8.57-1.92-5.2,4.8-11.01,6.93-17.18,8.37Z"/>
    <path class="cls-11" d="M1563.01,185.87c2.17-4.12,7.4-4.41,10-8,3.31-.51,6.59-1.39,10-1,.67,1.33,1.33,2.66,2,3.99-3.07,0-6.15-.03-9.22,.01-1.56,.02-3.45-.44-3.78,1.98-2.89,1.3-4.72,4.31-7.99,5-.33-.67-.67-1.33-1-2Z"/>
    <path class="cls-11" d="M1436.06,243.84c.3,3.04,4.25,1.52,4.99,4,0,.33,0,.67,0,1-2.11-.35-4,.67-6,1-.76-1.82-2.29-2.09-4-2-1.59-1.52-1.8-.27-2,1h0c-.67,0-1.33,0-2,0-.2-1.27-.41-2.52-2-1-.67,0-1.33,0-2,0h0v-3c4.37,.14,8.72,.02,13-1Z"/>
    <path class="cls-11" d="M1423.06,244.83v3c-2,0-4,0-6,0-.04-1.3-.7-1.96-2-2-1.67-.33-3.33-.67-5-1-.73-2.47-1.31-4.54,2.72-3,3.32,1.27,6.84,2.02,10.28,3Z"/>
    <path class="cls-12" d="M1423.06,3.97c7.51,1.81,14.95,3.76,20.99,8.99-5.37,.43-8.84-3.95-13.52-5.42-2.54-.79-6.06-.22-7.48-3.58Z"/>
    <path class="cls-5" d="M1406.98,141.95c1.76-.15,7.09,5.86,6.69,7.69-.4,1.83-1.82,1.36-2.59,.55-1.91-2-3.68-4.15-5.32-6.38-.85-1.16,0-1.76,1.21-1.86Z"/>
    <path class="cls-4" d="M1589,59.94c5.35,1.01,10.01,3.14,12.99,8-2.79,.06-4.33-2.78-7-3-.33,0-.67,0-1,0-.3-2.37-2.18-2.65-4-3-.33-.67-.67-1.33-1-2Z"/>
    <path class="cls-7" d="M1509.03,33.96c.15-1.37,.94-2.09,2.29-1.96,4.2,.41,8.73-.07,11.71,3.96-4.62-.95-9.22-2.13-13.99-2Z"/>
    <path class="cls-7" d="M1483.04,15.97c4.06,2.23,8.58,3.67,12,7-5.4-.34-9.5-3.12-12.99-7h1Z"/>
    <path class="cls-10" d="M1524.02,202.86c.33-.67,.67-1.33,1-2,2.51-1.55,5.31-.85,8-1,0,.33,0,.67,0,1-.25,2.23-1.39,3.44-3.65,2.6-1.78-.66-3.55-.54-5.35-.6Z"/>
    <path class="cls-5" d="M1324.26,171.07c1.3-3.17,2.26-5.51,3.36-8.17,2.43,4.59,1.93,5.96-3.36,8.17Z"/>
    <path class="cls-7" d="M1589,59.94c.33,.67,.67,1.33,1,2-3.84-1.27-8.61-.52-11-5,3.64-.02,6.24,3.42,10,3Z"/>
    <path class="cls-7" d="M1595,64.94c2.67,.22,4.21,3.06,7,3,.33,.33,.67,.67,1,1v1c-3.7-.01-6.99-.67-8-5Z"/>
    <path class="cls-12" d="M1451.04,17.99c-1.33,0-2.65,0-3.98,.01,.05-2.31-3.38-2.54-3.01-5.03,2.67,.74,4.85,2.33,7,4,0,.34,0,.68,0,1.02Z"/>
    <path class="cls-7" d="M1614.99,76.93c2.61-1.62,5.03-1.86,7,1-2.32-.39-4.89,.92-7-1Z"/>
    <path class="cls-12" d="M1453.05,16.97c1.88-2.05,4.54-2.29,7-3-1.63,2.64-3.89,3.8-7,3Z"/>
    <path class="cls-7" d="M1635.98,82.93c2.06,.35,3.94,.98,5,3-3.09,1.37-3.94-.99-5-3Z"/>
    <path class="cls-12" d="M1483.04,15.97h-1c-2.32-.36-5.01,.03-6-3,2.46,.71,5.12,.95,7,3Z"/>
    <path class="cls-4" d="M1610.99,77.95c-1.1-.05-2.28,.16-3.01-1,0-.67,0-1.35,0-2.02,1.45-.01,2.91-.03,3,2,0,.34,0,.68,0,1.01Z"/>
    <path class="cls-7" d="M1590,61.94c1.82,.35,3.69,.63,4,3-1.82-.35-3.69-.63-4-3Z"/>
    <path class="cls-4" d="M1602.99,69.93v-1c1.3,.03,1.97,.7,2,2-.82-.02-1.57-.19-2-1Z"/>
    <path class="cls-4" d="M1605.99,71.93c1.3,.03,1.97,.7,2,2-1.3-.03-1.97-.7-2-2Z"/>
    <path class="cls-12" d="M1419.06,2.97c.82,.02,1.57,.19,2,1-1.59,1.52-1.8,.27-2-1Z"/>
    <path class="cls-11" d="M1524.02,202.86c1.8,.06,3.57-.06,5.35,.6,2.26,.84,3.4-.37,3.65-2.6,12.44-.11,21.7-6.58,29.99-14.99,.33,.67,.67,1.33,1,2-5.95,6.82-12.34,12.89-21.62,15.07-4.45,1.04-8.82,2.37-13.37,2.92-3.81-2.06-6.12-.09-8,3-2.19,1.87-3.31,5.22-6.99,5,2.22-4.68,5.31-8.56,9.99-11Z"/>
    <path class="cls-11" d="M1444.05,247.83c.05-1.64,1.26-2.49,2.53-2.63,8.91-.97,13.85-8.17,20.39-12.83,1.31-.93,2.17-2.55,4.07-2.53h0c0,.67,0,1.33,0,2-6.42,6.26-12.61,12.8-21.6,15.54-1.82,.56-3.6,.3-5.39,.44Z"/>
    <path class="cls-11" d="M1588,180.87c.09-.32,.09-.85,.27-.92,5.23-2.05,10.48-4.06,15.73-6.08h0v2c-3.28,3.44-8.36,3.27-12,6-1.05-1.46-2.62-.85-4-1Z"/>
    <path class="cls-3" d="M1588,180.87c1.38,.15,2.95-.46,4,1-6.57,2.28-13.34,.38-19.99,1,.33-2.43,2.21-1.96,3.78-1.98,3.07-.04,6.15-.01,9.22-.01,1,0,2,0,3,0Z"/>
    <path class="cls-11" d="M1603.99,173.87c1.85-4.37,5.44-7.17,9-9.99,1.79,2.57-.68,3.74-1.82,5.25-1.26,1.68-2.78,3.17-4.18,4.74-1,0-2,0-3,0h0Z"/>
    <path class="cls-11" d="M1612.99,161.89c1.07-2.76,1.15-6.22,4.99-7,0,1,0,2,0,3-.89,2.3-2.41,3.81-4.99,4Z"/>
    <path class="cls-3" d="M1489.04,225.85c3.57-1.33,7.3-.98,11-1-2.9,2.4-8.75,2.93-11,1Z"/>
    <path class="cls-7" d="M1476.04,227.84c2.38-3.45,5.46-3.74,9-2-2.72,1.91-6.19,.48-9,2Z"/>
    <path class="cls-3" d="M1521.02,208.85c1.88-3.09,4.18-5.06,8-3-2.67,1-5.33,2-8,3Z"/>
    <path class="cls-7" d="M1431.06,247.84c1.71-.09,3.24,.18,4,2-2.24,1.09-4.52,2.5-6-1,0,0,0,0,0,0,.82-.02,1.57-.19,2-1Z"/>
    <path class="cls-3" d="M1617.99,157.88c0-1,0-2,0-3,1.44,0,2.44-.67,3-2,.33,0,.67,0,1,0,.33,0,.67,0,1,0-.73,2.61-3.25,3.41-5,4.99Z"/>
    <path class="cls-7" d="M1471.05,231.84c0-.67,0-1.33,0-2,1.57-.9,2.9-2.42,5-2-1.24,1.86-2.46,3.75-5,4Z"/>
    <path class="cls-7" d="M1232.14,166.88c1.69,.24,3.6-.67,5,1-2,1.32-3.89,2.12-5-1Z"/>
    <path class="cls-7" d="M1368.09,221.85c1.67-1.48,3.33-1.48,5,0-1.67,1.48-3.33,1.48-5,0Z"/>
    <path class="cls-3" d="M1502.03,224.85c.56-2.83,2.82-2.86,5-3-1.06,2.01-2.94,2.65-5,3Z"/>
    <path class="cls-7" d="M1218.14,165.88c1.76,.43,3.61,.64,5,2-2.32,.97-4.09,.56-5-2Z"/>
    <path class="cls-7" d="M1225.14,167.88c1.05-1.46,2.62-.86,4-1-.71,2.82-2.24,2.37-4,1Z"/>
    <path class="cls-7" d="M1378.08,221.85c1.1,.03,2.28-.18,3,1-1.66,1.64-2.6,1.13-3-1Z"/>
    <path class="cls-7" d="M1335.1,224.85c1.1,.03,2.28-.18,3,1-1.65,1.64-2.59,1.13-3-1Z"/>
    <path class="cls-7" d="M1351.09,225.85c.72-1.18,1.9-.97,3-1-.4,2.12-1.35,2.63-3,1Z"/>
    <path class="cls-7" d="M1441.06,248.83c0-.33,0-.67,0-1,1,0,2,0,3,0-.4,2.12-1.34,2.64-3,1Z"/>
    <path class="cls-3" d="M1603.99,173.88c1,0,2,0,3,0-.56,1.33-1.56,2-3,2v-2Z"/>
    <path class="cls-7" d="M1327.1,222.85c.82,.02,1.57,.19,2,1-1.59,1.52-1.8,.27-2-1Z"/>
    <path class="cls-11" d="M1622.99,152.89c-.33,0-.67,0-1,0,.15-.73,.14-1.72,1.22-1.49,.35,.08,.53,.97,.79,1.49-.33,0-.67,0-1,0Z"/>
    <path class="cls-11" d="M1425.06,247.83c1.59-1.52,1.8-.27,2,1-.67,0-1.33,0-2,0,0-.33,0-.67,0-1Z"/>
    <path class="cls-7" d="M1425.06,247.83c0,.33,0,.67,0,1-1.59,1.52-1.8,.27-2-1,.67,0,1.33,0,2,0Z"/>
    <path class="cls-7" d="M1415.07,245.84c1.3,.03,1.97,.7,2,2-1.3-.03-1.97-.7-2-2Z"/>
    <path class="cls-7" d="M1610.99,77.95c0-.34,0-.68,0-1.01,.35,.01,.7,.03,1.06,.04-.35,.33-.7,.65-1.05,.98Z"/>
    <path class="cls-11" d="M1620.99,152.89c-.56,1.33-1.56,2-3,2,.09-2.03,1.55-2.01,3-2Z"/>
    <path class="cls-11" d="M1431.06,247.84c-.43,.8-1.18,.98-2,1,.2-1.27,.41-2.52,2-1Z"/>
  </g>
  <g class="cls-9">
    <path class="cls-7" d="M1149.26,129.87c.01-.59,.14-1.12,.71-1.42,2.91-1.79,3.58-4.81,4.27-7.82,.91-1.46,2.09-2.64,3.55-3.56,1.69-.2,2.64-1.15,2.85-2.84,0,0,0,0,0,0,1.03,.01,2.07,.02,2.13-1.42,0,0,0,0,0,0,3.83-1.07,7.61-2.24,10.67-4.98,.47,0,.95,0,1.42,0,1.42,.94,2.77,1.51,3.56-.71,2.84,0,5.69,0,8.53,0,.14,.9,.29,1.79,1.42,.71,.47,0,.95,0,1.42,0,1.01,2.39,3.51,1.98,5.32,2.55,3.33,1.04,5.8,4.16,9.61,3.85-.26,1.78,2.18,1.94,2.14,3.58-.69,.8-1.38,1.59-2.07,2.4-4.43,5.24-6.81,11.22-6.47,18.16,.04,.92-.12,2.09,1.32,1.99,.97-.06,1.38-.76,1.22-1.76-1.22-7.35,2.03-12.97,6.99-17.92,.82-.82,1.87-1.52,1.85-2.88,0-.24,0-.49,0-.73,.47,0,.95,0,1.42,0,2.21,.57,3.82-.26,4.98-2.13,.24-.24,.47-.47,.71-.71,.95-.24,1.9-.47,2.84-.71,1.35,2.42,3.15,1.62,4.98,.71,.95,0,1.9,0,2.84,0,.7,2.16,2.62,1.87,4.27,2.13,2.49,2.76,5.4,4.73,9.24,4.98,2.53,2.01,5.08,4,6.4,7.1-2.13,0-4.29,.21-6.39-.03-7.79-.88-14.41,5.42-17.09,11.92-.46,1.12-1.46,2.71,.35,3.33,1.73,.59,1.57-1.18,1.88-2.25,1.74-6.04,9.05-11.07,14.59-10.97,5.65,.1,10.09,1.85,13.73,6.06,.75,.87,1.79,2.69,3.04,1.41,.99-1.02-.52-2.32-1.4-3.19-1.91-1.9-3.94-3.7-5.91-5.54,.25,0,.5-.02,.75-.03,3.4-.09,6.67,.75,9.96,1.42,3.54,.76,6.57,2.32,9.74,4.24,5.75,3.48,8.72,8.68,11.6,14.21-6.77,4.83-9.55,11.69-9.95,19.73-.05,1.05-.14,2.58,1.13,2.62,1.61,.05,.89-1.59,.97-2.5,.59-6.68,2.79-12.62,7.86-17.21,.84-.76,1.57-1.39,1.4-2.61,.48,0,.95,0,1.43,0,2.79,.6,4.92-1.44,7.44-1.94,.22-.04,.26-1.06,.38-1.62,.24,0,.47,0,.71,0,1.9,1.92,3.79,2.41,5.69,0,.47,0,.95,0,1.42,0,1.7,3.18,5.09,2.65,7.82,3.55,.22,1.69,1.55,1.89,2.84,2.13,.24,0,.47,0,.71,0,.71,3.08,3.06,3.55,5.69,3.56,.31,.57,.84,.7,1.42,.71,.24,.24,.47,.47,.71,.71,.02,.92,.5,1.4,1.42,1.42,0,.24,0,.47,0,.71,0,.48,0,.96,0,1.44-2.96,0-5.92-.08-8.88,0-6.23,.18-13.84,7.07-14.51,13.14-.08,.74-.46,1.87,.66,2.09,1.06,.21,1.22-.85,1.46-1.63,.11-.34,.27-.66,.39-.99,3.7-10.54,17.5-13.93,25.49-7.27,1.61,1.34,2.73,2.89,3.88,4.51,.57,.8,1.13,1.85,2.18,1.27,1.41-.78,.38-1.95-.12-2.72-1.07-1.66-2.08-3.33-3.88-4.52-1.33-.87-3.36-1.58-3.16-3.86l1.47-.03c1.5,1.37,3.32,.43,4.98,.71,3.72,.06,6.88,1.69,9.96,3.55,.76,1.43,1.36,3.11,3.56,2.13,4.04,.7,5.21,4.27,7.11,7.11-1.27,.59-1.79,1.71-1.26,2.88,1.78,3.9,1.13,8.01,1.26,12.05-.21,8.61-4.54,14.97-11.65,19.12-3.16,1.85-6.86,4.43-11.13,2.18,2.27-2.71,4.83-5.22,6.08-8.64,.39-1.08,.96-2.58-.41-3.12-1.58-.62-1.44,1.2-1.77,2.03-4.46,10.99-18.7,15.55-28.09,4.54-.98-1.14-1.58-4.27-3.55-2.79-1.15,.86,.83,3.25,2.03,4.65,5.88,6.8,13.18,8.12,21.48,5.49-.24,1.02-.44,2.05-.74,3.05-2.61,8.86-12.17,16.77-20.59,16.15-2.42-.28-4.75,.35-7.11,.71-.93-1.14-2.37-1.41-3.55-2.13,0-1.67-1.36-2.06-2.49-2.66-5.69-3.04-8.95-7.87-10.31-14.06-.28-1.25-.34-3.23-1.82-2.9-1.84,.41-.85,2.23-.56,3.56,1.69,7.67,6.55,12.85,13.07,16.75-1.32,3.48-3.84,6.05-6.45,8.58-4.61,4.46-10.29,6.82-16.33,8.52-1.91,.11-3.9-.39-5.69,.71-3.67-.44-5.89,.61-8.09,4.23-3.46,5.69-8.86,9.68-16.09,9.99-3.08,1.22-6.16,.63-9.25,0-.95-.24-1.9-.48-2.85-.71,.21-1.43-.62-2.12-1.78-2.69-6.42-3.16-9.54-8.84-11.65-15.3-.29-.89,.37-2.63-1.26-2.36-1.58,.27-1.06,1.99-.82,3,1.96,7.98,6.21,14.16,14.09,17.36-1.52,2.07-2.88,4.3-4.6,6.18-5.64,6.17-12.52,10.08-20.99,10.86-3.04,.72-6.14,.81-9.25,.71-2.44-.7-4.95-1.23-7.31-2.14-2.86-1.09-2.45,.38-1.93,2.14-7.95-3.1-11.85-10.99-18.49-15.64,2.27-.45,1.12-2.29,1.43-3.54,9.02-.74,20.3-10.57,22.54-19.65,.2-.8,.51-1.83-.5-2.14-1.5-.47-1.67,.97-2.03,1.88-3.96,9.99-11.06,16.11-21.78,17.85-1.17,.19-2.35,.54-2.51,2.05-3.09,.28-6.09-.32-9.06-1.04-1.21-.29-2.24-.36-3.4,.15-9.53,4.16-19.19,4.66-28.95,.8-1.02-.4-1.82-.72-1.98,.8-1.25,.12-2.42-.25-3.32-1.02-4.58-3.92-8.17-8.87-13.04-12.49,3.6,.08,.78-2.43,1.43-3.54,4.39-1.03,8.52-2.54,12.22-5.96-2.82-.96-4.4,.31-6.1,1.37-3.2,1.98-7.31,1.57-10.41,3.86-4.38,.14-8.74,.11-12.9-1.54-.97-.39-1.86-.7-2.01,.84-2.83-.22-4.74-1.94-6.28-4.07-3.75-5.18-6.73-11.13-13.63-12.99,1.01-1.23,1.93,.11,2.9,.12,.73,.01,1.64,.9,1.97-.48,.23-.96-.2-1.64-1.19-1.82-6.54-1.16-12.9-3.78-19.78-2.14-1.41,.34-1.7,1-1.67,2.18-2.18-.9-4.38-1.75-3.77-4.86,.16-.81-.57-1.21-1.21-1.54,1.31-4.31,5.47-3.24,8.06-3.3,5.83-.13,10.2-3.42,15.19-5.33,2.48-.95,2.45-3.26,2.99-5.22,3.42-12.52,11.64-19.8,24.21-22.42,.97,1.96,2.81,1.49,4.37,1.4,4.59-.25,8.78,.76,12.9,2.86,4.46,2.28,7.64,5.79,10.67,9.56,.57,.7,1.15,1.98,2.12,1.39,1.12-.68,.47-1.86-.17-2.76-.54-.77-1.02-1.59-1.62-2.3-6.49-7.56-14.61-11.66-24.69-11.58,.26-2.92,1.91-5.59,1.51-8.65-.07-.57,.41-1.58,.89-1.79,5.44-2.39,7.97-8.37,13.41-10.74,2.59-1.12,5.01-2.96,7.69-3.45,3.96-.72,5.84-2.95,7.76-6.25,4.54-7.83,11.6-12.45,20.62-13.9,.81,1,1.94,.7,2.97,.71,10.35,.14,18.75,4.05,24.75,12.67,.62,.88,1.14,2.65,2.49,1.66,1.12-.83,.02-2.12-.68-3.08-6.05-8.35-14.17-12.91-24.52-13.39-.1-.98,.33-2.08-.71-2.82Zm73.95,34.13c-.35,0-.71-.03-1.06,0-1.22,.11-3.09-.28-2.82,1.65,.22,1.58,1.85,.6,2.89,.77,2.89,.47,5.84,.13,8.7,.96,6.85,1.99,12.28,5.83,16.22,11.78,.47,.71,.75,2.09,1.97,1.38,.76-.44,.42-1.51,.06-2.28-.31-.63-.66-1.25-1.07-1.82-6.11-8.51-14.74-11.99-24.88-12.45Zm4.96,65.24c9.78-1.69,17.22-6.79,22.3-15.29,.85-1.42,1.51-2.94,2.21-4.44,.41-.87,.8-1.98-.2-2.55-1.21-.69-1.55,.6-2,1.37-.3,.51-.54,1.05-.76,1.6-1.72,4.36-4.43,7.88-8.11,10.87-4,3.25-8.46,5-13.42,5.92-.77,.14-2.1,.32-1.74,1.71,.2,.77,.96,.97,1.71,.81Zm-85.31-46.63c0,.71-.01,1.42,0,2.13,.02,.98,.07,2.08,1.46,1.83,.92-.17,1.13-.88,1.04-1.9-.63-6.99,1.9-12.78,6.85-17.65,.71-.7,2.59-1.45,1.34-2.67-1.13-1.11-2.38,.19-3.28,1.15-4.52,4.81-7.21,10.43-7.42,17.12Zm16.13,13.39c-1.97,0-3.38-.03-4.8,.01-.66,.02-1.58-.18-1.69,.79-.09,.86,.68,1.26,1.39,1.24,4.74-.09,9.4,.23,13.85,2.06,.71,.29,1.45-.09,1.74-.82,.38-.96-.49-1.24-1.09-1.48-3.2-1.25-6.44-2.33-9.41-1.81Zm19.36,9.99c-.86,.07-1.47,.5-.86,1.32,1.16,1.59,2.42,3.12,3.78,4.54,.55,.57,1.56,.91,1.84-.39,.28-1.3-3.51-5.58-4.76-5.47Zm-58.84,20.72c3.76-1.58,4.12-2.55,2.39-5.82-.78,1.9-1.46,3.56-2.39,5.82Z"/>
    <path class="cls-2" d="M1321.36,158.31c0-.24,0-.47,0-.71-.02-.92-.5-1.4-1.42-1.42-.24-.24-.47-.47-.71-.71-.02-.92-.5-1.4-1.42-1.42-.24-.24-.47-.47-.71-.71-2.12-3.46-5.44-4.97-9.24-5.69-2.67,.3-4.52-2.15-7.11-2.13-.47,0-.95,0-1.42,0-.89-.49-1.81-.82-2.84-.71,2.02-2.97,4.99-1.5,7.34-1.11,7.44,1.24,13.76,4.81,18.39,10.88,2.16,2.84,4.92,3.23,8.14,3.06,10.61-.59,18.72,4.34,24.05,12.91,5.75,9.25,6.53,19.57,2.44,29.86-3.64,9.17-10.81,14.32-20.23,16.4-3.55,.78-5.62,2.6-7.35,5.83-5.23,9.8-13.41,15.26-24.79,15.31-1.9,0-3.79,.03-5.69,0-1.91-.04-3.5,.65-4.67,2.12-6.91,8.75-16.13,13.04-27.03,14.28-2.82,.32-5.17,1.35-7.19,3.86-6.25,7.79-14.39,11.89-24.64,11.05-3.51-.29-6.2,.41-8.97,3.41-7.13,7.73-15.82,12.32-26.89,13.13-13.11,.97-23.25-4.06-31.74-12.98-6.1-6.41-12.8-7.49-20.82-5.28-12.57,3.46-24.55,2.35-35.57-5.2-2.97-2.03-5.52-4.58-7.63-7.36-2.45-3.23-5.57-4.6-9.29-4.89-5.91-.46-11.35-2.23-16.04-5.76-3.56-2.68-7.04-5.57-9.23-9.63-2.74-5.09-7.4-6.58-12.75-6.69-2.49-.05-5-.22-7.46,.03-6.76,.69-11.2-2.55-9.79-11.42,.64,.33,1.36,.73,1.21,1.54-.61,3.11,1.6,3.96,3.77,4.86,0,0,0,0,0,0,.65,1.82,1.91,2.11,3.56,1.42,.47,0,.95,0,1.42,0,1.25,.98,2.34,1.3,2.85-.71,.71,0,1.42,0,2.13,0,.79,2.22,2.14,1.65,3.56,.71,1.42,.23,2.76,.96,4.27,.71,6.9,1.86,9.88,7.81,13.63,12.99,1.54,2.13,3.45,3.85,6.28,4.07,5.27,4.02,11.5,4.58,17.78,4.98,4.87,3.62,8.47,8.57,13.04,12.49,.9,.77,2.07,1.14,3.32,1.02,1.85,1.05,2.98,3.51,5.69,2.84,.14,.9,.29,1.79,1.42,.71,1.42,.24,2.84,.48,4.27,.71,.29,1.51,.96,1.87,2.13,.71,3.08,0,6.16,0,9.24,0,1.18,1.17,1.85,.8,2.13-.71,3.37-.46,6.72-1.03,9.95-2.13,1.19,1.06,2.37,1.06,3.56,0,1.18,0,2.37,0,3.55,0,.29,1.51,.96,1.87,2.13,.71,.71,0,1.42,0,2.13,0,6.64,4.64,10.54,12.54,18.49,15.64,1.18,.24,2.37,.48,3.55,.71,.02,.92,.5,1.4,1.42,1.42,1.42,0,2.84,0,4.27,0,0,0,0,0,0,0,.14,.9,.29,1.79,1.42,.71,.47,0,.95,0,1.42,0,.47,0,.95,0,1.42,0,1.05,2.49,2.68,1.48,4.27,.71,1.42-.24,2.76-.96,4.27-.71,1.18,1.16,1.85,.8,2.13-.71h0c1.28-.11,2.54,.08,3.84-.32,6.39-1.95,10.8-6.6,15.37-11.06,1.8-.18,2.67-1.52,3.55-2.85,2-1.08,4.46-.06,6.4-1.42,.95,0,1.9,0,2.84,0,1.6,1.37,5.76,.99,7.82-.71,.47,0,.95,0,1.42,0,1.46-.25,2.8-.7,3.56-2.13,2.22-.56,3.57-1.84,3.56-4.26,.92-.03,1.4-.5,1.42-1.42,2.62,.16,3.42-2.23,4.98-3.56,1.9-.71,3.79-1.42,5.69-2.13,3.24-.39,6.35-1.33,9.51-2.08,6.6-1.55,11.15-5.87,15.38-10.72,2.33-.49,3.63-2.63,5.69-3.56,4.73-.44,9.55,.91,14.22-.71,2.59-1.94,6.2-1.82,8.53-4.26,1.03,0,1.74-.48,2.13-1.42,1-1.12,2.08-2.18,2.98-3.37,.81-1.08,2.57-1.91,1.29-3.74,0-.47,0-.95,0-1.42,1.84-.13,2.92-1.21,3.55-2.85,1.24-1.13,3.04-1.7,3.56-3.55,.24,0,.47,0,.71,0,.47,0,.95,0,1.42,0,2.3-.42,4.67-.53,6.81-1.61,9.75-4.92,15.11-12.73,14.4-23.76-.33-5.12,.28-10.7-3.43-15.15-1.9-2.84-3.07-6.41-7.11-7.11-.75-1.43-2.09-1.89-3.56-2.13-3.07-1.87-6.24-3.5-9.96-3.55-1.4-2.03-3.12-1.87-4.98-.71-.49,.01-.98,.02-1.47,.03-.21,0-.41,0-.62,0-.25,0-.5-.02-.75-.03-.07-1.44-1.1-1.43-2.13-1.42Z"/>
    <path class="cls-4" d="M1250.96,129.16c-.25,0-.5,.02-.75,.03-1.03,.1-1.93-.27-2.8-.75-1.32-3.1-3.87-5.09-6.4-7.1-2.43-2.37-5.65-3.39-8.53-4.98-1.34-1.46-3.23-1.63-4.98-2.13-.95,0-1.9,0-2.84,0-.31-.57-.84-.7-1.42-.71,1.78-2.78,4.55-1.58,6.62-1.11,6.49,1.48,12.56,3.88,16.65,9.73,2.15,3.07,5.11,4.47,9.15,4.26,10.49-.54,18.44,4.36,24.15,12.82,2.3,3.41,4.33,6.65,8.85,7-.62,1.66-2.67,1.52-3.56,2.84-.48,0-.95,0-1.43,0-.47-.01-.94-.03-1.42-.04-2.88-5.53-5.85-10.73-11.6-14.21-3.17-1.92-6.2-3.48-9.74-4.24-2.12-2.87-5.34-2.52-8.33-2.82-.96-.09-1.52,.42-1.63,1.39Z"/>
    <path class="cls-4" d="M1216.82,114.23c-.24,.24-.47,.47-.71,.71-1.75,.51-3.64,.67-4.98,2.13-.47,0-.95,0-1.42,0-1.52-1.18-3.08-2.32-4.98-2.84-4.29-3.73-9.59-5.11-14.93-6.4-.47,0-.95,0-1.42,0-.31-.57-.84-.7-1.42-.71-2.84,0-5.69,0-8.53,0-.71,0-1.42,0-2.13,0,1.2-2.74,4.01-1.77,5.84-1.94,7.01-.66,13.92,.56,20.1,4.01,4.63,2.59,8.8,6.03,14.6,5.04Z"/>
    <path class="cls-13" d="M1093.08,178.91c10.08-.08,18.2,4.02,24.69,11.58,.61,.71,1.08,1.53,1.62,2.3,.64,.9,1.28,2.08,.17,2.76-.97,.59-1.55-.69-2.12-1.39-3.04-3.76-6.22-7.28-10.67-9.56-4.11-2.1-8.31-3.11-12.9-2.86-1.57,.09-3.4,.56-4.37-1.4,.94-1.11,2.19-1.46,3.58-1.43Z"/>
    <path class="cls-13" d="M1149.97,132.69c10.35,.48,18.47,5.04,24.52,13.39,.7,.96,1.8,2.26,.68,3.08-1.35,.99-1.87-.77-2.49-1.66-6.01-8.62-14.4-12.53-24.75-12.67-1.03-.01-2.17,.29-2.97-.71,.12-1.39,1.13-1.43,2.16-1.43,.95,0,1.9,0,2.85,0Z"/>
    <path class="cls-12" d="M1173.44,107.83c-3.05,2.74-6.84,3.9-10.67,4.98,2.86-3.15,6.75-4.1,10.67-4.98Z"/>
    <path class="cls-7" d="M1285.09,149.06c.89-1.32,2.94-1.19,3.56-2.84,1.19-.24,2.37-.48,3.56-.71,.24,0,.47,0,.71,0-.12,.56-.16,1.57-.38,1.62-2.52,.49-4.65,2.54-7.44,1.94Z"/>
    <path class="cls-12" d="M1154.24,120.62c-.69,3.01-1.36,6.03-4.27,7.82,.3-3.22,2.07-5.63,4.27-7.82Z"/>
    <path class="cls-7" d="M1296.47,144.8c1.03-.11,1.96,.23,2.84,.71-1.9,2.41-3.79,1.92-5.69,0v-.71c.95,0,1.9,0,2.84,0Z"/>
    <path class="cls-12" d="M1223.22,113.51c.59,.01,1.12,.14,1.42,.71-1.82,.91-3.63,1.71-4.98-.71,1.18,0,2.37,0,3.55,0Z"/>
    <path class="cls-12" d="M1149.97,132.69c-.95,0-1.9,0-2.85,0,.07-1.43,1-2.21,2.14-2.83,1.04,.74,.61,1.85,.71,2.82Z"/>
    <path class="cls-12" d="M1176.29,107.11c.71,0,1.42,0,2.13,0-.79,2.22-2.14,1.65-3.56,.71,.31-.57,.84-.7,1.42-.71Z"/>
    <path class="cls-12" d="M1160.64,114.22c-.21,1.69-1.15,2.64-2.85,2.84,.21-1.69,1.16-2.64,2.85-2.84Z"/>
    <path class="cls-12" d="M1162.78,112.8c-.06,1.44-1.1,1.43-2.13,1.42,.4-.94,1.11-1.42,2.13-1.42Z"/>
    <path class="cls-2" d="M1293.62,144.8v.71c-.24,0-.47,0-.71,0-.24,0-.47,0-.71,0,.14-.9,.29-1.79,1.42-.71Z"/>
    <path class="cls-1" d="M1334.16,213.76c-.47,0-.95,0-1.42,0-.18-.37-.31-1-.56-1.06-.77-.17-.76,.54-.87,1.06-.24,0-.47,0-.71,0-1.03,0-2.07-.02-2.13,1.42-2.74,.55-2.79,3.02-3.55,4.98,0,.47,0,.95,0,1.42-2.53,2.01-5.09,4-6.4,7.11-3.73,1.43-7.47,2.86-11.19,4.32-.13,.05-.13,.43-.19,.65-.71,0-1.42,0-2.13,0-.47-.95-.95-1.89-1.42-2.84,8.43,.62,17.99-7.28,20.59-16.15,.3-1,.5-2.03,.74-3.05,1.18-1.17,2.64-1.82,4.24-2.16,4.27,2.25,7.96-.33,11.13-2.18,7.12-4.16,11.44-10.51,11.65-19.12,1.63,.26,2.11,1.47,1.97,2.82-.18,1.73-.44,3.49-1,5.12-2.6,7.57-7.64,12.66-15.4,15.02-1.31,.4-3.66-.05-3.34,2.62Z"/>
    <path class="cls-14" d="M1138.6,265.67c-3.08,0-6.16,0-9.24,0-.51-.84-1.35-.69-2.13-.71-1.42-.24-2.84-.48-4.27-.71-.31-.57-.84-.7-1.42-.71-2.71,.67-3.84-1.8-5.69-2.84,.16-1.52,.95-1.2,1.98-.8,9.76,3.85,19.42,3.35,28.95-.8,1.16-.51,2.19-.44,3.4-.15,2.96,.72,5.97,1.32,9.06,1.04,1.42,.91,2.84,.86,4.27,.02-.31,1.25,.85,3.09-1.43,3.54-.71,0-1.42,0-2.13,0-.51-.84-1.35-.69-2.13-.71-1.18,0-2.37,0-3.55,0-1.19-1.06-2.37-1.06-3.56,0-3.23,1.11-6.58,1.67-9.95,2.13-.78,.02-1.62-.13-2.13,.71Z"/>
    <path class="cls-11" d="M1334.16,213.76c-.32-2.67,2.03-2.22,3.34-2.62,7.76-2.37,12.81-7.45,15.4-15.02,.56-1.63,.82-3.4,1-5.12,.14-1.36-.34-2.56-1.97-2.82-.12-4.04,.52-8.15-1.26-12.05-.54-1.18,0-2.29,1.26-2.88,3.71,4.46,3.1,10.03,3.43,15.15,.71,11.03-4.65,18.84-14.4,23.76-2.14,1.08-4.51,1.19-6.81,1.61Z"/>
    <path class="cls-5" d="M1324.24,159.76c.21,0,.42,0,.62,0-.2,2.29,1.83,2.99,3.16,3.86,1.8,1.18,2.81,2.85,3.88,4.52,.5,.78,1.53,1.95,.12,2.72-1.05,.58-1.61-.47-2.18-1.27-1.15-1.61-2.27-3.16-3.88-4.51-7.98-6.66-21.78-3.27-25.49,7.27-.12,.33-.28,.65-.39,.99-.25,.78-.4,1.84-1.46,1.63-1.12-.22-.74-1.35-.66-2.09,.67-6.06,8.28-12.96,14.51-13.14,2.96-.08,5.92,0,8.88,0,.52,.82,1.36,.67,2.14,.71,.25-.23,.5-.46,.75-.69Z"/>
    <path class="cls-5" d="M1329.16,209.47c-1.61,.34-3.06,.98-4.24,2.16-8.3,2.63-15.59,1.31-21.48-5.49-1.21-1.4-3.18-3.79-2.03-4.65,1.97-1.47,2.58,1.65,3.55,2.79,9.4,11.01,23.63,6.45,28.09-4.54,.33-.82,.19-2.65,1.77-2.03,1.38,.54,.8,2.04,.41,3.12-1.24,3.42-3.81,5.93-6.08,8.64Z"/>
    <path class="cls-13" d="M1247.4,128.44c.87,.48,1.78,.85,2.8,.75,1.98,1.84,4,3.63,5.91,5.54,.88,.87,2.39,2.17,1.4,3.19-1.25,1.28-2.29-.54-3.04-1.41-3.64-4.21-8.09-5.96-13.73-6.06-5.54-.1-12.85,4.94-14.59,10.97-.31,1.07-.15,2.84-1.88,2.25-1.81-.62-.81-2.21-.35-3.33,2.68-6.5,9.3-12.8,17.09-11.92,2.1,.24,4.26,.03,6.39,.03Z"/>
    <path class="cls-8" d="M1226.06,261.4c.95,.24,1.9,.48,2.85,.71,.02,1.96-1.79,2.31-2.94,3.12-1.23,.86-2.26,1.62-2.04,3.28-1.35-.02-1.96,1.13-2.89,1.8-4.66,3.31-8.17,8.44-14.51,9.13-.91,.1-1.76,.7-1.8,1.87h0c-.71,0-1.42,0-2.14,0-.53-1.76-3.34-.68-3.55-2.84,8.47-.78,15.35-4.69,20.99-10.86,1.73-1.89,3.08-4.11,4.6-6.18,.48,0,.95-.01,1.43-.02Z"/>
    <path class="cls-5" d="M1163.49,260c-1.43,.85-2.85,.89-4.27-.02,.15-1.51,1.34-1.86,2.51-2.05,10.72-1.74,17.82-7.86,21.78-17.85,.36-.9,.53-2.35,2.03-1.88,1.01,.32,.7,1.34,.5,2.14-2.24,9.08-13.53,18.91-22.54,19.65Z"/>
    <path class="cls-5" d="M1223.22,164c10.14,.46,18.78,3.94,24.88,12.45,.41,.57,.77,1.19,1.07,1.82,.37,.76,.71,1.83-.06,2.28-1.22,.71-1.5-.67-1.97-1.38-3.94-5.95-9.37-9.79-16.22-11.78-2.86-.83-5.81-.49-8.7-.96-1.05-.17-2.67,.81-2.89-.77-.27-1.92,1.6-1.53,2.82-1.65,.35-.03,.71,0,1.06,0Z"/>
    <path class="cls-5" d="M1228.18,229.23c-.75,.16-1.51-.04-1.71-.81-.36-1.39,.97-1.57,1.74-1.71,4.95-.92,9.42-2.67,13.42-5.92,3.68-2.99,6.39-6.51,8.11-10.87,.22-.55,.46-1.09,.76-1.6,.45-.77,.79-2.06,2-1.37,.99,.56,.61,1.67,.2,2.55-.7,1.5-1.37,3.03-2.21,4.44-5.08,8.49-12.52,13.6-22.3,15.29Z"/>
    <path class="cls-8" d="M1292.92,229.4c1.18,.72,2.63,.99,3.55,2.13-1.85,2.55-5.57,2.76-7.11,5.69-5.89,5.99-12.48,10.59-21.33,10.67,0-.24,0-.47,0-.71,6.04-1.7,11.73-4.06,16.33-8.52,2.6-2.52,5.12-5.1,6.44-8.58,.78,0,1.6,.14,2.12-.69Z"/>
    <path class="cls-1" d="M1254.51,257.14c-.03,.92-.5,1.4-1.42,1.42-3.35,1.13-5.8,4.16-9.41,4.62-1.86,.24-4.16,1.66-5.52-1.06,7.23-.32,12.62-4.3,16.09-9.99,2.2-3.61,4.42-4.66,8.09-4.23-.24,.47-.47,.95-.71,1.42-3.33,1.74-5.53,4.5-7.11,7.82Z"/>
    <path class="cls-11" d="M1049,224.43c-.47,0-.95,0-1.42,0-.99-.96-2.3-1.12-3.56-1.42,0,0,0,0,0,0-.03-1.18,.26-1.84,1.67-2.18,6.88-1.65,13.24,.98,19.78,2.14,.99,.18,1.42,.86,1.19,1.82-.33,1.38-1.24,.49-1.97,.48-.97-.01-1.89-1.35-2.9-.12-1.5,.25-2.84-.48-4.27-.71-1-1.19-2.36-.54-3.56-.71-.71,0-1.42,0-2.13,0-.98,.1-2.1-.33-2.85,.71Z"/>
    <path class="cls-11" d="M1238.16,262.11c1.37,2.72,3.66,1.3,5.52,1.06,3.61-.46,6.06-3.49,9.41-4.62,.01,2.42-1.34,3.7-3.56,4.26-1.55,.1-3.15,.12-3.56,2.13-.47,0-.95,0-1.42,0-2.63,.02-5.28-.24-7.82,.71-.95,0-1.9,0-2.84,0-2.51-1.24-4.71-1.03-6.4,1.42-1.49-.3-2.44,.78-3.55,1.42h0c-.22-1.67,.81-2.42,2.04-3.28,1.15-.8,2.96-1.15,2.94-3.12,3.08,.63,6.16,1.22,9.25,0Z"/>
    <path class="cls-5" d="M1226.06,261.4c-.48,0-.95,.01-1.43,.02-7.88-3.2-12.13-9.38-14.09-17.36-.25-1-.76-2.73,.82-3,1.63-.28,.97,1.47,1.26,2.36,2.11,6.45,5.23,12.14,11.65,15.3,1.16,.57,1.99,1.25,1.78,2.69Z"/>
    <path class="cls-5" d="M1292.92,229.4c-.51,.83-1.33,.69-2.12,.69-6.52-3.9-11.37-9.08-13.07-16.75-.29-1.33-1.28-3.15,.56-3.56,1.49-.33,1.55,1.64,1.82,2.9,1.36,6.2,4.62,11.02,10.31,14.06,1.13,.6,2.5,.99,2.49,2.66Z"/>
    <path class="cls-11" d="M1099.49,247.18c-6.28-.4-12.51-.96-17.78-4.98,.15-1.54,1.04-1.22,2.01-.84,4.16,1.66,8.52,1.68,12.9,1.54,1.06,2.43,2.89,.29,4.29,.73-.65,1.11,2.18,3.62-1.43,3.54Z"/>
    <path class="cls-5" d="M1142.87,182.6c.21-6.68,2.9-12.3,7.42-17.12,.9-.96,2.15-2.25,3.28-1.15,1.25,1.23-.64,1.97-1.34,2.67-4.95,4.87-7.48,10.66-6.85,17.65,.09,1.02-.12,1.73-1.04,1.9-1.4,.25-1.44-.84-1.46-1.83-.01-.71,0-1.42,0-2.13Z"/>
    <path class="cls-5" d="M1209.7,117.8c.02,1.37-1.03,2.06-1.85,2.88-4.96,4.95-8.21,10.56-6.99,17.92,.17,1-.25,1.7-1.22,1.76-1.43,.1-1.27-1.07-1.32-1.99-.34-6.94,2.04-12.92,6.47-18.16,.68-.81,1.38-1.6,2.07-2.4,.94,0,1.89,0,2.83,0Z"/>
    <path class="cls-13" d="M1282.25,149.03c.47,.01,.94,.03,1.42,.04,.17,1.22-.55,1.84-1.4,2.61-5.08,4.59-7.28,10.53-7.86,17.21-.08,.91,.64,2.55-.97,2.5-1.27-.04-1.18-1.58-1.13-2.62,.4-8.04,3.17-14.9,9.95-19.73Z"/>
    <path class="cls-13" d="M1159,195.99c2.97-.53,6.21,.56,9.41,1.81,.61,.24,1.47,.52,1.09,1.48-.29,.74-1.03,1.12-1.74,.82-4.46-1.83-9.11-2.15-13.85-2.06-.71,.01-1.49-.39-1.39-1.24,.1-.97,1.03-.77,1.69-.79,1.41-.04,2.83-.01,4.8-.01Z"/>
    <path class="cls-5" d="M1100.91,243.64c-1.4-.44-3.23,1.7-4.29-.73,3.1-2.29,7.21-1.88,10.41-3.86,1.7-1.05,3.27-2.33,6.1-1.37-3.7,3.42-7.83,4.93-12.22,5.96Z"/>
    <path class="cls-11" d="M1289.36,237.23c1.55-2.93,5.27-3.14,7.11-5.69,2.36-.36,4.69-.99,7.11-.71,.47,.95,.95,1.89,1.42,2.84-2.19,0-4.37-.02-6.56,.01-1.11,.02-2.45-.32-2.69,1.41-2.06,.93-3.36,3.06-5.69,3.56-.24-.47-.47-.95-.71-1.42Z"/>
    <path class="cls-11" d="M1199.04,278.47c.21,2.16,3.02,1.08,3.55,2.84,0,.24,0,.48,0,.71-1.5-.25-2.84,.47-4.27,.71-.54-1.3-1.63-1.49-2.84-1.42-1.13-1.08-1.28-.19-1.42,.71h0c-.47,0-.95,0-1.42,0-.14-.9-.29-1.79-1.42-.71-.47,0-.95,0-1.42,0h0v-2.14c3.11,.1,6.2,.01,9.25-.71Z"/>
    <path class="cls-11" d="M1189.8,279.18v2.13c-1.42,0-2.84,0-4.27,0-.03-.92-.5-1.4-1.42-1.42-1.18-.24-2.37-.48-3.55-.71-.52-1.76-.93-3.23,1.93-2.14,2.36,.9,4.87,1.44,7.31,2.14Z"/>
    <path class="cls-12" d="M1189.8,107.83c5.34,1.29,10.64,2.67,14.93,6.4-3.82,.3-6.29-2.81-9.61-3.85-1.8-.56-4.31-.16-5.32-2.55Z"/>
    <path class="cls-5" d="M1178.35,205.99c1.25-.11,5.05,4.17,4.76,5.47-.28,1.3-1.29,.96-1.84,.39-1.36-1.42-2.62-2.95-3.78-4.54-.61-.83,0-1.25,.86-1.32Z"/>
    <path class="cls-4" d="M1307.85,147.64c3.81,.72,7.12,2.23,9.24,5.69-1.98,.04-3.08-1.98-4.98-2.13-.24,0-.47,0-.71,0-.22-1.69-1.55-1.89-2.84-2.13-.24-.47-.47-.95-.71-1.42Z"/>
    <path class="cls-7" d="M1250.96,129.16c.11-.97,.67-1.49,1.63-1.39,2.99,.29,6.21-.05,8.33,2.82-3.29-.67-6.56-1.51-9.96-1.42Z"/>
    <path class="cls-7" d="M1232.47,116.36c2.89,1.58,6.1,2.61,8.53,4.98-3.84-.24-6.76-2.22-9.24-4.98h.71Z"/>
    <path class="cls-10" d="M1261.62,249.32c.24-.47,.47-.95,.71-1.42,1.79-1.1,3.78-.6,5.69-.71,0,.24,0,.47,0,.71-.18,1.58-.99,2.45-2.6,1.85-1.27-.47-2.53-.39-3.8-.43Z"/>
    <path class="cls-5" d="M1119.51,226.7c.93-2.26,1.61-3.92,2.39-5.82,1.73,3.26,1.37,4.24-2.39,5.82Z"/>
    <path class="cls-7" d="M1307.85,147.64c.24,.47,.47,.95,.71,1.42-2.73-.91-6.12-.37-7.82-3.55,2.59-.02,4.44,2.43,7.11,2.13Z"/>
    <path class="cls-7" d="M1312.11,151.2c1.9,.16,3,2.17,4.98,2.13,.24,.24,.47,.47,.71,.71v.71c-2.63,0-4.97-.48-5.69-3.56Z"/>
    <path class="cls-12" d="M1209.7,117.8c-.94,0-1.89,0-2.83,0,.04-1.64-2.4-1.8-2.14-3.58,1.9,.52,3.45,1.66,4.98,2.84,0,.24,0,.49,0,.73Z"/>
    <path class="cls-7" d="M1326.34,159.73c1.86-1.15,3.58-1.32,4.98,.71-1.65-.28-3.48,.66-4.98-.71Z"/>
    <path class="cls-12" d="M1211.13,117.07c1.34-1.46,3.23-1.63,4.98-2.13-1.16,1.88-2.77,2.7-4.98,2.13Z"/>
    <path class="cls-7" d="M1341.27,163.99c1.46,.25,2.8,.7,3.56,2.13-2.2,.98-2.8-.71-3.56-2.13Z"/>
    <path class="cls-12" d="M1232.47,116.36h-.71c-1.65-.26-3.57,.02-4.27-2.13,1.75,.51,3.64,.67,4.98,2.13Z"/>
    <path class="cls-4" d="M1323.49,160.45c-.78-.03-1.62,.11-2.14-.71,0-.48,0-.96,0-1.44,1.03-.01,2.07-.02,2.13,1.42,0,.24,0,.48,0,.72Z"/>
    <path class="cls-7" d="M1308.56,149.06c1.3,.25,2.63,.45,2.84,2.13-1.3-.25-2.63-.45-2.84-2.13Z"/>
    <path class="cls-4" d="M1317.8,154.75v-.71c.92,.02,1.4,.5,1.42,1.42-.59-.01-1.12-.14-1.42-.71Z"/>
    <path class="cls-4" d="M1319.94,156.17c.92,.02,1.4,.5,1.42,1.42-.92-.02-1.4-.5-1.42-1.42Z"/>
    <path class="cls-12" d="M1186.95,107.12c.59,.01,1.12,.14,1.42,.71-1.13,1.08-1.28,.19-1.42-.71Z"/>
    <path class="cls-11" d="M1261.62,249.32c1.28,.04,2.54-.05,3.8,.43,1.61,.6,2.42-.26,2.6-1.85,8.85-.08,15.44-4.68,21.33-10.67,.24,.47,.47,.95,.71,1.42-4.23,4.85-8.78,9.17-15.38,10.72-3.16,.74-6.27,1.69-9.51,2.08-2.71-1.46-4.35-.06-5.69,2.13-1.56,1.33-2.36,3.71-4.98,3.56,1.58-3.33,3.78-6.09,7.11-7.82Z"/>
    <path class="cls-11" d="M1204.73,281.31c.04-1.17,.9-1.77,1.8-1.87,6.34-.69,9.85-5.81,14.51-9.13,.93-.66,1.54-1.82,2.89-1.8h0c0,.48,0,.95,0,1.42-4.57,4.46-8.97,9.11-15.37,11.06-1.3,.4-2.56,.21-3.84,.31Z"/>
    <path class="cls-11" d="M1307.13,233.67c.06-.22,.06-.6,.19-.65,3.72-1.46,7.46-2.89,11.19-4.32h0v1.42c-2.33,2.45-5.95,2.33-8.53,4.26-.75-1.04-1.86-.61-2.85-.71Z"/>
    <path class="cls-3" d="M1307.13,233.67c.98,.1,2.1-.33,2.85,.71-4.67,1.62-9.49,.27-14.22,.71,.23-1.73,1.58-1.4,2.69-1.41,2.19-.03,4.37,0,6.56-.01,.71,0,1.42,0,2.13,0Z"/>
    <path class="cls-11" d="M1318.51,228.7c1.31-3.11,3.87-5.1,6.4-7.11,1.27,1.82-.48,2.66-1.29,3.74-.9,1.19-1.98,2.25-2.98,3.37-.71,0-1.42,0-2.13,0h0Z"/>
    <path class="cls-11" d="M1324.92,220.17c.76-1.96,.82-4.43,3.55-4.98,0,.71,0,1.42,0,2.13-.63,1.64-1.71,2.71-3.55,2.85Z"/>
    <path class="cls-3" d="M1236.73,265.67c2.54-.95,5.2-.7,7.82-.71-2.07,1.71-6.22,2.08-7.82,.71Z"/>
    <path class="cls-7" d="M1227.49,267.09c1.69-2.46,3.89-2.66,6.4-1.42-1.94,1.36-4.4,.34-6.4,1.42Z"/>
    <path class="cls-3" d="M1259.49,253.58c1.34-2.2,2.98-3.6,5.69-2.13-1.9,.71-3.79,1.42-5.69,2.13Z"/>
    <path class="cls-7" d="M1195.49,281.31c1.22-.07,2.31,.13,2.84,1.42-1.59,.78-3.22,1.78-4.27-.71,0,0,0,0,0,0,.59-.01,1.12-.14,1.42-.71Z"/>
    <path class="cls-3" d="M1328.47,217.32c0-.71,0-1.42,0-2.13,1.03,0,1.74-.48,2.13-1.42,.24,0,.47,0,.71,0,.24,0,.48,0,.71,0-.52,1.85-2.31,2.43-3.56,3.55Z"/>
    <path class="cls-7" d="M1223.93,269.94c0-.47,0-.95,0-1.42,1.12-.64,2.06-1.72,3.55-1.42-.88,1.32-1.75,2.67-3.55,2.85Z"/>
    <path class="cls-7" d="M1053.97,223.72c1.2,.17,2.56-.48,3.56,.71-1.42,.94-2.77,1.51-3.56-.71Z"/>
    <path class="cls-7" d="M1150.69,262.82c1.19-1.06,2.37-1.06,3.56,0-1.19,1.06-2.37,1.06-3.56,0Z"/>
    <path class="cls-3" d="M1245.98,264.96c.4-2.02,2-2.03,3.56-2.13-.75,1.43-2.09,1.89-3.56,2.13Z"/>
    <path class="cls-7" d="M1044.02,223.01c1.25,.3,2.57,.46,3.56,1.42-1.65,.69-2.91,.4-3.56-1.42Z"/>
    <path class="cls-7" d="M1049,224.43c.75-1.04,1.86-.61,2.85-.71-.51,2.01-1.59,1.69-2.85,.71Z"/>
    <path class="cls-7" d="M1157.8,262.83c.78,.02,1.62-.13,2.13,.71-1.18,1.17-1.85,.8-2.13-.71Z"/>
    <path class="cls-7" d="M1127.22,264.96c.78,.02,1.62-.13,2.13,.71-1.18,1.17-1.85,.8-2.13-.71Z"/>
    <path class="cls-7" d="M1138.6,265.67c.51-.84,1.35-.69,2.13-.71-.29,1.51-.96,1.87-2.13,.71Z"/>
    <path class="cls-7" d="M1202.6,282.02c0-.24,0-.48,0-.71,.71,0,1.42,0,2.14,0-.29,1.51-.95,1.88-2.13,.71Z"/>
    <path class="cls-3" d="M1318.51,228.7c.71,0,1.42,0,2.13,0-.4,.95-1.11,1.42-2.13,1.42v-1.42Z"/>
    <path class="cls-7" d="M1121.53,263.54c.59,.01,1.12,.14,1.42,.71-1.13,1.08-1.28,.19-1.42-.71Z"/>
    <path class="cls-11" d="M1332.03,213.77c-.24,0-.48,0-.71,0,.1-.52,.1-1.22,.87-1.06,.25,.05,.38,.69,.56,1.06-.24,0-.47,0-.71,0Z"/>
    <path class="cls-11" d="M1191.22,281.31c1.13-1.08,1.28-.19,1.42,.71-.47,0-.95,0-1.42,0,0-.24,0-.47,0-.71Z"/>
    <path class="cls-7" d="M1191.22,281.31c0,.24,0,.47,0,.71-1.13,1.08-1.28,.19-1.42-.71,.47,0,.95,0,1.42,0Z"/>
    <path class="cls-7" d="M1184.11,279.89c.92,.02,1.4,.5,1.42,1.42-.92-.02-1.4-.5-1.42-1.42Z"/>
    <path class="cls-7" d="M1323.49,160.45c0-.24,0-.48,0-.72,.25,0,.5,.02,.75,.03-.25,.23-.5,.46-.75,.69Z"/>
    <path class="cls-11" d="M1330.6,213.76c-.4,.94-1.11,1.42-2.13,1.42,.07-1.44,1.1-1.43,2.13-1.42Z"/>
    <path class="cls-11" d="M1195.49,281.31c-.31,.57-.84,.7-1.42,.71,.14-.9,.29-1.79,1.42-.71Z"/>
  </g>
  <rect class="cls-6" x="1426.06" y="778.91" width="22" height="36"/>
  <rect class="cls-6" x="8.06" y="777.91" width="23" height="37"/>
</svg>