<?xml version="1.0" encoding="UTF-8"?>
<svg id="Layer_1" data-name="Layer 1" xmlns="http://www.w3.org/2000/svg" viewBox="0 0 1448 419.43">
  <defs>
    <style>
      .cls-1 {
        fill: #3d2d33;
      }

      .cls-2 {
        fill: #9cdd91;
      }

      .cls-3 {
        fill: #48a356;
      }

      .cls-4 {
        fill: #734a4a;
      }

      .cls-5 {
        fill: #87e577;
      }

      .cls-6 {
        fill: #d3ca63;
      }

      .cls-7 {
        fill: #98c177;
      }
    </style>
  </defs>
  <g>
    <path class="cls-2" d="M889.5,316.73C628.5,317.73,351.5-55.01,0,63.99L8,321.23c288.67-2.17,1090.3-5.3,881.5-4.5Z"/>
    <path class="cls-5" d="M881.5,316.73c208.8-.8-592.83,2.33-881.5,4.5V67.49c71.04-21.28,82.42-14.07,135.22,2.22l139.28,2.28c212.74,69.54,426.53,245.44,607,244.74Z"/>
    <path class="cls-3" d="M1424.33,117.34c-1.23,1.24,1.26,5.35,2.67,7.25l13.56-1.55,1.43-3.53c.47-1.07,1.25-3.39,.55-4.09-.69-.69-1.61-.29-1.98,0,.85-.74,2.68-2.53,3.22-3.72,.68-1.49-.37-2.97-1.24-3.84-.69-.69-1.61-.29-1.98,0,.48-.76,1.43-2.8,1.43-4.83s-1.82-2.7-2.73-2.79c-.52,.21-1.4,.12-.8-1.86,.74-2.48-1.49-4.34-3.66-5.26-1.73-.74-2.87,1.84-3.22,3.22,.39,2.04,.81,5.76-.68,4.27-1.86-1.86-4.15-1.73-5.08-.81-.74,.74-.31,2.46,0,3.22,.85,1.82,2.27,5.18,1.18,4.09s-1.86-.45-2.11,0c-.18,.62-.56,2.23-.56,3.72s2.44,4.5,3.66,5.82c-.7-.29-2.42-.56-3.66,.68h0Z"/>
    <path class="cls-6" d="M1434.4,102.53c-.34,0-.51,4.42-.55,6.63-.13-.15-.37-.52-.37-.87s-.09-.81-.13-.99l-1.11-1.67-1.49-1.73,1.49,2.6c.22,.27,.68,.94,.68,1.49s.62,1.38,.93,1.73v4.09c-.23-.54-.78-1.77-1.18-2.42-.49-.81-1.18-1.98-1.42-2.23-.25-.25-.69-2.48-.69-2.91,0-.35-.24-.14-.37,0v1.73c0,.3,.37,1.49,.56,2.04,.56,1.16,1.77,3.72,2.17,4.71,.39,.99,.16,2.23,0,2.72l-.25-.62-.87-1.67c-.18-.35-.55-1.18-.55-1.67s-.99-1.9-1.49-2.54l-.56-.5,.99,1.86c.19,.35,.56,1.25,.56,2.04s.7,2.11,1.05,2.66l.44,1.05v1.55c-.17-.21-.6-.72-.99-1.11l-1.49-1.49-1.98-2.66c.22,.56,.74,1.78,.99,2.23s.64,1.05,.8,1.3c.52,.64,1.63,1.99,1.92,2.29,.3,.3,.46,1.44,.5,1.98l-.5-.62c-.12-.21-.48-.66-.93-.81-.44-.15-1.38-.81-1.79-1.12l-1.18-1.11,.44,1.11c.61,.76,1.99,2.29,2.53,2.29s1.64,1.36,2.11,2.04c.58-.02,1.73-.15,1.73-.5s.54-1.42,.81-1.92c.52-1.03,1.72-3.21,2.42-3.65,.69-.45,1.94-1.84,2.47-2.48l1.43-3.53c-.7,1.07-2.22,3.33-2.67,3.78-.55,.56-.86,.56-1.48,1.18-.5,.5-1.2,1.65-1.49,2.17l-1.11,1.73c.06-1.3,.23-3.95,.43-4.15,.25-.25,3.16-4.96,3.41-5.2,.19-.2,.49-1.57,.62-2.23l-.38,.56-.68,1.24c-.51,.89-1.64,2.76-2.04,3.16s-1.07,1.57-1.36,2.11l.18-.81,.25-1.3c.12-.19,.43-.81,.68-1.8,.25-.99,1.76-4.87,2.48-6.69-.33,.54-1.14,1.76-1.74,2.35-.59,.59-1.73,3.47-2.23,4.83,0-1.51,.08-4.52,.38-4.52s1.36-2.93,1.85-4.4c.54-.45,1.44-1.36,.75-1.36s-2.27,3.38-2.98,5.08c.15-1.69,.35-5.08,0-5.08v.03Z"/>
    <path class="cls-2" d="M998,316.99c132-2,355.5-266,450-193.5v193.5c-194,.67-555.6,1.6-450,0Z"/>
    <path class="cls-7" d="M1443.4,12.79c2.45-2.54,3.5-1.06,3.72,0l-.55,78.72-4.92,2.41c-.32,.26-1.33,1.31-2.73,3.5-1.75,2.73-3.5,3.61-5.68,3.94-2.19,.33-6.67-3.94-8.64-5.36s-4.59-8.2-4.59-10.82,0-4.81,.65-7.76c.66-2.95,7.66-7.76,5.25-7.11-2.4,.66-5.25-3.39-5.9-3.94-.66-.55-.44-4.7,0-6.45,.43-1.75,2.84-4.81,4.59-5.25s-3.94-2.08-7.65-2.62c-3.72-.55-4.71-6.23-4.92-7.87-.22-1.64,.98-5.58,1.75-7.87,.76-2.3,3.38-4.92,4.7-6.56,1.05-1.31,5.39-.55,7.43,0-1.46-2.15-4.55-6.67-5.25-7.54-.87-1.09-2.62-4.05-3.5-6.23-.87-2.19-1.64-6.67-.98-9.84s3.06-3.5,5.36-5.25c2.29-1.75,6.45-.44,9.29,0,2.27,.35,5.76,5.76,7.22,8.42,.76,2.22,2.9,6.03,5.35,3.5v-.02Z"/>
    <path class="cls-1" d="M1432.77,65.05c.77,2.84,4.38,5.58,8.75,9.73,1.13,1.07,0,5.79,.76,12.57v41.87l3.94,.76-1.31-46.68c-.77-7.4-2.08-22.19-1.2-22.19,1.09,0,1.85-1.09,2.29-2.3,.35-.96-.58-1.64-1.09-1.86-.55,.4-1.77,1.14-2.3,.87-.65-.33-2.29-15.52-2.29-16.62,0-.87-.88-1.24-1.32-1.31,.62,9.69,1.86,29.23,1.86,29.85s-.36,.77-.54,.77c-1.06-.66-3.52-2.43-4.92-4.26-1.75-2.3-3.39-4.05-2.63-1.2h0Z"/>
  </g>
  <path class="cls-4" d="M0,317.87H1448v101.56H0v-101.56Z"/>
</svg>