<?xml version="1.0" encoding="UTF-8"?>
<svg id="Layer_1" data-name="Layer 1" xmlns="http://www.w3.org/2000/svg" viewBox="0 0 1448 421.29">
  <defs>
    <style>
      .cls-1 {
        fill: #ff4a4a;
        opacity: 0;
      }

      .cls-2 {
        fill: #ffe658;
      }

      .cls-3 {
        fill: #ffbe3b;
      }
    </style>
  </defs>
  <g>
    <path class="cls-3" d="M832.5,318.47c-6.62-2.93-22.65-10.6-21.12-17.63,1.92-8.78,23.71-20.7,23.71-31.37s-5.13-23.84-3.84-30.74c1.28-6.9,8.97-11.92,17.3-12.55,8.33-.63,17.3-5.02,20.5-11.29,3.2-6.27,3.84-16.94,7.69-23.21,3.84-6.27,12.17-7.53,17.3-5.65,5.13,1.88,10.89,5.02,18.58,3.76,7.69-1.25,19.86-13.8,25.63-16.94,5.77-3.14,8.97-5.02,12.17-4.39,2.56,.5,5.34,3.14,6.41,4.39,2.78,5.65,10.51,16.94,19.22,16.94,10.89,0,31.39-6.27,35.24-3.76,3.85,2.51,10.25,6.9,10.9,15.68,.64,8.78,6.41,19.45,10.25,21.33,3.85,1.88,21.78,4.39,26.27,9.41,3.59,4.02,4.3,8.84,4.44,9.96,.03-.01,.04,.01,.04,.08,0,.25,0,.2-.04-.08-.41,.24-4.44,12.89-4.44,17.64,0,5.02,.64,16.31,4.48,18.82,3.85,2.51,16.02,13.8,16.66,16.94s1.29,9.41-3.21,13.17c-4.48,3.76-8.97,7.53-13.45,12.55-.77,.86-21.32,4.73-23.35,10.57l.37,15.38c1.13,7.35,2.47,16.07,.64,25.56-2.97,1.91-53.61-3.12-59.68,3.9l-.06,.07c-2.15,2.49-24.41,28.25-42.42,33.07-8.52,1.73-24.75-14.51-42.13-33.14-10.22-10.95-54.39,5.54-64.07-3.9-11.03-10.75,12.71-46.75,6.07-46.79l-6.07-7.8Z"/>
    <ellipse class="cls-2" cx="945.31" cy="286.41" rx="83.94" ry="77.16"/>
  </g>
  <rect class="cls-1" x="1432.58" y="173.33" width="15.42" height="59"/>
  <rect class="cls-1" y="386.33" width="47" height="34.96"/>
</svg>