<?xml version="1.0" encoding="UTF-8"?>
<svg id="Layer_1" data-name="Layer 1" xmlns="http://www.w3.org/2000/svg" xmlns:xlink="http://www.w3.org/1999/xlink" viewBox="0 0 1441.08 530.45">
  <defs>
    <style>
      .cls-1 {
        fill: #efefee;
      }

      .cls-2 {
        fill: url(#linear-gradient-2);
      }

      .cls-3 {
        fill: #f7f1ef;
      }

      .cls-4 {
        fill: #f8b39b;
      }

      .cls-5 {
        fill: #37d53d;
      }

      .cls-6 {
        fill: #efaa20;
      }

      .cls-7 {
        fill: #734a4a;
      }

      .cls-8 {
        fill: #1d1b19;
      }

      .cls-9 {
        fill: #e93731;
      }

      .cls-10 {
        fill: #fec63a;
      }

      .cls-11 {
        fill: #fbfaf9;
      }

      .cls-12 {
        fill: #888887;
      }

      .cls-13 {
        fill: #edf1f7;
      }

      .cls-14 {
        fill: #f27064;
      }

      .cls-15 {
        fill: #b9458d;
      }

      .cls-16 {
        fill: #8db090;
      }

      .cls-17 {
        fill: #fcbf13;
      }

      .cls-18 {
        fill: #98c9ec;
      }

      .cls-19 {
        fill: #5fb148;
      }

      .cls-20 {
        fill: #fcbf1f;
      }

      .cls-21 {
        fill: #f58776;
      }

      .cls-22 {
        fill: #e58030;
      }

      .cls-23 {
        fill: #5bae47;
      }

      .cls-24 {
        fill: #4aa570;
        stroke: #4aa570;
      }

      .cls-25 {
        fill: #5fa446;
      }

      .cls-26 {
        fill: #5dae48;
      }

      .cls-27 {
        fill: #eceee9;
      }

      .cls-28 {
        fill: #969696;
      }

      .cls-29 {
        fill: #f1f0f0;
      }

      .cls-30 {
        fill: #7c7c7b;
      }

      .cls-31 {
        fill: #f0f0ee;
      }

      .cls-32 {
        fill: #e57926;
      }

      .cls-33 {
        fill: #fbbb16;
      }

      .cls-34 {
        fill: #3a8247;
      }

      .cls-35 {
        fill: #245581;
      }

      .cls-36 {
        fill: #c3dcf2;
      }

      .cls-37 {
        fill: #1b5286;
      }

      .cls-38 {
        fill: #2d2b2a;
      }

      .cls-39 {
        fill: #258041;
      }

      .cls-40 {
        fill: #e7685c;
      }

      .cls-41 {
        fill: #e67e25;
      }

      .cls-42 {
        fill: #ec9424;
      }

      .cls-43 {
        fill: #818180;
      }

      .cls-44 {
        fill: #4e7f3e;
      }

      .cls-45 {
        mask: url(#mask);
      }

      .cls-46 {
        fill: #1e8340;
      }

      .cls-47 {
        fill: url(#linear-gradient);
      }

      .cls-48 {
        fill: #cad55d;
        stroke: #cad55d;
      }

      .cls-49 {
        fill: #d7e5c9;
      }

      .cls-50 {
        fill: #e366a6;
      }

      .cls-51 {
        fill: #261e1c;
      }

      .cls-52 {
        fill: #ef4c49;
      }
    </style>
    <linearGradient id="linear-gradient" x1="212.6" y1="-201.82" x2="212.6" y2="46.98" gradientTransform="translate(0 282.61) scale(1 -1)" gradientUnits="userSpaceOnUse">
      <stop offset="0" stop-color="#c27f48"/>
      <stop offset="1" stop-color="#a96b3c"/>
    </linearGradient>
    <linearGradient id="linear-gradient-2" x1="212.6" y1="-1.17" x2="212.6" y2="282.61" gradientTransform="translate(0 282.61) scale(1 -1)" gradientUnits="userSpaceOnUse">
      <stop offset="0" stop-color="#51942d"/>
      <stop offset="1" stop-color="#89e03b"/>
    </linearGradient>
    <mask id="mask" y="429.4" width="1440.69" height="101.05" maskUnits="userSpaceOnUse"/>
  </defs>
  <g>
    <path class="cls-24" d="M259.03,403.34c-2.45,3.14-1.54,21.56-.77,30.37l45.92-.67c.28-1.89,2.54-8.86,9.36-21.65,8.53-15.99,.88-7.96-5.65-20.07-6.53-12.11-13.93-12.02-13.51-7.04,.42,4.98,2.19,19.66-1.07,21.42-2.61,1.41-8.9-9.09-11.71-14.52-5.19-5.02-15.39-13.9-14.73-9.31,.83,5.74,7.7,28.08,7.39,34.11-.31,6.03-12.16-16.55-15.23-12.63Z"/>
    <path class="cls-48" d="M316.08,413.46c-7.12,3.89-9.56,8.05-9.89,9.64l-.87,4.19c-.22,1.05,.88,2.84,1.25,3.69,.3,.69,.16,1.86,.06,2.35,.44,.25,2.38,.53,6.67-.33,4.29-.85,14.09-.18,18.46,.26,1.61-5.65,4.68-17.51,4.12-19.75-.7-2.8-4.14-4.77-6.28-5.06-2.14-.29-4.61,.13-13.51,4.99Z"/>
    <path class="cls-47" d="M281.44,478.17c-8.18-1.51-16.35-3-24.54-4.5-9.94-4.03-19.89-8.06-31.27-12.67,2.44,8.49,1.05,16.01-1.21,23.43-4.2-.57-4.91-5.12-7.35-7.69-6.05-6.36-12.28-12.29-20.3-15.66h-.01c-2.45-2.76-5.01-1.84-7.58-.22-7.93,4.97-16.52,8.3-25,11.96-9.02,1.02-17.92,4.28-28.04,1.7,5.58-6.48,10.66-12.37,15.74-18.27,10.29-11.85,15.58-26.51,20.3-41.5,1.22-8.88,4.37-17.4,4.32-26.52,2.16-10.92,3.31-21.97,3.33-33.14,.46-1.67,.94-3.36,1.41-5.03,.5-9.39,1.01-18.76,1.53-28.15,2.02-11.23,1.09-22.26-1.77-33.18-1.89-11.24-6.96-20.14-16.44-25.79-3.22-3.34-7.64-3.18-11.52-4.57,.17-.5,.35-.98,.57-1.44,.22-.46,.45-.9,.72-1.31,.35-.57,.73-1.1,1.13-1.63,2.21-2.86,5.09-5.22,6.64-8.79,1.19-2.75,5.5-1.91,7.54,.32,11.09,12.04,22.76,8.37,34.66,2,3.67,6.28,9.89,9.91,14.18,15.59,1.59,2.1,3.16,.47,4.32-1.13,1.54-2.15,3.04-4.32,4.56-6.49,7.69-6.61,15.38-13.24,23.07-19.85,2.07,.1,4.15,.19,6.22,.28,1.32,1.64,3.04,1.41,4.77,1.17,.98,.15,1.97,.3,2.94,.46,1.28,5.62,6.29,8.85,7.91,14.26-6.44,4.24-12.5,8.88-15.61,16.71-4.56,5.94-7.27,12.78-8.72,20.25-3.44,10.73-4.53,21.79-3.94,33.08-.28,4.18-.55,8.37-.83,12.56,.21,.76,.41,1.53,.62,2.29,.21,3.91,.42,7.81,.64,11.72,.54,3.8,1.08,7.59,1.62,11.39,2.44,17.34,3.67,34.93,9.28,51.61,.22,1.15,.44,2.29,.66,3.44-.22,.47-.4,.97-.51,1.49,.41,.07,.81,.21,1.18,.4,.03,1.74,.03,3.49,1.37,4.79,2.8,12.37,8.22,23.29,15.81,33.01,3.65,6.9,8.16,13.06,13.84,18.18,5.1,11.25-5.24,2.17-6.21,5.44Z"/>
    <path class="cls-2" d="M413.2,157.53l-2.56,35.84c-.12,.79-.54,1.24,0,0-1.5,9.83-4.28,19.07-10.89,26.47-2.94,6.05-9.64,7.19-13.54,11.97-1.31,.59-2.62,1.19-3.93,1.77-5.88,.3-10.91,1.62-11.18,9.64-.05,1.37-1.46,2.69-2.24,4.03-.69,2.24-2.48,4.31-4.12,4.38-8.8,.35-8.4,7.28-9.03,13.61-1.44,2.15-2.88,4.31-4.32,6.45-9.13,7.32-19.94,9.68-30.76,12.05-10.82,.41-21.04-1.99-30.59-7.52-5.23-4.87-10.44-9.75-15.67-14.62-1.62-5.41-6.63-8.64-7.91-14.26-.98-.15-1.96-.3-2.94-.46-.87-3.75-2.49-3.98-4.77-1.17-2.07-.08-4.15-.18-6.22-.28-6.01-3.18-11.04-7.65-15.2-13.28-.93-4.28-1.85-8.56-2.78-12.84-.55-2.13-1.53-2.49-2.97-.81-4.56,8.82-6.8,19.05-13.9,26.31-2.57,5.43-6.96,8.93-11.29,12.51-11.9,6.37-23.57,10.04-34.66-2-2.04-2.22-6.35-3.06-7.54-.32-1.55,3.58-4.43,5.94-6.64,8.79-.41,.53-.78,1.06-1.13,1.63-.53,.84-.96,1.75-1.3,2.75-6.42,3.27-12.22,8.16-19.68,8.74-5.52-1.17-11-2.89-14.85-7.41-3.43-4.05-6.36-4.24-10.16-.97-1.73,1.5-3.89,2.44-5.86,3.64-10.32,3.91-20.58,4.23-30.78-.47-3.11-2.65-6.23-5.29-9.34-7.94-1.46-3.82-5.52-6.39-4.74-11.29-.23-.63-.46-1.28-.68-1.92-.99-3.34-.95-6.7-.24-10.08-.44-1.23,.23-3.04-1.61-3.53-.82-.76-1.66-.73-2.49-.03-3.94-.4-7.88-.8-11.81-1.21-3.96-1.24-7.9-2.49-11.86-3.73-4.11-3.49-9.34-5.63-11.73-11.2-3.94-2.86-3.11-9.14-7.3-11.82v-41.46c1.5-.55,3.01-1.12,4.51-1.67,3.94-15.78,12.58-26.88,27.44-31.75,8.25-4.02,17-3.59,25.67-3.07,4.88,.3,6.98-.59,4.45-6.17-1.46-3.2-2.58-6.61-2.22-10.33-2.47-4.69-.86-10.02-2-14.91,.4-2.26,.81-4.53,1.21-6.79,.27-.66,.53-1.33,.8-1.97l-.14-.04h-.04c-.14-2.17,.26-4.16,.85-6.12,.1-.35,.21-.7,.33-1.05,.13-.41,.27-.81,.41-1.23,.71-2.03,1.48-4.03,1.89-6.14,1.62-3.23,3.24-6.46,4.86-9.71,.42-.11,.86-.21,1.28-.26,4.91-10.4,13.39-15.64,23.33-18.8,4.61-.37,9.21-.88,13.76,.5,4.36,1.32,7.52,.65,8.08-5.19,.23-2.43,1.25-4.76,1.9-7.15,2.71-3.93,3.74-8.99,7.25-12.37-.05-.51-.08-1.02-.12-1.53,8.39-9.11,17.87-16.25,29.74-19.09,1.27-.3,2.35-1.06,2.62-2.62h35.49c7.99,4.79,17.24,6.81,24.65,12.88,2.81,3.29,6.33,5.92,8.16,10.12,3.57,2.46,4.38,7.17,7.25,10.19,2.7,7.97,5.4,15.92,8.25,24.35,3.1-2.86,5.31-6.09,7.22-9.58,2.48-2.21,4.95-4.43,7.42-6.64,2.16-2.21,4.32-4.4,6.48-6.61,5.65-2.33,11.29-4.68,16.95-7.01,10.44-2.13,20.48,.65,30.56,2.98,2.12,.86,4.25,1.7,6.38,2.55,3.11,4.63,9.53,3.41,12.55,8.2,3.98,3.04,7.96,6.07,11.93,9.13,1.27,2.06,2.8,3.92,4.34,5.76,2.57,3.08,5.16,6.13,6.68,10.05,.4,.08,.81,.15,1.22,.22,2.93,8.02,8.43,14.95,8.75,24.06-.37,.12-.74,.25-1.1,.37,.35-.11,.71-.22,1.07-.35l-.06,.06-.1,.07c.3,.68,.59,1.35,.9,2.03,.37,2.24,.74,4.47,1.13,6.72-.93,5.62-.89,11.51-4,16.54,3.17,4.29,8.09,3.78,12.31,5.19,5.72,3.78,11.42,7.58,17.12,11.36,.55,1.09,1.1,2.17,1.64,3.26,7.04,5.27,7.17,15.04,12.15,21.63h0Z"/>
    <path class="cls-16" d="M1318.89,455.31c-3.28-32.58-2.82-35.76-1.84-44.03,.98-8.27,5.15-16.5,10.5-17.72,5.35-1.22,13.24-3.03,17.71,2.47,4.47,5.49,10.92,12.83,12.42,13.26,1.2,.34,1.02-9.43,.78-14.35l-1.85-14.52c-.65-5.06,2.53-13.48,4.2-17.05,2.64-5.84,9.97-17.83,18.15-19.09,10.24-1.57,11.36-1.83,16.38-1.06,4.02,.61,13.52,11.34,17.77,16.63,1.48,4.77,4.57,15.43,5.15,19.9,.66,5.22,1.19,27.24,.22,31.24,1.05-1.42,3.75-4.22,6.25-3.22,3.66,1.46,9.35,2.84,11,8.98,1.32,4.91,2.91,13,3.54,16.43l.9,7.07c-21.82,4.73-65.92,14.14-67.79,13.96-2.35-.23-10.86-3.27-13.39-2.69-2.53,.58-6.57-1.56-9.68-.85-2.48,.57-21.32,3.34-30.43,4.65Z"/>
    <path class="cls-44" d="M1383.55,436.9c5.6,7.2,35.69,7.67,50.02,7h7.5l-2-79.04-4.5,12.01c-1.17,5-4,13.81-6,9-2.5-6-8-15.51-12.51-17.51-3.6-1.6-12.84-8-17.01-11.01,2.33,3.83,8.4,12.81,14.01,18.01,5.6,5.2,7.33,24.18,7.5,33.02-3-2.17-11.51-7.6-21.51-12.01-12.51-5.5-23.01,5-26.51,12.01-3.5,7,4,19.51,11.01,28.51Z"/>
    <path class="cls-7" d="M0,429.4H1440.69v101.05H0v-101.05Z"/>
    <g class="cls-45">
      <path class="cls-5" d="M0,434.4H1440.69v-10H0v10Z"/>
    </g>
  </g>
  <g>
    <path class="cls-17" d="M1154.77,331.13c.88,20.82,1.75,41.64,2.64,62.45,.31,7.1,.55,14.22,1.08,21.31,.28,3.79-2.4,2.66-4.26,3.03-5.74-.19-11.48-.39-17.22-.58-.24-26.36,.78-52.69,1.93-79.01,.18-4.08-1.62-9.29,7.03-8.83-7.58-2.76-9.41-1.73-9.84,4.14-.45,6.04,.81,12.18-1.05,18.14-1.64,2.19-1.55,4.65-1.1,7.16-3.31,2.47-1.95,6.35-2.59,9.5-3.04,15.12-5.69,30.32-8.23,45.54-.53,3.17-2.05,4.16-4.86,4.15-5.99-1.47-12.1-.11-18.12-.82,.18-1.3,.21-2.64,.56-3.89,6.11-22.01,12.2-44.02,18.43-65.99,1.84-6.5,2.45-13.58,8.77-18.09,1.78-1.27,2.06-4.03,2.18-6.38,6.61,0,13.23,0,19.84,0,.55,3.34,1.05,6.7,4.79,8.17Z"/>
    <polygon class="cls-31" points="1237.9 403.78 1234.96 422.48 1184.38 419.87 1181.66 400.52 1237.9 403.78"/>
    <polygon class="cls-31" points="1245.31 338.17 1243.83 353.08 1175.74 351.78 1173.78 339.83 1245.31 338.17"/>
    <path class="cls-23" d="M1149.97,322.96c-6.61,0-13.23,0-19.84,0-.94,.02-1.89,.03-2.83,.05-2.02-.02-4.03-.05-6.05-.07-4.95,.37-6.16-1.93-5.02-6.49,.62-2.47,1.36-5.06,.75-7.97-3.73,3-3.09,6.99-2.9,10.66,.3,5.74-1.37,10.39-6.24,13.67-3.17,.93-6.35,1.14-9.56,.19-8.07-6.5-8.99-17.34-1.92-25.71,3.83-4.54,8.04-8.74,12.08-13.1,2.31,0,3.27-1.98,4.65-3.28,4.34-4.13,8.01-9,13.41-11.94,2.56-.02,5.12-.05,7.67-.07,2.39,.37,4.79,.55,7.17-.06,2.48,.09,4.95,.18,7.43,.27,3.8,1.62,4.67,4.89,5.16,8.59,1.54,11.68,3.26,23.33,4.91,35-1.67-.03-3.36-.36-4.95,.41-1.31-.05-2.61-.09-3.92-.14Zm-7.49-17.77c-2.47,0-4.94,.02-7.41,0-1.66-.02-2.68,.42-3.13,2.32-1.1,4.61-3.4,8.2-8.71,8.78-.97,.11-2.08,.76-1.59,1.96,.44,1.09,1.66,.81,2.61,.62,3.8-.77,7.13-2.97,8.35-6.32,1.56-4.29,4.16-4.88,7.89-4.44,2.91,.34,6.36-1.14,8.63,.72,2.05,1.68,.52,4.98,.84,7.55,.12,.97,0,2.19,1.35,2.19,.86,0,1.24-.92,1.49-1.75,2.42-7.9-.25-11.63-8.33-11.63-.66,0-1.32,0-1.98,0Zm-9.68-18.56c.17-1.15-.04-1.8-.71-2.06-.95-.36-1.51,.15-1.88,1.03-2.9,6.75-7.92,12.08-11.98,18.06-.64,.95-1.72,2.11-.45,2.97,1.24,.84,2.06-.62,2.68-1.49,3.64-5.09,7.25-10.2,10.8-15.36,.73-1.07,1.16-2.35,1.54-3.16Z"/>
    <path class="cls-1" d="M1182.71,408.24c-1.58-12.13-3.55-24.23-4.6-36.4-.66-7.66-2.7-15.17-2.35-22.92,22.85,0,45.7,0,68.55,0-1.16,9.9-2.32,19.8-3.48,29.7-1.16,9.9-2.31,19.8-3.47,29.69-18.22-.02-36.44-.04-54.66-.06Zm9.89-34.81c-2.25,.47-4.49,.95-7.32,1.55,2.35,1.94,2.37,3.68,.79,5.88-1.54,2.14-1.2,4.67,.18,6.99,1.34,2.27,2.6,4.58,3.93,6.86,3.17,5.45,15.27,8.44,21.03,5.18,.07-.04-.14-.57-.22-.87,.25-.24,.5-.47,.75-.71,2.8,.73,3.6,8.49,8.35,2.38,6.78,1.11,8.55-4.25,11.09-8.6,4.63-7.94,2.31-17.59-5.56-23.22-.29-.21-.58-.42-.88-.63,.57-2.02,1.14-4.04,1.88-6.68-2.68,.92-4.25,.1-5.26-2.11-.77-1.71-2.31-2.71-4.13-3.26-9.57-2.87-17.22,0-21.99,8.71-1.17,2.13-4.2,3.8-2.64,7.02,0,.5,0,1,0,1.51Z"/>
    <path class="cls-29" d="M1205.94,328.69c9.51,.1,19.02,.21,28.54,.29,7.46,.06,10.62,3.19,10.84,10.78-23.84,.03-47.69,.05-71.53,.08,2.66-9.5,4.43-10.85,14.21-10.86,1.95,0,3.91-.05,5.86-.07,4.03-.07,8.06-.14,12.1-.22Z"/>
    <path class="cls-1" d="M1236.39,416.79c-.31,.94-.75,1.85-.91,2.81q-1.49,8.69-10.49,8.69c-10.9,0-21.79,0-32.69,0-6.72,0-6.87-.17-7.61-6.64-.19-1.62-.64-3.21-.98-4.81,17.56-.02,35.12-.04,52.68-.06Z"/>
    <path class="cls-26" d="M1184.14,316.33c-6.49,8.71-14.39,8.63-20.56-.16-.83-1.18-1.82-2.25-2.73-3.38-3.08-9.59-3.34-19.64-4.85-29.49,3.12,4.23,6.32,8.42,9.34,12.72,1.93,2.75,4.29,4.49,7.76,4.5,6.05,.03,9.88,3.11,11.81,8.73-.26,2.36-.51,4.71-.77,7.07Z"/>
    <path class="cls-20" d="M1094.5,418.13c-3.66,.11-2.79-1.96-2.09-4.14,8.08-25.41,16.13-50.83,24.18-76.24,.3-.94,.55-1.89,.83-2.84,1.82-.07,2.88,.29,2.04,2.55-.91,2.46-1.5,5.03-2.21,7.57-6.73,24.22-13.46,48.45-20.19,72.67-.85,.15-1.71,.29-2.56,.44Z"/>
    <path class="cls-41" d="M1097.06,417.69c6.73-24.22,13.46-48.45,20.19-72.67,.7-2.53,1.3-5.11,2.21-7.57,.83-2.26-.22-2.62-2.04-2.55-.96-1.62,.03-2.41,1.32-3.06,5.89-.55,7.78-2.51,8.56-8.85,.94-.02,1.89-.03,2.83-.05-.12,2.35-.4,5.11-2.18,6.38-6.32,4.51-6.93,11.59-8.77,18.09-6.23,21.97-12.32,43.98-18.43,65.99-.35,1.25-.38,2.59-.56,3.89-.26,.31-.51,.63-.77,.94-.88,.19-1.74,.32-2.37-.55Z"/>
    <path class="cls-20" d="M1133.98,358.94c-.45-2.51-.55-4.97,1.1-7.16,2.41,4.81-.08,9.64,.03,14.46,.4,17.14-.8,34.26-1.16,51.38-1.33,.01-2.71-.36-3.91,.56-2.78-.18-2.36-1.98-2.13-3.89,1.59-12.93,3.18-25.86,4.65-38.8,.62-5.5,.95-11.03,1.42-16.55Z"/>
    <path class="cls-28" d="M1244.32,348.92c-22.85,0-45.7,0-68.55,0-.95-.35-1.94-.77-1.79-2,.13-1.09,1.11-1.01,1.91-1.02,2.14-.03,4.28-.02,6.42-.02,19.58,0,39.17-.03,58.75,.06,1.59,0,5.35-1.46,3.27,2.97Z"/>
    <path class="cls-34" d="M1130.04,418.19c1.2-.92,2.58-.55,3.91-.56,.59,.92,1.44,.89,2.35,.64,1.98,.03,3.95,.1,5.93,.07,1.82-.03,3.01,.73,2.7,2.6-.87,5.14,2.04,5.73,6.04,5.38,2.29-.2,4.61-.09,6.92-.12,1.1,.67,2.31,1.81-.04,1.87-8.85,.21-17.72,.07-26.58,.08-1.85,0-2.13-1.11-1.97-2.62,.26-2.45,.5-4.89,.74-7.34Zm5.25,1.71c-1.57,.13-2.57,.89-2.59,2.4-.02,1.64,.93,2.83,2.62,2.81,1.38-.02,2.48-1,2.58-2.41,.13-1.74-1.15-2.48-2.61-2.8Z"/>
    <path class="cls-40" d="M1141.35,278.83c-2.39,.61-4.78,.43-7.17,.06,.19-2.89,.27-5.78-.94-8.51,.23-.57,.74-1.21,.61-1.69-.36-1.37-1.59-2.89,.21-3.89,2.4-1.34,1.73,2.28,3.73,2.42,0-5.57,4.02-4.48,7.46-4.42,.25,2.08,.51,4.17,.74,6.26,.25,2.27,.8,4.31-2.89,4.61-3.14,.25-1.34,3.34-1.76,5.17Z"/>
    <path class="cls-34" d="M1097.06,417.69c.63,.88,1.49,.74,2.37,.55,2.29,.03,4.58,.07,6.86,.09,1.44,0,2.66,.09,2.11,2.14-1.52,5.69,1.82,6.23,6.17,5.84,2.11-.19,4.25-.05,6.37-.07,1.41,1.13,1.33,1.88-.59,1.89-8.67,.03-17.34,0-26.01,.03-1.87,0-2.22-.87-1.79-2.46,.67-2.52,1.3-5.05,1.95-7.57,.85-.15,1.71-.29,2.56-.44Zm2.51,2.18c-1.47,.16-2.44,.84-2.49,2.43-.05,1.5,.7,2.62,2.15,2.77,1.75,.18,2.73-1.03,2.81-2.66,.08-1.54-1.08-2.24-2.47-2.54Z"/>
    <path class="cls-14" d="M1098.29,332.99c3.21,.95,6.39,.75,9.56-.19,1.23,2.49,2.49,4.96,3.67,7.47,.58,1.24,2.06,2.6,.58,3.94-1.59,1.45-2.29-1.45-3.82-1.09-.95,1.28,.21,2.42,.33,3.65-5.36-4.41-5.88-4.32-7.46,1.3-5.12-4.24-2.25-9.99-2.86-15.08Z"/>
    <path class="cls-12" d="M1173.78,339.83c23.84-.03,47.69-.05,71.53-.08,.83,.76,1.37,1.66-.03,2.21-.87,.34-1.95,.22-2.94,.22-21.68,.01-43.37,.04-65.05-.07-1.3,0-4.35,1.49-3.52-2.28Z"/>
    <path class="cls-51" d="M1145.26,262.79c-3.45-.06-7.47-1.15-7.46,4.42-2-.14-1.32-3.77-3.73-2.42-1.8,1.01-.57,2.53-.21,3.89,.12,.48-.39,1.12-.61,1.69-3.76-1.92-4.24-5.22-3.43-8.81,.77-3.45,3.97-4.43,6.72-4.59,3.49-.2,7.07,.74,9.48,3.77,.58,.73,0,1.55-.75,2.05Z"/>
    <path class="cls-39" d="M1156,283.3c1.51,9.85,1.78,19.9,4.85,29.49-2.51,2.66,.35,5.22,.17,7.86-.14,2.13,.06,2.14-2.17,2.04-1.65-11.66-3.36-23.32-4.91-35-.49-3.7-1.36-6.97-5.16-8.59,4.69-2.51,5.86,1.01,7.22,4.2Z"/>
    <path class="cls-14" d="M1184.14,316.33c.26-2.36,.51-4.72,.77-7.07,9.07-.04,11.6,1.18,16.97,8.43-4.03,.44-6.77-3.56-10.62-2.69,.33,2.22,4.4,2.49,3.02,4.45-1.55,2.19-3.76-.41-5.62-1.08-1.55-.56-3.01-1.34-4.52-2.03Z"/>
    <path class="cls-43" d="M1182.71,408.24c18.22,.02,36.44,.04,54.66,.06,1.4,2.12-.27,2.17-1.58,2.17-17.28,.03-34.55,.03-51.83,0-1.59,0-2.82-.39-1.24-2.24Z"/>
    <path class="cls-12" d="M1236.39,416.79c-17.56,.02-35.12,.04-52.68,.06-.94-.56-3.22-.82-.7-2.27,.76-.44,1.93-.17,2.92-.17,15.79,0,31.59-.05,47.38,.09,1.07,0,4.68-1.88,3.08,2.3Z"/>
    <path class="cls-25" d="M1120.95,426.25c-2.13,.01-4.26-.12-6.37,.07-4.36,.39-7.69-.14-6.17-5.84,.55-2.05-.66-2.14-2.11-2.14-2.29-.01-4.58-.05-6.86-.09,.26-.31,.51-.63,.77-.94,6.02,.71,12.13-.65,18.12,.82-.43,3.13,.62,5.78,2.63,8.13Z"/>
    <path class="cls-25" d="M1157.88,426.2c-2.31,.03-4.62-.08-6.92,.12-4,.34-6.91-.24-6.04-5.38,.31-1.86-.88-2.62-2.7-2.6-1.98,.03-3.95-.04-5.93-.07,.23-.31,.47-.62,.71-.93,5.74,.19,11.48,.38,17.22,.58-.4,3.48,1.87,5.77,3.65,8.28Z"/>
    <path class="cls-26" d="M1108.73,291.47c-2.17-8.39,1.94-12.7,11.53-12.09-3.97,3.91-6.74,8.96-11.53,12.09Z"/>
    <path class="cls-22" d="M1205.94,328.69c-4.03,.07-8.06,.14-12.1,.22-.24-4.13,2.14-6.21,5.85-6.31,3.79-.1,6.06,2.11,6.24,6.09Z"/>
    <path class="cls-39" d="M1108.73,291.47c4.79-3.13,7.56-8.18,11.53-12.09,2.06-.41,4.01-2.55,6.24-.42-5.4,2.94-9.07,7.81-13.41,11.94-1.37,1.31-2.33,3.28-4.65,3.28,.09-.9,.19-1.81,.28-2.71Z"/>
    <path class="cls-20" d="M1127.31,323.01c-.78,6.34-2.67,8.3-8.56,8.85,.84-2.97,1.68-5.95,2.52-8.92,2.02,.02,4.03,.05,6.05,.07Z"/>
    <path class="cls-52" d="M1101.15,348.07c1.58-5.62,2.1-5.71,7.46-1.3,.2,.28,.4,.57,.6,.85-1.85,.23-3.58,.74-4.93,2.13-1.65,.56-2.59-.19-3.13-1.69Z"/>
    <path class="cls-22" d="M1149.97,322.96c1.31,.05,2.61,.09,3.92,.14-.57,2.77,1.63,5.23,.88,8.02-3.74-1.46-4.24-4.83-4.79-8.17Z"/>
    <path class="cls-14" d="M1104.28,349.76c1.35-1.39,3.08-1.9,4.93-2.13,1.16,.93,2.13,1.94-.24,2.39-1.54,.29-3.18,.69-4.69-.26Z"/>
    <path class="cls-41" d="M1137.01,417.34c-.24,.31-.47,.62-.71,.93-.91,.25-1.76,.28-2.35-.64,.35-17.13,1.55-34.24,1.16-51.38-.11-4.82,2.38-9.65-.03-14.46,1.85-5.96,.6-12.1,1.05-18.14,.44-5.87,2.26-6.9,9.84-4.14-8.65-.46-6.85,4.75-7.03,8.83-1.15,26.32-2.17,52.65-1.93,79.01Z"/>
    <path class="cls-46" d="M1142.48,305.19c.66,0,1.32,0,1.98,0,8.08,0,10.74,3.73,8.33,11.63-.25,.82-.63,1.75-1.49,1.75-1.34,0-1.23-1.22-1.35-2.19-.32-2.56,1.21-5.87-.84-7.55-2.27-1.86-5.72-.39-8.63-.72-3.73-.43-6.33,.15-7.89,4.44-1.22,3.35-4.55,5.55-8.35,6.32-.95,.19-2.17,.48-2.61-.62-.48-1.2,.62-1.86,1.59-1.96,5.31-.58,7.61-4.17,8.71-8.78,.45-1.9,1.47-2.34,3.13-2.32,2.47,.03,4.94,0,7.41,0Z"/>
    <path class="cls-46" d="M1132.8,286.63c-.38,.8-.81,2.09-1.54,3.16-3.55,5.16-7.15,10.27-10.8,15.36-.63,.87-1.45,2.33-2.68,1.49-1.27-.86-.2-2.03,.45-2.97,4.06-5.98,9.08-11.32,11.98-18.06,.38-.87,.94-1.39,1.88-1.03,.68,.26,.89,.9,.71,2.06Z"/>
    <path class="cls-19" d="M1225.61,368.87c7.87,5.63,10.19,15.28,5.56,23.22-2.53,4.35-4.31,9.71-11.09,8.6-4.75,6.12-5.55-1.65-8.35-2.38-.32-.35-.64-.69-.96-1.04-.49-.79-1.14-.9-1.91-.42,.4,.37,.8,.75,1.21,1.12,.3,.35,.61,.7,.91,1.05,.08,.3,.29,.83,.23,.87-5.77,3.26-17.87,.27-21.03-5.18-1.32-2.28-2.59-4.59-3.93-6.86-1.37-2.32-1.71-4.85-.18-6.99,1.58-2.21,1.56-3.95-.79-5.88,2.83-.6,5.08-1.07,7.32-1.55,3.45-1.39,6.01-.63,7.34,4.69,.19-7.32-.7-7.87-7.34-6.2-1.55-3.22,1.48-4.89,2.64-7.02,4.76-8.71,12.41-11.59,21.99-8.71,1.81,.54,3.35,1.55,4.13,3.26,1,2.21,2.57,3.03,5.26,2.11-.74,2.63-1.31,4.66-1.87,6.68-.2,.73-.41,1.45-.62,2.18-.53,.97-1.68,2.57-.8,2.95,1.48,.64,.88-1.58,1.66-2.22,.21-.76,.42-1.52,.63-2.28Zm-29.12,19.67c4.16,0,8.27-.04,12.38,.03,.79,.01,2-.65,2.3,.91,.16,.84-2.36,.93-.62,1.93,.93,.54,1.74-.61,2.4-1.34,1.1-1.22,2.17-2.48,3.29-3.68,.71-.76,1.79-1.49,2.09,.1,.71,3.71,3.15,1.47,5.82,2.18-2.56-4.46-5.8-7.93-6.48-11.84-.79-4.53-3.45-4.69-6.52-5.36-.22-.05-.36-.45-.65-.83,3.27-2.41,.72-3.99-.68-6.63-2.42,4.16-3.87,8.06-6.51,10.83-2.88,3.04-3.6,5.74-1.2,9.61-3.73-.68-5.38,.71-5.63,4.09Z"/>
    <path class="cls-49" d="M1192.6,371.93c6.64-1.67,7.54-1.12,7.34,6.2-1.33-5.32-3.89-6.08-7.34-4.69,0-.5,0-1,0-1.51Z"/>
    <path class="cls-27" d="M1135.3,419.89c1.46,.32,2.74,1.06,2.61,2.8-.1,1.41-1.2,2.39-2.58,2.41-1.69,.02-2.63-1.17-2.62-2.81,.02-1.5,1.02-2.26,2.59-2.4Z"/>
    <path class="cls-27" d="M1099.57,419.87c1.4,.3,2.55,1,2.47,2.54-.08,1.63-1.06,2.84-2.81,2.66-1.45-.15-2.2-1.27-2.15-2.77,.05-1.59,1.03-2.27,2.49-2.43Z"/>
    <path class="cls-27" d="M1196.49,388.54c.25-3.38,1.9-4.77,5.63-4.09-2.39-3.87-1.68-6.57,1.2-9.61,2.63-2.78,4.09-6.67,6.51-10.83,1.4,2.64,3.95,4.23,.68,6.63,.29,.38,.43,.78,.65,.83,3.07,.67,5.73,.83,6.52,5.36,.68,3.91,3.92,7.38,6.48,11.84-2.66-.7-5.11,1.53-5.82-2.18-.3-1.59-1.38-.86-2.09-.1-1.12,1.2-2.19,2.46-3.29,3.68-.66,.73-1.47,1.87-2.4,1.34-1.74-1,.78-1.09,.62-1.93-.31-1.56-1.51-.9-2.3-.91-4.11-.07-8.22-.03-12.38-.03Z"/>
    <path class="cls-1" d="M1224.98,371.15c-.79,.64-.19,2.86-1.66,2.22-.89-.38,.27-1.98,.8-2.95,.29,.24,.58,.49,.87,.73Z"/>
    <path class="cls-1" d="M1224.12,370.42c.21-.73,.41-1.45,.62-2.18,.29,.21,.58,.42,.88,.63-.21,.76-.42,1.52-.63,2.28-.29-.24-.58-.49-.87-.73Z"/>
    <path class="cls-1" d="M1210.07,397.97c-.4-.37-.8-.75-1.2-1.12,.77-.47,1.42-.37,1.91,.42-.23,.23-.47,.46-.7,.69Z"/>
    <path class="cls-1" d="M1210.77,397.27c.32,.35,.64,.69,.96,1.04-.25,.24-.5,.47-.75,.71-.3-.35-.61-.7-.91-1.05,.23-.23,.47-.46,.7-.69Z"/>
  </g>
  <g>
    <path class="cls-38" d="M541.47,353.78c25.51-8.73,49.25,4.44,55.35,30.72,.18,.76-.05,1.69,1.04,1.95v10.94c-1.72,.82-1.14,2.63-1.49,3.92-5.1,18.83-20.86,31.44-39.65,31.57-18.45,.13-34.58-12.41-39.65-30.83-4.93-17.88,2.91-36.07,19.82-46.01,.57-.33,1.16-.63,1.74-.94,.49,.97,.97,1.94,1.46,2.9-15.3,6.76-24.16,24.52-20.7,41.52,4.24,20.87,25.8,34.38,46.27,28.99,21.75-5.72,33.98-27.8,26.95-48.67-6.92-20.55-29.64-31.12-49.82-23.16-.44-.98-.88-1.95-1.33-2.93v.03Z"/>
    <path class="cls-9" d="M541.47,353.78c.44,.98,.88,1.95,1.33,2.93,4.01,9.25,8.02,18.5,12.03,27.76-.85,.39-1.7,.77-2.55,1.16-4.06-9.2-8.12-18.4-12.18-27.6-.49-.97-.97-1.93-1.46-2.9-.53-3.77-2.2-4.1-5.28-2.13-13.19,8.4-20.39,20.37-21.98,35.85-.15,1.5,.72,4.24-1.44,4.05-2.24-.2-1.41-2.98-1.24-4.66,1.65-16.4,9.4-29.13,23.61-37.52,3.3-1.95,3.46-3.47,1.91-6.41-1.67-3.17-2.98-6.52-4.87-10.74-10.33,13.93-20.23,27.28-30.12,40.64-4.38,5.11-10.62,9.76-4.11,17.47,.44,.52,.25,1.59,.35,2.4-.33,.35-.85,.66-.97,1.07-3.39,11.89-7.38,14.45-19.35,12.65-4.41-.66-8.87-.99-13.31-1.45-16.45-1.71-32.91-3.35-49.35-5.15-4.14-.45-6.91-2.92-8.26-6.92-.46-1.35-.03-3.09-1.64-3.97,2.08-6.69,4.93-8.86,11.72-9.11,2.2-.08,4.6,.75,6.31-1.7,4.43-6.37,8.99-12.64,13.5-18.95,.95-.65,1.66-1.47,1.93-2.62,2.96-2.31,2.52-3.75-.77-5.59-28.35-15.85-64.34,3.01-67.21,35.33-.04,.5-.02,1-.11,1.49-.24,1.37,.62,3.74-1.27,3.76-2.34,.02-1.64-2.47-1.51-3.92,1.43-15.8,8.41-28.55,21.85-37.13,16.19-10.34,33.02-10.68,49.88-1.46,2.7,1.48,4.3,1.76,5.89-1.17,.94-1.73,2.14-3.4,3.54-4.78,4.24-4.16,5.14-8.5,1.31-13.39h3.1c1.1,4.8,4.05,6.46,8.9,5.78,3.21-.45,6.51-.2,9.77-.26h4.08c1.01,.1,2.02,.2,3.03,.3,.03,1.15-.71,1.93-1.37,2.74-4.45-.01-8.9-.04-13.34-.04-7.01,0-6.97-.02-3.96,6.04,2.7,5.44,5.31,10.92,7.96,16.38-.47,.67-.93,1.35-1.4,2.02-3.97-7.55-7.95-15.11-12.14-23.08-2.96,3.98-5.62,7.54-8.27,11.11-.83,1.12-1.42,2.13,.1,3.3,6.76,5.17,10.59,12.53,14.49,19.8l-.08-.03c-.02,.47-.04,.94-.06,1.4-.68,.36-1.37,.73-2.05,1.09-2.97-6.86-6.5-13.32-11.97-18.61-2.74-2.65-4.55-2.96-5.82,1.07-1.02,.44-1.42,1.29-1.58,2.31-5.17,5.59-9.28,11.92-14.08,18.7h26.53c1.03,.48,2.07,.41,3.1-.01l3.06,.34-.13,2.06c-1.39,.08-1.99,.78-1.72,2.18-.39,.66-.79,1.31-1.18,1.97-8.12-.02-16.24-.05-24.36-.06-2.35,0-4.2,.95-5.25,3.09-.79,1.62-.31,2.88,1.47,3.51,.64,1.29,1.73,1.96,3.11,2.09,7.65,.75,15.31,1.47,22.96,2.2,.85,.81,1.86,.76,2.9,.51,3.54,.46,7.06,1.03,10.61,1.36,5.68,.54,6.31-.14,6.36-6.11,2.97-1.75,3.33,.49,3.79,2.51,.74,3.23,2.56,5.31,5.97,5.75,3.54,.45,6.31-.82,7.67-4.12,1.72-4.18-.13-7.32-3.55-9.77,1.06-.12,2.12-.25,3.2-.38-.18-1.58-1.65-1.69-2.24-2.61,1.07-2.08-3.87-1.76-1.71-4.27,4.27,2.44,6.99,.85,9.21-3.15,1.63-2.95,3.8-5.6,5.73-8.39,7.52-9.78,15.03-19.57,23.22-30.23h-25.3c-.1-1.09,.23-2.03,.97-2.84,7.71,.02,15.43,.09,23.14,.05,5-.03,8.09-4.7,6.2-9.21-.76-1.81-1.5-3.63-2.25-5.45l4.35,2.89c2.74,6.35,5.65,12.64,8.14,19.09,1.13,2.94,2.48,2.97,5.15,2.16,16.16-4.87,30.98-2,44.37,8.25,1.18,.9,2.27,1.92,3.32,2.97,.54,.54,1.26,1.23,.55,2.09-.67,.8-1.46,.52-2.15-.05-1.02-.84-1.97-1.77-3.02-2.56-12.48-9.45-26.17-12.74-41.5-8.4-3.45,.98-4.56,2.21-2.22,5.27v-.04Zm-128.29,45.44c3.74,.02,7.4-3.58,7.44-7.32,.03-3.68-3.63-7.33-7.38-7.36-3.82-.03-7.37,3.5-7.37,7.31s3.46,7.35,7.31,7.37Z"/>
    <path class="cls-50" d="M445.77,270.02c-.59-8.47,1.62-10.84,10.1-10.87,2.28,0,4.56-.09,6.83-.14h8.55c2.78,.03,5.55,.07,8.33,.1,2.5,1.5,5.38,2.56,5.8,6.12,1.03,8.76,2.16,17.52,3.24,26.28-5.56,1.45-8.87-2.02-12.15-5.54,4.15-3.34,3.26-5.99-.58-9.16-5.34-4.42-10.18-9.43-15.28-14.15-.72-.67-1.43-2.08-2.8-.69,.21,1.87,1.81,2.71,2.92,3.84,4.43,4.48,8.84,8.97,13.44,13.27,2.17,2.03,2.43,3.44,.12,5.58-3.74,3.48-7.19,7.27-11.21,11.38-4.46-7.52-8.56-14.45-12.68-21.37-1.15-1.94-1.78-4.42-4.65-4.67l.02,.02Z"/>
    <path class="cls-38" d="M436.04,357.89c-.27,1.15-.98,1.97-1.93,2.62-7.78-5.57-16.45-7.25-25.83-6.11-17.81,2.15-31.31,16.4-32.94,34.87-1.47,16.68,9.82,33.48,25.95,38.6,17.17,5.44,36.02-1.74,44.67-16.85,1.62-2.83,1.11-3.46-2.03-3.72-10.54-.89-21.08-1.95-31.59-3.17-5.58-.65-9.39-3.82-11.06-9.28-.53-1.73-1.18-3.62,1.3-4.56,1.61,.88,1.18,2.61,1.64,3.97,1.35,4,4.12,6.47,8.26,6.92,16.44,1.8,32.9,3.44,49.35,5.15,4.44,.46,8.9,.79,13.31,1.45,11.97,1.8,15.96-.76,19.35-12.65,.12-.42,.63-.72,.97-1.07,1.05,.36,1.88,1.17,1.55,2.2-.96,3,.62,3.28,2.92,3.1,1.16-.09,2.56-.11,2.65,1.45,.12,2.03-1.61,1.87-2.81,1.68-3.23-.51-5.21,.85-6.86,3.52-.82,1.33-2.37,2.21-3.58,3.29-.67,.32-1.34,.63-2.02,.95-2.9,.69-5.81,1.25-8.81,1.09-8.22-.99-16.44-1.95-24.65-3-2.3-.29-3.39,.58-4.55,2.65-9.32,16.62-27.53,24.98-44.86,20.84-18.59-4.45-31.07-19.41-32.24-38.63-1.18-19.44,14.74-38.77,34-41.62,10.82-1.61,20.69,.51,29.86,6.32h-.02Z"/>
    <path class="cls-50" d="M447.71,309.81c-6.81-.43-6.86-.44-5.66-7.14,1.7-9.54,2.23-19.26,4.53-28.7,5,6.59,8.63,14.02,13.03,20.97,.87,1.38,1.8,4.41,3.45,3.33,2.91-1.91,3.7,.32,5.19,1.48,5.8,4.48,16.52,5.63,21.18,2.24,.85,.03,1.71,.06,2.56,.08,.15,2.48,.29,4.95,.43,7.43-12.21,0-24.42-.01-36.63-.02-1.16-1.61-2.12-.53-3.11,.23-1.66,.03-3.32,.06-4.97,.1h0Z"/>
    <path class="cls-4" d="M491.99,302.08c-.85-.03-1.71-.06-2.56-.08-3.38-2.15-7.11-.83-10.68-1.04-3.43-.2-6.45-.94-9.1-3.31-2.09-1.87-2.24-3.31-.03-5.18,2.4-2.03,4.57-4.31,6.84-6.49,3.29,3.52,6.6,6.99,12.15,5.54,.88,0,1.75-.01,2.63-.02,6.74,2.29,9.59-3.35,13.57-6.67,3.26,5.7,8.34,7.5,14.62,7.02,2.79-.21,5.6-.07,8.41-.02,4.07,.07,9.15,3.83,9.16,6.72,0,3.11-6.24,8.24-9.92,8.25-2.56,.01-4.82-.9-7.06-1.96-2.05-3-1.11-4.23,2.33-3.81,1.29,.16,2.52,.71,3.81,.87,1.47,.19,2.6-.44,2.96-1.98,.46-2.02-1.18-1.85-2.36-2.3-2.95-1.12-5.67,1-8.65,.41-3.05-.6-3.72,1.29-3.01,3.91-3.31-.25-4.11,4.88-7.87,3.67,1.29-1.48,2.72-2.86,3.84-4.45,1.28-1.81,1.84-3.91,.65-6.01-.37-.65-1.39-1.6-1.74-1.47-.82,.32-2.13,1.43-2,1.85,1.46,4.81-2.55,7.04-4.59,10.18-3.73,1.8-5.4-.12-6.26-3.48,1.71-.34,3.71-.24,4.43-2.35,.39-1.15-.54-1.77-1.34-2.32-1.17-.8-2.39-.85-3.68-.19-2.02,1.03-1.31,2.69-1.05,4.26-1.17,.14-2.34,.28-3.51,.42v.03Z"/>
    <path class="cls-8" d="M461.55,249.11c-2.13-.82-3.14-2.8-4.58-5.02-2.88,4.53-6.78,6.15-11.59,6.06-1.92-.04-3.19,1.6-4.56,2.78-1.51,1.29-2.95,2.7-4.99,3.11-3.17,.63-5.44,.48-5.05-3.95,.4-4.43,.09-8.92,.09-14.11,4.74,1.94,9.35-.16,13.46,.23,7.09,.68,12.71-.06,19.31-3.45,7.12-3.66,12.85,1.18,12.64,8.38-1.73-1.49-2.43,.9-3.68,.97-2.65,.15-5.86,4.3-7.84-1.04-.28-.75-1.2-1.05-2.08-.52-.96,.58-1.12,1.46-1.1,2.5,.02,1.35,2.57,2.74-.03,4.06Z"/>
    <path class="cls-18" d="M447.71,309.81c1.66-.03,3.32-.06,4.97-.09-.25,1.12-.41,2.27-.76,3.36-2.41,7.68-1.65,8.76,6.35,8.77,8.44,0,16.87-.05,25.31,.02,4.96,.04,5.9,1.6,3.76,6.11-1.76,3.73-3.75,7.35-5.48,11.09-5.19,11.22-11.66,21.82-16.29,33.32-1.7,0-3.4,0-5.1,.01,1.31-2.8,2.63-5.6,3.94-8.4,.47-.67,.93-1.35,1.4-2.02,1.57-3.15,3.15-6.31,4.72-9.47,2.07-.18,2.44-1.98,3.15-3.4,2.74-5.43,5.46-10.87,8.16-16.33,2.98-6.02,2.32-6.63-4.51-7.09-10.59-.72-21.59,2.72-31.71-2.97-1.63-4.68,1.11-8.65,2.07-12.91h.02Z"/>
    <path class="cls-18" d="M489.31,409.31c1.22-1.08,2.76-1.97,3.58-3.3,1.64-2.67,3.63-4.03,6.86-3.52,1.2,.19,2.93,.35,2.81-1.68-.09-1.56-1.49-1.55-2.65-1.45-2.31,.18-3.88-.1-2.92-3.1,.33-1.03-.5-1.83-1.55-2.2-.1-.81,.1-1.88-.35-2.4-6.51-7.71-.28-12.36,4.11-17.47,2.78,13.68,6.4,27.19,8.24,41.05-5.71,.04-11.41,.09-17.11,.13,.34-2.14-.54-4.07-1.02-6.07h0Z"/>
    <path class="cls-50" d="M504.83,284.83c-3.98,3.32-6.83,8.96-13.57,6.67-.1-1.14-.16-2.28-.31-3.41-1.11-8.44-2.24-16.87-3.37-25.31,6.24,5.32,12.42,10.71,18.73,15.93,3.92,3.25-.95,4.1-1.48,6.12h0Z"/>
    <path class="cls-15" d="M476.48,285.98c-2.27,2.17-4.45,4.46-6.84,6.49-2.21,1.87-2.06,3.31,.03,5.18,2.64,2.37,5.66,3.12,9.1,3.31,3.56,.2,7.3-1.11,10.68,1.04-4.66,3.38-15.38,2.24-21.18-2.24-1.5-1.16-2.29-3.39-5.19-1.48-1.65,1.08-2.58-1.95-3.45-3.33-4.41-6.95-8.04-14.39-13.03-20.97-.85-1.2-1.38-2.47-.8-3.96,2.86,.24,3.49,2.72,4.65,4.66,4.12,6.92,8.22,13.85,12.68,21.37,4.02-4.11,7.46-7.91,11.21-11.38,2.31-2.15,2.05-3.56-.12-5.58-4.6-4.29-9.01-8.79-13.44-13.27-1.12-1.13-2.72-1.96-2.92-3.84,1.37-1.39,2.07,.02,2.8,.69,5.09,4.72,9.94,9.73,15.28,14.15,3.83,3.17,4.73,5.82,.58,9.16h-.04Z"/>
    <path class="cls-32" d="M508.52,418.38c-.07,1.44-.88,2.42,.52,4.32,1.49,2.03,3.68,3.33,4.91,5.49-9.19,.02-18.39,.02-27.58,.09-1.74,.01-3.66-.55-5.1,1.05-1.72-.68-2.24-1.63-.7-3.06h6.56c-2.03-2.33-4.35-3.57-6.94-3.74-1.04-.5-2.14-.99-.66-2.24,.34-.04,.67-.08,1.01-.11,3.08-.18,6.25,.19,7.91,2.96,2.15,3.59,4.91,3.55,8.43,2.71-.95-2.55-1.67-4.89-1.75-7.36,4.48,1.8,8.93-.77,13.4-.1h0Z"/>
    <path class="cls-4" d="M461.55,249.11c2.6-1.32,.05-2.71,.03-4.06,0-1.05,.15-1.92,1.1-2.5,.87-.53,1.8-.23,2.08,.52,1.98,5.34,5.2,1.19,7.84,1.04,1.25-.07,1.95-2.46,3.68-.97,.07,1.81-.12,3.68,.27,5.42,.61,2.69,.58,4.34-2.92,4.6-4.15,.31-1.56,3.89-2.37,5.87h-8.56c-.02-3.34,.18-6.72-1.16-9.91h0Z"/>
    <path class="cls-37" d="M445.63,322.72c10.12,5.69,21.12,2.25,31.71,2.97,6.83,.46,7.49,1.07,4.51,7.09-2.7,5.45-5.42,10.89-8.16,16.33-.72,1.42-1.08,3.22-3.15,3.4-.81-5.14,3.32-8.52,4.62-12.92,.66-.81,1.4-1.58,1.37-2.74,1.62-2.41,2.99-4.93,3.7-8.02h-11.78c-2.26-.01-4.52-.02-6.79-.03-1.95-.09-3.91-.26-5.86-.25-4.31,.04-8.12-.88-10.47-4.94,.03-.32,.14-.62,.31-.9h0Z"/>
    <path class="cls-8" d="M528.83,324.95c-1.45-.96-2.9-1.93-4.35-2.89-.49-1.24-.97-2.49-1.46-3.73,.14-1.82,.28-3.65,.42-5.47,.87-.97,1.59-2.14,2.63-2.86,1.71-1.19,3.61-2.8,5.81-1.75,2.05,.98,1.06,3.24,1.14,4.96,.13,2.64-.17,5.3,.08,7.92,.34,3.46-1.08,4.53-4.28,3.83h.01Z"/>
    <path class="cls-8" d="M445.33,323.63c2.35,4.06,6.16,4.99,10.47,4.94,1.95-.02,3.91,.16,5.86,.24-2.99,3.89-7.34,1.15-10.91,2.22h-3.1c-4.12-.88-9.01,1.55-12.3-2.93-.75-1.02-2.21-1.71-1.72-3.25,.54-1.72,2.14-1.13,3.35-1.17,2.78-.09,5.57-.05,8.35-.06h0Z"/>
    <path class="cls-9" d="M523.45,312.86c-.14,1.82-.28,3.65-.42,5.47-2.63-5.46-5.27-10.92-7.91-16.37-.7-2.63-.03-4.52,3.01-3.91,2.98,.59,5.69-1.53,8.65-.41,1.18,.45,2.82,.28,2.36,2.3-.35,1.55-1.49,2.17-2.96,1.98-1.29-.17-2.52-.72-3.81-.87-3.44-.42-4.38,.81-2.33,3.81,.34,3.01,2.34,5.31,3.4,8.01h.01Z"/>
    <path class="cls-42" d="M481.26,429.32c1.44-1.6,3.36-1.03,5.1-1.05,9.19-.07,18.39-.07,27.58-.09,.59,.77,1.19,1.54,2.34,3.03h-23.42c-2.96,0-5.93-.02-8.89,0-1.38,.01-2.71,.02-2.72-1.9h0Z"/>
    <path class="cls-37" d="M508.52,418.38c-4.47-.67-8.92,1.9-13.4,.1h-14.84c-.2-.14-.41-.17-.64-.07-2.02-.87-1.35-1.94-.22-3.05,2.69-.02,5.39-.03,8.08-.05,.95,.02,1.9,.03,2.85,.05,5.7-.04,11.41-.09,17.11-.13,1.58,.63,3.04,1.3,1.06,3.14h0Z"/>
    <path class="cls-15" d="M487.59,262.79c1.13,8.44,2.26,16.87,3.37,25.31,.15,1.13,.21,2.27,.31,3.41-.88,0-1.76,.01-2.63,.02-1.09-8.76-2.21-17.51-3.24-26.28-.42-3.56-3.29-4.63-5.8-6.12,4.45-2.68,6.14,.67,7.99,3.66h0Z"/>
    <path class="cls-18" d="M487.49,415.32c-2.69,.02-5.39,.03-8.08,.05-.31-1.34-.62-2.68-.93-4.03,3,.16,5.92-.4,8.82-1.09,.06,1.69,.13,3.38,.19,5.07h0Z"/>
    <path class="cls-33" d="M480.17,422.53c2.59,.17,4.91,1.41,6.94,3.74h-6.56c-.13-1.25-.26-2.49-.38-3.74Z"/>
    <path class="cls-42" d="M479.63,418.42c.23-.1,.44-.08,.64,.07,.08,.56,.17,1.13,.25,1.69-.34,.04-.67,.08-1.01,.11,.04-.62,.08-1.25,.12-1.87Z"/>
    <path class="cls-11" d="M540.09,358.02c4.06,9.2,8.12,18.4,12.18,27.6-.76,1.06-1.68,2.04-2.24,3.2-1.79,3.71-.33,7.76,3.33,9.58,3.77,1.88,8.09,.3,9.89-3.63,1.69-3.67,.12-7.61-3.62-9.52-1.57-.8-3.19-.66-4.82-.79-4.01-9.25-8.02-18.5-12.03-27.76,20.18-7.95,42.9,2.61,49.82,23.16,7.02,20.87-5.2,42.94-26.95,48.67-20.47,5.39-42.03-8.12-46.27-28.99-3.45-17,5.4-34.76,20.7-41.52h.01Zm5.17,63.49c-.14-.29-.2-.72-.43-.84-3.78-1.99-7.26-4.41-10.59-7.08-.23-.19-.96,0-1.3,.24-.65,.45-.59,1.14-.11,1.69,2.88,3.25,6.4,5.61,10.41,7.24,1.17,.47,1.88,.05,2.02-1.24h0Z"/>
    <path class="cls-11" d="M402.58,390.29c-2.48,.93-1.83,2.83-1.3,4.56,1.67,5.47,5.47,8.64,11.06,9.28,10.51,1.21,21.04,2.28,31.59,3.17,3.14,.26,3.65,.89,2.03,3.72-8.65,15.11-27.5,22.29-44.67,16.85-16.13-5.11-27.42-21.92-25.95-38.6,1.63-18.46,15.13-32.71,32.94-34.87,9.38-1.13,18.05,.54,25.83,6.11-4.51,6.31-9.07,12.59-13.5,18.96-1.71,2.46-4.12,1.62-6.31,1.7-6.79,.25-9.64,2.42-11.72,9.11h0Zm-.66,31.23c-.14-.29-.2-.74-.43-.85-3.82-1.95-7.32-4.38-10.63-7.1-.22-.18-.95,.03-1.31,.26-.66,.45-.62,1.19-.14,1.71,2.94,3.2,6.44,5.62,10.47,7.25,1.15,.47,1.9,.04,2.02-1.27h.02Z"/>
    <path class="cls-18" d="M455.8,309.49c12.21,0,24.42,.01,36.63,.02,8.91,1.02,11.8,5.67,8.99,14.44-1.36,4.24-2.68,8.49-4.02,12.73-.74,.81-1.06,1.75-.97,2.84-.97,1.94-2.18,3.8-2.07,6.1-2.35-.14-2.42,1.81-2.95,3.28-1.28,3.56-2.52,7.13-3.75,10.71-3.11,8.97-9.53,13.22-19.27,12.75,.23-.62,.39-1.27,.69-1.85,7.04-13.86,14.08-27.73,21.15-41.57,2.85-5.57,.87-9.16-5.27-9.22-7.13-.07-14.26-.05-21.39-.01-11.72,.06-11.31,.5-7.77-10.21h0Z"/>
    <path class="cls-8" d="M424.49,394.13c-1.78-.63-2.26-1.89-1.47-3.51,1.05-2.14,2.9-3.09,5.25-3.09,8.12,.02,16.24,.04,24.35,.06,1.35,1.44,3.09,.74,4.65,.76,9.01,.13,18.03,.15,27.04,.2,3.42,2.45,5.27,5.59,3.55,9.77-1.36,3.3-4.13,4.58-7.67,4.12-3.41-.44-5.23-2.52-5.97-5.75-.46-2.02-.82-4.25-3.79-2.51-1.85-3.02-4.8-2.67-7.77-2.82-8.4-.43-8.39-.53-9.19,7.57-1.04,.25-2.05,.3-2.9-.51,.1-.98,.06-2.01,.34-2.94,1.26-4.29-.47-5.4-4.62-5.13-5.25,.34-10.56,.3-15.81,0-3.16-.18-4.95,.98-5.97,3.77h-.02Zm52.71,2.41c1.43,3.54,3.95,3.57,6.49,2.38,2.11-1,2.19-3.17,1.45-5.15-.89-2.39-2.9-2.75-6.25-1.31,.64,1.56,3.77,1.01,3.25,3.01-.67,2.58-3.08-.2-4.94,1.07Z"/>
    <path class="cls-3" d="M449.5,381.06h-26.53c4.8-6.78,8.91-13.12,14.08-18.7,5.87,5.09,10.31,11.13,12.45,18.7Z"/>
    <path class="cls-18" d="M494.29,349.56c1.4,6.73,2.81,13.46,4.21,20.19-1.93,2.79-4.1,5.44-5.73,8.39-2.21,4.01-4.94,5.59-9.21,3.15-2.55-1.92-1.47-3.83,0-5.74,2.21-.54,2.33-2.56,2.92-4.21,2.62-7.25,5.2-14.52,7.8-21.78Z"/>
    <path class="cls-32" d="M483.57,375.55c-1.48,1.91-2.56,3.82,0,5.74-2.16,2.52,2.78,2.2,1.71,4.27-10.49,.02-20.98,.04-31.47,.06-.27-1.39,.33-2.09,1.72-2.18,.65,0,1.33,.12,1.94-.02,1.86-.45,5.17,1.31,5.32-1.22,.13-2.24-3.16-2.68-5.51-2.7h-.49c-.12-.64-.24-1.28-.36-1.92,.68-.36,1.37-.73,2.05-1.09,3.03,.98,5.83,2.33,7.56,5.17,.77,1.25,1.75,1.81,3.23,1.79,3.75-.06,7.5-.02,11.26-.02-2.27-.95-4.54-1.02-6.8-.94-2.96,.12-5.13-.23-3.42-4.07,.39-.87,.3-1.94,.43-2.92,4.28,1.08,8.56-.87,12.84,.03v.02Z"/>
    <path class="cls-3" d="M424.49,394.13c1.02-2.79,2.81-3.95,5.97-3.77,5.26,.3,10.56,.34,15.81,0,4.15-.27,5.88,.84,4.62,5.13-.27,.93-.23,1.96-.34,2.94-7.65-.73-15.31-1.45-22.96-2.2-1.38-.14-2.47-.8-3.11-2.09h.01Z"/>
    <path class="cls-35" d="M483.57,375.55c-4.28-.9-8.56,1.05-12.84-.03-4.07-.14-8.14-.28-12.2-.42,0,0,.08,.02,.08,.03-.32-1.56,.32-2.46,1.88-2.73,1.7,0,3.4,0,5.1-.01,.93,0,1.87-.02,2.8-.02,9.74,.47,16.16-3.78,19.27-12.75,1.24-3.57,2.48-7.15,3.75-10.71,.53-1.47,.6-3.42,2.95-3.28,1.01,1.33-.17,2.62-.07,3.94-2.6,7.26-5.18,14.53-7.8,21.78-.59,1.64-.71,3.67-2.92,4.21h0Z"/>
    <path class="cls-38" d="M554.83,384.46c1.63,.13,3.25,0,4.82,.79,3.74,1.9,5.31,5.85,3.62,9.52-1.81,3.93-6.12,5.52-9.89,3.63-3.66-1.83-5.12-5.87-3.33-9.58,.56-1.16,1.48-2.14,2.24-3.2,.85-.39,1.7-.77,2.55-1.16h0Zm2.05,11.88c2.06-.78,4.09-1.97,3.94-4.71-.13-2.42-1.77-4-4.21-4.02-2.43-.02-4.16,1.5-4.22,3.95-.06,2.6,1.57,4.21,4.48,4.78h0Z"/>
    <path class="cls-8" d="M413.17,399.21c-3.85-.02-7.3-3.5-7.31-7.37,0-3.8,3.55-7.33,7.37-7.31,3.75,.03,7.41,3.68,7.38,7.36-.03,3.74-3.7,7.34-7.44,7.32Zm4.53-7.33c-.5-2.51-1.87-4.3-4.52-4.35-2.7-.04-4.25,1.66-4.31,4.31-.06,2.76,1.76,4.3,4.3,4.35,2.63,.06,4.03-1.79,4.53-4.31Z"/>
    <path class="cls-6" d="M453.8,385.62c10.49-.02,20.98-.04,31.47-.06,.59,.92,2.05,1.04,2.24,2.61-1.08,.13-2.14,.25-3.2,.38-9.01-.06-18.03-.07-27.04-.2-1.55-.02-3.3,.68-4.65-.76,.39-.66,.79-1.31,1.18-1.97h0Z"/>
    <path class="cls-38" d="M438.62,360.04c7.04,5.42,11.55,12.52,13.97,21.01-1.03,.42-2.06,.49-3.1,.01-2.14-7.57-6.59-13.61-12.45-18.7,.16-1.02,.57-1.88,1.58-2.31h0Z"/>
    <path class="cls-33" d="M458.52,375.1c4.07,.14,8.13,.28,12.2,.42-.13,.98-.04,2.06-.43,2.92-1.72,3.84,.46,4.18,3.42,4.07,2.26-.09,4.53-.02,6.8,.94-3.75,0-7.5-.04-11.26,.02-1.48,.02-2.46-.54-3.23-1.79-1.74-2.83-4.53-4.19-7.56-5.17,.02-.47,.04-.94,.06-1.4h0Z"/>
    <path class="cls-36" d="M472.51,328.84h7.71c-.7,3.1-2.08,5.61-3.7,8.02-1.01-.1-2.02-.2-3.03-.3-.33-2.58-.66-5.15-.99-7.73h0Z"/>
    <path class="cls-18" d="M472.51,328.84c.33,2.58,.66,5.15,.99,7.73h-4.08c-.33-2.57-.65-5.14-.98-7.72h4.07Z"/>
    <path class="cls-33" d="M455.65,381.38c.38-.63,.75-1.25,1.13-1.87h.49c2.35,.02,5.64,.46,5.51,2.7-.14,2.53-3.45,.77-5.32,1.22-.61,.15-1.29,.02-1.94,.02,.04-.69,.09-1.37,.13-2.06h0Z"/>
    <path class="cls-13" d="M487.49,415.32c-.06-1.69-.13-3.38-.19-5.07,.67-.32,1.34-.63,2.02-.95,.48,2,1.36,3.93,1.02,6.07-.95-.02-1.9-.03-2.85-.05Z"/>
    <path class="cls-11" d="M468.38,372.36c-.93,0-1.87,.02-2.8,.02,4.63-11.5,11.1-22.09,16.29-33.32,1.73-3.74,3.72-7.36,5.48-11.09,2.13-4.52,1.19-6.07-3.76-6.11-8.44-.07-16.87-.01-25.31-.02-8,0-8.76-1.08-6.35-8.77,.34-1.09,.51-2.24,.76-3.36,.99-.76,1.95-1.83,3.11-.23-3.54,10.72-3.95,10.27,7.77,10.21,7.13-.04,14.26-.06,21.39,.01,6.13,.06,8.11,3.65,5.27,9.22-7.07,13.84-14.11,27.71-21.15,41.57-.3,.58-.46,1.23-.69,1.85v.02Z"/>
    <path class="cls-21" d="M507.25,305.63c-1.24,1.33-2.52,1.41-3.84,.11,2.04-3.14,6.05-5.37,4.59-10.18-.13-.42,1.18-1.53,2-1.85,.35-.14,1.37,.81,1.74,1.47,1.18,2.1,.63,4.19-.65,6.01-1.12,1.59-2.55,2.98-3.84,4.45h0Z"/>
    <path class="cls-38" d="M497.15,302.25c-.55-.2-1.09-.39-1.64-.59-.27-1.57-.97-3.22,1.05-4.26,1.29-.66,2.51-.61,3.68,.19,.8,.55,1.74,1.17,1.34,2.32-.72,2.11-2.72,2-4.43,2.35h0Z"/>
    <path class="cls-33" d="M480.52,420.18c-.08-.56-.16-1.13-.25-1.69h14.84c.07,2.48,.79,4.82,1.74,7.36-3.52,.83-6.28,.88-8.43-2.71-1.66-2.77-4.83-3.13-7.91-2.96h0Z"/>
    <path class="cls-10" d="M545.27,421.5c-.15,1.29-.85,1.72-2.02,1.24-4.01-1.63-7.53-3.99-10.41-7.24-.48-.55-.54-1.24,.11-1.69,.34-.24,1.07-.43,1.3-.24,3.33,2.67,6.81,5.09,10.59,7.08,.23,.12,.29,.56,.43,.84h0Z"/>
    <path class="cls-10" d="M401.92,421.5c-.12,1.32-.87,1.74-2.02,1.27-4.03-1.63-7.53-4.05-10.47-7.25-.48-.52-.53-1.26,.14-1.71,.35-.24,1.08-.45,1.31-.26,3.31,2.72,6.8,5.15,10.63,7.1,.23,.12,.29,.56,.43,.85h-.02Z"/>
    <path class="cls-30" d="M477.2,396.53c1.86-1.27,4.27,1.51,4.94-1.07,.52-2-2.61-1.45-3.25-3.01,3.35-1.44,5.36-1.09,6.25,1.31,.74,1.98,.66,4.15-1.45,5.15-2.53,1.19-5.06,1.16-6.49-2.38Z"/>
    <path class="cls-30" d="M556.87,396.34c-2.91-.57-4.54-2.18-4.48-4.78,.06-2.45,1.79-3.97,4.22-3.95,2.44,.02,4.08,1.6,4.21,4.02,.15,2.75-1.88,3.94-3.94,4.71h0Z"/>
    <path class="cls-30" d="M417.69,391.89c-.5,2.53-1.9,4.37-4.53,4.31-2.54-.05-4.37-1.59-4.3-4.35,.06-2.65,1.62-4.35,4.31-4.31,2.65,.04,4.02,1.84,4.52,4.35Z"/>
  </g>
</svg>