<svg width="164" height="89" viewBox="0 0 164 89" fill="none" xmlns="http://www.w3.org/2000/svg">
<path d="M35.1184 56.9943C33.4791 45.4373 31.8354 33.8754 30.1781 22.165H65.5707C65.1676 25.5205 64.7958 28.7752 64.3793 32.0156C63.1879 41.2334 61.9651 50.4464 60.7737 59.6594C59.6182 68.6424 58.5029 77.6301 57.3026 86.6034C57.2354 87.0924 56.5456 87.8689 56.1381 87.8689C46.7502 87.9408 37.3624 87.9264 27.7998 87.9264C23.8225 65.9772 19.8632 44.1095 15.8859 22.6444H26.6711C27.1011 24.7056 27.5624 27.2653 27.97 29.8394C29.1211 37.0535 30.0796 44.3108 31.4905 51.4674C31.8981 53.5382 33.5642 55.3261 34.6571 57.2435C34.8094 57.162 34.9661 57.0758 35.1184 56.9943Z" fill="black"/>
<path d="M139.697 89.0001C126.269 89.0001 115.43 77.4574 115.448 63.1682C115.462 48.8309 126.283 37.2212 139.625 37.2212C153.107 37.2212 163.942 48.759 164 63.1729C164.058 77.3664 153.112 89.0001 139.697 89.0001ZM141.278 74.0589C142.922 73.4405 144.369 73.1002 145.623 72.3812C147.562 71.2691 148.462 69.3805 148.332 66.9885C148.207 64.7069 147.056 63.1969 145.148 62.3245C143.88 61.7445 142.573 61.2556 141.399 60.7762V57.2339C143.316 60.177 145.806 58.2261 148.055 58.9164C147.531 54.3722 144.776 52.9102 141.336 52.3877C141.251 51.5536 141.18 50.8634 141.099 50.0629C140.499 50.13 140.029 50.1875 139.567 50.2402C139.522 50.9832 139.482 51.5776 139.446 52.2007C138.237 52.589 137.032 52.867 135.908 53.3655C133.494 54.4441 132.405 56.3039 132.459 58.9691C132.508 61.4042 133.812 63.2736 136.163 64.2035C136.952 64.5151 137.816 64.6445 138.546 65.0616C138.972 65.306 139.361 65.91 139.464 66.4229C139.616 67.1755 139.504 67.9904 139.504 68.7813L139.061 68.9155C138.721 68.3451 138.38 67.7747 138.049 67.2234H132.499C132.929 71.8251 136.051 73.0331 139.424 73.7665C139.504 74.6245 139.572 75.3196 139.652 76.1392C140.239 76.0673 140.705 76.0098 141.18 75.9523C141.202 75.4969 141.215 75.1949 141.233 74.8977C141.256 74.5478 141.278 74.1931 141.287 74.0589H141.278Z" fill="black"/>
<path d="M85.8648 68.6616V58.5953H110.503C110.503 63.106 110.786 67.5495 110.374 71.9163C110.194 73.8481 108.801 75.7799 107.637 77.4528C103.086 83.9911 96.9591 87.428 89.3091 87.7539C82.2503 88.0559 75.8275 86.3063 70.6499 80.9137C65.4677 75.5162 63.6224 68.7047 63.806 61.1311C64.0345 51.8222 67.3713 44.3156 75.0616 39.503C84.1315 33.8276 97.519 35.1985 104.56 42.3935C107.435 45.3318 109.164 48.9221 109.93 53.3082C105.308 53.3082 100.807 53.3225 96.3007 53.2794C95.9558 53.2794 95.5393 52.9007 95.2795 52.5843C90.3975 46.6836 81.0052 48.3757 78.2148 55.772C76.6068 60.0382 76.7412 64.4434 78.3044 68.7143C79.7555 72.6785 82.7609 74.5911 86.5546 75.1375C90.8588 75.7607 94.8271 75.128 97.6937 71.1158C97.9938 70.694 98.2625 70.2482 98.5133 69.7928C98.6745 69.5004 98.7776 69.1745 98.997 68.6568H85.8693L85.8648 68.6616Z" fill="black"/>
<path d="M0.0664062 22.165H13.4763C17.373 44.004 21.2697 65.8382 25.1977 87.8354H10.5785C7.07594 65.9389 3.58237 44.1286 0.0664062 22.165Z" fill="black"/>
<path d="M0.030623 6.80655C22.2999 9.03551 44.3228 11.2405 66.61 13.4695C66.2875 15.7511 66.0277 17.9226 65.6157 20.0605C65.5619 20.3481 64.7333 20.6644 64.2854 20.6357C60.4156 20.396 56.5458 20.1036 52.6805 19.7872C46.0696 19.2456 39.4587 18.6656 32.8478 18.1143C24.499 17.4193 16.1548 16.729 7.80605 16.0483C5.73231 15.8806 3.65856 15.6696 1.58033 15.6073C0.474037 15.5738 -0.0499979 15.2958 0.00374935 13.9728C0.093328 11.7007 0.030623 9.41898 0.030623 6.80176V6.80655Z" fill="black"/>
<path d="M28.8212 7.15183C29.287 4.74073 29.7259 2.47822 30.2052 0C33.9003 0.685464 37.5103 1.35655 41.3577 2.07077C40.8113 4.38122 40.3007 6.54786 39.7542 8.85351C36.0546 8.2735 32.5252 7.72705 28.8212 7.14704V7.15183Z" fill="black"/>
<path d="M141.283 74.059C141.274 74.1932 141.247 74.5432 141.229 74.8979C141.211 75.1951 141.198 75.4971 141.175 75.9524C140.705 76.01 140.239 76.0675 139.648 76.1394C139.572 75.3197 139.505 74.6246 139.42 73.7666C136.047 73.0332 132.925 71.8301 132.495 67.2236H138.045C138.376 67.7796 138.716 68.35 139.057 68.9156L139.5 68.7814C139.5 67.9905 139.612 67.1756 139.46 66.423C139.357 65.9101 138.963 65.3014 138.542 65.0617C137.812 64.6447 136.947 64.5153 136.159 64.2037C133.808 63.269 132.504 61.4043 132.455 58.9692C132.401 56.3041 133.494 54.4442 135.904 53.3657C137.023 52.8672 138.233 52.5891 139.442 52.2009C139.482 51.5777 139.518 50.9833 139.563 50.2403C140.024 50.1876 140.495 50.1349 141.095 50.063C141.175 50.8587 141.247 51.5538 141.332 52.3878C144.772 52.9103 147.527 54.3723 148.051 58.9165C145.802 58.2262 143.312 60.1772 141.395 57.234V60.7764C142.568 61.2557 143.876 61.7446 145.144 62.3246C147.052 63.1971 148.203 64.707 148.328 66.9887C148.458 69.3758 147.558 71.2692 145.618 72.3813C144.364 73.1003 142.918 73.4455 141.274 74.059H141.283ZM140.956 69.2464C142.698 68.0672 142.667 67.2619 140.956 66.2601V69.2464ZM139.129 57.2628L138.73 57.0471C138.47 57.536 137.982 58.0393 138.004 58.5138C138.031 59.0507 138.515 59.5588 138.802 60.0813L139.164 59.8656L139.129 57.2628Z" fill="white"/>
<path d="M140.956 69.2461V66.2598C142.667 67.2664 142.698 68.0669 140.956 69.2461Z" fill="black"/>
<path d="M139.164 59.8654L138.801 60.0811C138.515 59.5586 138.031 59.0505 138.004 58.5137C137.982 58.0391 138.47 57.5358 138.73 57.0469L139.128 57.2626L139.164 59.8654Z" fill="black"/>
</svg>
