<svg width="65" height="61" viewBox="0 0 65 61" fill="none" xmlns="http://www.w3.org/2000/svg">
<rect y="0.805664" width="65" height="60" fill="#2CB0E4"/>
<path d="M25.2124 10.9355C25.7108 10.7178 26.1954 10.3707 26.7145 10.314C27.7771 10.1972 28.8639 10.2414 29.9404 10.2161C31.9305 10.2161 33.9207 10.213 35.9074 10.213C38.3095 9.85963 39.597 10.9513 40.5973 12.8538C41.8018 15.138 43.3385 17.2771 44.7611 19.5298C45.4914 19.249 46.0625 19.0313 46.6336 18.8105C46.6578 18.9177 46.6786 19.0219 46.7028 19.1291C45.7544 22.1516 44.8026 25.1773 43.7712 28.4554C40.2719 27.6383 36.8454 26.8369 33.2112 25.9913C33.7615 25.5307 34.1595 25.1963 34.7098 24.7356C34.3083 24.1267 33.9069 23.5178 33.5054 22.9089C31.9098 20.3312 30.3349 17.7441 28.6943 15.1885C28.5213 14.9171 27.9744 14.8414 27.6041 14.6774C26.8045 13.428 26.0085 12.1817 25.2124 10.9355Z" fill="#ACE4FC"/>
<path d="M22.7619 25.3855C22.8588 25.5117 22.9557 25.6411 23.0526 25.7673C23.6168 27.5909 24.181 29.4145 24.7451 31.2381C24.7797 31.4085 24.8178 31.5788 24.8524 31.7492C24.9147 31.9196 24.9805 32.0931 25.0428 32.2635C25.1016 32.5096 25.1605 32.7557 25.2228 33.0018C25.3716 33.5318 25.5204 34.065 25.6693 34.5951C25.5066 34.696 25.3439 34.7938 25.1778 34.8948C24.3817 34.0145 23.7033 34.0587 23.1495 35.1062C22.9038 35.5668 22.6511 36.0211 22.4019 36.4786C22.2808 36.6868 22.1562 36.8951 22.035 37.1033C21.1109 38.4694 20.1348 39.8135 19.2799 41.2143C18.83 41.9526 18.5808 42.7981 18.2451 43.5932C17.3763 45.3853 16.0922 46.8902 14.4516 48.1522C14.3339 48.1522 14.2197 48.1522 14.102 48.1554C14.0051 48.0071 13.9082 47.8588 13.8078 47.7105C13.8321 47.6317 13.8044 47.5717 13.7282 47.5275C12.3611 45.3821 10.9904 43.2367 9.61983 41.0944C9.58521 41.025 9.54022 40.9588 9.4883 40.8957C9.09373 40.2552 8.69569 39.6147 8.30112 38.9742C8.20421 38.7534 8.10037 38.5357 8 38.318C8.0623 38.1255 8.12806 37.9331 8.19036 37.7438C8.25613 37.6775 8.28035 37.5986 8.26651 37.5103C9.3014 35.9107 10.3328 34.3079 11.3677 32.7083C11.4404 32.661 11.4646 32.6011 11.4404 32.5222C12.2538 31.3611 13.0671 30.1969 13.967 28.9065C13.3129 28.5879 12.8768 28.3765 12.4407 28.1651C12.4095 28.0578 12.3368 27.9821 12.2261 27.9348C12.7349 27.7171 13.2437 27.5025 13.7525 27.2848C14.102 27.206 14.4482 27.1302 14.7977 27.0514C14.9119 27.0293 15.0262 27.0072 15.1404 26.9883C15.3619 26.9315 15.5869 26.8747 15.8084 26.8147C18.1274 26.3383 20.4429 25.8619 22.7619 25.3855Z" fill="#ACE4FC"/>
<path d="M13.8113 47.7075C13.9079 47.8558 14.0045 48.0041 14.1046 48.1524C14.008 48.0041 13.9079 47.8558 13.8113 47.7075Z" fill="#CEF8EB"/>
<path d="M30.7156 44.0571C30.6083 43.7542 30.501 43.4513 30.3937 43.1484C30.9648 42.6089 31.5325 42.0694 32.1036 41.5299C32.3355 41.3248 32.5674 41.1166 32.7992 40.9115C32.9169 40.8042 33.0311 40.697 33.1488 40.5865L33.1454 40.5897C33.263 40.4824 33.3773 40.3752 33.4949 40.271C33.6092 40.1669 33.7234 40.0628 33.8376 39.9587C34.5229 39.3214 35.2082 38.6872 35.8935 38.0499L35.9005 38.0404C36.3781 37.5419 36.8523 37.0466 37.3299 36.5481C37.586 36.8257 37.8422 37.1065 38.0948 37.3842C37.901 38.1572 38.1468 38.479 39.0328 38.1477C43.4146 38.1477 47.7965 38.1445 52.1818 38.1445C53.3343 38.2203 54.4869 38.2928 55.6395 38.3686C55.7814 38.4884 55.9233 38.6052 56.0617 38.7251C54.1408 41.8612 52.251 45.0162 50.2504 48.1145C50.0151 48.4804 49.1879 48.6824 48.6306 48.6918C45.8755 48.7486 43.1204 48.7234 40.3654 48.7076C38.3613 48.695 38.3613 48.6824 37.5964 50.7237C36.8038 49.8718 36.1566 49.1714 35.5059 48.471C34.0349 47.1017 32.5639 45.7293 31.0894 44.36C30.9614 44.259 30.8402 44.158 30.7156 44.0571Z" fill="#ADE5FC"/>
<path d="M14.8116 48.7296C14.6904 48.5371 14.5727 48.3447 14.4516 48.1522C16.0922 46.8934 17.3763 45.3884 18.245 43.5932C18.6085 43.3755 19.048 43.2178 19.318 42.9306C20.7855 41.3626 22.2115 39.763 23.6514 38.1729C25.3093 38.2423 26.9672 38.3085 28.6251 38.3779C28.5628 41.8327 28.5005 45.2906 28.4416 48.7454L28.362 48.7044L28.2928 48.758C24.0252 48.7643 19.761 48.7738 15.4934 48.7801C15.265 48.7643 15.04 48.7454 14.8116 48.7296Z" fill="#FEFEFF"/>
<path d="M25.2124 10.9355C26.0085 12.1818 26.808 13.428 27.6041 14.6743C28.7186 17.1762 29.8331 19.675 30.9476 22.1769C30.9614 22.4199 30.9752 22.6597 30.9891 22.9026C30.8749 23.0982 30.7572 23.297 30.643 23.4926L30.6603 23.48C30.5737 23.6093 30.4907 23.7355 30.4041 23.8649C30.3211 23.9122 30.2934 23.9753 30.3142 24.0605C29.8711 24.7294 29.4281 25.3951 28.9851 26.0639C27.3687 26.9852 26.5103 25.5875 25.3751 25.067C24.7763 24.7925 24.2294 24.4233 23.6583 24.0952C23.4818 23.9942 23.3053 23.8933 23.1322 23.7923C22.5508 23.4863 21.9693 23.1834 21.3878 22.8774C21.1628 22.7638 20.9344 22.6534 20.7094 22.5398C20.5329 22.4325 20.3529 22.3221 20.1764 22.2148C19.9999 22.1202 19.8234 22.0287 19.6468 21.934C18.6431 21.4481 18.9338 20.8203 19.3734 20.1325C21.3255 17.0721 23.2672 14.0022 25.2124 10.9355Z" fill="#FEFEFF"/>
<path d="M44.5326 30.0928C45.8513 29.3577 47.17 28.6226 48.4921 27.8906C48.9836 28.2661 49.5997 28.5658 49.9458 29.0296C50.7973 30.1749 51.6037 31.3612 52.2821 32.5979C53.2305 34.3237 54.0404 36.1126 54.9126 37.8732C54.8053 37.8952 54.7015 37.8795 54.608 37.8258C54.4903 37.8101 54.3692 37.7943 54.2515 37.7754C53.9089 37.7406 53.5628 37.7091 53.2201 37.6744C52.0468 37.4946 50.8734 37.3179 49.7001 37.138C49.5963 37.1538 49.4993 37.138 49.4059 37.0939C49.0667 37.0686 48.731 37.0465 48.3918 37.0213C48.1599 37.0465 47.9245 37.0718 47.6926 37.1002L47.7134 36.9961C45.7232 36.5165 43.733 36.0338 41.7429 35.5542C41.6356 35.3617 41.5248 35.1693 41.4175 34.9768C40.6768 33.3835 40.9053 32.0805 42.7224 31.2192C42.8124 31.1782 42.7847 30.9258 42.8089 30.7743L42.802 30.7869C43.1273 30.6418 43.4527 30.4967 43.778 30.3484L43.7607 30.3673C44.0169 30.2727 44.2764 30.1843 44.5326 30.0928Z" fill="#FEFEFF"/>
<path d="M54.9126 37.8701C54.0439 36.1096 53.2305 34.3207 52.2822 32.5949C51.6038 31.3581 50.7973 30.1749 49.9459 29.0265C49.5998 28.5627 48.9871 28.263 48.4922 27.8875C49.2433 27.0641 49.7382 27.3102 50.2574 28.1494C52.1437 31.1909 54.1027 34.1976 55.9683 37.2485C56.2037 37.6366 56.0375 38.2266 56.0583 38.7251C55.9164 38.6052 55.7745 38.4885 55.636 38.3686C55.3938 38.2045 55.1515 38.0373 54.9126 37.8701Z" fill="#F9FCFE"/>
<path d="M28.4382 48.7454C28.5005 45.2906 28.5628 41.8327 28.6216 38.3779C28.8501 38.5672 29.2758 38.7597 29.2723 38.9427C29.1996 42.0283 29.0819 45.1139 28.9366 48.1996C28.9297 48.3889 28.6147 48.5624 28.4382 48.7454Z" fill="#CEF8EB"/>
<path d="M41.7429 35.551C43.7331 36.0306 45.7233 36.5133 47.7134 36.9929C46.1559 36.9077 44.5811 36.9108 43.0478 36.69C42.5563 36.6206 42.1721 35.9486 41.7429 35.551Z" fill="#FEFEFF"/>
<path d="M42.809 30.7712C42.7813 30.9258 42.8124 31.1751 42.7224 31.2161C40.9053 32.0774 40.6769 33.3836 41.4176 34.9737C40.843 34.1692 40.2719 33.3678 39.6005 32.4276C40.7669 31.8282 41.7879 31.2981 42.809 30.7712Z" fill="white"/>
<path d="M32.1036 41.5298C31.5325 42.0693 30.9648 42.6088 30.3937 43.1483C30.9614 42.6088 31.5325 42.0693 32.1036 41.5298Z" fill="#CEF8EB"/>
<path d="M20.7094 22.5398C20.9344 22.6537 21.1628 22.7644 21.3878 22.8783C21.1594 22.7676 20.9344 22.6537 20.7094 22.5398Z" fill="#C4F5E2"/>
<path d="M44.5326 30.0928C44.2765 30.1845 44.0169 30.2731 43.7607 30.3649C44.0169 30.2731 44.2765 30.1814 44.5326 30.0928Z" fill="#0E934D"/>
<path d="M25.0457 32.2667C24.9836 32.0963 24.918 31.9228 24.8559 31.7524C24.918 31.9228 24.9801 32.0932 25.0457 32.2667Z" fill="#C4F5E2"/>
<path d="M50.4408 37.4473C50.6 37.4665 50.7627 37.4858 50.9219 37.5051C50.7627 37.4858 50.6035 37.4665 50.4408 37.4473Z" fill="#9AE6B4"/>
<path d="M33.1454 40.5864C33.0277 40.694 32.9135 40.8016 32.7958 40.9123C32.9135 40.8016 33.0311 40.694 33.1454 40.5864Z" fill="#CEF8EB"/>
<path d="M33.4915 40.2678C33.3738 40.3754 33.2596 40.483 33.1419 40.5874C33.2596 40.483 33.3773 40.3754 33.4915 40.2678Z" fill="#CEF8EB"/>
<path d="M30.4041 23.8628C30.4904 23.7331 30.5732 23.6065 30.6594 23.4768C30.5732 23.6065 30.4869 23.7362 30.4041 23.8628Z" fill="#C4F5E2"/>
<path d="M14.7977 27.053C14.9119 27.0304 15.0262 27.0109 15.1404 26.9883C15.0262 27.0077 14.9119 27.0304 14.7977 27.053Z" fill="#C4F5E2"/>
<path d="M54.6081 37.8221C54.4904 37.8065 54.3693 37.7909 54.2516 37.7722C54.3693 37.7878 54.4869 37.8034 54.6081 37.8221Z" fill="#0E934D"/>
</svg>
