<svg width="67" height="63" viewBox="0 0 67 63" fill="none" xmlns="http://www.w3.org/2000/svg">
<g clip-path="url(#clip0_7_1190)">
<path d="M29.4305 26.7129C29.5145 26.8552 29.5985 26.9975 29.6824 27.1371C29.3155 27.2069 28.9516 27.2767 28.9796 27.2714C29.7011 29.6959 30.3884 32.0076 31.0757 34.3194C29.2688 35.1356 27.465 35.9545 25.658 36.7708C25.4652 36.8486 25.2724 36.9292 25.0764 37.007C24.7095 37.0312 24.3425 37.0527 23.9755 37.0768C23.7236 37.0715 23.4748 37.0634 23.226 37.058C20.9059 37.1332 18.5857 37.2084 16.2656 37.2809C16.107 37.2191 15.9484 37.1574 15.7867 37.0929C15.5472 37.0983 15.3109 37.101 15.0714 37.1064C13.1152 37.0876 11.1589 37.0688 9.2027 37.0527L9.22447 37.0607C9.02232 36.9775 8.82327 36.8943 8.62112 36.8137C7.86226 36.7842 7.10652 36.7573 6.34767 36.7278C5.53905 36.4781 4.72732 36.2284 3.91871 35.9787L3.92493 35.9814C2.80531 35.4497 1.68258 34.9181 0.562955 34.3892C0.550515 34.2737 0.538075 34.161 0.525635 34.0455C0.721568 33.7958 0.917502 33.5434 1.11344 33.2937C1.21918 30.5739 3.57349 28.34 3.37445 25.5449C3.36512 25.4214 3.79742 25.3086 3.89694 25.1368C4.00268 24.9515 3.95603 24.7018 3.97469 24.479L3.86895 24.3904C4.20794 22.8573 4.46608 21.308 4.91393 19.7991C5.30269 18.4942 5.18139 16.9477 6.99145 16.1851C6.64623 15.9327 6.40054 15.7555 6.15484 15.5756C6.31346 15.5676 6.47207 15.5622 6.63068 15.5542C6.81417 14.3862 6.95724 13.2129 7.1936 12.053C7.44552 10.8233 7.78451 9.60697 8.08619 8.38263C8.78284 8.35846 9.4795 8.3343 10.173 8.31014C10.4809 8.37189 10.7919 8.43633 11.0998 8.49808C14.0855 9.60966 17.0929 9.33042 20.1035 8.59743C20.8343 8.25375 21.5652 7.91276 22.296 7.56909C22.7066 7.55835 23.1171 7.55029 23.5276 7.53955C23.6178 7.63084 23.7049 7.71944 23.7951 7.81073C24.0532 8.24301 24.3145 8.67798 24.5726 9.11025C25.0267 11.0005 25.4776 12.8907 25.9317 14.7836C25.7264 14.942 25.5243 15.1031 25.319 15.2615C26.4729 16.0589 25.8757 17.1866 26.1028 18.1613C26.2707 18.8701 26.9767 19.4769 27.2037 20.1884C27.7666 21.939 28.1678 23.7299 28.6934 25.4912C28.821 25.9289 29.1786 26.3101 29.4305 26.7129Z" fill="#4C4C4E"/>
<path d="M23.9724 37.0795C24.3393 37.0553 24.7063 37.0338 25.0733 37.0097C25.4714 37.0124 25.8695 37.0124 26.2676 37.015C28.0279 36.4915 29.7851 35.9679 31.5454 35.4443C31.5702 35.7826 31.592 36.1183 31.6169 36.4566C31.508 36.7734 31.2997 37.0929 31.309 37.407C31.3681 39.9766 31.4707 42.5434 31.5578 45.1129C31.5547 45.8325 31.5547 46.552 31.5516 47.2716C31.5267 49.3954 31.4987 51.5165 31.4738 53.6403C30.2889 54.47 29.1008 55.2996 27.9159 56.1293C25.9348 56.6797 23.9537 57.2301 21.9757 57.7806C19.5125 57.8745 17.0494 57.9685 14.5862 58.0598C9.97709 57.4879 5.46751 56.6394 1.39644 54.5532C1.11964 53.9813 0.606485 53.4094 0.600265 52.8349C0.531844 48.0046 0.547394 43.1743 0.562944 38.3441C0.566054 37.4124 0.681126 36.4834 0.746438 35.5517C3.52061 36.7976 6.33521 37.9172 9.57279 37.8152C10.9163 38.0085 12.2723 38.4112 13.6034 38.3575C16.7726 38.2313 19.9324 37.9011 23.0922 37.6111C23.4032 37.5843 23.68 37.2647 23.9724 37.0795ZM9.86824 49.4303C9.69408 49.5109 9.5168 49.5887 9.34264 49.6693C8.24479 50.3056 7.14694 50.9393 6.04909 51.5756C5.46129 51.8844 4.87349 52.1931 4.15817 52.5664C4.54071 53.1409 4.92636 53.7182 5.48928 54.5667C6.11129 53.4336 6.57158 52.5932 7.03187 51.7528C7.23402 51.6025 7.43928 51.4521 7.64144 51.3017C7.85292 51.2991 8.06441 51.2964 8.27589 51.291C8.36608 51.2319 8.45938 51.1755 8.54958 51.1165C8.96943 51.1004 9.38618 51.0843 9.80604 51.0708C10.0051 50.9339 10.2041 50.7996 10.4001 50.6627C10.8168 50.7647 11.2336 50.8668 11.6503 50.9661C11.7934 52.6093 13.4137 52.7624 14.7199 53.1946C16.191 53.6806 18.2778 52.9584 18.9434 51.7931C19.1704 51.1782 19.3975 50.5634 19.6867 49.782C20.6539 50.1714 21.6149 50.558 22.5728 50.9419C23.7049 51.8817 24.837 52.8241 26.2054 53.9572C26.448 53.3262 26.6905 52.6925 26.9331 52.0589C26.42 51.9246 25.8228 51.8951 25.4123 51.64C23.8137 50.6439 22.2774 49.5753 20.7192 48.5335C20.5233 47.0353 20.3243 45.5371 20.1283 44.0389C20.3585 43.6899 20.5886 43.3408 20.8156 42.9891C21.0334 43.0616 21.2542 43.1368 21.4719 43.2093C21.7393 43.032 22.0099 42.8548 22.2774 42.6776L22.2587 42.6937C23.1358 42.2427 24.0128 41.7916 24.8898 41.3405C25.1697 41.2251 25.4745 41.1418 25.7202 40.9861C26.109 40.7391 26.7994 40.4035 26.7621 40.1779C26.647 39.4825 26.2769 38.7791 25.1915 38.8945C25.0702 38.9079 24.9925 39.2087 24.8898 39.3751C24.8214 39.5389 24.7499 39.7027 24.6814 39.8665C24.2274 40.2665 23.7702 40.6666 23.3161 41.0693C22.9087 41.2412 22.4982 41.4157 22.0908 41.5875C21.9944 41.6385 21.8979 41.6896 21.8046 41.7406C21.6523 41.8856 21.4999 42.0332 21.3475 42.1782L21.363 42.1648C21.1515 42.3474 20.9432 42.5273 20.7317 42.7099L20.7597 42.6991C19.5903 43.2576 18.4893 42.9166 17.3355 42.5863C15.8769 42.1675 14.412 42.1997 13.0747 42.981C12.7606 42.981 12.4465 42.981 12.1293 42.9837C10.879 42.3581 9.62877 41.7352 8.37852 41.1096C8.11728 41.0237 7.85914 40.9378 7.5979 40.8545C7.52015 39.7752 6.84526 39.1442 5.3711 38.8462C5.11918 39.5362 4.86727 40.237 4.61224 40.9378C5.42397 40.9727 6.23569 41.0076 7.05053 41.0425C7.35842 41.2546 7.66632 41.4667 7.97421 41.6788C7.83737 42.6857 8.65221 42.6696 9.43283 42.6884C9.67542 42.6857 9.918 42.683 10.1606 42.6803L10.1544 42.6427C10.3379 43.5798 10.5214 44.5195 10.7048 45.4566C10.4871 45.8486 10.1326 46.2298 10.0859 46.638C9.99264 47.4515 10.0673 48.2812 10.0735 49.1028C9.99886 49.2182 9.92111 49.3337 9.84647 49.4464C9.85269 49.4491 9.86824 49.4303 9.86824 49.4303Z" fill="#E8767D"/>
<path d="M27.947 60.7287C27.7293 60.8226 27.5116 60.9139 27.2939 61.0079C27.042 60.922 26.7963 60.7716 26.5413 60.7582C25.375 60.7018 24.4824 61.5368 23.4343 61.6228C19.8546 61.9208 16.2594 62.1195 12.6673 62.2161C11.5197 62.2457 10.3099 61.9503 9.20889 61.6093C7.66631 61.1287 6.1797 60.5434 4.4816 60.7206L4.49715 60.7636C4.2639 60.4709 4.08041 60.1299 3.78184 59.899C2.94524 59.2493 1.88471 58.7552 1.25336 57.9873C0.805515 57.445 0.914367 56.5589 0.774414 55.8259C1.0792 55.8232 1.38088 55.8206 1.68566 55.8179C1.80384 55.8313 1.92514 55.8447 2.04332 55.8581C2.77418 56.2179 3.50816 56.575 4.23902 56.9348L4.22658 56.9294C4.64644 57.0207 5.06319 57.1147 5.48304 57.206L5.47371 57.2006C5.78783 57.2919 6.09884 57.3859 6.41295 57.4772L6.40362 57.4745C8.38162 57.9175 10.3596 58.3632 12.3376 58.8062C14.7199 58.7203 17.1053 58.6344 19.4876 58.5485C20.3149 58.5431 21.1484 58.5968 21.9632 58.5189C24.896 58.2397 27.6329 57.4557 30.0929 56.0219C30.4164 56.1508 30.7398 56.2824 31.2748 56.4945C30.6528 57.6141 30.292 59.2197 28.2953 59.9124C27.9594 60.0306 26.7247 60.0467 27.947 60.7287Z" fill="#4C4C4E"/>
<path d="M30.093 56.0246C27.6329 57.461 24.8961 58.245 21.9633 58.5216C21.1453 58.5994 20.3118 58.5457 19.4877 58.5511C19.5872 58.4598 19.6898 58.3659 19.7893 58.2746C20.5171 58.1108 21.248 57.9443 21.9757 57.7805C23.9568 57.2301 25.9379 56.6797 27.9159 56.1293C29.4399 55.9548 31.1908 54.7304 31.4769 53.6403C31.5018 51.5165 31.5298 49.3954 31.5547 47.2716C31.5578 46.552 31.5578 45.8324 31.5609 45.1129C31.4738 42.5434 31.3712 39.9765 31.3121 37.407C31.3059 37.0929 31.5112 36.7734 31.62 36.4565C31.732 36.5881 31.9403 36.7197 31.9403 36.8512C31.959 42.8333 31.959 48.8127 31.9621 54.7948C31.337 55.2056 30.715 55.6138 30.093 56.0246Z" fill="#3E1810"/>
<path d="M3.97152 24.4867C3.95286 24.7096 3.99951 24.9593 3.89376 25.1445C3.79424 25.3164 3.36194 25.4291 3.37127 25.5527C3.57032 28.3477 1.216 30.5816 1.11026 33.3015C0.914328 33.3041 0.718395 33.3041 0.522461 33.3068C2.95142 24.9781 5.37726 16.6493 7.80622 8.32324C7.89019 8.37157 7.98038 8.39305 8.08301 8.39305C7.78134 9.61471 7.44234 10.831 7.19354 12.0607C6.95717 13.2206 6.81411 14.3939 6.63062 15.5619C6.472 15.57 6.31339 15.5753 6.15478 15.5834C6.40047 15.7606 6.64306 15.9405 6.99138 16.1929C5.17822 16.9554 5.29951 18.5046 4.91386 19.8068C4.46602 21.3158 4.20788 22.865 3.86888 24.3981C3.83778 24.4626 3.80668 24.527 3.77247 24.5914C3.83778 24.5539 3.9031 24.5189 3.97152 24.4867Z" fill="#1E1F20"/>
<path d="M4.48157 60.7232C6.17966 60.546 7.66627 61.134 9.20886 61.6119C10.3098 61.9529 11.5196 62.251 12.6672 62.2187C16.2625 62.1221 19.8546 61.9234 23.4343 61.6254C24.4855 61.5368 25.3749 60.7044 26.5412 60.7608C26.7962 60.7742 27.045 60.9219 27.2939 61.0105C19.8888 63.6794 12.462 63.6122 5.01961 61.1367C4.81123 61.0669 4.65884 60.8628 4.48157 60.7232Z" fill="#1E1F20"/>
<path d="M1.68561 55.8205C1.38082 55.8232 1.07915 55.8259 0.774363 55.8286C0.550439 55.5628 0.326515 55.297 0.102591 55.0312C0.06527 50.4802 0.0061789 45.9265 -4.12184e-05 41.3754C-0.00315128 39.453 0.0839304 37.5306 0.180342 35.6108C0.199003 35.2 0.429147 34.8 0.562879 34.3945C1.6825 34.9262 2.80523 35.4578 3.92485 35.9867C3.26863 35.7934 2.62485 35.5437 1.95308 35.4229C1.57676 35.3557 1.14757 35.5007 0.743263 35.5518C0.681062 36.4834 0.562879 37.4124 0.559769 38.3441C0.544219 43.1744 0.528669 48.0046 0.59709 52.8349C0.60642 53.4094 1.11647 53.9813 1.39327 54.5532C1.49279 54.9775 1.5892 55.399 1.68561 55.8205Z" fill="#3E1810"/>
<path d="M29.4305 26.7125C29.1786 26.3071 28.824 25.9258 28.6934 25.4962C28.1678 23.7349 27.7666 21.9467 27.2037 20.1934C26.9766 19.4846 26.2706 18.8778 26.1027 18.1663C25.8726 17.1916 26.4728 16.0639 25.319 15.2665C25.5242 15.1081 25.7264 14.947 25.9316 14.7886C26.1307 15.0329 26.4386 15.2531 26.5163 15.5243C27.5116 18.9422 28.4819 22.3629 29.4367 25.7889C29.5144 26.0815 29.4367 26.4037 29.4305 26.7125Z" fill="#1E1F20"/>
<path d="M30.093 56.0244C30.715 55.6163 31.337 55.2055 31.9621 54.7974C32.071 58.3818 31.365 59.4236 27.947 60.7311C26.7248 60.0465 27.9595 60.033 28.2954 59.9149C30.292 59.2222 30.6528 57.6166 31.2748 56.4969C30.7399 56.2821 30.4164 56.1533 30.093 56.0244Z" fill="#2F3031"/>
<path d="M0.105756 55.0337C0.32968 55.2995 0.553605 55.5653 0.777529 55.8311C0.917482 56.5641 0.80863 57.4475 1.25648 57.9898C1.88782 58.7551 2.94835 59.2518 3.78496 59.9015C4.08352 60.1324 4.26391 60.4761 4.50027 60.7661C1.2316 60.0868 -0.152379 58.2825 0.105756 55.0337Z" fill="#2F3031"/>
<path d="M31.0725 34.3219C30.3852 32.0102 29.6979 29.6984 28.9764 27.2739C28.9484 27.2793 29.3154 27.2095 29.6792 27.1396C30.3137 29.6071 30.945 32.0773 31.5795 34.5448C31.4115 34.4696 31.2436 34.3944 31.0725 34.3219Z" fill="#1E1F20"/>
<path d="M9.50747 3.25671C10.3316 3.06071 11.1558 2.86739 11.98 2.67139C13.5443 2.6875 15.1056 2.70092 16.6699 2.71703C15.8986 2.8835 15.1367 3.0795 14.3592 3.21375C12.9161 3.46345 11.4668 3.67825 9.81537 3.94137C10.2943 4.26089 10.5276 4.41661 10.7577 4.56966C10.0268 4.48374 9.29288 4.4005 8.56201 4.31458C8.87613 3.96285 9.19024 3.61112 9.50747 3.25671Z" fill="#BB2648"/>
<path d="M9.50749 3.25667C9.19338 3.61109 8.87615 3.96282 8.56204 4.31723C8.55582 4.36556 8.55893 4.41657 8.57137 4.4649C7.38643 5.67045 7.80007 7.0022 9.52304 7.51771C9.73764 7.78352 9.95534 8.05202 10.1699 8.31783C9.47639 8.34199 8.77974 8.36616 8.08309 8.39301C7.98045 8.39569 7.88715 8.37153 7.80629 8.32588C7.73165 7.15792 7.63213 5.98996 7.5917 4.81932C7.55127 3.70238 8.21993 3.18418 9.50749 3.25667Z" fill="#5D3024"/>
<path d="M16.6699 2.71699C15.1056 2.70088 13.5443 2.68746 11.98 2.67135C12.7419 2.51025 13.5195 2.17194 14.2597 2.22296C16.9996 2.40554 19.8391 2.07797 22.4298 3.17075C22.8559 3.35064 23.1824 3.70237 23.5525 3.97356C23.4405 3.98161 23.3286 3.98698 23.2166 3.99235C23.1513 3.9655 23.086 3.96282 23.0207 3.9843C22.8745 3.90106 22.7283 3.81783 22.5822 3.73191C22.52 3.697 22.4516 3.68895 22.3831 3.71043C22.1468 3.6272 21.9073 3.54396 21.6709 3.46073L21.6771 3.4661C21.0458 3.31037 20.4145 3.15464 19.7831 2.99623C19.5841 2.96938 19.385 2.94253 19.186 2.91299C18.564 2.85661 17.9451 2.80291 17.3231 2.74653C17.1054 2.74116 16.8877 2.73042 16.6699 2.71699Z" fill="#3E1810"/>
<path d="M31.0726 34.3218C31.2406 34.397 31.4116 34.4695 31.5796 34.5446C31.5671 34.8453 31.5578 35.1461 31.5454 35.4468C29.7851 35.9703 28.0248 36.4939 26.2676 37.0175C26.0623 36.9369 25.8571 36.8564 25.6549 36.7758C27.4619 35.9569 29.2688 35.138 31.0726 34.3218Z" fill="#942C3E"/>
<path d="M23.2197 3.99243C23.3317 3.98706 23.4436 3.979 23.5556 3.97363C23.6582 3.99511 23.7609 4.01928 23.8666 4.04344C23.9848 5.03151 24.103 6.01958 24.2211 7.00764C23.991 7.18753 23.7577 7.36743 23.5276 7.54732C23.1171 7.55806 22.7065 7.56611 22.296 7.57417C23.6365 6.90293 23.1979 5.80478 23.1886 4.80866C23.201 4.73079 23.2073 4.65293 23.2135 4.57506C23.2135 4.38175 23.2166 4.18843 23.2197 3.99243Z" fill="#BB2648"/>
<path d="M0.522461 33.3042C0.718395 33.3015 0.914328 33.3015 1.11026 33.2988C0.914328 33.5485 0.718395 33.8009 0.522461 34.0506C0.522461 33.8036 0.522461 33.5539 0.522461 33.3042Z" fill="#2F3031"/>
<path d="M23.1855 4.80859C23.1948 5.80471 23.6365 6.90286 22.296 7.5741C21.5652 7.91777 20.8343 8.26145 20.1034 8.60244C17.1022 8.57022 14.101 8.53532 11.0998 8.5031C10.7919 8.44134 10.4809 8.3769 10.173 8.31515C9.95843 8.04934 9.74073 7.78084 9.52613 7.51503C9.59144 7.21968 9.65675 6.92702 9.72518 6.62631C8.26034 6.53502 8.05507 6.16986 8.62421 4.77637C8.82015 4.80053 9.01608 4.82738 9.21202 4.85155C9.33953 5.09588 9.46704 5.34021 9.59455 5.58723C9.78427 5.43955 9.97087 5.29188 10.1606 5.14421C14.5333 6.05172 18.8874 6.22088 23.1855 4.80859Z" fill="#D1234A"/>
<path d="M0.743286 35.5545C1.14759 35.5035 1.57678 35.3585 1.9531 35.4256C2.62798 35.5464 3.26865 35.7935 3.92488 35.9895L3.91866 35.9868C4.72727 36.2365 5.539 36.4862 6.34761 36.7359C7.10647 36.7654 7.86221 36.7923 8.62107 36.8218C8.82322 36.905 9.02226 36.9883 9.22442 37.0688C9.22442 37.0688 9.20265 37.0608 9.20576 37.0608C10.6519 37.2326 12.095 37.4581 13.5474 37.5467C14.0419 37.5763 14.5644 37.2675 15.0744 37.1145C15.3139 37.1091 15.5503 37.1064 15.7898 37.101C15.9484 37.1628 16.1101 37.2245 16.2687 37.289C18.5888 37.2138 20.9089 37.1386 23.2259 37.0661C23.1046 37.144 22.9864 37.2863 22.862 37.2917C19.0678 37.4904 15.2735 37.6783 11.4761 37.8528C10.8448 37.8824 10.2103 37.834 9.57586 37.8206C6.33517 37.92 3.51746 36.8003 0.743286 35.5545Z" fill="#942C3E"/>
<path d="M9.57275 37.818C10.2072 37.8314 10.8417 37.8797 11.473 37.8502C15.2673 37.6757 19.0647 37.485 22.8589 37.289C22.9864 37.2836 23.1015 37.1413 23.2228 37.0635C23.4716 37.0688 23.7235 37.0769 23.9723 37.0823C23.68 37.2675 23.4032 37.587 23.0922 37.6166C19.9324 37.9066 16.7725 38.2341 13.6034 38.363C12.2723 38.4113 10.9163 38.0113 9.57275 37.818Z" fill="#5D3024"/>
<path d="M11.0967 8.50342C14.0979 8.53564 17.0991 8.57054 20.1003 8.60276C17.0867 9.33576 14.0823 9.61768 11.0967 8.50342Z" fill="#3E1810"/>
<path d="M15.0713 37.1118C14.5613 37.2648 14.0388 37.5736 13.5443 37.5441C12.0919 37.4528 10.6488 37.2299 9.20264 37.0581C11.1589 37.0742 13.1151 37.093 15.0713 37.1118Z" fill="#3E1810"/>
<path d="M6.34766 36.733C5.53904 36.4833 4.72732 36.2336 3.9187 35.9839C4.72732 36.2336 5.53593 36.4833 6.34766 36.733Z" fill="#3E1810"/>
<path d="M25.6548 36.7734C25.8601 36.854 26.0653 36.9345 26.2675 37.0151C25.8694 37.0124 25.4713 37.0124 25.0732 37.0097C25.2692 36.9318 25.462 36.8513 25.6548 36.7734Z" fill="#5D3024"/>
<path d="M16.2625 37.2836C16.1039 37.2219 15.9422 37.1575 15.7836 37.0957C15.9453 37.1601 16.1039 37.2219 16.2625 37.2836Z" fill="#3E1810"/>
<path d="M20.1315 44.0444C20.3274 45.5426 20.5264 47.0408 20.7224 48.539C19.1891 49.2425 18.7537 50.3916 18.9496 51.7959C18.2841 52.9611 16.2004 53.6834 14.7262 53.1974C13.42 52.7651 11.7996 52.6121 11.6566 50.9689C11.641 50.6145 11.6255 50.2628 11.6099 49.9083C11.5633 49.8412 11.5166 49.7741 11.47 49.707C11.4326 49.7875 11.3984 49.8707 11.3611 49.9513C11.0501 49.9889 10.7391 50.0292 10.4312 50.0667C10.1233 50.1178 9.81229 50.1688 9.50439 50.2225C9.61014 50.0426 9.71899 49.8627 9.82473 49.6828C9.85583 49.6586 9.91181 49.6318 9.91181 49.6076C9.91181 49.5485 9.88382 49.4868 9.86516 49.4277L9.8465 49.4465C10.0393 49.4062 10.2321 49.3687 10.425 49.3284C10.7764 49.3472 11.1247 49.366 11.0936 49.3633C10.9599 48.0074 10.8324 46.732 10.708 45.454C10.5245 44.5169 10.341 43.5772 10.1575 42.6401C10.5556 42.8227 10.9381 43.059 11.3642 43.1691C11.5819 43.2255 11.8743 43.0536 12.1355 42.9838C12.4496 42.9838 12.7637 42.9838 13.081 42.9811C13.3453 43.0268 13.647 43.1691 13.8709 43.1046C15.7774 42.5623 17.5159 42.7475 19.1176 43.8457C19.3602 44.0175 19.7894 43.9853 20.1315 44.0444ZM14.552 48.3994C14.6329 48.2034 14.7137 48.0074 14.7946 47.8114C14.8226 47.7335 14.8319 47.6503 14.8226 47.5697C14.9066 47.4758 14.9905 47.3818 15.0745 47.2851C15.1523 46.34 15.1958 45.4191 13.5537 45.7064C13.1369 46.0474 12.4061 46.3642 12.3719 46.732C12.3066 47.4086 12.4278 48.2598 12.8819 48.7645C13.336 49.2693 14.2659 49.3552 14.5925 48.3833C14.5893 48.3833 14.552 48.3994 14.552 48.3994ZM15.9702 46.8824C16.5518 47.6959 16.9965 48.3162 17.4413 48.9391C17.9793 48.3511 18.8999 47.7765 18.9341 47.167C18.9621 46.6703 17.9264 46.1306 17.3604 45.6097C16.9468 45.9883 16.53 46.3696 15.9702 46.8824Z" fill="#E8E5E4"/>
<path d="M1.68566 55.8203C1.58924 55.3987 1.48972 54.9772 1.39331 54.5557C5.46438 56.6392 9.97396 57.4903 14.5831 58.0622C16.3154 58.1347 18.0508 58.2045 19.7862 58.277C19.6867 58.3683 19.584 58.4623 19.4845 58.5536C17.1022 58.6395 14.7168 58.7254 12.3345 58.8113C12.2412 58.669 12.1697 58.4193 12.0484 58.3978C10.1699 58.073 8.2852 57.7803 6.40362 57.4796L6.41295 57.4823C6.09883 57.391 5.78782 57.297 5.47371 57.2057L5.48304 57.2111C5.06318 57.1198 4.64643 57.0258 4.22657 56.9345L4.23901 56.9399C3.50815 56.5801 2.77418 56.223 2.04331 55.8632C1.92513 55.8471 1.80695 55.8337 1.68566 55.8203Z" fill="#942C3E"/>
<path d="M18.9496 51.7954C18.7568 50.3912 19.1891 49.242 20.7223 48.5386C22.2836 49.5803 23.82 50.649 25.4185 51.6451C25.8291 51.9002 26.4262 51.9297 26.9394 52.0639C25.8384 51.7364 24.7437 51.3981 23.6365 51.0893C23.3006 50.9953 22.9336 50.9899 22.5822 50.947C21.6243 50.5604 20.6633 50.1764 19.696 49.7871C19.4037 50.5657 19.1767 51.1806 18.9496 51.7954Z" fill="#5D3024"/>
<path d="M7.05669 41.0449C6.24497 41.01 5.43324 40.9751 4.61841 40.9402C4.87343 40.2394 5.12535 39.5387 5.37726 38.8486C6.85454 39.1467 7.52942 39.7776 7.60406 40.857C7.41746 40.8409 7.23086 40.8248 7.04425 40.8087C6.99138 40.7738 6.94162 40.7362 6.89186 40.7013C6.9354 40.7442 6.97583 40.7899 7.01937 40.8328C7.0287 40.8999 7.04114 40.9724 7.05669 41.0449Z" fill="#C0C0C0"/>
<path d="M22.579 50.9443C22.9304 50.99 23.2974 50.9953 23.6333 51.0866C24.7405 51.3954 25.8383 51.7337 26.9362 52.0613C26.6936 52.6949 26.451 53.3286 26.2084 53.9595C24.8462 52.8265 23.711 51.8868 22.579 50.9443Z" fill="#E8E5E4"/>
<path d="M7.03812 51.7529C6.57783 52.5933 6.11755 53.4337 5.49553 54.5667C4.93261 53.721 4.54697 53.1437 4.16443 52.5664C4.87974 52.1905 5.46754 51.8845 6.05534 51.5757C6.3819 51.6348 6.70846 51.6938 7.03812 51.7529Z" fill="#E8E5E4"/>
<path d="M24.9022 39.3859C24.9986 39.2168 25.0795 38.9161 25.1976 38.9027C26.283 38.7872 26.6531 39.4907 26.7682 40.1861C26.8055 40.4116 26.1151 40.7472 25.7263 40.9942C25.4807 41.15 25.1728 41.2332 24.896 41.3487C24.8586 41.252 24.8213 41.1527 24.7871 41.056C24.8244 40.4975 24.8618 39.9417 24.9022 39.3859Z" fill="#E8C9B6"/>
<path d="M20.1314 44.044C19.7893 43.9849 19.3601 44.0171 19.1176 43.8506C17.5159 42.7525 15.7805 42.5672 13.8709 43.1096C13.647 43.174 13.3484 43.0317 13.0809 42.9861C14.4214 42.2021 15.8831 42.1698 17.3417 42.5914C18.4955 42.9243 19.5965 43.2626 20.7659 42.7042C20.7845 42.8008 20.8001 42.8975 20.8188 42.9968C20.5917 43.3459 20.3616 43.6949 20.1314 44.044Z" fill="#5D3024"/>
<path d="M31.4737 53.6401C31.1876 54.7302 29.4366 55.9546 27.9127 56.1291C29.1008 55.2994 30.2888 54.4698 31.4737 53.6401Z" fill="#942C3E"/>
<path d="M19.7861 58.2743C18.0507 58.2018 16.3184 58.132 14.583 58.0595C17.0462 57.9655 19.5093 57.8716 21.9725 57.7803C21.2448 57.9467 20.517 58.1105 19.7861 58.2743Z" fill="#5D3024"/>
<path d="M10.7111 45.4565C10.8386 46.7346 10.963 48.0099 11.0967 49.3658C11.1278 49.3685 10.7795 49.3497 10.4281 49.3309C10.3099 49.2558 10.1948 49.1806 10.0766 49.1027C10.0704 48.2811 9.99576 47.4515 10.0891 46.6379C10.1388 46.2325 10.4965 45.8512 10.7111 45.4565Z" fill="#5D3024"/>
<path d="M7.03801 51.7525C6.70835 51.6934 6.38179 51.6343 6.05212 51.5753C7.14997 50.9389 8.24783 50.3053 9.34568 49.6689C9.5074 49.6743 9.66601 49.6797 9.82774 49.6851C9.72199 49.8649 9.61314 50.0448 9.5074 50.2247L9.53228 50.2086C9.42343 50.3053 9.31147 50.4019 9.20261 50.4986L9.22127 50.4825C8.87295 50.6275 8.52462 50.7725 8.1763 50.9175C7.99902 51.0463 7.82486 51.1752 7.64758 51.3041C7.44543 51.4518 7.24017 51.6021 7.03801 51.7525Z" fill="#5D3024"/>
<path d="M12.1386 42.9862C11.8805 43.056 11.585 43.2251 11.3673 43.1714C10.9412 43.0613 10.5618 42.8278 10.1606 42.6425L10.1668 42.6801C9.74075 42.4143 9.31778 42.1485 8.89171 41.8826L8.91037 41.8988C8.7362 41.6356 8.55893 41.3725 8.38477 41.1094C9.63812 41.7377 10.8884 42.3606 12.1386 42.9862Z" fill="#5D3024"/>
<path d="M24.7841 41.053C24.8214 41.1496 24.8587 41.249 24.8929 41.3456C24.0159 41.7967 23.1388 42.2478 22.2618 42.6989C22.2494 42.6103 22.2369 42.5243 22.2245 42.4357C22.5697 42.2236 22.9149 42.0115 23.2632 41.7994C23.652 41.547 24.0377 41.2973 24.4264 41.0449C24.5477 41.0503 24.6659 41.053 24.7841 41.053Z" fill="#5D3024"/>
<path d="M24.4295 41.0476C24.0407 41.3 23.6551 41.5497 23.2663 41.8021C23.2508 41.6571 23.2352 41.5121 23.2166 41.3644C23.2508 41.2678 23.2881 41.1711 23.3223 41.0744C23.7764 40.6744 24.2335 40.2743 24.6907 39.8716C24.6036 40.2636 24.5166 40.6556 24.4295 41.0476Z" fill="#E8C9B6"/>
<path d="M10.4311 50.0691C10.7421 50.0315 11.0531 49.9912 11.361 49.9536L11.4761 49.8945L11.6098 49.9106C11.6254 50.2651 11.6409 50.6195 11.6565 50.9712C11.2397 50.8692 10.823 50.7671 10.4062 50.6678C10.4156 50.4664 10.4249 50.2677 10.4311 50.0691Z" fill="#919194"/>
<path d="M9.4422 42.6907C8.65846 42.6719 7.84674 42.688 7.98358 41.6812C8.29458 41.7536 8.60248 41.8288 8.91349 41.9013L8.89483 41.8852C9.07521 42.151 9.2587 42.4222 9.4422 42.6907Z" fill="#5D3024"/>
<path d="M24.4296 41.0475C24.5166 40.6555 24.6037 40.2635 24.6908 39.8715C24.7592 39.7104 24.8277 39.5466 24.8992 39.3828C24.8619 39.9413 24.8245 40.4971 24.7841 41.0529C24.6659 41.0529 24.5477 41.0502 24.4296 41.0475Z" fill="#C0C0C0"/>
<path d="M8.91338 41.9014C8.60237 41.8289 8.29448 41.7537 7.98347 41.6812C7.67557 41.4691 7.36768 41.257 7.05978 41.0449C7.04112 40.9724 7.03179 40.9026 7.02246 40.8301L7.04734 40.8086C7.23394 40.8247 7.42055 40.8408 7.60715 40.8569C7.86529 40.9428 8.12653 41.0288 8.38778 41.112C8.56194 41.3751 8.7361 41.6382 8.91338 41.9014Z" fill="#E8E5E4"/>
<path d="M22.2276 42.4384C22.24 42.527 22.2525 42.6129 22.2649 42.7015L22.2836 42.6854C22.0161 42.8626 21.7455 43.0399 21.478 43.2171C21.2603 43.1446 21.0395 43.0694 20.8218 42.9969C20.8032 42.9002 20.7876 42.8036 20.769 42.7042L20.741 42.715C20.9525 42.5324 21.1608 42.3525 21.3723 42.1699L21.3568 42.1833C21.562 42.178 21.7673 42.1753 21.9725 42.1699C22.0565 42.2585 22.1405 42.3498 22.2276 42.4384Z" fill="#E8C9B6"/>
<path d="M10.4312 50.0693C10.4218 50.268 10.4156 50.4667 10.4063 50.6654C10.2072 50.7996 10.0113 50.9366 9.81226 51.0708C9.58211 50.9661 9.35197 50.8587 9.12183 50.754C9.15293 50.6627 9.18714 50.5714 9.21824 50.4828L9.19958 50.4989C9.30843 50.4023 9.42039 50.3056 9.52924 50.209L9.50436 50.2251C9.81537 50.1741 10.1233 50.1204 10.4312 50.0693Z" fill="#5D3024"/>
<path d="M31.5614 45.1152C31.558 45.8348 31.558 46.5544 31.5547 47.2739C31.5547 46.5517 31.558 45.8348 31.5614 45.1152Z" fill="#942C3E"/>
<path d="M9.44215 42.691C9.25865 42.4225 9.07516 42.154 8.89478 41.8828C9.32085 42.1486 9.74382 42.4144 10.1699 42.6802C9.92732 42.6856 9.68473 42.6883 9.44215 42.691Z" fill="#E8E5E4"/>
<path d="M9.12487 50.7539C9.35501 50.8586 9.58516 50.966 9.8153 51.0707C9.39544 51.0868 8.9787 51.103 8.55884 51.1191C8.74544 50.9982 8.93515 50.8774 9.12487 50.7539Z" fill="#C0C0C0"/>
<path d="M9.1249 50.7541C8.93519 50.8749 8.74547 50.9984 8.55887 51.1192C8.46868 51.1756 8.37538 51.2347 8.28519 51.2938C8.25097 51.1676 8.21365 51.0441 8.17944 50.9179C8.52777 50.7729 8.8761 50.6279 9.22442 50.4829C9.19021 50.5742 9.156 50.6655 9.1249 50.7541Z" fill="#E8E5E4"/>
<path d="M21.3693 42.1699C21.1578 42.3525 20.9494 42.5324 20.7379 42.715C20.9494 42.5351 21.1609 42.3525 21.3693 42.1699Z" fill="#5D3024"/>
<path d="M23.3223 41.0747C23.2881 41.1714 23.2508 41.268 23.2165 41.3647C23.0082 41.4533 22.8029 41.5392 22.5945 41.6278C22.4297 41.6171 22.2618 41.6036 22.0969 41.5929C22.5043 41.4211 22.9149 41.2492 23.3223 41.0747Z" fill="#3E1810"/>
<path d="M8.17629 50.9175C8.2105 51.0437 8.24782 51.1672 8.28203 51.2934C8.07055 51.2961 7.85907 51.2987 7.64758 51.3041C7.82486 51.1752 8.00213 51.0464 8.17629 50.9175Z" fill="#C0C0C0"/>
<path d="M22.0969 41.5928C22.2618 41.6035 22.4297 41.6169 22.5945 41.6277C22.4173 41.7431 22.24 41.8586 22.0658 41.974C21.9818 41.8989 21.8948 41.821 21.8108 41.7458C21.9041 41.6948 22.0005 41.6438 22.0969 41.5928Z" fill="#5D3024"/>
<path d="M21.9694 42.1698C21.7642 42.1752 21.5589 42.1779 21.3536 42.1833C21.506 42.0383 21.6584 41.8906 21.8108 41.7456C21.8948 41.8208 21.9788 41.8987 22.0658 41.9738C22.0378 42.041 22.0067 42.1081 21.9694 42.1698Z" fill="#5D3024"/>
<path d="M10.0797 49.1025C10.1979 49.1777 10.313 49.2529 10.4311 49.3308C10.2383 49.371 10.0455 49.4086 9.85266 49.4489C9.9273 49.3334 10.0019 49.218 10.0797 49.1025Z" fill="#3E1810"/>
<path d="M9.82776 49.6852C9.66604 49.6799 9.50743 49.6745 9.3457 49.6691C9.51987 49.5886 9.69714 49.5107 9.8713 49.4302C9.88685 49.4892 9.91484 49.551 9.91795 49.6101C9.91484 49.6342 9.85886 49.6611 9.82776 49.6852Z" fill="#3E1810"/>
<path d="M6.40356 57.4771C8.28515 57.7778 10.1698 58.0731 12.0483 58.3953C12.1696 58.4168 12.2411 58.6665 12.3344 58.8088C10.3564 58.3658 8.37845 57.9201 6.40356 57.4771Z" fill="#3E1810"/>
<path d="M2.04639 55.8608C2.77725 56.2206 3.51122 56.5777 4.24209 56.9375C3.50811 56.5777 2.77725 56.2179 2.04639 55.8608Z" fill="#3E1810"/>
<path d="M5.47058 57.2007C5.7847 57.292 6.0957 57.3859 6.40982 57.4772C6.09881 57.3859 5.7847 57.2947 5.47058 57.2007Z" fill="#3E1810"/>
<path d="M3.97156 24.4868C3.90314 24.5217 3.83783 24.5566 3.76941 24.5888C3.80051 24.5244 3.83472 24.4599 3.86582 24.3955L3.97156 24.4868Z" fill="#4C4C4E"/>
<path d="M23.2197 3.9924C23.2166 4.18572 23.2134 4.38172 23.2103 4.57504C21.3225 4.77104 19.4347 5.13619 17.55 5.12277C15.2859 5.10666 13.0218 4.77104 10.7577 4.57235C10.5244 4.41662 10.2943 4.26358 9.81531 3.94407C11.4699 3.68094 12.9191 3.46615 14.3591 3.21644C15.1366 3.0822 15.9017 2.88619 16.6699 2.71973C16.8876 2.73047 17.1053 2.74389 17.3199 2.75463C17.9419 2.81102 18.5608 2.86471 19.1828 2.9211C19.3818 2.94795 19.5809 2.9748 19.7799 3.00433C20.4113 3.16006 21.0426 3.31579 21.674 3.4742L21.6677 3.46883C21.9041 3.55207 22.1436 3.6353 22.3799 3.71853C22.4515 3.69705 22.5168 3.70511 22.579 3.74001C22.7252 3.82325 22.8713 3.90648 23.0175 3.98971C23.089 3.96286 23.1544 3.96555 23.2197 3.9924Z" fill="#D1234A"/>
<path d="M10.7577 4.57245C13.0218 4.77114 15.2828 5.10676 17.5501 5.12287C19.4348 5.1363 21.3226 4.77383 23.2104 4.57514C23.2073 4.653 23.1979 4.73087 23.1855 4.80873C18.8874 6.21834 14.5364 6.04918 10.1574 5.14435C9.84022 5.04769 9.523 4.95103 9.20577 4.85438C9.00984 4.83021 8.8139 4.80336 8.61797 4.7792C8.60242 4.67448 8.58687 4.56977 8.57132 4.46506C8.55888 4.41673 8.55266 4.3684 8.56199 4.31738C9.29285 4.4033 10.0237 4.48654 10.7577 4.57245Z" fill="#942C3E"/>
<path d="M8.57129 4.46533C8.58684 4.57005 8.60239 4.67476 8.61794 4.77947C8.0488 6.17297 8.25406 6.53812 9.7189 6.62941C9.65359 6.92744 9.58828 7.22279 9.51986 7.51814C7.8 7.00262 7.38636 5.67088 8.57129 4.46533Z" fill="#BB2648"/>
<path d="M19.1829 2.91842C18.5609 2.86204 17.942 2.80565 17.3199 2.75195C17.942 2.80834 18.564 2.86472 19.1829 2.91842Z" fill="#BB2648"/>
<path d="M21.6771 3.47182C21.0458 3.31609 20.4144 3.15768 19.7831 3.00195C20.4144 3.15768 21.0458 3.31341 21.6771 3.47182Z" fill="#BB2648"/>
<path d="M23.0207 3.98701C22.8745 3.90377 22.7283 3.82054 22.5822 3.7373C22.7283 3.81785 22.8745 3.90109 23.0207 3.98701Z" fill="#BB2648"/>
<path d="M9.20581 4.85449C9.52304 4.95115 9.84026 5.04781 10.1575 5.14447C9.96777 5.29214 9.78117 5.43981 9.59146 5.58749C9.46084 5.34316 9.33332 5.09882 9.20581 4.85449Z" fill="#BB2648"/>
<path d="M15.9701 46.882C16.5268 46.3719 16.9435 45.9906 17.3603 45.6094C17.9263 46.1303 18.962 46.6699 18.934 47.1667C18.8998 47.7761 17.9792 48.3507 17.4412 48.9387C16.9964 48.3158 16.5517 47.6929 15.9701 46.882Z" fill="#4C4C4E"/>
<path d="M14.8195 47.5694C14.8319 47.6526 14.8226 47.7332 14.7915 47.811C14.7106 48.007 14.6298 48.203 14.5489 48.399C14.5489 48.399 14.5862 48.3856 14.5862 48.3829C14.0015 48.2836 12.9441 48.2326 12.9224 48.0741C12.8415 47.4996 13.0934 46.8847 13.2489 46.2913C13.3018 46.0873 13.448 45.902 13.5506 45.7087C15.1927 45.4214 15.146 46.3423 15.0714 47.2875C14.9874 47.3787 14.9035 47.4727 14.8195 47.5694Z" fill="#4A4A47"/>
<path d="M13.5505 45.7061C13.4479 45.8994 13.3048 46.0873 13.2488 46.2887C13.0933 46.8821 12.8383 47.4969 12.9223 48.0715C12.944 48.2299 14.0046 48.2809 14.5861 48.3803C14.2627 49.3522 13.3328 49.2663 12.8756 48.7615C12.4215 48.2595 12.3002 47.4056 12.3656 46.729C12.406 46.3639 13.1337 46.047 13.5505 45.7061Z" fill="#1E1F20"/>
<path d="M14.8195 47.5693C14.9034 47.4753 14.9874 47.3813 15.0714 47.2847C14.9874 47.3786 14.9034 47.4726 14.8195 47.5693Z" fill="#1E1F20"/>
<path d="M11.6129 49.9108L11.4792 49.8947L11.3641 49.9538C11.4015 49.8733 11.4357 49.79 11.473 49.7095C11.5196 49.7766 11.5663 49.8437 11.6129 49.9108Z" fill="#5D3024"/>
<path d="M7.02253 40.8303C6.97899 40.7873 6.93856 40.7417 6.89502 40.6987C6.94478 40.7363 6.99765 40.7712 7.04741 40.8061L7.02253 40.8303Z" fill="#E8E5E4"/>
<path d="M9.5323 50.209C9.42345 50.3056 9.31149 50.4023 9.20264 50.499C9.31149 50.4023 9.42034 50.3056 9.5323 50.209Z" fill="#E8E5E4"/>
<path d="M21.9695 42.1702C22.0068 42.1085 22.0379 42.0414 22.0659 41.9742C22.2432 41.8588 22.4204 41.7433 22.5946 41.6279C22.803 41.5393 23.0082 41.4533 23.2166 41.3647C23.2322 41.5097 23.2477 41.6547 23.2664 41.8024C22.9212 42.0145 22.5759 42.2266 22.2276 42.4387C22.1405 42.3501 22.0566 42.2588 21.9695 42.1702Z" fill="#C0C0C0"/>
</g>
<defs>
<clipPath id="clip0_7_1190">
<rect width="67" height="63" fill="white"/>
</clipPath>
</defs>
</svg>
