<svg width="62" height="58" viewBox="0 0 62 58" fill="none" xmlns="http://www.w3.org/2000/svg">
<path d="M2.41943 46.1334C2.82405 46.1272 3.22866 46.1273 3.63328 46.1211C3.22866 46.6942 2.82405 47.2735 2.41943 47.8466C2.41943 47.2796 2.41943 46.7065 2.41943 46.1334Z" fill="#2F3031"/>
<path d="M14.4488 54.003C12.779 53.4299 11.1027 52.8568 9.43286 52.2837C11.1027 52.8568 12.7725 53.4299 14.4488 54.003Z" fill="#3E1810"/>
<path d="M9.54185 25.8897C9.40056 25.9698 9.26568 26.0499 9.12439 26.1239C9.18861 25.976 9.25926 25.8281 9.32349 25.6802C9.32349 25.6863 9.54185 25.8897 9.54185 25.8897Z" fill="#4C4C4E"/>
<path d="M46.6638 43.6379C37.9485 45.5606 29.2332 47.4895 20.5115 49.4122C20.1133 50.7741 19.6958 52.0929 19.3298 53.424C18.1737 57.6946 17.4223 58.2924 12.933 57.898C11.0319 57.7316 9.06665 57.4666 7.29405 56.8257C-0.785415 53.9046 -1.33775 51.68 1.7065 44.1925C4.192 38.0855 5.58567 31.5655 7.49957 25.2428C8.51432 21.8965 9.60614 18.5688 10.6594 15.2349C12.5476 16.7077 14.4358 18.1867 16.3176 19.6657C14.6221 19.185 12.9201 18.7044 11.2118 18.2175C7.08853 28.7801 4.59661 40.2732 5.98387 42.1404C6.15727 41.0866 6.17012 39.9342 6.5362 38.8989C8.0519 34.6406 9.90157 30.4809 11.1475 26.161C11.6421 24.4478 11.9953 23.2831 13.9413 23.5543C16.5296 23.9117 15.9708 25.9576 15.6111 27.412C14.9496 30.0742 13.8899 32.644 13.0229 35.2569C12.0852 38.0916 11.1796 40.9387 10.1585 44.0693C10.8585 43.8166 11.2246 43.792 11.4109 43.6009C11.9118 43.0771 12.477 42.5471 12.7596 41.9124C14.7634 37.3521 16.5938 32.7241 18.6939 28.207C20.0619 25.2551 20.9033 22.5559 17.6728 20.2327C19.805 20.5839 21.9437 20.9352 24.076 21.2865C25.977 21.1077 27.8716 20.929 29.7727 20.7441C29.1882 23.622 28.6038 26.4999 28.0129 29.3717C28.9249 29.6367 29.9076 30.2529 30.7361 30.0989C33.973 29.5134 37.1714 28.6876 39.9587 28.0529C40.9542 30.9061 41.7442 33.1739 42.5341 35.4418C43.0801 36.6619 43.6195 37.8883 44.1654 39.1084C45.0004 40.6183 45.8289 42.1281 46.6638 43.6379Z" fill="#36527A"/>
<path d="M16.3176 19.6658C14.4294 18.1868 12.5412 16.714 10.6594 15.235C11.8604 11.2663 13.0614 7.29766 14.256 3.329C14.3523 3.24889 14.4294 3.15029 14.4744 3.0332C15.046 2.65729 15.6176 2.28137 16.1892 1.91162C18.7389 6.4534 23.331 7.13127 27.9937 7.67357C28.424 7.66741 28.8543 7.66741 29.2846 7.66125C29.458 7.4887 29.6314 7.31615 29.8048 7.1436C30.8517 6.51502 31.8921 5.88644 32.939 5.25787C33.2216 6.10213 33.5106 6.95256 33.7931 7.79683C33.6262 8.4254 33.4592 9.04781 33.2922 9.67639L33.1509 9.6086C32.2004 9.6086 31.2242 9.75034 30.3058 9.59012C27.6212 9.12176 26.5615 10.3543 26.1183 12.7268C25.5788 15.5986 24.7696 18.4272 24.076 21.2681C21.9437 20.9168 19.805 20.5656 17.6728 20.2143C17.2232 20.0417 16.7672 19.8569 16.3176 19.6658Z" fill="#C8B496"/>
<path d="M44.1718 39.1083C43.6259 37.8881 43.0864 36.6618 42.5405 35.4416C42.8295 32.3973 43.125 29.353 43.414 26.3088C47.2739 25.4891 51.1338 24.6634 54.9937 23.8438C55.4047 24.0348 55.8222 24.2258 56.2397 24.423C54.6533 27.72 55.2634 31.0416 56.3039 34.2954C56.5929 35.2013 57.5306 35.9161 58.1664 36.7172L58.1728 36.7234C58.3848 37.3273 58.5967 37.9374 58.8086 38.5413C59.2839 39.2131 59.7527 39.8848 60.228 40.5565C59.7592 40.7044 59.2839 40.8585 58.8151 41.0064C57.1195 40.0265 55.4176 39.0405 53.722 38.0607C54.1202 37.6293 54.5184 37.1979 54.9166 36.7727C51.3329 37.5554 47.7491 38.3318 44.1718 39.1083Z" fill="#B98D60"/>
<path d="M24.0759 21.2801C24.7696 18.4331 25.5788 15.6106 26.1183 12.7389C26.5614 10.3663 27.6211 9.13999 30.3057 9.60218C31.2241 9.76241 32.2003 9.62067 33.1509 9.62067C32.0205 13.3305 30.8966 17.0342 29.7662 20.744C27.878 20.9227 25.977 21.1014 24.0759 21.2801Z" fill="#B98D60"/>
<path d="M32.9391 5.26996C31.8922 5.89853 30.8518 6.52711 29.8113 7.15568C29.6379 7.32824 29.4645 7.50078 29.2847 7.67333C28.8544 7.6795 28.4241 7.6795 27.9938 7.68566C26.7928 7.10022 25.611 6.45932 24.3779 5.94167C22.1044 4.99264 18.9509 4.89404 20.0492 1.00549C18.5592 1.19653 17.4481 1.33211 16.3306 1.47385C16.8957 0.956195 17.5059 -0.0359699 18.0261 0.00100523C23.4916 0.413894 29.0792 0.648071 32.9391 5.26996Z" fill="#BCBCBC"/>
<path d="M44.1718 39.1085C47.7555 38.3321 51.3328 37.5494 54.9165 36.7729C54.5184 37.2043 54.1202 37.6357 53.722 38.0609C55.4175 39.0408 57.1195 40.0268 58.815 41.0066C54.7624 41.8817 50.7163 42.7567 46.6637 43.6318C45.8288 42.1282 45.0003 40.6184 44.1718 39.1085Z" fill="#A38660"/>
<path d="M60.228 40.5628C59.7527 39.8911 59.2839 39.2194 58.8086 38.5477C59.4573 37.9561 60.1059 37.3645 60.761 36.7729C60.5812 36.6065 60.4078 36.4339 60.228 36.2676C59.5408 36.4216 58.86 36.5757 58.1728 36.7359L58.1664 36.7297C56.9975 33.0569 55.546 29.3655 59.0334 26.0439C62.0327 29.7599 62.3538 34.0429 61.7437 38.4553C61.6345 39.2009 60.7546 39.8603 60.228 40.5628Z" fill="#9E9E9E"/>
<path d="M43.4138 26.3149C43.1248 29.3592 42.8294 32.4035 42.5404 35.4478C41.7504 33.18 40.9604 30.9122 39.965 28.0589C37.1712 28.6998 33.9792 29.5256 30.7423 30.1049C29.9138 30.2528 28.9312 29.6427 28.0192 29.3777C33.1507 28.3547 38.2823 27.3318 43.4138 26.3149Z" fill="#45454D"/>
<path d="M16.3305 1.47372C17.4416 1.33199 18.5591 1.19025 20.0491 1.00537C18.9509 4.89392 22.1043 4.99252 24.3779 5.94155C25.611 6.4592 26.7927 7.1001 27.9937 7.68554C23.331 7.13708 18.7389 6.4592 16.1892 1.91743C16.2021 1.7572 16.247 1.6093 16.3305 1.47372Z" fill="#9E9E9E"/>
<path d="M59.0269 26.0317C55.5395 29.3595 56.991 33.0508 58.1599 36.7175C57.5176 35.9164 56.5864 35.2015 56.2974 34.2956C55.2569 31.0418 54.6532 27.7202 56.2331 24.4233C56.5479 24.3124 56.869 24.2076 57.1837 24.0967C57.8002 24.7437 58.4168 25.3908 59.0269 26.0317Z" fill="#A38660"/>
<path d="M33.2924 9.68865C33.4593 9.06007 33.6263 8.43766 33.7933 7.80908C33.6327 8.43766 33.4658 9.06007 33.2924 9.68865Z" fill="#BCBCBC"/>
<path d="M57.1901 24.1028C56.8754 24.2075 56.5543 24.3185 56.2396 24.4294C55.8222 24.2383 55.4111 24.0473 54.9937 23.8501C55.7258 23.9302 56.458 24.0165 57.1901 24.1028Z" fill="#9E9E9E"/>
<path d="M14.4744 3.03906C14.4294 3.15615 14.3523 3.25475 14.256 3.33486C14.2624 3.33486 14.2432 3.11917 14.2432 3.11917L14.4744 3.03906Z" fill="#BCBCBC"/>
<path d="M16.3177 19.6655C16.7673 19.8565 17.2233 20.0414 17.6728 20.2324C20.9033 22.5557 20.062 25.261 18.694 28.2067C16.6003 32.7238 14.7635 37.3581 12.7597 41.9122C12.4835 42.5469 11.9119 43.0769 11.4109 43.6007C11.2247 43.7917 10.8586 43.8225 10.1586 44.069C11.1733 40.9385 12.0789 38.0914 13.023 35.2566C13.89 32.6437 14.9497 30.074 15.6112 27.4118C15.9709 25.9574 16.5296 23.9115 13.9414 23.554C11.9954 23.2829 11.6421 24.4476 11.1476 26.1608C9.90165 30.4807 8.05198 34.6404 6.53628 38.8987C6.1702 39.934 6.15093 41.0864 5.98395 42.1402C4.59669 40.2729 7.08861 28.7798 11.2118 18.2173C12.9202 18.7041 14.6157 19.1848 16.3177 19.6655Z" fill="#386597"/>
<path d="M29.2847 7.66707C29.4581 7.49452 29.6315 7.32196 29.8113 7.14941C29.6379 7.32196 29.4645 7.49452 29.2847 7.66707Z" fill="#9E9E9E"/>
<path d="M58.1727 36.7296C58.8599 36.5755 59.5407 36.4215 60.2279 36.2612C60.4077 36.4276 60.5812 36.6002 60.761 36.7666C60.1123 37.3582 59.4636 37.9498 58.8086 38.5414C58.5966 37.9436 58.3847 37.3397 58.1727 36.7296Z" fill="#A38660"/>
</svg>
