<svg width="77" height="66" viewBox="0 0 77 66" fill="none" xmlns="http://www.w3.org/2000/svg">
<g clip-path="url(#clip0_7_1272)">
<path d="M61.8948 11.8929C65.4037 13.477 62.3436 17.1458 62.6997 19.7337C62.9078 21.2496 62.5744 23.0099 62.2816 24.6305C62.0547 25.8839 61.7697 27.5623 61.0614 28.2339C59.0922 30.0803 59.7003 31.0379 61.0929 32.1826C63.8552 34.4479 64.3991 37.9117 62.6863 41.7058C61.6469 44.0075 60.5917 46.3148 59.6756 48.6739C58.8416 50.8097 59.1009 52.0203 61.0571 52.8885C63.1298 53.8126 64.8651 55.7582 66.5632 57.5268C66.8931 57.867 66.342 59.482 66.2061 60.5049C62.8222 59.4549 58.5909 60.2946 57.3526 54.5731C56.566 55.3007 56.112 55.8742 55.5762 56.1853C53.926 57.1179 51.974 59.6781 50.7664 56.4575C49.9584 54.3129 48.7315 51.536 52.3025 50.109C52.6601 49.9702 53.1944 48.3045 53.0006 47.8474C52.0834 45.6767 50.9383 43.6757 49.8782 41.6204C49.7562 41.255 49.6295 40.8793 49.5075 40.514C50.3363 38.9745 51.3224 37.5007 51.9366 35.8634C52.3086 34.8781 52.0961 33.6227 52.1507 32.487L52.0059 32.3684C52.3275 31.9875 52.6581 31.5994 52.9797 31.2185C53.7389 28.8219 54.4981 26.4254 55.2504 24.0272C54.8028 23.8177 54.3621 23.6098 53.9145 23.4003C52.3939 26.0262 50.8665 28.6504 49.346 31.2762C48.1802 30.5405 47.0213 29.8064 46.0685 29.2056C46.0598 27.3076 46.0497 25.7175 46.0464 24.1291C47.3287 23.7719 48.6041 23.413 49.8885 23.047C50.3842 22.2687 50.7788 21.2795 51.3966 20.7451C54.8578 17.723 58.3823 14.828 61.8948 11.8929Z" fill="#E0E6EB"/>
<path d="M49.8645 41.6171C50.9246 43.6725 52.0697 45.6734 52.9869 47.8441C53.1807 48.3013 52.6464 49.9669 52.2888 50.1058C48.711 51.5311 49.9426 54.3185 50.7527 56.4543C51.9603 59.6749 53.9123 57.1146 55.5625 56.1821C56.0962 55.8798 56.5523 55.2975 57.3389 54.5699C58.5772 60.2914 62.8154 59.4532 66.1924 60.5016C63.0685 61.5963 59.8477 63.6111 56.8308 63.5918C50.1924 63.5492 45.1086 59.7402 41.6933 52.8362C38.3153 45.9879 33.1301 41.697 27.4955 38.1115C28.229 36.1851 28.9694 34.2604 29.7029 32.3341C33.9757 35.492 38.2485 38.65 42.5145 41.8063C43.1233 42.5493 43.7253 43.2906 44.334 44.0335C44.5332 43.7728 44.7392 43.5138 44.9384 43.2531C44.4052 42.5562 43.8673 41.8489 43.334 41.152C39.2767 37.7559 35.2214 34.3509 31.1641 30.9549C32.0639 28.5732 32.9706 26.1932 33.8705 23.8115C35.965 25.5813 38.2382 27.0855 40.0982 29.1729C42.5614 31.9366 44.6997 35.1551 46.9726 38.1722C47.0542 38.4345 47.1001 38.7256 47.103 39.0158C46.9909 39.9697 46.8876 40.9163 46.7755 41.8702C46.6951 42.4487 46.6216 43.0289 46.5413 43.6075C46.2157 44.2769 45.8923 44.9376 45.5667 45.6071C45.7792 45.7138 45.9986 45.8221 46.2111 45.9289C46.4884 45.2199 46.7746 44.5036 47.0519 43.7946C47.5096 43.2968 47.9652 42.8077 48.4297 42.3115C48.9171 42.0822 49.3908 41.8497 49.8645 41.6171Z" fill="#C4CADD"/>
<path d="M9.91874 27.3344C6.78517 26.3534 6.21501 23.5744 7.3245 19.8605C8.22441 16.8438 9.11178 13.7587 10.4236 10.9804C11.576 8.53755 13.2467 6.97487 15.8707 7.31128C17.5141 7.52587 19.4446 6.05317 21.4506 5.26157C24.3509 6.4951 27.5545 7.84768 30.7559 9.2091C29.455 11.0655 28.3722 13.7304 26.8112 14.5908C24.3128 15.9654 23.462 18.0505 23.0175 20.821C22.1358 26.2703 21.2951 31.7293 20.4407 37.1851C16.3738 36.1869 13.1871 33.6149 10.8475 29.5172C11.5903 28.3682 12.6747 27.3288 13.0213 26.0573C14.2638 21.5439 15.256 16.9615 16.3437 12.402C16.1282 12.1264 15.9106 11.8597 15.6951 11.5841C14.7675 12.661 13.3751 13.571 12.9944 14.8344C11.7785 18.9338 10.9226 23.1564 9.91874 27.3344ZM15.5973 30.5849C16.9758 24.8059 18.3565 19.018 19.7351 13.239C15.1667 18.1824 15.3715 24.3671 15.5973 30.5849ZM22.9713 13.3666C19.1343 19.2036 16.9622 29.9112 18.5763 31.7905C19.9422 26.0645 21.3482 20.1706 22.9713 13.3666Z" fill="#ADADAF"/>
<path d="M61.8948 11.8927C58.3823 14.8278 54.8577 17.7227 51.3851 20.7328C50.7672 21.2672 50.3726 22.2564 49.8769 23.0347C45.4868 22.333 41.0968 21.6313 36.7 20.928C36.055 20.6994 35.4011 20.4781 34.7562 20.2495C35.0424 17.8709 35.3286 15.4923 35.6169 13.1048C43.0444 15.3716 50.5865 15.6765 58.4268 12.102C59.4939 11.6188 60.7294 11.9415 61.8948 11.8927Z" fill="#D3DFE9"/>
<path d="M34.7562 20.2494C35.4012 20.478 36.0551 20.6993 36.7021 20.9191C36.3726 21.3634 36.0498 21.8095 35.7203 22.2538C35.1067 22.7705 34.493 23.2873 33.8794 23.804C32.9796 26.1856 32.0729 28.5657 31.1752 30.9385C30.4387 30.9122 29.6975 30.8755 28.961 30.8492C29.212 31.3387 29.4609 31.837 29.7051 32.3249C28.9715 34.2512 28.2312 36.176 27.4976 38.1023C26.3401 38.0877 25.1737 38.0803 24.0141 38.0745C22.3701 31.5744 24.3879 25.4436 26.9526 19.3778C29.5508 19.6707 32.1491 19.9637 34.7562 20.2494Z" fill="#A4ABC6"/>
<path d="M26.9505 19.3867C24.3858 25.4525 22.3613 31.5817 24.012 38.0834C22.8201 37.7897 21.6351 37.4977 20.4432 37.204C21.2976 31.7482 22.1383 26.2892 23.0221 20.8311C23.4735 18.0623 24.3174 15.9755 26.8158 14.6009C28.3836 13.7421 29.4664 11.0772 30.7605 9.2192C32.0149 10.0975 33.2603 10.9829 34.5146 11.8612C30.4799 11.7859 28.7876 15.7063 26.9505 19.3867Z" fill="#CBCACA"/>
<path d="M26.9505 19.3867C28.7876 15.7063 30.4778 11.7948 34.5236 11.854C34.8843 12.2763 35.254 12.6913 35.6148 13.1136C35.3286 15.4922 35.0424 17.8708 34.7542 20.2583C32.1491 19.9637 29.5509 19.6708 26.9505 19.3867Z" fill="#BCBCBC"/>
<path d="M9.91867 27.3343C10.9136 23.1635 11.7695 18.9409 12.999 14.8447C13.3797 13.5813 14.7654 12.6697 15.6997 11.5945C15.9152 11.87 16.1328 12.1367 16.3483 12.4123C15.2606 16.9719 14.2685 21.5543 13.026 26.0676C12.6815 27.3303 11.5949 28.3786 10.8521 29.5275C10.5446 28.7911 10.2351 28.0635 9.91867 27.3343Z" fill="#BCBCBC"/>
<path d="M33.8794 23.8042C34.493 23.2875 35.1066 22.7708 35.7203 22.2541C39.1576 22.8686 42.5949 23.4831 46.0391 24.0992C46.0491 25.6893 46.0524 27.2778 46.0612 29.1757C47.0139 29.7766 48.1728 30.5107 49.3386 31.2464C49.2968 31.5726 49.2551 31.8989 49.2133 32.2251C48.4671 34.2045 47.7298 36.1767 46.9836 38.156C44.7039 35.1373 42.5724 31.9205 40.1093 29.1568C38.2471 27.0782 35.9671 25.5724 33.8794 23.8042Z" fill="#D3DFE9"/>
<path d="M46.9794 38.1738C47.7256 36.1944 48.4629 34.2222 49.2091 32.2429C50.1843 32.3261 51.1549 32.3989 52.1302 32.4821C52.0756 33.6178 52.2881 34.8732 51.9161 35.8585C51.2998 37.5047 50.3158 38.9697 49.4939 40.5107C48.7037 40.014 47.9068 39.5157 47.1167 39.019C47.1091 38.7184 47.0611 38.4361 46.9794 38.1738Z" fill="#868686"/>
<path d="M52.1302 32.4822C51.1549 32.3989 50.1776 32.3246 49.2091 32.243C49.2509 31.9167 49.2927 31.5905 49.3344 31.2642C50.855 28.6384 52.3824 26.0142 53.9029 23.3883C54.3505 23.5978 54.7913 23.8057 55.2389 24.0152C54.4797 26.4118 53.7205 28.8083 52.9682 31.2065C52.6466 31.5874 52.316 31.9755 51.9944 32.3564L52.1302 32.4822Z" fill="#ADADAF"/>
<path d="M46.0301 24.1064C42.5928 23.4919 39.1486 22.8758 35.7113 22.2613C36.0409 21.8169 36.3636 21.3709 36.6932 20.9265C41.0832 21.6282 45.4732 22.3298 49.8701 23.0332C48.5946 23.392 47.3124 23.7492 46.0301 24.1064Z" fill="#9E9E9E"/>
<path d="M47.1099 39.0171C47.9068 39.5154 48.6969 40.0121 49.487 40.5088C49.609 40.8741 49.7289 41.2482 49.8577 41.6151C49.384 41.8477 48.9102 42.0802 48.4386 42.304C47.8813 42.1617 47.3328 42.0121 46.7844 41.8626C46.8945 40.9176 47.0045 39.9726 47.1099 39.0171Z" fill="#9E9E9E"/>
<path d="M51.9855 32.3635C52.3071 31.9826 52.6377 31.5944 52.9593 31.2135C52.6377 31.5944 52.3161 31.9753 51.9855 32.3635Z" fill="#868686"/>
<path d="M29.703 32.3338C29.452 31.8444 29.2031 31.346 28.9589 30.8582C29.7022 30.8861 30.4366 30.9212 31.1731 30.9474C35.2283 34.3523 39.2788 37.7468 43.3341 41.1517C43.0593 41.3664 42.7893 41.5915 42.5146 41.8061C38.2418 38.6481 33.969 35.4902 29.703 32.3338Z" fill="#868686"/>
<path d="M42.5146 41.8061C42.7893 41.5914 43.0594 41.3663 43.3341 41.1517C43.8652 41.8574 44.4053 42.5559 44.9364 43.2617C44.7372 43.5224 44.5312 43.7814 44.332 44.0421C43.7274 43.2815 43.1234 42.549 42.5146 41.8061Z" fill="#9E9E9E"/>
<path d="M47.0656 43.7975C46.7883 44.5065 46.5021 45.2228 46.2248 45.9318C46.0123 45.825 45.7929 45.7167 45.5804 45.61C45.906 44.9405 46.2294 44.2798 46.555 43.6104C46.7303 43.6615 46.8966 43.7199 47.0656 43.7975Z" fill="#9E9E9E"/>
<path d="M47.0656 43.7977C46.8967 43.72 46.7235 43.66 46.5482 43.6089C46.6285 43.0303 46.702 42.4501 46.7823 41.8716C47.3308 42.0211 47.8813 42.1618 48.4366 42.3129C47.9878 42.8036 47.5233 43.2998 47.0656 43.7977Z" fill="#868686"/>
<path d="M15.5972 30.5845C15.3693 24.3755 15.1666 18.1819 19.735 13.2386C18.3564 19.0176 16.9779 24.7966 15.5972 30.5845Z" fill="#BCBCBC"/>
<path d="M22.9712 13.3665C21.346 20.1794 19.94 26.0733 18.5762 31.7905C16.9621 29.9112 19.1364 19.1947 22.9712 13.3665Z" fill="#BCBCBC"/>
</g>
<defs>
<clipPath id="clip0_7_1272">
<rect width="66.7198" height="51.8899" fill="white" transform="translate(12.0404) rotate(13.4171)"/>
</clipPath>
</defs>
</svg>
