<svg width="70" height="87" viewBox="0 0 70 87" fill="none" xmlns="http://www.w3.org/2000/svg">
<g clip-path="url(#clip0_7_1512)">
<path d="M9.99917 84.7392C6.27964 83.0817 6.62153 80.0713 6.41761 77.3257C5.90033 70.3836 5.51457 63.4336 5.12893 56.4879C4.57576 46.5926 4.06986 36.6917 3.53299 26.6269C1.2152 26.8402 0.542948 25.7983 0.639117 24.1642C0.720671 22.7588 0.47973 21.3159 0.826087 19.9579C1.02063 19.1959 2.17378 18.6055 2.81228 17.8901C3.46083 17.1576 4.2988 16.4154 4.54937 15.5842C5.71957 11.6756 6.77333 7.74913 7.74238 3.80815C8.13017 2.23767 8.98704 1.60489 11.0832 1.56689C25.709 1.30643 40.3367 0.927583 54.9613 0.624896C56.1673 0.599328 57.375 0.823067 58.5848 0.932635C59.8628 5.702 61.0937 10.4811 62.4712 15.2308C62.6463 15.8345 63.5813 16.2899 64.16 16.8145C64.5345 16.8293 64.9038 16.8443 65.2782 16.8548C65.452 19.2801 65.6627 21.7044 65.7627 24.1275C65.7771 24.4525 65.267 25.0501 64.9257 25.0936C62.5991 25.3663 62.9399 26.8021 62.8577 27.9963C62.194 37.9048 61.6146 47.8109 60.9034 57.7165C60.3636 65.2928 59.7077 72.8639 59.015 80.436C58.8093 82.6733 56.4136 84.2328 53.4165 84.2751C42.6242 84.4401 31.8264 84.601 21.0332 84.7365C17.3618 84.7851 13.6825 84.741 9.99917 84.7392ZM6.71555 58.3746C7.12864 64.9857 7.54185 71.601 7.94967 78.2123C7.92316 78.7667 7.81778 79.3276 7.88066 79.8752C8.12439 81.9773 9.93744 83.6717 12.0131 83.6554C15.39 83.6277 18.7698 83.5155 22.1506 83.437C32.6238 83.3529 43.0971 83.273 53.5693 83.155C54.1645 83.1467 54.7604 82.7876 55.3609 82.5931C56.2043 81.4831 57.529 80.4356 57.7907 79.2533C58.36 76.6465 58.4532 73.9728 58.6261 71.3222C59.1363 63.6284 59.5885 55.9363 60.0617 48.2436C60.0801 47.9599 60.093 47.6721 60.1114 47.3884C60.4347 42.5992 60.7582 37.8143 61.0815 33.0251C61.3001 30.1281 61.5186 27.2268 61.7326 24.3511C62.8295 24.1933 63.6482 24.0773 64.488 23.9606C64.4681 21.9452 64.4523 20.0775 64.4357 18.1846C63.4632 18.081 62.6229 17.9906 61.7825 17.9002C61.1055 15.5694 60.4572 13.3223 59.8089 11.0753C59.0267 8.00362 58.2444 4.93196 57.4747 1.92757C46.8352 2.0967 36.4907 2.25751 26.1514 2.41817C20.6912 2.56798 15.2309 2.71357 9.77079 2.86338C8.19894 8.22453 6.62709 13.5857 5.05524 18.9468C4.14171 19.0656 3.23333 19.18 2.30401 19.2992C2.32398 21.3146 2.33931 23.1653 2.35404 24.9949C3.26814 25.0833 4.01842 25.1551 4.93251 25.2434C5.11114 27.4657 5.28246 29.6163 5.45367 31.7627C5.45539 33.318 5.45699 34.869 5.46398 36.4242C5.46657 36.703 5.46403 36.9863 5.46663 37.2651C5.62221 38.1103 5.77252 38.9555 5.92797 39.7964C5.97696 41.3461 6.0311 42.8915 6.08008 44.4412C6.29023 49.0885 6.50552 53.7315 6.71555 58.3746Z" fill="#F7EBE4"/>
<path d="M9.99922 84.739C13.6826 84.7408 17.3619 84.7849 21.0439 84.7402C31.8372 84.609 42.6348 84.4438 53.4272 84.2788C56.4242 84.2323 58.82 82.677 59.0257 80.4397C59.7185 72.8718 60.369 65.2967 60.914 57.7202C61.6252 47.8146 62.2046 37.9043 62.8684 28C62.9506 26.8059 62.6044 25.366 64.9364 25.0973C65.2778 25.0581 65.7878 24.4562 65.7733 24.1312C65.6732 21.7039 65.4626 19.2796 65.2889 16.8586C65.9731 17.7648 67.0774 18.617 67.247 19.5843C67.5302 21.2204 67.2412 22.9275 67.1408 24.5998C67.1269 24.8538 66.9325 25.2481 66.6924 25.3309C62.8099 26.6746 64.1303 29.5831 63.9129 31.7785C63.1205 39.7381 62.7239 47.7202 62.2323 55.6967C61.791 62.8433 61.429 69.9961 61.0035 77.1423C60.91 78.6833 60.9178 80.268 60.4643 81.7516C59.8131 83.8831 57.4427 84.846 55.1005 84.9417C48.2844 85.2185 41.4491 85.1873 34.6221 85.2616C32.1936 85.2878 29.7685 85.2463 27.3397 85.2599C22.1816 85.2829 17.0245 85.3396 11.8706 85.3244C11.2381 85.3211 10.6214 84.9412 9.99922 84.739Z" fill="#A89D86"/>
<path d="M64.1706 16.8184C63.5867 16.2939 62.657 15.8383 62.4819 15.2347C61.1043 10.485 59.8735 5.70588 58.5955 0.936518C59.3543 2.43239 60.3278 3.87994 60.83 5.42954C62.0587 9.19864 63.0674 13.0162 64.1706 16.8184Z" fill="#A89D86"/>
<path d="M22.1559 83.4409C18.7751 83.5194 15.3953 83.6316 12.0184 83.6593C9.94275 83.6756 8.12959 81.977 7.88598 79.8791C7.8231 79.3314 7.92848 78.7706 7.95499 78.2162C8.14207 74.9481 8.46078 71.6763 8.474 68.409C8.48238 66.4646 8.01138 64.5253 7.75112 62.5843C10.4878 63.0227 12.0073 64.2139 12.1167 66.5945C12.16 67.5696 12.5632 68.9741 13.4126 69.3854C15.0048 70.1604 15.2107 71.1098 15.1878 72.353C15.1583 73.9218 15.865 75.2501 17.9616 75.4149C20.4174 75.6119 21.3729 76.7937 22.0151 78.4493C22.8906 80.7195 22.7282 80.9396 19.6423 81.0098C18.0256 81.0469 16.4031 81.0631 14.7861 81.0876C14.8026 81.2985 14.8138 81.5095 14.8304 81.7245C22.868 81.5992 30.9056 81.4739 38.9431 81.3486C38.9527 81.1286 38.9623 80.9085 38.9718 80.6843C37.1523 80.6299 35.3381 80.5754 33.45 80.5146C35.555 76.3091 37.4492 72.2871 37.3501 67.8395C37.3113 66.0908 37.9414 64.3318 38.2712 62.5728C38.5405 62.0326 38.8098 61.4925 38.8347 61.4411C40.6355 60.6464 41.9835 60.0505 43.3314 59.4546C43.8652 59.1353 44.6069 58.903 44.8847 58.4768C45.9004 56.9393 46.8096 55.3583 47.6602 53.7579C49.8367 49.656 47.7285 46.6514 42.2608 45.973C42.307 45.5575 42.3533 45.142 42.4047 44.7222C42.5068 44.4192 42.6089 44.1163 42.7057 43.8135C42.8468 43.3953 42.9877 42.9729 43.1287 42.5547C43.6396 43.1067 44.0041 43.8867 44.6915 44.1589C45.6402 44.5379 47.2017 44.9757 47.8557 44.6233C50.8606 42.9875 53.739 41.1692 56.4615 39.237C57.8976 38.216 58.9226 36.8177 60.1367 35.5874C60.0243 36.8331 59.8118 38.0775 59.8257 39.3196C59.8595 42.0109 60.0092 44.7031 60.1114 47.3925C60.0931 47.6761 60.0801 47.9639 60.0618 48.2476C59.7841 48.864 59.306 49.4734 59.2499 50.1005C58.7104 56.3793 58.2868 62.659 57.7209 68.9342C57.6046 70.2308 57.0398 71.502 56.7072 72.7877C56.2418 74.5971 55.0953 76.544 55.5577 78.1792C56.0495 79.9193 55.959 81.194 54.7594 82.5676C47.4295 82.5631 40.0972 82.4699 32.7711 82.6005C29.2318 82.6623 25.6939 83.1467 22.1559 83.4409Z" fill="#AF3734"/>
<path d="M38.2659 62.569C37.9413 64.3237 37.3113 66.0869 37.3448 67.8357C37.4386 72.2835 35.5497 76.3054 33.4447 80.5108C35.3327 80.5675 37.1469 80.6219 38.9665 80.6805C38.9569 80.9005 38.9473 81.1206 38.9378 81.3449C30.9003 81.4702 22.8627 81.5955 14.8251 81.7208C14.8086 81.5099 14.7974 81.2989 14.7808 81.0839C16.3978 81.0594 18.0203 81.0432 19.637 81.006C22.7229 80.9359 22.8854 80.72 22.0098 78.4455C21.3676 76.79 20.4174 75.608 17.9563 75.4112C15.865 75.2462 15.153 73.9181 15.1825 72.3492C15.2054 71.106 15.0047 70.1565 13.4073 69.3817C12.5579 68.9703 12.1601 67.5699 12.1114 66.5908C12.0021 64.2102 10.4771 63.0149 7.74583 62.5805C7.73265 61.7398 7.72486 60.9032 7.71168 60.0625C9.45982 59.2694 9.05549 58.1988 8.53128 56.9879C8.23269 56.3032 8.36262 55.4923 8.35183 54.7361C8.32806 52.3996 8.35696 50.0616 8.28055 47.7265C8.27566 47.5534 7.63357 47.394 7.44666 47.3063C7.00438 46.3847 6.53423 45.409 6.06419 44.4375C6.01521 42.8878 5.96107 41.3425 5.91208 39.7928C7.28978 38.7565 6.69838 37.9659 5.45073 37.2615C5.44814 36.9826 5.45069 36.6994 5.44809 36.4205C5.79278 35.9374 6.33839 35.4783 6.4556 34.9636C6.96925 32.6246 7.36646 30.2677 7.80078 27.9182C8.05865 27.9067 8.32192 27.8993 8.57979 27.8878C8.61461 31.7371 8.64417 35.5865 8.68301 39.7653C9.4817 39.3117 9.66456 39.2558 9.75121 39.1519C9.8886 38.979 10.041 38.7761 10.046 38.5815C10.147 36.3725 11.7214 35.7702 14.236 35.8091C15.3747 35.8277 16.5347 35.2921 17.6859 35.006C21.2807 34.11 24.8018 34.1502 28.3056 35.2601C28.0858 36.0608 27.9231 36.6444 27.7992 37.1086C28.8736 37.6489 29.7716 38.1011 30.6644 38.5535C30.3073 38.7834 29.9502 39.0132 29.5931 39.243C28.7048 39.695 27.8216 40.1425 26.9333 40.5945C26.3268 41.3258 25.7205 42.0614 25.1141 42.7928C24.9639 42.8858 24.8937 43.0103 24.9085 43.1621C23.6685 44.41 24.6631 44.9229 25.9865 45.3251C26.3379 45.6407 26.6892 45.952 27.0459 46.2673C24.3271 46.8343 21.6136 47.4053 18.8948 47.9723C19.1366 48.1388 19.3838 48.3093 19.6256 48.4758C19.5848 49.2715 19.5283 50.0676 19.5139 50.8668C19.4967 51.9366 19.2128 53.0815 19.588 54.0514C20.0941 55.3685 21.1284 56.5438 21.9224 57.7893C24.1498 61.2851 26.9963 62.067 31.7785 60.4867C32.6705 60.3516 33.5573 60.2209 34.4493 60.0859C35.7268 60.9163 36.999 61.7426 38.2659 62.569ZM29.4821 80.6987C29.5551 80.4853 29.6229 80.2721 29.6959 80.0587C28.8889 79.8448 28.0907 79.5673 27.2608 79.4765C27.1023 79.4599 26.8059 80.1614 26.4378 80.7466C27.7177 80.7274 28.6025 80.7108 29.4821 80.6987ZM35.8396 66.0355C35.8326 65.9723 35.8309 65.9132 35.8239 65.85C35.709 65.887 35.5888 65.9242 35.474 65.9613C35.5228 66.0106 35.5619 66.0898 35.6202 66.1008C35.6837 66.1117 35.7665 66.0587 35.8396 66.0355Z" fill="#B33A38"/>
<path d="M26.1513 2.41803C36.4906 2.25737 46.8352 2.09656 57.4853 1.93136C58.2498 4.93589 59.032 8.00755 59.8195 11.0791C59.9488 12.3011 59.9208 13.5486 60.2337 14.7401C61.0426 17.8237 60.7168 18.2302 56.9298 18.2905C41.2655 18.5338 25.6012 18.7813 9.93653 19.0119C8.30899 19.0366 6.6842 18.9726 5.06061 18.9508C6.63246 13.5896 8.20431 8.22847 9.77617 2.86731C10.2443 3.02316 10.7059 3.32289 11.1747 3.31812C15.6792 3.28825 20.1882 3.22867 24.6954 3.10997C25.1798 3.09631 25.6628 2.66004 26.1513 2.41803ZM33.5444 7.27692C33.5445 7.28114 33.5446 7.28537 33.5446 7.28537C29.8629 7.34274 26.1811 7.39589 22.4995 7.45749C14.5572 7.59702 14.5888 7.59613 15.1432 13.9877C15.2535 15.2821 15.8568 15.9329 17.5212 15.907C28.2132 15.7322 38.9111 15.5825 49.6015 15.3528C50.244 15.3389 51.3649 14.7283 51.4324 14.3164C51.7188 12.5163 51.7673 10.6849 51.7634 8.86769C51.7617 7.49839 50.8454 6.9579 49.0606 7.01248C43.8903 7.16256 38.7166 7.1944 33.5444 7.27692Z" fill="#A73836"/>
<path d="M5.05515 18.9467C6.67874 18.9685 8.30879 19.0324 9.93107 19.0078C25.5958 18.7772 41.26 18.5297 56.9243 18.2864C60.7166 18.2259 61.0371 17.8196 60.2282 14.736C59.9154 13.5488 59.9434 12.297 59.814 11.075C60.4623 13.322 61.1159 15.5689 61.7876 17.8999C62.6228 17.9904 63.4684 18.0807 64.4409 18.1843C64.4574 20.0772 64.4732 21.9448 64.4932 23.9603C63.6535 24.0812 62.8347 24.1972 61.7378 24.3508C61.5238 27.2265 61.3053 30.1278 61.0867 33.0248C60.9494 33.016 60.8123 33.0114 60.6753 33.011C60.7219 31.1163 60.5943 29.2053 60.8628 27.3297C61.2555 24.6264 60.8933 24.1168 57.5971 24.2013C47.7138 24.4632 37.8265 24.7717 27.944 25.059C21.3827 25.0285 14.817 25.0278 8.25983 24.955C6.44657 24.9343 5.75616 25.4905 5.78685 26.952C5.82147 28.5528 5.58218 30.1571 5.46399 31.758C5.29267 29.6074 5.12146 27.461 4.94284 25.2387C4.02874 25.1504 3.27319 25.0787 2.36436 24.9903C2.34963 23.1607 2.33431 21.3099 2.31433 19.2945C3.23324 19.1798 4.14163 19.0654 5.05515 18.9467Z" fill="#8A282F"/>
<path d="M5.45894 31.7625C5.57713 30.1616 5.8163 28.5531 5.7818 26.9564C5.7511 25.495 6.44678 24.9386 8.25477 24.9594C14.8172 25.0321 21.3777 25.033 27.9389 25.0635C30.1976 29.2938 33.1716 33.1024 38.093 35.7065C37.1576 36.5443 36.546 37.0941 35.9343 37.6397C35.8153 37.7149 35.6962 37.7901 35.5719 37.8654C35.6909 37.7902 35.8153 37.7149 35.9343 37.6397C35.8892 37.9072 35.8613 38.4109 35.8033 38.4126C34.093 38.4904 32.3812 38.5176 30.6698 38.5574C29.7717 38.1051 28.879 37.6527 27.8046 37.1125C27.9338 36.6482 28.0911 36.0605 28.311 35.2639C24.8176 34.1495 21.2965 34.1094 17.7017 35.0054C16.5505 35.2914 15.3905 35.8271 14.2518 35.8085C11.7372 35.7695 10.1629 36.3761 10.0618 38.5809C10.0515 38.7756 9.90438 38.9784 9.76698 39.1513C9.68045 39.2594 9.4976 39.3153 8.69879 39.7647C8.66509 35.5815 8.63027 31.7322 8.59556 27.8872C8.33769 27.8987 8.07443 27.9061 7.81655 27.9176C7.37698 30.2672 6.98502 32.6239 6.47137 34.9629C6.35942 35.4775 5.81382 35.9366 5.46386 36.4199C5.46226 34.8688 5.46066 33.3178 5.45894 31.7625Z" fill="#AF3734"/>
<path d="M54.7594 82.5676C55.9591 81.1982 56.0494 79.9193 55.5577 78.1792C55.0953 76.5439 56.247 74.5927 56.7072 72.7877C57.0345 71.5021 57.6045 70.2265 57.7208 68.9342C58.2868 62.6589 58.7102 56.375 59.2499 50.1005C59.3059 49.4734 59.7788 48.8641 60.0618 48.2476C59.5885 55.9403 59.1364 63.6366 58.6262 71.3262C58.4533 73.9768 58.3601 76.6505 57.7907 79.2573C57.5291 80.4439 56.2044 81.4914 55.3609 82.5971C55.1604 82.5859 54.9599 82.5788 54.7594 82.5676Z" fill="#A73836"/>
<path d="M6.08013 44.4455C6.55017 45.417 7.01494 46.3887 7.4626 47.3143C7.64424 47.4022 8.29148 47.5572 8.29649 47.7346C8.36763 50.0697 8.34401 52.4076 8.36777 54.7441C8.3733 55.5005 8.24874 56.3155 8.54722 56.996C9.07143 58.2068 9.47576 59.2774 7.72762 60.0706C7.39562 59.5094 7.05824 58.9441 6.72624 58.3829C6.50545 53.7316 6.29016 49.0887 6.08013 44.4455Z" fill="#AF3734"/>
<path d="M6.71552 58.3743C7.04751 58.9355 7.37963 59.5009 7.71689 60.062C7.73007 60.9026 7.73786 61.7392 7.75104 62.5799C8.00604 64.5211 8.48229 66.4603 8.47391 68.4047C8.4607 71.672 8.14199 74.9438 7.95491 78.2119C7.54182 71.6007 7.12873 64.9896 6.71552 58.3743Z" fill="#A73836"/>
<path d="M54.7594 82.568C54.96 82.5792 55.1604 82.5863 55.361 82.5975C54.7657 82.7918 54.17 83.1552 53.5694 83.1594C43.0972 83.2774 32.6238 83.3573 22.1506 83.4414C25.6887 83.1472 29.2266 82.6628 32.7659 82.601C40.0972 82.4702 47.4297 82.5677 54.7594 82.568Z" fill="#8A282F"/>
<path d="M26.1514 2.41794C25.6629 2.65995 25.1851 3.09607 24.6902 3.11003C20.1829 3.22873 15.6793 3.28816 11.1695 3.31818C10.7007 3.32295 10.239 3.02322 9.77092 2.86737C15.2309 2.71334 20.6912 2.56775 26.1514 2.41794Z" fill="#A83430"/>
<path d="M60.67 33.0111C60.807 33.0115 60.9442 33.016 61.0814 33.0249C60.7581 37.814 60.4346 42.599 60.1113 47.3882C60.0091 44.6988 59.8594 42.0066 59.8256 39.3154C59.8116 38.0732 60.0242 36.8289 60.1366 35.5831C60.3179 34.7243 60.494 33.8698 60.67 33.0111Z" fill="#A73836"/>
<path d="M5.46654 37.2651C6.71418 37.9696 7.30031 38.7603 5.92788 39.7964C5.77242 38.9555 5.62211 38.1103 5.46654 37.2651Z" fill="#AF3734"/>
<path d="M60.6701 33.0113C60.494 33.87 60.3179 34.7245 60.1419 35.5832C58.9278 36.8135 57.9027 38.2076 56.4667 39.2328C53.7444 41.1692 50.8657 42.9833 47.8609 44.6191C47.207 44.9757 45.6453 44.5337 44.6967 44.1547C44.0093 43.8825 43.6447 43.1024 43.1339 42.5505C43.1714 42.0127 43.209 41.4791 43.2586 40.81C42.3528 41.013 41.6564 41.1721 40.803 41.3653C40.1171 39.2799 38.2517 39.0916 36.0887 39.1906C33.9311 39.2896 31.769 39.2322 29.6036 39.2426C29.9607 39.0127 30.3178 38.7829 30.6749 38.553C32.3864 38.5174 34.0981 38.486 35.8085 38.4082C35.8664 38.4066 35.8996 37.9027 35.9395 37.6353C36.5511 37.0898 37.1574 36.5401 38.0981 35.7021C33.1768 33.098 30.2028 29.2894 27.944 25.0591C37.8265 24.7676 47.7138 24.4633 57.5971 24.2014C60.8933 24.1127 61.2502 24.6225 60.8628 27.3298C60.589 29.2056 60.722 31.1164 60.6701 33.0113Z" fill="#A83430"/>
<path d="M38.2658 62.5689C36.9989 61.7424 35.7266 60.9119 34.4597 60.0855C31.9379 57.9208 31.9431 57.9207 34.5644 55.7631C34.8012 55.5663 34.9949 55.3326 35.2101 55.1152C35.3744 54.9626 35.544 54.8099 35.7083 54.6574C35.8835 54.5172 36.0587 54.377 36.2285 54.2327C36.4196 54.0963 36.6055 53.9601 36.7967 53.8279C36.9827 53.6958 37.1739 53.5636 37.3599 53.4316C37.7876 53.4618 38.5835 53.4689 38.5903 53.5237C38.7251 55.3161 39.9705 55.0063 41.2191 54.6245C40.5525 52.847 39.9255 51.1699 39.2986 49.4928C39.506 49.3729 39.7081 49.2531 39.9155 49.1331C40.1077 49.0347 40.3053 48.9404 40.4975 48.842C41.3969 48.4109 42.2626 47.9046 43.2177 47.5776C43.7552 47.3934 44.6324 47.2926 45.0341 47.5221C46.764 48.513 47.8001 51.9917 46.8809 53.5899C45.7509 55.5617 44.5144 57.4942 43.3258 59.4423C41.9778 60.0382 40.6299 60.6341 38.8291 61.4288C38.8044 61.4886 38.5351 62.0288 38.2658 62.5689Z" fill="#F3F5EA"/>
<path d="M29.6037 39.247C31.7639 39.2367 33.9312 39.2939 36.0889 39.195C38.2518 39.096 40.1172 39.2842 40.8031 41.3696C41.6566 41.1765 42.353 41.0216 43.2588 40.8143C43.2092 41.4835 43.1716 42.0213 43.134 42.5549C42.9931 42.9773 42.8521 43.3954 42.7111 43.8136C42.609 44.1166 42.5068 44.4195 42.41 44.7223C42.3638 45.1378 42.3175 45.5533 42.2661 45.9732C41.7115 47.6075 40.4974 47.9038 38.6102 47.3189C37.1006 46.8543 35.4812 46.6084 33.9172 46.2679C33.7524 46.2176 33.5876 46.1673 33.4281 46.1168C33.8431 45.5092 34.2527 44.9017 34.7335 44.1993C34.4064 43.8112 34.0086 43.3449 33.4252 42.6513C32.5084 43.962 31.7537 45.0399 30.9989 46.1178C30.9077 46.2471 30.8165 46.3765 30.7252 46.5016C29.4947 46.4053 28.2641 46.3048 27.0336 46.2085L27.0669 46.2667C26.7155 45.9512 26.3642 45.6399 26.0075 45.3245C25.6499 44.6035 25.2871 43.8825 24.9295 43.1614C24.9147 43.0097 24.9851 42.8894 25.1351 42.7922C25.7416 42.0608 26.3479 41.3252 26.9543 40.5938C27.8322 40.1464 28.7205 39.6945 29.6037 39.247Z" fill="#F3F5EA"/>
<path d="M33.9119 46.2679C35.4812 46.6082 37.1006 46.8541 38.6102 47.3187C40.4974 47.9037 41.7062 47.6075 42.2661 45.973C47.7338 46.6514 49.842 49.656 47.6656 53.7579C46.8149 55.3583 45.9057 56.9393 44.89 58.4768C44.6122 58.903 43.8651 59.1312 43.3367 59.4546C44.5254 57.5065 45.7671 55.5738 46.8918 53.6022C47.8058 52.0042 46.7696 48.5213 45.045 47.5345C44.6486 47.3047 43.7662 47.4057 43.2286 47.5899C42.2735 47.917 41.4078 48.4232 40.5084 48.8543C40.421 48.7469 40.3234 48.6482 40.2102 48.5584C39.3538 48.274 38.4876 48.0153 37.6463 47.7052C36.3895 47.2377 35.1532 46.7485 33.9119 46.2679Z" fill="#A73836"/>
<path d="M42.4047 44.7222C42.5069 44.4192 42.609 44.1163 42.7058 43.8135C42.6037 44.1164 42.5069 44.4192 42.4047 44.7222Z" fill="#A83430"/>
<path d="M31.789 60.4904C27.0068 62.0707 24.1604 61.2888 21.9329 57.793C21.139 56.5475 20.1099 55.372 19.5985 54.0551C19.2234 53.0852 19.5071 51.936 19.5245 50.8705C19.5389 50.0755 19.6006 49.275 19.6362 48.4794C19.3943 48.313 19.1471 48.1424 18.9053 47.976C21.6242 47.409 24.3376 46.838 27.0564 46.271L27.0232 46.2128C27.7359 48.1284 28.4486 50.044 29.1666 51.9594L29.1228 52.0874C29.0937 52.363 29.0699 52.6426 29.0408 52.9181C28.2381 52.6703 27.4407 52.4223 26.6381 52.1744C26.9659 50.9057 24.4452 49.7173 26.5422 48.4029C25.9312 48.0398 25.241 47.2943 24.7268 47.3722C21.3213 47.8825 19.1709 51.7849 20.921 54.2376C22.1719 55.9901 23.383 57.8282 25.0783 59.2723C25.9854 60.0455 27.9013 60.3422 29.3328 60.2807C29.8854 60.2567 30.4412 58.6645 30.8155 57.7369C30.9831 57.3264 30.7102 56.8058 30.6393 56.3471C24.6523 56.4991 24.3201 56.3056 23.8538 52.291C24.6333 52.2775 25.3866 52.2689 26.1398 52.2561C25.759 53.1417 25.3784 54.0315 25.0322 54.8359C27.3992 55.0607 29.5919 55.2693 31.7846 55.478C31.7895 57.1473 31.7892 58.8167 31.789 60.4904Z" fill="#F7EBE4"/>
<path d="M31.7891 60.4903C31.7894 58.8209 31.7896 57.1472 31.7952 55.4776C32.8705 55.3036 33.9458 55.1296 35.0211 54.9555C35.086 55.0129 35.1507 55.066 35.2156 55.1233C35.0004 55.3407 34.812 55.5743 34.5698 55.7671C31.9431 57.9206 31.9431 57.9206 34.4651 60.0894C33.5678 60.2204 32.6758 60.3554 31.7891 60.4903Z" fill="#A73836"/>
<path d="M29.4821 80.6985C28.6024 80.7107 27.7229 80.727 26.4377 80.7464C26.8058 80.1612 27.1022 79.4597 27.2608 79.4764C28.0907 79.5713 28.8889 79.8446 29.6959 80.0585C29.6228 80.2719 29.5551 80.4851 29.4821 80.6985Z" fill="#AF3734"/>
<path d="M24.9242 43.1615C25.2818 43.8826 25.6447 44.6035 26.0023 45.3246C24.6788 44.9224 23.6843 44.4094 24.9242 43.1615Z" fill="#F7EBE4"/>
<path d="M26.9437 40.5938C26.3373 41.3251 25.731 42.0607 25.1246 42.7921C25.731 42.0607 26.3374 41.3293 26.9437 40.5938Z" fill="#F7EBE4"/>
<path d="M35.8396 66.0353C35.7665 66.0584 35.6837 66.1115 35.6147 66.0965C35.5565 66.0855 35.5173 66.0063 35.4685 65.957C35.5834 65.9199 35.7036 65.8827 35.8184 65.8457C35.8309 65.9129 35.8325 65.9721 35.8396 66.0353Z" fill="#AF3734"/>
<path d="M33.5444 7.27726C38.7166 7.19474 43.8903 7.1629 49.0605 7.00859C50.8453 6.95401 51.7616 7.4945 51.7633 8.86381C51.7672 10.681 51.7187 12.5124 51.4323 14.3125C51.3648 14.7244 50.2491 15.3349 49.6014 15.3489C38.9057 15.5788 28.213 15.7283 17.5211 15.9031C15.8567 15.929 15.2535 15.2824 15.1431 13.9838C14.5887 7.59224 14.5571 7.59313 22.4994 7.4536C26.1809 7.38778 29.8628 7.33885 33.5445 7.28148L33.5444 7.27726Z" fill="#424748"/>
<path d="M35.9449 37.6396C35.8258 37.7148 35.7015 37.7901 35.5824 37.8653C35.7015 37.7901 35.8205 37.7149 35.9449 37.6396Z" fill="#A83430"/>
<path d="M39.2986 49.4926C39.9255 51.1697 40.5525 52.8468 41.2191 54.6242C39.9706 55.0102 38.7252 55.32 38.5902 53.5234C38.5834 53.4687 37.7875 53.4615 37.3599 53.4313C37.279 53.366 37.1982 53.3049 37.1121 53.2397C37.5034 52.3538 37.8521 51.4522 38.2965 50.5817C38.5112 50.1614 38.8856 49.7958 39.1906 49.4026C39.1909 49.4111 39.2986 49.4926 39.2986 49.4926Z" fill="#A73836"/>
<path d="M36.2288 54.2409C36.0536 54.3811 35.8784 54.5213 35.7086 54.6656C35.7086 54.6656 35.5469 54.5391 35.5416 54.5392C35.7167 54.3948 35.8865 54.2506 36.0616 54.1062L36.2288 54.2409Z" fill="#A73836"/>
<path d="M35.7084 54.6617C35.5441 54.8142 35.3745 54.9669 35.2102 55.1195C35.1455 55.0664 35.0806 55.009 35.0158 54.9517C35.191 54.8115 35.3663 54.6756 35.5415 54.5354C35.5468 54.5352 35.7084 54.6617 35.7084 54.6617Z" fill="#A73836"/>
<path d="M40.5028 48.8462C40.3107 48.9446 40.1131 49.039 39.9209 49.1374C39.8509 49.0844 39.7862 49.0313 39.7163 48.9825C39.8808 48.8384 40.0455 48.6985 40.2101 48.5544C40.3126 48.6403 40.4155 48.7388 40.5028 48.8462Z" fill="#A73836"/>
<path d="M37.3601 53.4358C37.1741 53.5678 36.9829 53.7 36.7969 53.8321C36.7269 53.7791 36.6569 53.7261 36.5869 53.6731C36.762 53.5287 36.9372 53.3885 37.1123 53.2441C37.1984 53.3093 37.2792 53.3704 37.3601 53.4358Z" fill="#A73836"/>
<path d="M39.9157 49.1374C39.7083 49.2573 39.5061 49.3771 39.2987 49.4971L39.1909 49.4114C39.366 49.267 39.5411 49.1226 39.7109 48.9783C39.7809 49.0313 39.8509 49.0842 39.9157 49.1374Z" fill="#A73836"/>
<path d="M36.7969 53.8322C36.6058 53.9686 36.4199 54.1048 36.2287 54.237L36.0615 54.1023C36.2366 53.9579 36.4118 53.8177 36.5869 53.6733C36.6623 53.7303 36.7269 53.7792 36.7969 53.8322Z" fill="#A73836"/>
<path d="M36.5922 53.6773C36.4171 53.8217 36.2419 53.9619 36.0668 54.1063C35.8917 54.2508 35.7219 54.395 35.5468 54.5394C35.3716 54.6796 35.1963 54.8156 35.0211 54.9558C33.9458 55.1298 32.8705 55.3038 31.7951 55.4779C29.6025 55.2692 27.4098 55.0606 25.0427 54.8358C25.3889 54.0314 25.7695 53.1416 26.1503 52.256C26.3185 52.2428 26.4864 52.2169 26.6486 52.1743C27.4513 52.4222 28.2487 52.6702 29.0513 52.918C29.0804 52.6425 29.1042 52.3628 29.1333 52.0873C29.1333 52.0873 29.1771 51.9593 29.177 51.9551C29.5519 50.1145 27.8722 47.9176 30.7252 46.5016C30.8164 46.3722 30.9076 46.2429 30.9989 46.1177C31.8104 46.1202 32.6219 46.1184 33.4334 46.1209C33.5982 46.1712 33.763 46.2215 33.9225 46.2719C35.1638 46.7525 36.4001 47.2417 37.6515 47.7051C38.4928 48.0153 39.359 48.274 40.2154 48.5584C40.0509 48.7025 39.8862 48.8424 39.7216 48.9865C39.5465 49.1309 39.3715 49.2753 39.2016 49.4196C38.8964 49.8086 38.5222 50.1784 38.3075 50.5986C37.8683 51.469 37.5144 52.3707 37.1231 53.2566C36.9424 53.3885 36.7673 53.5329 36.5922 53.6773Z" fill="#B33A38"/>
<path d="M33.4229 46.1166C32.6113 46.1142 31.7999 46.1159 30.9883 46.1134C31.7431 45.0356 32.4978 43.9577 33.4146 42.647C33.998 43.3406 34.3958 43.8069 34.7229 44.195C34.2475 44.9015 33.8326 45.5091 33.4229 46.1166Z" fill="#A73836"/>
<path d="M30.7147 46.5019C27.8616 47.9138 29.5413 50.1106 29.1665 51.9554C28.4538 50.0398 27.7358 48.1244 27.0231 46.2088C28.2589 46.305 29.4893 46.4013 30.7147 46.5019Z" fill="#A73836"/>
<path d="M26.6433 52.1703C26.4811 52.2129 26.3185 52.2386 26.145 52.252C25.3918 52.2648 24.6387 52.2776 23.8591 52.2869C24.3202 56.3058 24.6523 56.4951 30.6446 56.343C30.7155 56.8017 30.9883 57.3223 30.8208 57.7327C30.4411 58.6563 29.8854 60.2527 29.3381 60.2766C27.9065 60.3381 25.9906 60.0413 25.0835 59.2681C23.3882 57.8241 22.1771 55.9859 20.9262 54.2335C19.1761 51.7808 21.3266 47.8783 24.732 47.3681C25.2462 47.2902 25.9365 48.0357 26.5474 48.3988C24.4504 49.7132 26.9712 50.9058 26.6433 52.1703Z" fill="#EAF8F7"/>
<path d="M29.1279 52.083C29.0988 52.3585 29.0751 52.6382 29.046 52.9137C29.0698 52.6383 29.0988 52.3585 29.1279 52.083Z" fill="#A73836"/>
</g>
<defs>
<clipPath id="clip0_7_1512">
<rect width="84.6" height="66.8" fill="white" transform="translate(66.7734) rotate(88.3841)"/>
</clipPath>
</defs>
</svg>
